  0
SECTION
  2
HEADER
  9
$ACADVER
  1
AC1015
  9
$ACADMAINTVER
 70
     6
  9
$DWGCODEPAGE
  3
ANSI_1252
  9
$INSBASE
 10
0.0
 20
0.0
 30
0.0
  9
$EXTMIN
 10
0.0
 20
0.0
 30
0.0
  9
$EXTMAX
 10
1189.0
 20
841.0
 30
0.0
  9
$LIMMIN
 10
0.0
 20
0.0
  9
$LIMMAX
 10
1189.0
 20
841.0
  9
$ORTHOMODE
 70
     0
  9
$REGENMODE
 70
     1
  9
$FILLMODE
 70
     1
  9
$QTEXTMODE
 70
     0
  9
$MIRRTEXT
 70
     1
  9
$LTSCALE
 40
1.0
  9
$ATTMODE
 70
     1
  9
$TEXTSIZE
 40
3.5
  9
$TRACEWID
 40
1.0
  9
$TEXTSTYLE
  7
Standard
  9
$CLAYER
  8
0
  9
$CELTYPE
  6
ByLayer
  9
$CECOLOR
 62
   256
  9
$CELTSCALE
 40
1.0
  9
$DISPSILH
 70
     0
  9
$DIMSCALE
 40
1.0
  9
$DIMASZ
 40
3.302
  9
$DIMEXO
 40
1.0
  9
$DIMDLI
 40
3.75
  9
$DIMRND
 40
0.0
  9
$DIMDLE
 40
0.0
  9
$DIMEXE
 40
1.0
  9
$DIMTP
 40
0.0
  9
$DIMTM
 40
0.0
  9
$DIMTXT
 40
3.5
  9
$DIMCEN
 40
2.5
  9
$DIMTSZ
 40
0.0
  9
$DIMTOL
 70
     0
  9
$DIMLIM
 70
     0
  9
$DIMTIH
 70
     1
  9
$DIMTOH
 70
     1
  9
$DIMSE1
 70
     0
  9
$DIMSE2
 70
     0
  9
$DIMTAD
 70
     1
  9
$DIMZIN
 70
     1
  9
$DIMBLK
  1

  9
$DIMASO
 70
     1
  9
$DIMSHO
 70
     1
  9
$DIMPOST
  1

  9
$DIMAPOST
  1

  9
$DIMALT
 70
     0
  9
$DIMALTD
 70
     3
  9
$DIMALTF
 40
0.0393700787
  9
$DIMLFAC
 40
1.0
  9
$DIMTOFL
 70
     1
  9
$DIMTVP
 40
0.0
  9
$DIMTIX
 70
     0
  9
$DIMSOXD
 70
     0
  9
$DIMSAH
 70
     0
  9
$DIMBLK1
  1

  9
$DIMBLK2
  1

  9
$DIMSTYLE
  2
ISO-25
  9
$DIMCLRD
 70
     0
  9
$DIMCLRE
 70
     0
  9
$DIMCLRT
 70
     0
  9
$DIMTFAC
 40
1.0
  9
$DIMGAP
 40
1.524
  9
$DIMJUST
 70
     0
  9
$DIMSD1
 70
     0
  9
$DIMSD2
 70
     0
  9
$DIMTOLJ
 70
     0
  9
$DIMTZIN
 70
     1
  9
$DIMALTZ
 70
     0
  9
$DIMALTTZ
 70
     0
  9
$DIMUPT
 70
     0
  9
$DIMDEC
 70
     2
  9
$DIMTDEC
 70
     2
  9
$DIMALTU
 70
     2
  9
$DIMALTTD
 70
     3
  9
$DIMTXSTY
  7
Standard
  9
$DIMAUNIT
 70
     0
  9
$DIMADEC
 70
     2
  9
$DIMALTRND
 40
0.0
  9
$DIMAZIN
 70
     0
  9
$DIMDSEP
 70
    44
  9
$DIMATFIT
 70
     3
  9
$DIMFRAC
 70
     0
  9
$DIMLDRBLK
  1

  9
$DIMLUNIT
 70
     2
  9
$DIMLWD
 70
    -2
  9
$DIMLWE
 70
    -2
  9
$DIMTMOVE
 70
     0
  9
$LUNITS
 70
     2
  9
$LUPREC
 70
     2
  9
$SKETCHINC
 40
1.0
  9
$FILLETRAD
 40
10.0
  9
$AUNITS
 70
     0
  9
$AUPREC
 70
     2
  9
$MENU
  1
.
  9
$ELEVATION
 40
0.0
  9
$PELEVATION
 40
0.0
  9
$THICKNESS
 40
0.0
  9
$LIMCHECK
 70
     0
  9
$CHAMFERA
 40
0.0
  9
$CHAMFERB
 40
0.0
  9
$CHAMFERC
 40
0.0
  9
$CHAMFERD
 40
0.0
  9
$SKPOLY
 70
     0
  9
$TDCREATE
 40
2460930.86825081
  9
$TDUCREATE
 40
2460930.639084144
  9
$TDUPDATE
 40
2460930.868251331
  9
$TDUUPDATE
 40
2460930.639084664
  9
$TDINDWG
 40
0.0000000116
  9
$TDUSRTIMER
 40
0.0000000116
  9
$USRTIMER
 70
     1
  9
$ANGBASE
 50
0.0
  9
$ANGDIR
 70
     0
  9
$PDMODE
 70
     0
  9
$PDSIZE
 40
-1.0
  9
$PLINEWID
 40
0.0
  9
$SPLFRAME
 70
     0
  9
$SPLINETYPE
 70
     6
  9
$SPLINESEGS
 70
     8
  9
$HANDSEED
  5
184
  9
$SURFTAB1
 70
     6
  9
$SURFTAB2
 70
     6
  9
$SURFTYPE
 70
     6
  9
$SURFU
 70
     6
  9
$SURFV
 70
     6
  9
$UCSBASE
  2

  9
$UCSNAME
  2

  9
$UCSORG
 10
0.0
 20
0.0
 30
0.0
  9
$UCSXDIR
 10
1.0
 20
0.0
 30
0.0
  9
$UCSYDIR
 10
0.0
 20
1.0
 30
0.0
  9
$UCSORTHOREF
  2

  9
$UCSORTHOVIEW
 70
     0
  9
$UCSORGTOP
 10
0.0
 20
0.0
 30
0.0
  9
$UCSORGBOTTOM
 10
0.0
 20
0.0
 30
0.0
  9
$UCSORGLEFT
 10
0.0
 20
0.0
 30
0.0
  9
$UCSORGRIGHT
 10
0.0
 20
0.0
 30
0.0
  9
$UCSORGFRONT
 10
0.0
 20
0.0
 30
0.0
  9
$UCSORGBACK
 10
0.0
 20
0.0
 30
0.0
  9
$PUCSBASE
  2

  9
$PUCSNAME
  2

  9
$PUCSORG
 10
0.0
 20
0.0
 30
0.0
  9
$PUCSXDIR
 10
1.0
 20
0.0
 30
0.0
  9
$PUCSYDIR
 10
0.0
 20
1.0
 30
0.0
  9
$PUCSORTHOREF
  2

  9
$PUCSORTHOVIEW
 70
     0
  9
$PUCSORGTOP
 10
0.0
 20
0.0
 30
0.0
  9
$PUCSORGBOTTOM
 10
0.0
 20
0.0
 30
0.0
  9
$PUCSORGLEFT
 10
0.0
 20
0.0
 30
0.0
  9
$PUCSORGRIGHT
 10
0.0
 20
0.0
 30
0.0
  9
$PUCSORGFRONT
 10
0.0
 20
0.0
 30
0.0
  9
$PUCSORGBACK
 10
0.0
 20
0.0
 30
0.0
  9
$USERI1
 70
     0
  9
$USERI2
 70
     0
  9
$USERI3
 70
     0
  9
$USERI4
 70
     0
  9
$USERI5
 70
     0
  9
$USERR1
 40
0.0
  9
$USERR2
 40
0.0
  9
$USERR3
 40
0.0
  9
$USERR4
 40
0.0
  9
$USERR5
 40
0.0
  9
$WORLDVIEW
 70
     1
  9
$SHADEDGE
 70
     3
  9
$SHADEDIF
 70
    70
  9
$TILEMODE
 70
     1
  9
$MAXACTVP
 70
    64
  9
$PINSBASE
 10
0.0
 20
0.0
 30
0.0
  9
$PLIMCHECK
 70
     0
  9
$PEXTMIN
 10
1.0000000000E+20
 20
1.0000000000E+20
 30
1.0000000000E+20
  9
$PEXTMAX
 10
-1.0000000000E+20
 20
-1.0000000000E+20
 30
-1.0000000000E+20
  9
$PLIMMIN
 10
0.0
 20
0.0
  9
$PLIMMAX
 10
420.0
 20
297.0
  9
$UNITMODE
 70
     0
  9
$VISRETAIN
 70
     1
  9
$PLINEGEN
 70
     0
  9
$PSLTSCALE
 70
     1
  9
$TREEDEPTH
 70
  3020
  9
$CMLSTYLE
  2
Standard
  9
$CMLJUST
 70
     0
  9
$CMLSCALE
 40
20.0
  9
$PROXYGRAPHICS
 70
     1
  9
$MEASUREMENT
 70
     1
  9
$CELWEIGHT
370
    -1
  9
$ENDCAPS
280
     0
  9
$JOINSTYLE
280
     0
  9
$LWDISPLAY
290
     1
  9
$INSUNITS
 70
     4
  9
$HYPERLINKBASE
  1

  9
$STYLESHEET
  1

  9
$XEDIT
290
     1
  9
$CEPSNTYPE
380
     0
  9
$PSTYLEMODE
290
     1
  9
$FINGERPRINTGUID
  2
{e9e0abf8-acc7-4efb-81a7-02841625e4ce}
  9
$VERSIONGUID
  2
{FAEB1C32-E019-11D5-929B-00C0DF256EC4}
  9
$EXTNAMES
290
     1
  9
$PSVPSCALE
 40
0.0
  9
$OLESTARTUP
290
     0
  0
ENDSEC
  0
SECTION
  2
CLASSES
  0
CLASS
  1
ACDBDICTIONARYWDFLT
  2
AcDbDictionaryWithDefault
  3
ObjectDBX Classes
 90
        0
280
     0
281
     0
  0
CLASS
  1
VISUALSTYLE
  2
AcDbVisualStyle
  3
ObjectDBX Classes
 90
     4095
280
     0
281
     0
  0
CLASS
  1
MATERIAL
  2
AcDbMaterial
  3
ObjectDBX Classes
 90
     1153
280
     0
281
     0
  0
CLASS
  1
SCALE
  2
AcDbScale
  3
ObjectDBX Classes
 90
     1153
280
     0
281
     0
  0
CLASS
  1
TABLESTYLE
  2
AcDbTableStyle
  3
ObjectDBX Classes
 90
     4095
280
     0
281
     0
  0
CLASS
  1
MLEADERSTYLE
  2
AcDbMLeaderStyle
  3
ACDB_MLEADERSTYLE_CLASS
 90
     4095
280
     0
281
     0
  0
CLASS
  1
SUN
  2
AcDbSun
  3
SCENEOE
 90
     1153
280
     0
281
     0
  0
CLASS
  1
ACDBPLACEHOLDER
  2
AcDbPlaceHolder
  3
ObjectDBX Classes
 90
        0
280
     0
281
     0
  0
CLASS
  1
LAYOUT
  2
AcDbLayout
  3
ObjectDBX Classes
 90
        0
280
     0
281
     0
  0
ENDSEC
  0
SECTION
  2
TABLES
  0
TABLE
  2
VPORT
  5
8
330
0
100
AcDbSymbolTable
 70
     1
  0
VPORT
  5
29
330
8
100
AcDbSymbolTableRecord
100
AcDbViewportTableRecord
  2
*Active
 70
     0
 10
0.0
 20
0.0
 11
1.0
 21
1.0
 12
594.5
 22
420.5
 13
0.0
 23
0.0
 14
10.0
 24
10.0
 15
10.0
 25
10.0
 16
0.0
 26
0.0
 36
1.0
 17
0.0
 27
0.0
 37
0.0
 40
841.0
 41
1.4137931034
 42
50.0
 43
0.0
 44
0.0
 50
0.0
 51
0.0
 71
     0
 72
  2000
 73
     1
 74
     3
 75
     0
 76
     0
 77
     0
 78
     0
281
     0
 65
     1
110
0.0
120
0.0
130
0.0
111
1.0
121
0.0
131
0.0
112
0.0
122
1.0
132
0.0
 79
     0
146
0.0
  0
ENDTAB
  0
TABLE
  2
LTYPE
  5
5
330
0
100
AcDbSymbolTable
 70
     6
  0
LTYPE
  5
14
330
5
100
AcDbSymbolTableRecord
100
AcDbLinetypeTableRecord
  2
ByBlock
 70
     0
  3

 72
    65
 73
     0
 40
0.0
  0
LTYPE
  5
15
330
5
100
AcDbSymbolTableRecord
100
AcDbLinetypeTableRecord
  2
ByLayer
 70
     0
  3

 72
    65
 73
     0
 40
0.0
  0
LTYPE
  5
16
330
5
100
AcDbSymbolTableRecord
100
AcDbLinetypeTableRecord
  2
Continuous
 70
     0
  3
Solid line
 72
    65
 73
     0
 40
0.0
  0
LTYPE
  5
6E
330
5
100
AcDbSymbolTableRecord
100
AcDbLinetypeTableRecord
  2
HIDDEN
 70
     0
  3
Hidden __ __ __ __ __ __ __ __ __ __ __ __ __ __
 72
    65
 73
     2
 40
1.905
 49
1.27
 74
     0
 49
-0.635
 74
     0
  0
LTYPE
  5
6F
330
5
100
AcDbSymbolTableRecord
100
AcDbLinetypeTableRecord
  2
PHANTOM
 70
     0
  3
Phantom ______  __  __  ______  __  __  ______
 72
    65
 73
     6
 40
12.7
 49
6.35
 74
     0
 49
-1.27
 74
     0
 49
1.27
 74
     0
 49
-1.27
 74
     0
 49
1.27
 74
     0
 49
-1.27
 74
     0
  0
LTYPE
  5
70
330
5
100
AcDbSymbolTableRecord
100
AcDbLinetypeTableRecord
  2
CENTER
 70
     0
  3
Center ____ _ ____ _ ____ _ ____ _ ____ _ ____
 72
    65
 73
     4
 40
10.16
 49
6.35
 74
     0
 49
-1.27
 74
     0
 49
1.27
 74
     0
 49
-1.27
 74
     0
  0
LTYPE
  5
71
330
5
100
AcDbSymbolTableRecord
100
AcDbLinetypeTableRecord
  2
CENTERX2
 70
     0
  3
Center (2x) ________  __  ________  __  _____
 72
    65
 73
     4
 40
20.32
 49
12.7
 74
     0
 49
-2.54
 74
     0
 49
2.54
 74
     0
 49
-2.54
 74
     0
  0
LTYPE
  5
72
330
5
100
AcDbSymbolTableRecord
100
AcDbLinetypeTableRecord
  2
DOT2
 70
     0
  3
Dot (.5x) ........................................
 72
    65
 73
     2
 40
0.635
 49
0.0
 74
     0
 49
-0.635
 74
     0
  0
ENDTAB
  0
TABLE
  2
LAYER
  5
2
330
0
100
AcDbSymbolTable
 70
     1
  0
LAYER
  5
10
330
2
100
AcDbSymbolTableRecord
100
AcDbLayerTableRecord
  2
0
 70
     0
 62
     7
  6
Continuous
370
    -3
390
F
  0
ENDTAB
  0
TABLE
  2
STYLE
  5
3
330
0
100
AcDbSymbolTable
 70
     1
  0
STYLE
  5
11
330
3
100
AcDbSymbolTableRecord
100
AcDbTextStyleTableRecord
  2
Standard
 70
     0
 40
0.0
 41
1.0
 50
0.0
 71
     0
 42
3.5
  3
txt
  4

  0
ENDTAB
  0
TABLE
  2
VIEW
  5
6
330
0
100
AcDbSymbolTable
 70
     0
  0
ENDTAB
  0
TABLE
  2
UCS
  5
7
330
0
100
AcDbSymbolTable
 70
     0
  0
ENDTAB
  0
TABLE
  2
APPID
  5
9
330
0
100
AcDbSymbolTable
 70
     1
  0
APPID
  5
12
330
9
100
AcDbSymbolTableRecord
100
AcDbRegAppTableRecord
  2
ACAD
 70
     0
  0
ENDTAB
  0
TABLE
  2
DIMSTYLE
  5
A
330
0
100
AcDbSymbolTable
 70
     1
100
AcDbDimStyleTable
  0
DIMSTYLE
105
27
330
A
100
AcDbSymbolTableRecord
100
AcDbDimStyleTableRecord
  2
ISO-25
 70
     0
 41
2.5
 42
0.625
 43
3.75
 44
1.25
 73
     0
 74
     0
 77
     1
 78
     8
140
2.5
141
2.5
143
0.0393700787
147
0.625
171
     3
172
     1
178
     0
271
     2
272
     2
274
     3
278
    44
283
     0
284
     8
340
11
  0
ENDTAB
  0
TABLE
  2
BLOCK_RECORD
  5
1
330
0
100
AcDbSymbolTable
 70
     1
  0
BLOCK_RECORD
  5
1F
330
1
100
AcDbSymbolTableRecord
100
AcDbBlockTableRecord
  2
*Model_Space
340
22
  0
BLOCK_RECORD
  5
1B
330
1
100
AcDbSymbolTableRecord
100
AcDbBlockTableRecord
  2
*Paper_Space
340
1E
  0
BLOCK_RECORD
  5
23
330
1
100
AcDbSymbolTableRecord
100
AcDbBlockTableRecord
  2
*Paper_Space0
340
26
  0
ENDTAB
  0
ENDSEC
  0
SECTION
  2
BLOCKS
  0
BLOCK
  5
20
330
1F
100
AcDbEntity
  8
0
100
AcDbBlockBegin
  2
*Model_Space
 70
     0
 10
0.0
 20
0.0
 30
0.0
  3
*Model_Space
  1

  0
ENDBLK
  5
21
330
1F
100
AcDbEntity
  8
0
100
AcDbBlockEnd
  0
BLOCK
  5
1C
330
1B
100
AcDbEntity
 67
     1
  8
0
100
AcDbBlockBegin
  2
*Paper_Space
 70
     0
 10
0.0
 20
0.0
 30
0.0
  3
*Paper_Space
  1

  0
ENDBLK
  5
1D
330
1B
100
AcDbEntity
 67
     1
  8
0
100
AcDbBlockEnd
  0
BLOCK
  5
24
330
23
100
AcDbEntity
  8
0
100
AcDbBlockBegin
  2
*Paper_Space0
 70
     0
 10
0.0
 20
0.0
 30
0.0
  3
*Paper_Space0
  1

  0
ENDBLK
  5
25
330
23
100
AcDbEntity
  8
0
100
AcDbBlockEnd
  0
ENDSEC
  0
SECTION
  2
ENTITIES
  0
LINE
  5
73
330
1F
100
AcDbEntity
  8
0
  6
Continuous
 62
     7
370
    25
100
AcDbLine
 10
127.7549431587
 20
816.4645366886
 30
0.0
 11
127.7549431587
 21
751.4645366886
 31
0.0
  0
LINE
  5
74
330
1F
100
AcDbEntity
  8
0
  6
Continuous
 62
     7
370
    25
100
AcDbLine
 10
127.7549431587
 20
751.4645366886
 30
0.0
 11
147.7549431587
 21
751.4645366886
 31
0.0
  0
LINE
  5
75
330
1F
100
AcDbEntity
  8
0
  6
Continuous
 62
     7
370
    25
100
AcDbLine
 10
147.7549431587
 20
751.4645366886
 30
0.0
 11
147.7549431587
 21
816.4645366886
 31
0.0
  0
LINE
  5
76
330
1F
100
AcDbEntity
  8
0
  6
Continuous
 62
     7
370
    25
100
AcDbLine
 10
147.7549431587
 20
816.4645366886
 30
0.0
 11
127.7549431587
 21
816.4645366886
 31
0.0
  0
LINE
  5
77
330
1F
100
AcDbEntity
  8
0
  6
Continuous
 62
     7
370
    25
100
AcDbLine
 10
112.8667108763
 20
811.4637175001
 30
0.0
 11
112.8667108763
 21
709.4637175001
 31
0.0
  0
LINE
  5
78
330
1F
100
AcDbEntity
  8
0
  6
Continuous
 62
     7
370
    25
100
AcDbLine
 10
57.0640228052
 20
807.5616134254
 30
0.0
 11
112.8667108763
 21
811.4637175001
 31
0.0
  0
LINE
  5
79
330
1F
100
AcDbEntity
  8
0
  6
Continuous
 62
     7
370
    25
100
AcDbLine
 10
55.4905320577
 20
826.4979802974
 30
0.0
 11
57.0640228052
 21
807.5616134254
 31
0.0
  0
LINE
  5
7A
330
1F
100
AcDbEntity
  8
0
  6
Continuous
 62
     7
370
    25
100
AcDbLine
 10
217.0959081998
 20
837.7985290439
 30
0.0
 11
55.4905320577
 21
826.4979802974
 31
0.0
  0
LINE
  5
7B
330
1F
100
AcDbEntity
  8
0
  6
Continuous
 62
     7
370
    25
100
AcDbLine
 10
218.6693989473
 20
818.862162172
 30
0.0
 11
217.0959081998
 21
837.7985290439
 31
0.0
  0
LINE
  5
7C
330
1F
100
AcDbEntity
  8
0
  6
Continuous
 62
     7
370
    25
100
AcDbLine
 10
162.8667108763
 20
814.9600580973
 30
0.0
 11
218.6693989473
 21
818.862162172
 31
0.0
  0
LINE
  5
7D
330
1F
100
AcDbEntity
  8
0
  6
Continuous
 62
     7
370
    25
100
AcDbLine
 10
162.8667108763
 20
705.9673769029
 30
0.0
 11
162.8667108763
 21
814.9600580973
 31
0.0
  0
LINE
  5
7E
330
1F
100
AcDbEntity
  8
0
  6
Continuous
 62
     7
370
    25
100
AcDbLine
 10
218.421281201
 20
702.0826229112
 30
0.0
 11
162.8667108763
 21
705.9673769029
 31
0.0
  0
LINE
  5
7F
330
1F
100
AcDbEntity
  8
0
  6
Continuous
 62
     7
370
    25
100
AcDbLine
 10
217.3440259462
 20
683.1115558733
 30
0.0
 11
218.421281201
 21
702.0826229112
 31
0.0
  0
LINE
  5
80
330
1F
100
AcDbEntity
  8
0
  6
Continuous
 62
     7
370
    25
100
AcDbLine
 10
55.7386498041
 20
694.4121046198
 30
0.0
 11
217.3440259462
 21
683.1115558733
 31
0.0
  0
LINE
  5
81
330
1F
100
AcDbEntity
  8
0
  6
Continuous
 62
     7
370
    25
100
AcDbLine
 10
57.3121405516
 20
713.3484714918
 30
0.0
 11
55.7386498041
 21
694.4121046198
 31
0.0
  0
LINE
  5
82
330
1F
100
AcDbEntity
  8
0
  6
Continuous
 62
     7
370
    25
100
AcDbLine
 10
112.8667108763
 20
709.4637175001
 30
0.0
 11
57.3121405516
 21
713.3484714918
 31
0.0
  0
LINE
  5
83
330
1F
100
AcDbEntity
  8
0
  6
Continuous
 62
     7
370
    25
100
AcDbLine
 10
292.1330164571
 20
816.8932768808
 30
0.0
 11
292.1330164571
 21
751.8932768808
 31
0.0
  0
LINE
  5
84
330
1F
100
AcDbEntity
  8
0
  6
Continuous
 62
     7
370
    25
100
AcDbLine
 10
292.1330164571
 20
751.8932768808
 30
0.0
 11
312.1330164571
 21
751.8932768808
 31
0.0
  0
LINE
  5
85
330
1F
100
AcDbEntity
  8
0
  6
Continuous
 62
     7
370
    25
100
AcDbLine
 10
312.1330164571
 20
751.8932768808
 30
0.0
 11
312.1330164571
 21
816.8932768808
 31
0.0
  0
LINE
  5
86
330
1F
100
AcDbEntity
  8
0
  6
Continuous
 62
     7
370
    25
100
AcDbLine
 10
312.1330164571
 20
816.8932768808
 30
0.0
 11
292.1330164571
 21
816.8932768808
 31
0.0
  0
LINE
  5
87
330
1F
100
AcDbEntity
  8
0
  6
Continuous
 62
     7
370
    25
100
AcDbLine
 10
277.2447841747
 20
811.8924576923
 30
0.0
 11
277.2447841747
 21
709.8924576923
 31
0.0
  0
LINE
  5
88
330
1F
100
AcDbEntity
  8
0
  6
Continuous
 62
     7
370
    25
100
AcDbLine
 10
221.4420961037
 20
807.9903536176
 30
0.0
 11
277.2447841747
 21
811.8924576923
 31
0.0
  0
LINE
  5
89
330
1F
100
AcDbEntity
  8
0
  6
Continuous
 62
     7
370
    25
100
AcDbLine
 10
219.8686053562
 20
826.9267204896
 30
0.0
 11
221.4420961037
 21
807.9903536176
 31
0.0
  0
LINE
  5
8A
330
1F
100
AcDbEntity
  8
0
  6
Continuous
 62
     7
370
    25
100
AcDbLine
 10
381.4739814982
 20
838.2272692361
 30
0.0
 11
219.8686053562
 21
826.9267204896
 31
0.0
  0
LINE
  5
8B
330
1F
100
AcDbEntity
  8
0
  6
Continuous
 62
     7
370
    25
100
AcDbLine
 10
383.0474722457
 20
819.2909023642
 30
0.0
 11
381.4739814982
 21
838.2272692361
 31
0.0
  0
LINE
  5
8C
330
1F
100
AcDbEntity
  8
0
  6
Continuous
 62
     7
370
    25
100
AcDbLine
 10
327.2447841747
 20
815.3887982895
 30
0.0
 11
383.0474722457
 21
819.2909023642
 31
0.0
  0
LINE
  5
8D
330
1F
100
AcDbEntity
  8
0
  6
Continuous
 62
     7
370
    25
100
AcDbLine
 10
327.2447841747
 20
706.3961170951
 30
0.0
 11
327.2447841747
 21
815.3887982895
 31
0.0
  0
LINE
  5
8E
330
1F
100
AcDbEntity
  8
0
  6
Continuous
 62
     7
370
    25
100
AcDbLine
 10
382.7993544994
 20
702.5113631034
 30
0.0
 11
327.2447841747
 21
706.3961170951
 31
0.0
  0
LINE
  5
8F
330
1F
100
AcDbEntity
  8
0
  6
Continuous
 62
     7
370
    25
100
AcDbLine
 10
381.7220992446
 20
683.5402960655
 30
0.0
 11
382.7993544994
 21
702.5113631034
 31
0.0
  0
LINE
  5
90
330
1F
100
AcDbEntity
  8
0
  6
Continuous
 62
     7
370
    25
100
AcDbLine
 10
220.1167231025
 20
694.8408448121
 30
0.0
 11
381.7220992446
 21
683.5402960655
 31
0.0
  0
LINE
  5
91
330
1F
100
AcDbEntity
  8
0
  6
Continuous
 62
     7
370
    25
100
AcDbLine
 10
221.69021385
 20
713.777211684
 30
0.0
 11
220.1167231025
 21
694.8408448121
 31
0.0
  0
LINE
  5
92
330
1F
100
AcDbEntity
  8
0
  6
Continuous
 62
     7
370
    25
100
AcDbLine
 10
277.2447841747
 20
709.8924576923
 30
0.0
 11
221.69021385
 21
713.777211684
 31
0.0
  0
LINE
  5
93
330
1F
100
AcDbEntity
  8
0
  6
Continuous
 62
     7
370
    25
100
AcDbLine
 10
191.36534583
 20
786.2848012265
 30
0.0
 11
191.36534583
 21
780.9932986044
 31
0.0
  0
ARC
  5
94
330
1F
100
AcDbEntity
  8
0
  6
Continuous
 62
     7
370
    25
100
AcDbCircle
 10
194.36534583
 20
783.6390499154
 30
0.0
 40
4.000000000000006
100
AcDbArc
 50
221.4096221093
 51
138.5903778907
  0
ARC
  5
95
330
1F
100
AcDbEntity
  8
0
  6
Continuous
 62
     7
370
    25
100
AcDbCircle
 10
206.9620188768
 20
810.8663125056
 30
0.0
 40
2.499999999999971
100
AcDbArc
 50
157.5604292564
 51
332.7843983298
  0
ARC
  5
96
330
1F
100
AcDbEntity
  8
0
  6
Continuous
 62
     7
370
    25
100
AcDbCircle
 10
212.5205722858
 20
807.5218418866
 30
0.0
 40
2.500000000000104
100
AcDbArc
 50
145.146636153
 51
320.3706052264
  0
ARC
  5
97
330
1F
100
AcDbEntity
  8
0
  6
Continuous
 62
     7
370
    25
100
AcDbCircle
 10
217.2302074838
 20
803.0606384589
 30
0.0
 40
2.500000000000357
100
AcDbArc
 50
132.7328430495
 51
307.9568121229
  0
ARC
  5
98
330
1F
100
AcDbEntity
  8
0
  6
Continuous
 62
     7
370
    25
100
AcDbCircle
 10
220.8707071633
 20
797.6913031364
 30
0.0
 40
2.500000000000584
100
AcDbArc
 50
120.3190499461
 51
295.5430190194
  0
ARC
  5
99
330
1F
100
AcDbEntity
  8
0
  6
Continuous
 62
     7
370
    25
100
AcDbCircle
 10
223.2718456055
 20
791.6649000713
 30
0.0
 40
2.500000000000921
100
AcDbArc
 50
107.9052568426
 51
283.129225916
  0
ARC
  5
9A
330
1F
100
AcDbEntity
  8
0
  6
Continuous
 62
     7
370
    25
100
AcDbCircle
 10
224.3213482455
 20
785.263217173
 30
0.0
 40
2.500000000001388
100
AcDbArc
 50
95.4914637392
 51
270.7154328125
  0
ARC
  5
9B
330
1F
100
AcDbEntity
  8
0
  6
Continuous
 62
     7
370
    25
100
AcDbCircle
 10
223.9701415062
 20
778.7855900188
 30
0.0
 40
2.50000000000176
100
AcDbArc
 50
83.0776706357
 51
258.3016397091
  0
ARC
  5
9C
330
1F
100
AcDbEntity
  8
0
  6
Continuous
 62
     7
370
    25
100
AcDbCircle
 10
222.2346474245
 20
772.5349052552
 30
0.0
 40
2.500000000002209
100
AcDbArc
 50
70.6638775323
 51
245.8878466057
  0
ARC
  5
9D
330
1F
100
AcDbEntity
  8
0
  6
Continuous
 62
     7
370
    25
100
AcDbCircle
 10
219.1960157747
 20
766.8034379546
 30
0.0
 40
2.500000000002693
100
AcDbArc
 50
58.2500844288
 51
233.4740535022
  0
ARC
  5
9E
330
1F
100
AcDbEntity
  8
0
  6
Continuous
 62
     7
370
    25
100
AcDbCircle
 10
214.9963295956
 20
761.8591851577
 30
0.0
 40
2.500000000003147
100
AcDbArc
 50
45.8362913254
 51
221.0602603988
  0
ARC
  5
9F
330
1F
100
AcDbEntity
  8
0
  6
Continuous
 62
     7
370
    25
100
AcDbCircle
 10
209.8319615453
 20
757.9333346304
 30
0.0
 40
2.500000000003581
100
AcDbArc
 50
33.4224982219
 51
208.6464672953
  0
ARC
  5
A0
330
1F
100
AcDbEntity
  8
0
  6
Continuous
 62
     7
370
    25
100
AcDbCircle
 10
203.944391734
 20
755.2094547799
 30
0.0
 40
2.50000000000385
100
AcDbArc
 50
21.0087051185
 51
196.2326741919
  0
ARC
  5
A1
330
1F
100
AcDbEntity
  8
0
  6
Continuous
 62
     7
370
    25
100
AcDbCircle
 10
197.6089163827
 20
753.8149112008
 30
0.0
 40
2.500000000004101
100
AcDbArc
 50
8.594912015
 51
183.8188810884
  0
ARC
  5
A2
330
1F
100
AcDbEntity
  8
0
  6
Continuous
 62
     7
370
    25
100
AcDbCircle
 10
191.1217752772
 20
753.8149112008
 30
0.0
 40
2.500000000004264
100
AcDbArc
 50
356.1811189116
 51
171.405087985
  0
ARC
  5
A3
330
1F
100
AcDbEntity
  8
0
  6
Continuous
 62
     7
370
    25
100
AcDbCircle
 10
184.7862999259
 20
755.2094547799
 30
0.0
 40
2.500000000004396
100
AcDbArc
 50
343.7673258081
 51
158.9912948816
  0
ARC
  5
A4
330
1F
100
AcDbEntity
  8
0
  6
Continuous
 62
     7
370
    25
100
AcDbCircle
 10
178.8987301146
 20
757.9333346304
 30
0.0
 40
2.500000000004367
100
AcDbArc
 50
331.3535327046
 51
146.5775017781
  0
ARC
  5
A5
330
1F
100
AcDbEntity
  8
0
  6
Continuous
 62
     7
370
    25
100
AcDbCircle
 10
173.7343620644
 20
761.8591851577
 30
0.0
 40
2.500000000004321
100
AcDbArc
 50
318.9397396012
 51
134.1637086747
  0
ARC
  5
A6
330
1F
100
AcDbEntity
  8
0
  6
Continuous
 62
     7
370
    25
100
AcDbCircle
 10
169.5346758853
 20
766.8034379546
 30
0.0
 40
2.50000000000413
100
AcDbArc
 50
306.5259464977
 51
121.7499155713
  0
ARC
  5
A7
330
1F
100
AcDbEntity
  8
0
  6
Continuous
 62
     7
370
    25
100
AcDbCircle
 10
166.4960442355
 20
772.5349052552
 30
0.0
 40
2.500000000003932
100
AcDbArc
 50
294.1121533943
 51
109.3361224678
  0
ARC
  5
A8
330
1F
100
AcDbEntity
  8
0
  6
Continuous
 62
     7
370
    25
100
AcDbCircle
 10
164.7605501537
 20
778.7855900188
 30
0.0
 40
2.500000000003566
100
AcDbArc
 50
281.6983602908
 51
96.9223293644
  0
ARC
  5
A9
330
1F
100
AcDbEntity
  8
0
  6
Continuous
 62
     7
370
    25
100
AcDbCircle
 10
164.4093434144
 20
785.263217173
 30
0.0
 40
2.500000000003224
100
AcDbArc
 50
269.2845671874
 51
84.5085362609
  0
ARC
  5
AA
330
1F
100
AcDbEntity
  8
0
  6
Continuous
 62
     7
370
    25
100
AcDbCircle
 10
165.4588460544
 20
791.6649000713
 30
0.0
 40
2.500000000002776
100
AcDbArc
 50
256.8707740839
 51
72.0947431575
  0
ARC
  5
AB
330
1F
100
AcDbEntity
  8
0
  6
Continuous
 62
     7
370
    25
100
AcDbCircle
 10
167.8599844966
 20
797.6913031364
 30
0.0
 40
2.500000000002303
100
AcDbArc
 50
244.4569809805
 51
59.680950054
  0
ARC
  5
AC
330
1F
100
AcDbEntity
  8
0
  6
Continuous
 62
     7
370
    25
100
AcDbCircle
 10
171.5004841761
 20
803.0606384589
 30
0.0
 40
2.500000000001954
100
AcDbArc
 50
232.043187877
 51
47.2671569506
  0
ARC
  5
AD
330
1F
100
AcDbEntity
  8
0
  6
Continuous
 62
     7
370
    25
100
AcDbCircle
 10
176.2101193741
 20
807.5218418866
 30
0.0
 40
2.500000000001531
100
AcDbArc
 50
219.6293947736
 51
34.8533638471
  0
ARC
  5
AE
330
1F
100
AcDbEntity
  8
0
  6
Continuous
 62
     7
370
    25
100
AcDbCircle
 10
181.7686727831
 20
810.8663125056
 30
0.0
 40
2.500000000001092
100
AcDbArc
 50
207.2156016701
 51
22.4395707437
  0
ARC
  5
AF
330
1F
100
AcDbEntity
  8
0
  6
Continuous
 62
     7
370
    25
100
AcDbCircle
 10
187.9162326236
 20
812.9376665867
 30
0.0
 40
2.500000000000839
100
AcDbArc
 50
194.8018085667
 51
10.0257776402
  0
ARC
  5
B0
330
1F
100
AcDbEntity
  8
0
  6
Continuous
 62
     7
370
    25
100
AcDbCircle
 10
194.36534583
 20
813.6390499154
 30
0.0
 40
2.499999999999993
100
AcDbArc
 50
182.3880154633
 51
357.6119845367
  0
ARC
  5
B1
330
1F
100
AcDbEntity
  8
0
  6
Continuous
 62
     7
370
    25
100
AcDbCircle
 10
200.8144590363
 20
812.9376665867
 30
0.0
 40
2.499999999999999
100
AcDbArc
 50
169.9742223598
 51
345.1981914333
  0
ARC
  5
B2
330
1F
100
AcDbEntity
  8
0
  6
Continuous
 62
     7
370
    25
100
AcDbCircle
 10
194.36534583
 20
783.6390499154
 30
0.0
 40
29.99999999999999
100
AcDbArc
 50
82.3622378231
 51
85.2239690735
  0
ARC
  5
B3
330
1F
100
AcDbEntity
  8
0
  6
Continuous
 62
     7
370
    25
100
AcDbCircle
 10
194.36534583
 20
783.6390499154
 30
0.0
 40
30.00000000000001
100
AcDbArc
 50
94.7760309265
 51
97.6377621769
  0
ARC
  5
B4
330
1F
100
AcDbEntity
  8
0
  6
Continuous
 62
     7
370
    25
100
AcDbCircle
 10
194.36534583
 20
783.6390499154
 30
0.0
 40
30.00000000000001
100
AcDbArc
 50
107.18982403
 51
110.0515552804
  0
ARC
  5
B5
330
1F
100
AcDbEntity
  8
0
  6
Continuous
 62
     7
370
    25
100
AcDbCircle
 10
194.36534583
 20
783.6390499154
 30
0.0
 40
29.99999999999997
100
AcDbArc
 50
132.0174102369
 51
134.8791414873
  0
ARC
  5
B6
330
1F
100
AcDbEntity
  8
0
  6
Continuous
 62
     7
370
    25
100
AcDbCircle
 10
194.36534583
 20
783.6390499154
 30
0.0
 40
30.00000000000004
100
AcDbArc
 50
119.6036171334
 51
122.4653483838
  0
ARC
  5
B7
330
1F
100
AcDbEntity
  8
0
  6
Continuous
 62
     7
370
    25
100
AcDbCircle
 10
194.36534583
 20
783.6390499154
 30
0.0
 40
29.99999999999999
100
AcDbArc
 50
144.4312033403
 51
147.2929345907
  0
ARC
  5
B8
330
1F
100
AcDbEntity
  8
0
  6
Continuous
 62
     7
370
    25
100
AcDbCircle
 10
194.36534583
 20
783.6390499154
 30
0.0
 40
30.00000000000003
100
AcDbArc
 50
156.8449964438
 51
159.7067276941
  0
ARC
  5
B9
330
1F
100
AcDbEntity
  8
0
  6
Continuous
 62
     7
370
    25
100
AcDbCircle
 10
194.36534583
 20
783.6390499154
 30
0.0
 40
30.0
100
AcDbArc
 50
169.2587895472
 51
172.1205207976
  0
ARC
  5
BA
330
1F
100
AcDbEntity
  8
0
  6
Continuous
 62
     7
370
    25
100
AcDbCircle
 10
194.36534583
 20
783.6390499154
 30
0.0
 40
30.00000000000001
100
AcDbArc
 50
181.6725826507
 51
184.534313901
  0
ARC
  5
BB
330
1F
100
AcDbEntity
  8
0
  6
Continuous
 62
     7
370
    25
100
AcDbCircle
 10
194.36534583
 20
783.6390499154
 30
0.0
 40
30.00000000000007
100
AcDbArc
 50
231.3277550645
 51
234.1894863148
  0
ARC
  5
BC
330
1F
100
AcDbEntity
  8
0
  6
Continuous
 62
     7
370
    25
100
AcDbCircle
 10
194.36534583
 20
783.6390499154
 30
0.0
 40
30.00000000000003
100
AcDbArc
 50
218.913961961
 51
221.7756932114
  0
ARC
  5
BD
330
1F
100
AcDbEntity
  8
0
  6
Continuous
 62
     7
370
    25
100
AcDbCircle
 10
194.36534583
 20
783.6390499154
 30
0.0
 40
30.00000000000001
100
AcDbArc
 50
206.5001688576
 51
209.3619001079
  0
ARC
  5
BE
330
1F
100
AcDbEntity
  8
0
  6
Continuous
 62
     7
370
    25
100
AcDbCircle
 10
194.36534583
 20
783.6390499154
 30
0.0
 40
30.00000000000001
100
AcDbArc
 50
194.0863757541
 51
196.9481070045
  0
ARC
  5
BF
330
1F
100
AcDbEntity
  8
0
  6
Continuous
 62
     7
370
    25
100
AcDbCircle
 10
194.36534583
 20
783.6390499154
 30
0.0
 40
30.00000000000003
100
AcDbArc
 50
243.7415481679
 51
246.6032794183
  0
ARC
  5
C0
330
1F
100
AcDbEntity
  8
0
  6
Continuous
 62
     7
370
    25
100
AcDbCircle
 10
194.36534583
 20
783.6390499154
 30
0.0
 40
30.00000000000001
100
AcDbArc
 50
256.1553412714
 51
259.0170725217
  0
ARC
  5
C1
330
1F
100
AcDbEntity
  8
0
  6
Continuous
 62
     7
370
    25
100
AcDbCircle
 10
194.36534583
 20
783.6390499154
 30
0.0
 40
30.0
100
AcDbArc
 50
268.5691343748
 51
271.4308656252
  0
ARC
  5
C2
330
1F
100
AcDbEntity
  8
0
  6
Continuous
 62
     7
370
    25
100
AcDbCircle
 10
194.36534583
 20
783.6390499154
 30
0.0
 40
30.00000000000008
100
AcDbArc
 50
280.9829274783
 51
283.8446587286
  0
ARC
  5
C3
330
1F
100
AcDbEntity
  8
0
  6
Continuous
 62
     7
370
    25
100
AcDbCircle
 10
194.36534583
 20
783.6390499154
 30
0.0
 40
30.00000000000003
100
AcDbArc
 50
330.6380998921
 51
333.4998311424
  0
ARC
  5
C4
330
1F
100
AcDbEntity
  8
0
  6
Continuous
 62
     7
370
    25
100
AcDbCircle
 10
194.36534583
 20
783.6390499154
 30
0.0
 40
30.00000000000006
100
AcDbArc
 50
318.2243067886
 51
321.086038039
  0
ARC
  5
C5
330
1F
100
AcDbEntity
  8
0
  6
Continuous
 62
     7
370
    25
100
AcDbCircle
 10
194.36534583
 20
783.6390499154
 30
0.0
 40
30.00000000000007
100
AcDbArc
 50
305.8105136852
 51
308.6722449355
  0
ARC
  5
C6
330
1F
100
AcDbEntity
  8
0
  6
Continuous
 62
     7
370
    25
100
AcDbCircle
 10
194.36534583
 20
783.6390499154
 30
0.0
 40
30.00000000000001
100
AcDbArc
 50
293.3967205817
 51
296.2584518321
  0
ARC
  5
C7
330
1F
100
AcDbEntity
  8
0
  6
Continuous
 62
     7
370
    25
100
AcDbCircle
 10
194.36534583
 20
783.6390499154
 30
0.0
 40
30.00000000000001
100
AcDbArc
 50
343.0518929955
 51
345.9136242459
  0
ARC
  5
C8
330
1F
100
AcDbEntity
  8
0
  6
Continuous
 62
     7
370
    25
100
AcDbCircle
 10
194.36534583
 20
783.6390499154
 30
0.0
 40
30.00000000000002
100
AcDbArc
 50
355.465686099
 51
358.3274173493
  0
ARC
  5
C9
330
1F
100
AcDbEntity
  8
0
  6
Continuous
 62
     7
370
    25
100
AcDbCircle
 10
194.36534583
 20
783.6390499154
 30
0.0
 40
30.00000000000002
100
AcDbArc
 50
7.8794792024
 51
10.7412104528
  0
ARC
  5
CA
330
1F
100
AcDbEntity
  8
0
  6
Continuous
 62
     7
370
    25
100
AcDbCircle
 10
194.36534583
 20
783.6390499154
 30
0.0
 40
30.00000000000002
100
AcDbArc
 50
20.2932723059
 51
23.1550035562
  0
ARC
  5
CB
330
1F
100
AcDbEntity
  8
0
  6
Continuous
 62
     7
370
    25
100
AcDbCircle
 10
194.36534583
 20
783.6390499154
 30
0.0
 40
29.99999999999997
100
AcDbArc
 50
45.1208585127
 51
47.9825897631
  0
ARC
  5
CC
330
1F
100
AcDbEntity
  8
0
  6
Continuous
 62
     7
370
    25
100
AcDbCircle
 10
194.36534583
 20
783.6390499154
 30
0.0
 40
29.99999999999998
100
AcDbArc
 50
32.7070654093
 51
35.5687966597
  0
ARC
  5
CD
330
1F
100
AcDbEntity
  8
0
  6
Continuous
 62
     7
370
    25
100
AcDbCircle
 10
194.36534583
 20
783.6390499154
 30
0.0
 40
30.00000000000005
100
AcDbArc
 50
57.5346516162
 51
60.3963828666
  0
ARC
  5
CE
330
1F
100
AcDbEntity
  8
0
  6
Continuous
 62
     7
370
    25
100
AcDbCircle
 10
194.36534583
 20
783.6390499154
 30
0.0
 40
30.00000000000006
100
AcDbArc
 50
69.9484447196
 51
72.81017597
  0
LINE
  5
CF
330
1F
100
AcDbEntity
  8
0
  6
Continuous
 62
     7
370
    25
100
AcDbLine
 10
238.6634953675
 20
748.3570398049
 30
0.0
 11
238.6634953675
 21
743.0655371827
 31
0.0
  0
ARC
  5
D0
330
1F
100
AcDbEntity
  8
0
  6
Continuous
 62
     7
370
    25
100
AcDbCircle
 10
241.6634953675
 20
745.7112884938
 30
0.0
 40
4.000000000000028
100
AcDbArc
 50
221.4096221093
 51
138.5903778907
  0
ARC
  5
D1
330
1F
100
AcDbEntity
  8
0
  6
Continuous
 62
     7
370
    25
100
AcDbCircle
 10
254.2601684143
 20
772.9385510839
 30
0.0
 40
2.499999999999962
100
AcDbArc
 50
157.5604292564
 51
332.7843983298
  0
ARC
  5
D2
330
1F
100
AcDbEntity
  8
0
  6
Continuous
 62
     7
370
    25
100
AcDbCircle
 10
259.8187218233
 20
769.594080465
 30
0.0
 40
2.50000000000008
100
AcDbArc
 50
145.146636153
 51
320.3706052264
  0
ARC
  5
D3
330
1F
100
AcDbEntity
  8
0
  6
Continuous
 62
     7
370
    25
100
AcDbCircle
 10
264.5283570214
 20
765.1328770372
 30
0.0
 40
2.50000000000025
100
AcDbArc
 50
132.7328430495
 51
307.9568121229
  0
ARC
  5
D4
330
1F
100
AcDbEntity
  8
0
  6
Continuous
 62
     7
370
    25
100
AcDbCircle
 10
268.1688567009
 20
759.7635417148
 30
0.0
 40
2.500000000000509
100
AcDbArc
 50
120.3190499461
 51
295.5430190195
  0
ARC
  5
D5
330
1F
100
AcDbEntity
  8
0
  6
Continuous
 62
     7
370
    25
100
AcDbCircle
 10
270.5699951431
 20
753.7371386497
 30
0.0
 40
2.500000000000939
100
AcDbArc
 50
107.9052568426
 51
283.129225916
  0
ARC
  5
D6
330
1F
100
AcDbEntity
  8
0
  6
Continuous
 62
     7
370
    25
100
AcDbCircle
 10
271.6194977831
 20
747.3354557514
 30
0.0
 40
2.500000000001274
100
AcDbArc
 50
95.4914637392
 51
270.7154328125
  0
ARC
  5
D7
330
1F
100
AcDbEntity
  8
0
  6
Continuous
 62
     7
370
    25
100
AcDbCircle
 10
271.2682910438
 20
740.8578285972
 30
0.0
 40
2.500000000001762
100
AcDbArc
 50
83.0776706357
 51
258.3016397091
  0
ARC
  5
D8
330
1F
100
AcDbEntity
  8
0
  6
Continuous
 62
     7
370
    25
100
AcDbCircle
 10
269.532796962
 20
734.6071438336
 30
0.0
 40
2.500000000002127
100
AcDbArc
 50
70.6638775323
 51
245.8878466057
  0
ARC
  5
D9
330
1F
100
AcDbEntity
  8
0
  6
Continuous
 62
     7
370
    25
100
AcDbCircle
 10
266.4941653122
 20
728.8756765329
 30
0.0
 40
2.500000000002652
100
AcDbArc
 50
58.2500844288
 51
233.4740535022
  0
ARC
  5
DA
330
1F
100
AcDbEntity
  8
0
  6
Continuous
 62
     7
370
    25
100
AcDbCircle
 10
262.2944791331
 20
723.9314237361
 30
0.0
 40
2.500000000003128
100
AcDbArc
 50
45.8362913254
 51
221.0602603988
  0
ARC
  5
DB
330
1F
100
AcDbEntity
  8
0
  6
Continuous
 62
     7
370
    25
100
AcDbCircle
 10
257.1301110828
 20
720.0055732088
 30
0.0
 40
2.500000000003495
100
AcDbArc
 50
33.4224982219
 51
208.6464672953
  0
ARC
  5
DC
330
1F
100
AcDbEntity
  8
0
  6
Continuous
 62
     7
370
    25
100
AcDbCircle
 10
251.2425412716
 20
717.2816933583
 30
0.0
 40
2.500000000003845
100
AcDbArc
 50
21.0087051185
 51
196.2326741919
  0
ARC
  5
DD
330
1F
100
AcDbEntity
  8
0
  6
Continuous
 62
     7
370
    25
100
AcDbCircle
 10
244.9070659202
 20
715.8871497792
 30
0.0
 40
2.500000000004113
100
AcDbArc
 50
8.594912015
 51
183.8188810884
  0
ARC
  5
DE
330
1F
100
AcDbEntity
  8
0
  6
Continuous
 62
     7
370
    25
100
AcDbCircle
 10
238.4199248148
 20
715.8871497792
 30
0.0
 40
2.500000000004286
100
AcDbArc
 50
356.1811189116
 51
171.405087985
  0
ARC
  5
DF
330
1F
100
AcDbEntity
  8
0
  6
Continuous
 62
     7
370
    25
100
AcDbCircle
 10
232.0844494634
 20
717.2816933583
 30
0.0
 40
2.500000000004396
100
AcDbArc
 50
343.7673258081
 51
158.9912948816
  0
ARC
  5
E0
330
1F
100
AcDbEntity
  8
0
  6
Continuous
 62
     7
370
    25
100
AcDbCircle
 10
226.1968796522
 20
720.0055732088
 30
0.0
 40
2.500000000004453
100
AcDbArc
 50
331.3535327046
 51
146.5775017781
  0
ARC
  5
E1
330
1F
100
AcDbEntity
  8
0
  6
Continuous
 62
     7
370
    25
100
AcDbCircle
 10
221.0325116019
 20
723.9314237361
 30
0.0
 40
2.500000000004285
100
AcDbArc
 50
318.9397396012
 51
134.1637086747
  0
ARC
  5
E2
330
1F
100
AcDbEntity
  8
0
  6
Continuous
 62
     7
370
    25
100
AcDbCircle
 10
216.8328254228
 20
728.8756765329
 30
0.0
 40
2.50000000000413
100
AcDbArc
 50
306.5259464977
 51
121.7499155713
  0
ARC
  5
E3
330
1F
100
AcDbEntity
  8
0
  6
Continuous
 62
     7
370
    25
100
AcDbCircle
 10
213.794193773
 20
734.6071438336
 30
0.0
 40
2.500000000003829
100
AcDbArc
 50
294.1121533943
 51
109.3361224678
  0
ARC
  5
E4
330
1F
100
AcDbEntity
  8
0
  6
Continuous
 62
     7
370
    25
100
AcDbCircle
 10
212.0586996913
 20
740.8578285972
 30
0.0
 40
2.500000000003566
100
AcDbArc
 50
281.6983602908
 51
96.9223293644
  0
ARC
  5
E5
330
1F
100
AcDbEntity
  8
0
  6
Continuous
 62
     7
370
    25
100
AcDbCircle
 10
211.707492952
 20
747.3354557514
 30
0.0
 40
2.500000000003141
100
AcDbArc
 50
269.2845671874
 51
84.5085362609
  0
ARC
  5
E6
330
1F
100
AcDbEntity
  8
0
  6
Continuous
 62
     7
370
    25
100
AcDbCircle
 10
212.7569955919
 20
753.7371386497
 30
0.0
 40
2.500000000002863
100
AcDbArc
 50
256.8707740839
 51
72.0947431575
  0
ARC
  5
E7
330
1F
100
AcDbEntity
  8
0
  6
Continuous
 62
     7
370
    25
100
AcDbCircle
 10
215.1581340341
 20
759.7635417148
 30
0.0
 40
2.500000000002317
100
AcDbArc
 50
244.4569809805
 51
59.680950054
  0
ARC
  5
E8
330
1F
100
AcDbEntity
  8
0
  6
Continuous
 62
     7
370
    25
100
AcDbCircle
 10
218.7986337137
 20
765.1328770372
 30
0.0
 40
2.500000000001973
100
AcDbArc
 50
232.043187877
 51
47.2671569506
  0
ARC
  5
E9
330
1F
100
AcDbEntity
  8
0
  6
Continuous
 62
     7
370
    25
100
AcDbCircle
 10
223.5082689117
 20
769.594080465
 30
0.0
 40
2.500000000001508
100
AcDbArc
 50
219.6293947736
 51
34.8533638471
  0
ARC
  5
EA
330
1F
100
AcDbEntity
  8
0
  6
Continuous
 62
     7
370
    25
100
AcDbCircle
 10
229.0668223207
 20
772.9385510839
 30
0.0
 40
2.500000000001143
100
AcDbArc
 50
207.2156016701
 51
22.4395707437
  0
ARC
  5
EB
330
1F
100
AcDbEntity
  8
0
  6
Continuous
 62
     7
370
    25
100
AcDbCircle
 10
235.2143821612
 20
775.0099051651
 30
0.0
 40
2.500000000000812
100
AcDbArc
 50
194.8018085667
 51
10.0257776402
  0
ARC
  5
EC
330
1F
100
AcDbEntity
  8
0
  6
Continuous
 62
     7
370
    25
100
AcDbCircle
 10
241.6634953675
 20
775.7112884938
 30
0.0
 40
2.500000000000016
100
AcDbArc
 50
182.3880154633
 51
357.6119845367
  0
ARC
  5
ED
330
1F
100
AcDbEntity
  8
0
  6
Continuous
 62
     7
370
    25
100
AcDbCircle
 10
248.1126085739
 20
775.0099051651
 30
0.0
 40
2.499999999999991
100
AcDbArc
 50
169.9742223598
 51
345.1981914333
  0
ARC
  5
EE
330
1F
100
AcDbEntity
  8
0
  6
Continuous
 62
     7
370
    25
100
AcDbCircle
 10
241.6634953675
 20
745.7112884938
 30
0.0
 40
30.0000000000001
100
AcDbArc
 50
82.3622378231
 51
85.2239690735
  0
ARC
  5
EF
330
1F
100
AcDbEntity
  8
0
  6
Continuous
 62
     7
370
    25
100
AcDbCircle
 10
241.6634953675
 20
745.7112884938
 30
0.0
 40
30.00000000000004
100
AcDbArc
 50
94.7760309265
 51
97.6377621769
  0
ARC
  5
F0
330
1F
100
AcDbEntity
  8
0
  6
Continuous
 62
     7
370
    25
100
AcDbCircle
 10
241.6634953675
 20
745.7112884938
 30
0.0
 40
30.00000000000001
100
AcDbArc
 50
107.18982403
 51
110.0515552804
  0
ARC
  5
F1
330
1F
100
AcDbEntity
  8
0
  6
Continuous
 62
     7
370
    25
100
AcDbCircle
 10
241.6634953675
 20
745.7112884938
 30
0.0
 40
30.00000000000005
100
AcDbArc
 50
132.0174102369
 51
134.8791414873
  0
ARC
  5
F2
330
1F
100
AcDbEntity
  8
0
  6
Continuous
 62
     7
370
    25
100
AcDbCircle
 10
241.6634953675
 20
745.7112884938
 30
0.0
 40
30.00000000000005
100
AcDbArc
 50
119.6036171334
 51
122.4653483838
  0
ARC
  5
F3
330
1F
100
AcDbEntity
  8
0
  6
Continuous
 62
     7
370
    25
100
AcDbCircle
 10
241.6634953675
 20
745.7112884938
 30
0.0
 40
30.00000000000002
100
AcDbArc
 50
144.4312033403
 51
147.2929345907
  0
ARC
  5
F4
330
1F
100
AcDbEntity
  8
0
  6
Continuous
 62
     7
370
    25
100
AcDbCircle
 10
241.6634953675
 20
745.7112884938
 30
0.0
 40
30.00000000000001
100
AcDbArc
 50
156.8449964438
 51
159.7067276941
  0
ARC
  5
F5
330
1F
100
AcDbEntity
  8
0
  6
Continuous
 62
     7
370
    25
100
AcDbCircle
 10
241.6634953675
 20
745.7112884938
 30
0.0
 40
30.0
100
AcDbArc
 50
169.2587895472
 51
172.1205207976
  0
ARC
  5
F6
330
1F
100
AcDbEntity
  8
0
  6
Continuous
 62
     7
370
    25
100
AcDbCircle
 10
241.6634953675
 20
745.7112884938
 30
0.0
 40
30.00000000000001
100
AcDbArc
 50
181.6725826507
 51
184.534313901
  0
ARC
  5
F7
330
1F
100
AcDbEntity
  8
0
  6
Continuous
 62
     7
370
    25
100
AcDbCircle
 10
241.6634953675
 20
745.7112884938
 30
0.0
 40
29.99999999999998
100
AcDbArc
 50
231.3277550645
 51
234.1894863148
  0
ARC
  5
F8
330
1F
100
AcDbEntity
  8
0
  6
Continuous
 62
     7
370
    25
100
AcDbCircle
 10
241.6634953675
 20
745.7112884938
 30
0.0
 40
30.00000000000003
100
AcDbArc
 50
218.913961961
 51
221.7756932114
  0
ARC
  5
F9
330
1F
100
AcDbEntity
  8
0
  6
Continuous
 62
     7
370
    25
100
AcDbCircle
 10
241.6634953675
 20
745.7112884938
 30
0.0
 40
30.00000000000003
100
AcDbArc
 50
206.5001688576
 51
209.3619001079
  0
ARC
  5
FA
330
1F
100
AcDbEntity
  8
0
  6
Continuous
 62
     7
370
    25
100
AcDbCircle
 10
241.6634953675
 20
745.7112884938
 30
0.0
 40
30.00000000000001
100
AcDbArc
 50
194.0863757541
 51
196.9481070045
  0
ARC
  5
FB
330
1F
100
AcDbEntity
  8
0
  6
Continuous
 62
     7
370
    25
100
AcDbCircle
 10
241.6634953675
 20
745.7112884938
 30
0.0
 40
30.00000000000004
100
AcDbArc
 50
243.7415481679
 51
246.6032794183
  0
ARC
  5
FC
330
1F
100
AcDbEntity
  8
0
  6
Continuous
 62
     7
370
    25
100
AcDbCircle
 10
241.6634953675
 20
745.7112884938
 30
0.0
 40
29.99999999999999
100
AcDbArc
 50
256.1553412714
 51
259.0170725217
  0
ARC
  5
FD
330
1F
100
AcDbEntity
  8
0
  6
Continuous
 62
     7
370
    25
100
AcDbCircle
 10
241.6634953675
 20
745.7112884938
 30
0.0
 40
30.0
100
AcDbArc
 50
268.5691343748
 51
271.4308656252
  0
ARC
  5
FE
330
1F
100
AcDbEntity
  8
0
  6
Continuous
 62
     7
370
    25
100
AcDbCircle
 10
241.6634953675
 20
745.7112884938
 30
0.0
 40
29.99999999999998
100
AcDbArc
 50
280.9829274783
 51
283.8446587286
  0
ARC
  5
FF
330
1F
100
AcDbEntity
  8
0
  6
Continuous
 62
     7
370
    25
100
AcDbCircle
 10
241.6634953675
 20
745.7112884938
 30
0.0
 40
30.0
100
AcDbArc
 50
330.6380998921
 51
333.4998311424
  0
ARC
  5
100
330
1F
100
AcDbEntity
  8
0
  6
Continuous
 62
     7
370
    25
100
AcDbCircle
 10
241.6634953675
 20
745.7112884938
 30
0.0
 40
29.99999999999994
100
AcDbArc
 50
318.2243067886
 51
321.086038039
  0
ARC
  5
101
330
1F
100
AcDbEntity
  8
0
  6
Continuous
 62
     7
370
    25
100
AcDbCircle
 10
241.6634953675
 20
745.7112884938
 30
0.0
 40
29.99999999999996
100
AcDbArc
 50
305.8105136852
 51
308.6722449355
  0
ARC
  5
102
330
1F
100
AcDbEntity
  8
0
  6
Continuous
 62
     7
370
    25
100
AcDbCircle
 10
241.6634953675
 20
745.7112884938
 30
0.0
 40
29.99999999999999
100
AcDbArc
 50
293.3967205817
 51
296.2584518321
  0
ARC
  5
103
330
1F
100
AcDbEntity
  8
0
  6
Continuous
 62
     7
370
    25
100
AcDbCircle
 10
241.6634953675
 20
745.7112884938
 30
0.0
 40
30.00000000000004
100
AcDbArc
 50
343.0518929955
 51
345.9136242459
  0
ARC
  5
104
330
1F
100
AcDbEntity
  8
0
  6
Continuous
 62
     7
370
    25
100
AcDbCircle
 10
241.6634953675
 20
745.7112884938
 30
0.0
 40
29.99999999999996
100
AcDbArc
 50
355.465686099
 51
358.3274173493
  0
ARC
  5
105
330
1F
100
AcDbEntity
  8
0
  6
Continuous
 62
     7
370
    25
100
AcDbCircle
 10
241.6634953675
 20
745.7112884938
 30
0.0
 40
30.00000000000001
100
AcDbArc
 50
7.8794792024
 51
10.7412104528
  0
ARC
  5
106
330
1F
100
AcDbEntity
  8
0
  6
Continuous
 62
     7
370
    25
100
AcDbCircle
 10
241.6634953675
 20
745.7112884938
 30
0.0
 40
30.00000000000004
100
AcDbArc
 50
20.2932723059
 51
23.1550035562
  0
ARC
  5
107
330
1F
100
AcDbEntity
  8
0
  6
Continuous
 62
     7
370
    25
100
AcDbCircle
 10
241.6634953675
 20
745.7112884938
 30
0.0
 40
30.00000000000005
100
AcDbArc
 50
45.1208585127
 51
47.9825897631
  0
ARC
  5
108
330
1F
100
AcDbEntity
  8
0
  6
Continuous
 62
     7
370
    25
100
AcDbCircle
 10
241.6634953675
 20
745.7112884938
 30
0.0
 40
30.00000000000002
100
AcDbArc
 50
32.7070654093
 51
35.5687966597
  0
ARC
  5
109
330
1F
100
AcDbEntity
  8
0
  6
Continuous
 62
     7
370
    25
100
AcDbCircle
 10
241.6634953675
 20
745.7112884938
 30
0.0
 40
30.00000000000005
100
AcDbArc
 50
57.5346516162
 51
60.3963828666
  0
ARC
  5
10A
330
1F
100
AcDbEntity
  8
0
  6
Continuous
 62
     7
370
    25
100
AcDbCircle
 10
241.6634953675
 20
745.7112884938
 30
0.0
 40
30.00000000000005
100
AcDbArc
 50
69.9484447196
 51
72.81017597
  0
LINE
  5
10B
330
1F
100
AcDbEntity
  8
0
  6
Continuous
 62
     7
370
    25
100
AcDbLine
 10
75.7972257334
 20
748.8032487628
 30
0.0
 11
75.7972257334
 21
743.5117461406
 31
0.0
  0
ARC
  5
10C
330
1F
100
AcDbEntity
  8
0
  6
Continuous
 62
     7
370
    25
100
AcDbCircle
 10
78.7972257334
 20
746.1574974517
 30
0.0
 40
3.999999999999996
100
AcDbArc
 50
221.4096221093
 51
138.5903778907
  0
ARC
  5
10D
330
1F
100
AcDbEntity
  8
0
  6
Continuous
 62
     7
370
    25
100
AcDbCircle
 10
91.3938987803
 20
773.3847600418
 30
0.0
 40
2.499999999999975
100
AcDbArc
 50
157.5604292564
 51
332.7843983298
  0
ARC
  5
10E
330
1F
100
AcDbEntity
  8
0
  6
Continuous
 62
     7
370
    25
100
AcDbCircle
 10
96.9524521893
 20
770.0402894229
 30
0.0
 40
2.500000000000104
100
AcDbArc
 50
145.146636153
 51
320.3706052264
  0
ARC
  5
10F
330
1F
100
AcDbEntity
  8
0
  6
Continuous
 62
     7
370
    25
100
AcDbCircle
 10
101.6620873873
 20
765.5790859951
 30
0.0
 40
2.500000000000268
100
AcDbArc
 50
132.7328430495
 51
307.9568121229
  0
ARC
  5
110
330
1F
100
AcDbEntity
  8
0
  6
Continuous
 62
     7
370
    25
100
AcDbCircle
 10
105.3025870668
 20
760.2097506727
 30
0.0
 40
2.50000000000053
100
AcDbArc
 50
120.3190499461
 51
295.5430190194
  0
ARC
  5
111
330
1F
100
AcDbEntity
  8
0
  6
Continuous
 62
     7
370
    25
100
AcDbCircle
 10
107.703725509
 20
754.1833476076
 30
0.0
 40
2.50000000000093
100
AcDbArc
 50
107.9052568426
 51
283.129225916
  0
ARC
  5
112
330
1F
100
AcDbEntity
  8
0
  6
Continuous
 62
     7
370
    25
100
AcDbCircle
 10
108.753228149
 20
747.7816647093
 30
0.0
 40
2.500000000001274
100
AcDbArc
 50
95.4914637392
 51
270.7154328125
  0
ARC
  5
113
330
1F
100
AcDbEntity
  8
0
  6
Continuous
 62
     7
370
    25
100
AcDbCircle
 10
108.4020214097
 20
741.3040375551
 30
0.0
 40
2.500000000001771
100
AcDbArc
 50
83.0776706357
 51
258.3016397091
  0
ARC
  5
114
330
1F
100
AcDbEntity
  8
0
  6
Continuous
 62
     7
370
    25
100
AcDbCircle
 10
106.666527328
 20
735.0533527915
 30
0.0
 40
2.500000000002203
100
AcDbArc
 50
70.6638775323
 51
245.8878466057
  0
ARC
  5
115
330
1F
100
AcDbEntity
  8
0
  6
Continuous
 62
     7
370
    25
100
AcDbCircle
 10
103.6278956782
 20
729.3218854908
 30
0.0
 40
2.500000000002656
100
AcDbArc
 50
58.2500844288
 51
233.4740535022
  0
ARC
  5
116
330
1F
100
AcDbEntity
  8
0
  6
Continuous
 62
     7
370
    25
100
AcDbCircle
 10
99.4282094991
 20
724.377632694
 30
0.0
 40
2.500000000003127
100
AcDbArc
 50
45.8362913254
 51
221.0602603988
  0
ARC
  5
117
330
1F
100
AcDbEntity
  8
0
  6
Continuous
 62
     7
370
    25
100
AcDbCircle
 10
94.2638414488
 20
720.4517821667
 30
0.0
 40
2.500000000003507
100
AcDbArc
 50
33.4224982219
 51
208.6464672953
  0
ARC
  5
118
330
1F
100
AcDbEntity
  8
0
  6
Continuous
 62
     7
370
    25
100
AcDbCircle
 10
88.3762716375
 20
717.7279023162
 30
0.0
 40
2.500000000003826
100
AcDbArc
 50
21.0087051185
 51
196.2326741919
  0
ARC
  5
119
330
1F
100
AcDbEntity
  8
0
  6
Continuous
 62
     7
370
    25
100
AcDbCircle
 10
82.0407962862
 20
716.3333587371
 30
0.0
 40
2.500000000004102
100
AcDbArc
 50
8.594912015
 51
183.8188810884
  0
ARC
  5
11A
330
1F
100
AcDbEntity
  8
0
  6
Continuous
 62
     7
370
    25
100
AcDbCircle
 10
75.5536551807
 20
716.3333587371
 30
0.0
 40
2.500000000004286
100
AcDbArc
 50
356.1811189116
 51
171.405087985
  0
ARC
  5
11B
330
1F
100
AcDbEntity
  8
0
  6
Continuous
 62
     7
370
    25
100
AcDbCircle
 10
69.2181798294
 20
717.7279023162
 30
0.0
 40
2.500000000004383
100
AcDbArc
 50
343.7673258081
 51
158.9912948816
  0
ARC
  5
11C
330
1F
100
AcDbEntity
  8
0
  6
Continuous
 62
     7
370
    25
100
AcDbCircle
 10
63.3306100181
 20
720.4517821667
 30
0.0
 40
2.500000000004406
100
AcDbArc
 50
331.3535327046
 51
146.5775017781
  0
ARC
  5
11D
330
1F
100
AcDbEntity
  8
0
  6
Continuous
 62
     7
370
    25
100
AcDbCircle
 10
58.1662419678
 20
724.377632694
 30
0.0
 40
2.500000000004376
100
AcDbArc
 50
318.9397396012
 51
134.1637086747
  0
ARC
  5
11E
330
1F
100
AcDbEntity
  8
0
  6
Continuous
 62
     7
370
    25
100
AcDbCircle
 10
53.9665557887
 20
729.3218854908
 30
0.0
 40
2.500000000004139
100
AcDbArc
 50
306.5259464977
 51
121.7499155713
  0
ARC
  5
11F
330
1F
100
AcDbEntity
  8
0
  6
Continuous
 62
     7
370
    25
100
AcDbCircle
 10
50.9279241389
 20
735.0533527915
 30
0.0
 40
2.500000000003828
100
AcDbArc
 50
294.1121533943
 51
109.3361224678
  0
ARC
  5
120
330
1F
100
AcDbEntity
  8
0
  6
Continuous
 62
     7
370
    25
100
AcDbCircle
 10
49.1924300572
 20
741.3040375551
 30
0.0
 40
2.500000000003565
100
AcDbArc
 50
281.6983602908
 51
96.9223293644
  0
ARC
  5
121
330
1F
100
AcDbEntity
  8
0
  6
Continuous
 62
     7
370
    25
100
AcDbCircle
 10
48.8412233179
 20
747.7816647093
 30
0.0
 40
2.500000000003224
100
AcDbArc
 50
269.2845671874
 51
84.5085362609
  0
ARC
  5
122
330
1F
100
AcDbEntity
  8
0
  6
Continuous
 62
     7
370
    25
100
AcDbCircle
 10
49.8907259579
 20
754.1833476076
 30
0.0
 40
2.500000000002875
100
AcDbArc
 50
256.8707740839
 51
72.0947431575
  0
ARC
  5
123
330
1F
100
AcDbEntity
  8
0
  6
Continuous
 62
     7
370
    25
100
AcDbCircle
 10
52.2918644001
 20
760.2097506727
 30
0.0
 40
2.500000000002318
100
AcDbArc
 50
244.4569809805
 51
59.680950054
  0
ARC
  5
124
330
1F
100
AcDbEntity
  8
0
  6
Continuous
 62
     7
370
    25
100
AcDbCircle
 10
55.9323640796
 20
765.5790859951
 30
0.0
 40
2.500000000001949
100
AcDbArc
 50
232.043187877
 51
47.2671569506
  0
ARC
  5
125
330
1F
100
AcDbEntity
  8
0
  6
Continuous
 62
     7
370
    25
100
AcDbCircle
 10
60.6419992776
 20
770.0402894229
 30
0.0
 40
2.50000000000153
100
AcDbArc
 50
219.6293947736
 51
34.8533638471
  0
ARC
  5
126
330
1F
100
AcDbEntity
  8
0
  6
Continuous
 62
     7
370
    25
100
AcDbCircle
 10
66.2005526866
 20
773.3847600418
 30
0.0
 40
2.50000000000113
100
AcDbArc
 50
207.2156016701
 51
22.4395707437
  0
ARC
  5
127
330
1F
100
AcDbEntity
  8
0
  6
Continuous
 62
     7
370
    25
100
AcDbCircle
 10
72.3481125271
 20
775.456114123
 30
0.0
 40
2.500000000000815
100
AcDbArc
 50
194.8018085667
 51
10.0257776402
  0
ARC
  5
128
330
1F
100
AcDbEntity
  8
0
  6
Continuous
 62
     7
370
    25
100
AcDbCircle
 10
78.7972257334
 20
776.1574974517
 30
0.0
 40
2.500000000000002
100
AcDbArc
 50
182.3880154633
 51
357.6119845367
  0
ARC
  5
129
330
1F
100
AcDbEntity
  8
0
  6
Continuous
 62
     7
370
    25
100
AcDbCircle
 10
85.2463389398
 20
775.456114123
 30
0.0
 40
2.500000000000019
100
AcDbArc
 50
169.9742223598
 51
345.1981914333
  0
ARC
  5
12A
330
1F
100
AcDbEntity
  8
0
  6
Continuous
 62
     7
370
    25
100
AcDbCircle
 10
78.7972257334
 20
746.1574974517
 30
0.0
 40
30.0000000000001
100
AcDbArc
 50
82.3622378231
 51
85.2239690735
  0
ARC
  5
12B
330
1F
100
AcDbEntity
  8
0
  6
Continuous
 62
     7
370
    25
100
AcDbCircle
 10
78.7972257334
 20
746.1574974517
 30
0.0
 40
30.00000000000004
100
AcDbArc
 50
94.7760309265
 51
97.6377621769
  0
ARC
  5
12C
330
1F
100
AcDbEntity
  8
0
  6
Continuous
 62
     7
370
    25
100
AcDbCircle
 10
78.7972257334
 20
746.1574974517
 30
0.0
 40
30.00000000000012
100
AcDbArc
 50
107.18982403
 51
110.0515552804
  0
ARC
  5
12D
330
1F
100
AcDbEntity
  8
0
  6
Continuous
 62
     7
370
    25
100
AcDbCircle
 10
78.7972257334
 20
746.1574974517
 30
0.0
 40
30.00000000000005
100
AcDbArc
 50
132.0174102369
 51
134.8791414873
  0
ARC
  5
12E
330
1F
100
AcDbEntity
  8
0
  6
Continuous
 62
     7
370
    25
100
AcDbCircle
 10
78.7972257334
 20
746.1574974517
 30
0.0
 40
30.00000000000004
100
AcDbArc
 50
119.6036171334
 51
122.4653483838
  0
ARC
  5
12F
330
1F
100
AcDbEntity
  8
0
  6
Continuous
 62
     7
370
    25
100
AcDbCircle
 10
78.7972257334
 20
746.1574974517
 30
0.0
 40
30.00000000000006
100
AcDbArc
 50
144.4312033403
 51
147.2929345907
  0
ARC
  5
130
330
1F
100
AcDbEntity
  8
0
  6
Continuous
 62
     7
370
    25
100
AcDbCircle
 10
78.7972257334
 20
746.1574974517
 30
0.0
 40
30.00000000000004
100
AcDbArc
 50
156.8449964438
 51
159.7067276941
  0
ARC
  5
131
330
1F
100
AcDbEntity
  8
0
  6
Continuous
 62
     7
370
    25
100
AcDbCircle
 10
78.7972257334
 20
746.1574974517
 30
0.0
 40
30.00000000000001
100
AcDbArc
 50
169.2587895472
 51
172.1205207976
  0
ARC
  5
132
330
1F
100
AcDbEntity
  8
0
  6
Continuous
 62
     7
370
    25
100
AcDbCircle
 10
78.7972257334
 20
746.1574974517
 30
0.0
 40
29.99999999999999
100
AcDbArc
 50
181.6725826507
 51
184.534313901
  0
ARC
  5
133
330
1F
100
AcDbEntity
  8
0
  6
Continuous
 62
     7
370
    25
100
AcDbCircle
 10
78.7972257334
 20
746.1574974517
 30
0.0
 40
29.99999999999996
100
AcDbArc
 50
231.3277550645
 51
234.1894863148
  0
ARC
  5
134
330
1F
100
AcDbEntity
  8
0
  6
Continuous
 62
     7
370
    25
100
AcDbCircle
 10
78.7972257334
 20
746.1574974517
 30
0.0
 40
29.99999999999994
100
AcDbArc
 50
218.913961961
 51
221.7756932114
  0
ARC
  5
135
330
1F
100
AcDbEntity
  8
0
  6
Continuous
 62
     7
370
    25
100
AcDbCircle
 10
78.7972257334
 20
746.1574974517
 30
0.0
 40
29.99999999999995
100
AcDbArc
 50
206.5001688576
 51
209.3619001079
  0
ARC
  5
136
330
1F
100
AcDbEntity
  8
0
  6
Continuous
 62
     7
370
    25
100
AcDbCircle
 10
78.7972257334
 20
746.1574974517
 30
0.0
 40
29.99999999999999
100
AcDbArc
 50
194.0863757541
 51
196.9481070045
  0
ARC
  5
137
330
1F
100
AcDbEntity
  8
0
  6
Continuous
 62
     7
370
    25
100
AcDbCircle
 10
78.7972257334
 20
746.1574974517
 30
0.0
 40
29.99999999999993
100
AcDbArc
 50
243.7415481679
 51
246.6032794183
  0
ARC
  5
138
330
1F
100
AcDbEntity
  8
0
  6
Continuous
 62
     7
370
    25
100
AcDbCircle
 10
78.7972257334
 20
746.1574974517
 30
0.0
 40
29.99999999999999
100
AcDbArc
 50
256.1553412714
 51
259.0170725217
  0
ARC
  5
139
330
1F
100
AcDbEntity
  8
0
  6
Continuous
 62
     7
370
    25
100
AcDbCircle
 10
78.7972257334
 20
746.1574974517
 30
0.0
 40
30.0
100
AcDbArc
 50
268.5691343748
 51
271.4308656252
  0
ARC
  5
13A
330
1F
100
AcDbEntity
  8
0
  6
Continuous
 62
     7
370
    25
100
AcDbCircle
 10
78.7972257334
 20
746.1574974517
 30
0.0
 40
29.99999999999998
100
AcDbArc
 50
280.9829274783
 51
283.8446587286
  0
ARC
  5
13B
330
1F
100
AcDbEntity
  8
0
  6
Continuous
 62
     7
370
    25
100
AcDbCircle
 10
78.7972257334
 20
746.1574974517
 30
0.0
 40
29.99999999999999
100
AcDbArc
 50
330.6380998921
 51
333.4998311424
  0
ARC
  5
13C
330
1F
100
AcDbEntity
  8
0
  6
Continuous
 62
     7
370
    25
100
AcDbCircle
 10
78.7972257334
 20
746.1574974517
 30
0.0
 40
29.99999999999996
100
AcDbArc
 50
318.2243067886
 51
321.086038039
  0
ARC
  5
13D
330
1F
100
AcDbEntity
  8
0
  6
Continuous
 62
     7
370
    25
100
AcDbCircle
 10
78.7972257334
 20
746.1574974517
 30
0.0
 40
29.99999999999999
100
AcDbArc
 50
305.8105136852
 51
308.6722449355
  0
ARC
  5
13E
330
1F
100
AcDbEntity
  8
0
  6
Continuous
 62
     7
370
    25
100
AcDbCircle
 10
78.7972257334
 20
746.1574974517
 30
0.0
 40
29.9999999999999
100
AcDbArc
 50
293.3967205817
 51
296.2584518321
  0
ARC
  5
13F
330
1F
100
AcDbEntity
  8
0
  6
Continuous
 62
     7
370
    25
100
AcDbCircle
 10
78.7972257334
 20
746.1574974517
 30
0.0
 40
29.99999999999999
100
AcDbArc
 50
343.0518929955
 51
345.9136242459
  0
ARC
  5
140
330
1F
100
AcDbEntity
  8
0
  6
Continuous
 62
     7
370
    25
100
AcDbCircle
 10
78.7972257334
 20
746.1574974517
 30
0.0
 40
30.00000000000001
100
AcDbArc
 50
355.465686099
 51
358.3274173493
  0
ARC
  5
141
330
1F
100
AcDbEntity
  8
0
  6
Continuous
 62
     7
370
    25
100
AcDbCircle
 10
78.7972257334
 20
746.1574974517
 30
0.0
 40
30.00000000000002
100
AcDbArc
 50
7.8794792024
 51
10.7412104528
  0
ARC
  5
142
330
1F
100
AcDbEntity
  8
0
  6
Continuous
 62
     7
370
    25
100
AcDbCircle
 10
78.7972257334
 20
746.1574974517
 30
0.0
 40
30.00000000000005
100
AcDbArc
 50
20.2932723059
 51
23.1550035562
  0
ARC
  5
143
330
1F
100
AcDbEntity
  8
0
  6
Continuous
 62
     7
370
    25
100
AcDbCircle
 10
78.7972257334
 20
746.1574974517
 30
0.0
 40
30.00000000000007
100
AcDbArc
 50
45.1208585127
 51
47.9825897631
  0
ARC
  5
144
330
1F
100
AcDbEntity
  8
0
  6
Continuous
 62
     7
370
    25
100
AcDbCircle
 10
78.7972257334
 20
746.1574974517
 30
0.0
 40
30.00000000000005
100
AcDbArc
 50
32.7070654093
 51
35.5687966597
  0
ARC
  5
145
330
1F
100
AcDbEntity
  8
0
  6
Continuous
 62
     7
370
    25
100
AcDbCircle
 10
78.7972257334
 20
746.1574974517
 30
0.0
 40
30.00000000000006
100
AcDbArc
 50
57.5346516162
 51
60.3963828666
  0
ARC
  5
146
330
1F
100
AcDbEntity
  8
0
  6
Continuous
 62
     7
370
    25
100
AcDbCircle
 10
78.7972257334
 20
746.1574974517
 30
0.0
 40
30.00000000000006
100
AcDbArc
 50
69.9484447196
 51
72.81017597
  0
LINE
  5
147
330
1F
100
AcDbEntity
  8
0
  6
Continuous
 62
     7
370
    25
100
AcDbLine
 10
29.3914941117
 20
788.515846016
 30
0.0
 11
29.3914941117
 21
783.2243433939
 31
0.0
  0
ARC
  5
148
330
1F
100
AcDbEntity
  8
0
  6
Continuous
 62
     7
370
    25
100
AcDbCircle
 10
32.3914941117
 20
785.8700947049
 30
0.0
 40
4.000000000000004
100
AcDbArc
 50
221.4096221093
 51
138.5903778907
  0
ARC
  5
149
330
1F
100
AcDbEntity
  8
0
  6
Continuous
 62
     7
370
    25
100
AcDbCircle
 10
44.9881671585
 20
813.0973572951
 30
0.0
 40
2.499999999999968
100
AcDbArc
 50
157.5604292564
 51
332.7843983298
  0
ARC
  5
14A
330
1F
100
AcDbEntity
  8
0
  6
Continuous
 62
     7
370
    25
100
AcDbCircle
 10
50.5467205675
 20
809.7528866761
 30
0.0
 40
2.500000000000104
100
AcDbArc
 50
145.146636153
 51
320.3706052264
  0
ARC
  5
14B
330
1F
100
AcDbEntity
  8
0
  6
Continuous
 62
     7
370
    25
100
AcDbCircle
 10
55.2563557655
 20
805.2916832484
 30
0.0
 40
2.500000000000272
100
AcDbArc
 50
132.7328430495
 51
307.9568121229
  0
ARC
  5
14C
330
1F
100
AcDbEntity
  8
0
  6
Continuous
 62
     7
370
    25
100
AcDbCircle
 10
58.8968554451
 20
799.9223479259
 30
0.0
 40
2.500000000000534
100
AcDbArc
 50
120.3190499461
 51
295.5430190195
  0
ARC
  5
14D
330
1F
100
AcDbEntity
  8
0
  6
Continuous
 62
     7
370
    25
100
AcDbCircle
 10
61.2979938873
 20
793.8959448608
 30
0.0
 40
2.500000000000932
100
AcDbArc
 50
107.9052568426
 51
283.129225916
  0
ARC
  5
14E
330
1F
100
AcDbEntity
  8
0
  6
Continuous
 62
     7
370
    25
100
AcDbCircle
 10
62.3474965272
 20
787.4942619625
 30
0.0
 40
2.500000000001274
100
AcDbArc
 50
95.4914637392
 51
270.7154328125
  0
ARC
  5
14F
330
1F
100
AcDbEntity
  8
0
  6
Continuous
 62
     7
370
    25
100
AcDbCircle
 10
61.9962897879
 20
781.0166348084
 30
0.0
 40
2.500000000001769
100
AcDbArc
 50
83.0776706357
 51
258.3016397091
  0
ARC
  5
150
330
1F
100
AcDbEntity
  8
0
  6
Continuous
 62
     7
370
    25
100
AcDbCircle
 10
60.2607957062
 20
774.7659500447
 30
0.0
 40
2.500000000002206
100
AcDbArc
 50
70.6638775323
 51
245.8878466057
  0
ARC
  5
151
330
1F
100
AcDbEntity
  8
0
  6
Continuous
 62
     7
370
    25
100
AcDbCircle
 10
57.2221640564
 20
769.0344827441
 30
0.0
 40
2.500000000002659
100
AcDbArc
 50
58.2500844288
 51
233.4740535022
  0
ARC
  5
152
330
1F
100
AcDbEntity
  8
0
  6
Continuous
 62
     7
370
    25
100
AcDbCircle
 10
53.0224778773
 20
764.0902299472
 30
0.0
 40
2.500000000003127
100
AcDbArc
 50
45.8362913254
 51
221.0602603988
  0
ARC
  5
153
330
1F
100
AcDbEntity
  8
0
  6
Continuous
 62
     7
370
    25
100
AcDbCircle
 10
47.858109827
 20
760.1643794199
 30
0.0
 40
2.500000000003501
100
AcDbArc
 50
33.4224982219
 51
208.6464672953
  0
ARC
  5
154
330
1F
100
AcDbEntity
  8
0
  6
Continuous
 62
     7
370
    25
100
AcDbCircle
 10
41.9705400158
 20
757.4404995694
 30
0.0
 40
2.500000000003825
100
AcDbArc
 50
21.0087051185
 51
196.2326741919
  0
ARC
  5
155
330
1F
100
AcDbEntity
  8
0
  6
Continuous
 62
     7
370
    25
100
AcDbCircle
 10
35.6350646644
 20
756.0459559903
 30
0.0
 40
2.500000000004102
100
AcDbArc
 50
8.594912015
 51
183.8188810884
  0
ARC
  5
156
330
1F
100
AcDbEntity
  8
0
  6
Continuous
 62
     7
370
    25
100
AcDbCircle
 10
29.147923559
 20
756.0459559903
 30
0.0
 40
2.500000000004283
100
AcDbArc
 50
356.1811189116
 51
171.405087985
  0
ARC
  5
157
330
1F
100
AcDbEntity
  8
0
  6
Continuous
 62
     7
370
    25
100
AcDbCircle
 10
22.8124482076
 20
757.4404995694
 30
0.0
 40
2.500000000004376
100
AcDbArc
 50
343.7673258081
 51
158.9912948816
  0
ARC
  5
158
330
1F
100
AcDbEntity
  8
0
  6
Continuous
 62
     7
370
    25
100
AcDbCircle
 10
16.9248783964
 20
760.1643794199
 30
0.0
 40
2.500000000004413
100
AcDbArc
 50
331.3535327046
 51
146.5775017781
  0
ARC
  5
159
330
1F
100
AcDbEntity
  8
0
  6
Continuous
 62
     7
370
    25
100
AcDbCircle
 10
11.7605103461
 20
764.0902299472
 30
0.0
 40
2.500000000004378
100
AcDbArc
 50
318.9397396012
 51
134.1637086747
  0
ARC
  5
15A
330
1F
100
AcDbEntity
  8
0
  6
Continuous
 62
     7
370
    25
100
AcDbCircle
 10
7.560824167
 20
769.0344827441
 30
0.0
 40
2.50000000000414
100
AcDbArc
 50
306.5259464977
 51
121.7499155713
  0
ARC
  5
15B
330
1F
100
AcDbEntity
  8
0
  6
Continuous
 62
     7
370
    25
100
AcDbCircle
 10
4.5221925172
 20
774.7659500447
 30
0.0
 40
2.500000000003828
100
AcDbArc
 50
294.1121533943
 51
109.3361224678
  0
ARC
  5
15C
330
1F
100
AcDbEntity
  8
0
  6
Continuous
 62
     7
370
    25
100
AcDbCircle
 10
2.7866984354
 20
781.0166348083
 30
0.0
 40
2.500000000003564
100
AcDbArc
 50
281.6983602908
 51
96.9223293644
  0
ARC
  5
15D
330
1F
100
AcDbEntity
  8
0
  6
Continuous
 62
     7
370
    25
100
AcDbCircle
 10
2.4354916961
 20
787.4942619625
 30
0.0
 40
2.500000000003224
100
AcDbArc
 50
269.2845671874
 51
84.5085362609
  0
ARC
  5
15E
330
1F
100
AcDbEntity
  8
0
  6
Continuous
 62
     7
370
    25
100
AcDbCircle
 10
3.4849943361
 20
793.8959448608
 30
0.0
 40
2.500000000002873
100
AcDbArc
 50
256.8707740839
 51
72.0947431575
  0
ARC
  5
15F
330
1F
100
AcDbEntity
  8
0
  6
Continuous
 62
     7
370
    25
100
AcDbCircle
 10
5.8861327783
 20
799.9223479259
 30
0.0
 40
2.500000000002317
100
AcDbArc
 50
244.4569809805
 51
59.680950054
  0
ARC
  5
160
330
1F
100
AcDbEntity
  8
0
  6
Continuous
 62
     7
370
    25
100
AcDbCircle
 10
9.5266324579
 20
805.2916832484
 30
0.0
 40
2.50000000000195
100
AcDbArc
 50
232.043187877
 51
47.2671569506
  0
ARC
  5
161
330
1F
100
AcDbEntity
  8
0
  6
Continuous
 62
     7
370
    25
100
AcDbCircle
 10
14.2362676559
 20
809.7528866761
 30
0.0
 40
2.500000000001534
100
AcDbArc
 50
219.6293947736
 51
34.8533638471
  0
ARC
  5
162
330
1F
100
AcDbEntity
  8
0
  6
Continuous
 62
     7
370
    25
100
AcDbCircle
 10
19.7948210649
 20
813.0973572951
 30
0.0
 40
2.500000000001133
100
AcDbArc
 50
207.2156016701
 51
22.4395707437
  0
ARC
  5
163
330
1F
100
AcDbEntity
  8
0
  6
Continuous
 62
     7
370
    25
100
AcDbCircle
 10
25.9423809054
 20
815.1687113762
 30
0.0
 40
2.500000000000812
100
AcDbArc
 50
194.8018085667
 51
10.0257776402
  0
ARC
  5
164
330
1F
100
AcDbEntity
  8
0
  6
Continuous
 62
     7
370
    25
100
AcDbCircle
 10
32.3914941117
 20
815.8700947049
 30
0.0
 40
2.500000000000002
100
AcDbArc
 50
182.3880154633
 51
357.6119845367
  0
ARC
  5
165
330
1F
100
AcDbEntity
  8
0
  6
Continuous
 62
     7
370
    25
100
AcDbCircle
 10
38.840607318
 20
815.1687113762
 30
0.0
 40
2.500000000000019
100
AcDbArc
 50
169.9742223598
 51
345.1981914333
  0
ARC
  5
166
330
1F
100
AcDbEntity
  8
0
  6
Continuous
 62
     7
370
    25
100
AcDbCircle
 10
32.3914941117
 20
785.8700947049
 30
0.0
 40
30.0000000000001
100
AcDbArc
 50
82.3622378231
 51
85.2239690735
  0
ARC
  5
167
330
1F
100
AcDbEntity
  8
0
  6
Continuous
 62
     7
370
    25
100
AcDbCircle
 10
32.3914941117
 20
785.8700947049
 30
0.0
 40
30.00000000000004
100
AcDbArc
 50
94.7760309265
 51
97.6377621769
  0
ARC
  5
168
330
1F
100
AcDbEntity
  8
0
  6
Continuous
 62
     7
370
    25
100
AcDbCircle
 10
32.3914941117
 20
785.8700947049
 30
0.0
 40
30.00000000000012
100
AcDbArc
 50
107.18982403
 51
110.0515552804
  0
ARC
  5
169
330
1F
100
AcDbEntity
  8
0
  6
Continuous
 62
     7
370
    25
100
AcDbCircle
 10
32.3914941117
 20
785.8700947049
 30
0.0
 40
30.00000000000005
100
AcDbArc
 50
132.0174102369
 51
134.8791414873
  0
ARC
  5
16A
330
1F
100
AcDbEntity
  8
0
  6
Continuous
 62
     7
370
    25
100
AcDbCircle
 10
32.3914941117
 20
785.8700947049
 30
0.0
 40
30.00000000000004
100
AcDbArc
 50
119.6036171334
 51
122.4653483838
  0
ARC
  5
16B
330
1F
100
AcDbEntity
  8
0
  6
Continuous
 62
     7
370
    25
100
AcDbCircle
 10
32.3914941117
 20
785.8700947049
 30
0.0
 40
30.00000000000006
100
AcDbArc
 50
144.4312033403
 51
147.2929345907
  0
ARC
  5
16C
330
1F
100
AcDbEntity
  8
0
  6
Continuous
 62
     7
370
    25
100
AcDbCircle
 10
32.3914941117
 20
785.8700947049
 30
0.0
 40
30.00000000000004
100
AcDbArc
 50
156.8449964438
 51
159.7067276941
  0
ARC
  5
16D
330
1F
100
AcDbEntity
  8
0
  6
Continuous
 62
     7
370
    25
100
AcDbCircle
 10
32.3914941117
 20
785.8700947049
 30
0.0
 40
30.00000000000001
100
AcDbArc
 50
169.2587895472
 51
172.1205207976
  0
ARC
  5
16E
330
1F
100
AcDbEntity
  8
0
  6
Continuous
 62
     7
370
    25
100
AcDbCircle
 10
32.3914941117
 20
785.8700947049
 30
0.0
 40
30.0
100
AcDbArc
 50
181.6725826507
 51
184.534313901
  0
ARC
  5
16F
330
1F
100
AcDbEntity
  8
0
  6
Continuous
 62
     7
370
    25
100
AcDbCircle
 10
32.3914941117
 20
785.8700947049
 30
0.0
 40
29.99999999999996
100
AcDbArc
 50
231.3277550645
 51
234.1894863148
  0
ARC
  5
170
330
1F
100
AcDbEntity
  8
0
  6
Continuous
 62
     7
370
    25
100
AcDbCircle
 10
32.3914941117
 20
785.8700947049
 30
0.0
 40
29.99999999999995
100
AcDbArc
 50
218.913961961
 51
221.7756932114
  0
ARC
  5
171
330
1F
100
AcDbEntity
  8
0
  6
Continuous
 62
     7
370
    25
100
AcDbCircle
 10
32.3914941117
 20
785.8700947049
 30
0.0
 40
29.99999999999995
100
AcDbArc
 50
206.5001688576
 51
209.3619001079
  0
ARC
  5
172
330
1F
100
AcDbEntity
  8
0
  6
Continuous
 62
     7
370
    25
100
AcDbCircle
 10
32.3914941117
 20
785.8700947049
 30
0.0
 40
29.99999999999999
100
AcDbArc
 50
194.0863757541
 51
196.9481070045
  0
ARC
  5
173
330
1F
100
AcDbEntity
  8
0
  6
Continuous
 62
     7
370
    25
100
AcDbCircle
 10
32.3914941117
 20
785.8700947049
 30
0.0
 40
29.99999999999993
100
AcDbArc
 50
243.7415481679
 51
246.6032794183
  0
ARC
  5
174
330
1F
100
AcDbEntity
  8
0
  6
Continuous
 62
     7
370
    25
100
AcDbCircle
 10
32.3914941117
 20
785.8700947049
 30
0.0
 40
29.99999999999998
100
AcDbArc
 50
256.1553412714
 51
259.0170725217
  0
ARC
  5
175
330
1F
100
AcDbEntity
  8
0
  6
Continuous
 62
     7
370
    25
100
AcDbCircle
 10
32.3914941117
 20
785.8700947049
 30
0.0
 40
30.0
100
AcDbArc
 50
268.5691343748
 51
271.4308656252
  0
ARC
  5
176
330
1F
100
AcDbEntity
  8
0
  6
Continuous
 62
     7
370
    25
100
AcDbCircle
 10
32.3914941117
 20
785.8700947049
 30
0.0
 40
29.99999999999997
100
AcDbArc
 50
280.9829274783
 51
283.8446587286
  0
ARC
  5
177
330
1F
100
AcDbEntity
  8
0
  6
Continuous
 62
     7
370
    25
100
AcDbCircle
 10
32.3914941117
 20
785.8700947049
 30
0.0
 40
29.99999999999999
100
AcDbArc
 50
330.6380998921
 51
333.4998311424
  0
ARC
  5
178
330
1F
100
AcDbEntity
  8
0
  6
Continuous
 62
     7
370
    25
100
AcDbCircle
 10
32.3914941117
 20
785.8700947049
 30
0.0
 40
29.99999999999996
100
AcDbArc
 50
318.2243067886
 51
321.086038039
  0
ARC
  5
179
330
1F
100
AcDbEntity
  8
0
  6
Continuous
 62
     7
370
    25
100
AcDbCircle
 10
32.3914941117
 20
785.8700947049
 30
0.0
 40
29.99999999999999
100
AcDbArc
 50
305.8105136852
 51
308.6722449355
  0
ARC
  5
17A
330
1F
100
AcDbEntity
  8
0
  6
Continuous
 62
     7
370
    25
100
AcDbCircle
 10
32.3914941117
 20
785.8700947049
 30
0.0
 40
29.9999999999999
100
AcDbArc
 50
293.3967205817
 51
296.2584518321
  0
ARC
  5
17B
330
1F
100
AcDbEntity
  8
0
  6
Continuous
 62
     7
370
    25
100
AcDbCircle
 10
32.3914941117
 20
785.8700947049
 30
0.0
 40
29.99999999999999
100
AcDbArc
 50
343.0518929955
 51
345.9136242459
  0
ARC
  5
17C
330
1F
100
AcDbEntity
  8
0
  6
Continuous
 62
     7
370
    25
100
AcDbCircle
 10
32.3914941117
 20
785.8700947049
 30
0.0
 40
30.0
100
AcDbArc
 50
355.465686099
 51
358.3274173493
  0
ARC
  5
17D
330
1F
100
AcDbEntity
  8
0
  6
Continuous
 62
     7
370
    25
100
AcDbCircle
 10
32.3914941117
 20
785.8700947049
 30
0.0
 40
30.00000000000003
100
AcDbArc
 50
7.8794792024
 51
10.7412104528
  0
ARC
  5
17E
330
1F
100
AcDbEntity
  8
0
  6
Continuous
 62
     7
370
    25
100
AcDbCircle
 10
32.3914941117
 20
785.8700947049
 30
0.0
 40
30.00000000000006
100
AcDbArc
 50
20.2932723059
 51
23.1550035562
  0
ARC
  5
17F
330
1F
100
AcDbEntity
  8
0
  6
Continuous
 62
     7
370
    25
100
AcDbCircle
 10
32.3914941117
 20
785.8700947049
 30
0.0
 40
30.00000000000007
100
AcDbArc
 50
45.1208585127
 51
47.9825897631
  0
ARC
  5
180
330
1F
100
AcDbEntity
  8
0
  6
Continuous
 62
     7
370
    25
100
AcDbCircle
 10
32.3914941117
 20
785.8700947049
 30
0.0
 40
30.00000000000005
100
AcDbArc
 50
32.7070654093
 51
35.5687966597
  0
ARC
  5
181
330
1F
100
AcDbEntity
  8
0
  6
Continuous
 62
     7
370
    25
100
AcDbCircle
 10
32.3914941117
 20
785.8700947049
 30
0.0
 40
30.00000000000005
100
AcDbArc
 50
57.5346516162
 51
60.3963828666
  0
ARC
  5
182
330
1F
100
AcDbEntity
  8
0
  6
Continuous
 62
     7
370
    25
100
AcDbCircle
 10
32.3914941117
 20
785.8700947049
 30
0.0
 40
30.00000000000006
100
AcDbArc
 50
69.9484447196
 51
72.81017597
  0
ENDSEC
  0
SECTION
  2
OBJECTS
  0
DICTIONARY
  5
C
330
0
100
AcDbDictionary
281
     1
  3
ACAD_GROUP
350
D
  3
ACAD_LAYOUT
350
1A
  3
ACAD_MLINESTYLE
350
17
  3
ACAD_PLOTSETTINGS
350
19
  3
ACAD_PLOTSTYLENAME
350
E
  3
ACAD_SCALELIST
350
47
  3
DWGPROPS
350
183
  0
DICTIONARY
  5
D
102
{ACAD_REACTORS
330
C
102
}
330
C
100
AcDbDictionary
281
     1
  0
DICTIONARY
  5
1A
102
{ACAD_REACTORS
330
C
102
}
330
C
100
AcDbDictionary
281
     1
  3
Layout1
350
1E
  3
Layout2
350
26
  3
Model
350
22
  0
DICTIONARY
  5
17
102
{ACAD_REACTORS
330
C
102
}
330
C
100
AcDbDictionary
281
     1
  3
Standard
350
18
  0
DICTIONARY
  5
19
102
{ACAD_REACTORS
330
C
102
}
330
C
100
AcDbDictionary
281
     1
  0
ACDBDICTIONARYWDFLT
  5
E
102
{ACAD_REACTORS
330
C
102
}
330
C
100
AcDbDictionary
281
     1
  3
Normal
350
F
100
AcDbDictionaryWithDefault
340
F
  0
DICTIONARY
  5
47
102
{ACAD_REACTORS
330
C
102
}
330
C
100
AcDbDictionary
281
     1
  3
A0
350
48
  3
A1
350
49
  3
A2
350
4A
  3
A3
350
4B
  3
A4
350
4C
  3
A5
350
4D
  3
A6
350
4E
  3
A7
350
4F
  3
A8
350
50
  3
A9
350
51
  3
B0
350
52
  3
B1
350
53
  3
B2
350
54
  3
B3
350
55
  3
B4
350
56
  3
B5
350
57
  3
B6
350
58
  3
B7
350
59
  3
B8
350
5A
  3
B9
350
5B
  3
C0
350
5C
  3
C1
350
5D
  3
C2
350
5E
  3
C3
350
5F
  3
C4
350
60
  3
C5
350
61
  3
C6
350
62
  3
C7
350
63
  3
C8
350
64
  3
C9
350
65
  3
D0
350
66
  3
D1
350
67
  3
D2
350
68
  0
XRECORD
  5
183
102
{ACAD_REACTORS
330
C
102
}
330
C
100
AcDbXrecord
280
     1
  1
DWGPROPS COOKIE
  2

  3

  4

  6

  7

  8
Nilesh Amarathunge
  9

300
=
301
=
302
=
303
=
304
=
305
=
306
=
307
=
308
=
309
=
 40
0.0
 41
2460930.639084144
 42
2460930.639084664
  1

 90
        0
  0
LAYOUT
  5
1E
102
{ACAD_REACTORS
330
1A
102
}
330
1A
100
AcDbPlotSettings
  1

  2
none_device
  4

  6

 40
0.0
 41
0.0
 42
0.0
 43
0.0
 44
0.0
 45
0.0
 46
0.0
 47
0.0
 48
0.0
 49
0.0
140
0.0
141
0.0
142
1.0
143
1.0
 70
   688
 72
     1
 73
     0
 74
     5
  7

 75
    16
147
1.0
148
0.0
149
0.0
100
AcDbLayout
  1
Layout1
 70
     1
 71
     1
 10
0.0
 20
0.0
 11
420.0
 21
297.0
 12
0.0
 22
0.0
 32
0.0
 14
1.0000000000E+20
 24
1.0000000000E+20
 34
1.0000000000E+20
 15
-1.0000000000E+20
 25
-1.0000000000E+20
 35
-1.0000000000E+20
146
0.0
 13
0.0
 23
0.0
 33
0.0
 16
1.0
 26
0.0
 36
0.0
 17
0.0
 27
1.0
 37
0.0
 76
     0
330
1B
  0
LAYOUT
  5
26
102
{ACAD_REACTORS
330
1A
102
}
330
1A
100
AcDbPlotSettings
  1

  2
none_device
  4

  6

 40
0.0
 41
0.0
 42
0.0
 43
0.0
 44
0.0
 45
0.0
 46
0.0
 47
0.0
 48
0.0
 49
0.0
140
0.0
141
0.0
142
1.0
143
1.0
 70
   688
 72
     1
 73
     0
 74
     5
  7

 75
    16
147
1.0
148
0.0
149
0.0
100
AcDbLayout
  1
Layout2
 70
     1
 71
     2
 10
0.0
 20
0.0
 11
0.0
 21
0.0
 12
0.0
 22
0.0
 32
0.0
 14
0.0
 24
0.0
 34
0.0
 15
0.0
 25
0.0
 35
0.0
146
0.0
 13
0.0
 23
0.0
 33
0.0
 16
1.0
 26
0.0
 36
0.0
 17
0.0
 27
1.0
 37
0.0
 76
     0
330
23
  0
LAYOUT
  5
22
102
{ACAD_REACTORS
330
1A
102
}
330
1A
100
AcDbPlotSettings
  1

  2
none_device
  4
Letter_(8.50_x_11.00_Inches)
  6

 40
6.35
 41
6.35
 42
6.35000508
 43
6.35000508
 44
215.9
 45
279.4
 46
0.0
 47
0.0
 48
0.0
 49
0.0
140
0.0
141
0.0
142
1.0
143
1.0
 70
  1712
 72
     1
 73
     0
 74
     0
  7

 75
     0
147
1.0
148
0.0
149
0.0
100
AcDbLayout
  1
Model
 70
     1
 71
     0
 10
0.0
 20
0.0
 11
1189.0
 21
841.0
 12
0.0
 22
0.0
 32
0.0
 14
0.0
 24
0.0
 34
0.0
 15
1189.0
 25
841.0
 35
0.0
146
0.0
 13
0.0
 23
0.0
 33
0.0
 16
1.0
 26
0.0
 36
0.0
 17
0.0
 27
1.0
 37
0.0
 76
     0
330
1F
331
29
  0
MLINESTYLE
  5
18
102
{ACAD_REACTORS
330
17
102
}
330
17
100
AcDbMlineStyle
  2
Standard
 70
     0
  3

 62
   256
 51
90.0
 52
90.0
 71
     2
 49
0.5
 62
   256
  6
BYLAYER
 49
-0.5
 62
   256
  6
BYLAYER
  0
ACDBPLACEHOLDER
  5
F
102
{ACAD_REACTORS
330
E
102
}
330
E
  0
SCALE
  5
48
102
{ACAD_REACTORS
330
47
102
}
330
47
100
AcDbScale
 70
     0
300
1:1
140
1.0
141
1.0
290
     1
  0
SCALE
  5
49
102
{ACAD_REACTORS
330
47
102
}
330
47
100
AcDbScale
 70
     0
300
1:2
140
1.0
141
2.0
290
     0
  0
SCALE
  5
4A
102
{ACAD_REACTORS
330
47
102
}
330
47
100
AcDbScale
 70
     0
300
1:4
140
1.0
141
4.0
290
     0
  0
SCALE
  5
4B
102
{ACAD_REACTORS
330
47
102
}
330
47
100
AcDbScale
 70
     0
300
1:5
140
1.0
141
5.0
290
     0
  0
SCALE
  5
4C
102
{ACAD_REACTORS
330
47
102
}
330
47
100
AcDbScale
 70
     0
300
1:8
140
1.0
141
8.0
290
     0
  0
SCALE
  5
4D
102
{ACAD_REACTORS
330
47
102
}
330
47
100
AcDbScale
 70
     0
300
1:10
140
1.0
141
10.0
290
     0
  0
SCALE
  5
4E
102
{ACAD_REACTORS
330
47
102
}
330
47
100
AcDbScale
 70
     0
300
1:16
140
1.0
141
16.0
290
     0
  0
SCALE
  5
4F
102
{ACAD_REACTORS
330
47
102
}
330
47
100
AcDbScale
 70
     0
300
1:20
140
1.0
141
20.0
290
     0
  0
SCALE
  5
50
102
{ACAD_REACTORS
330
47
102
}
330
47
100
AcDbScale
 70
     0
300
1:30
140
1.0
141
30.0
290
     0
  0
SCALE
  5
51
102
{ACAD_REACTORS
330
47
102
}
330
47
100
AcDbScale
 70
     0
300
1:40
140
1.0
141
40.0
290
     0
  0
SCALE
  5
52
102
{ACAD_REACTORS
330
47
102
}
330
47
100
AcDbScale
 70
     0
300
1:50
140
1.0
141
50.0
290
     0
  0
SCALE
  5
53
102
{ACAD_REACTORS
330
47
102
}
330
47
100
AcDbScale
 70
     0
300
1:100
140
1.0
141
100.0
290
     0
  0
SCALE
  5
54
102
{ACAD_REACTORS
330
47
102
}
330
47
100
AcDbScale
 70
     0
300
2:1
140
2.0
141
1.0
290
     0
  0
SCALE
  5
55
102
{ACAD_REACTORS
330
47
102
}
330
47
100
AcDbScale
 70
     0
300
4:1
140
4.0
141
1.0
290
     0
  0
SCALE
  5
56
102
{ACAD_REACTORS
330
47
102
}
330
47
100
AcDbScale
 70
     0
300
8:1
140
8.0
141
1.0
290
     0
  0
SCALE
  5
57
102
{ACAD_REACTORS
330
47
102
}
330
47
100
AcDbScale
 70
     0
300
10:1
140
10.0
141
1.0
290
     0
  0
SCALE
  5
58
102
{ACAD_REACTORS
330
47
102
}
330
47
100
AcDbScale
 70
     0
300
100:1
140
100.0
141
1.0
290
     0
  0
SCALE
  5
59
102
{ACAD_REACTORS
330
47
102
}
330
47
100
AcDbScale
 70
     0
300
1/128" = 1'-0"
140
0.0078125
141
12.0
290
     0
  0
SCALE
  5
5A
102
{ACAD_REACTORS
330
47
102
}
330
47
100
AcDbScale
 70
     0
300
1/64" = 1'-0"
140
0.015625
141
12.0
290
     0
  0
SCALE
  5
5B
102
{ACAD_REACTORS
330
47
102
}
330
47
100
AcDbScale
 70
     0
300
1/32" = 1'-0"
140
0.03125
141
12.0
290
     0
  0
SCALE
  5
5C
102
{ACAD_REACTORS
330
47
102
}
330
47
100
AcDbScale
 70
     0
300
1/16" = 1'-0"
140
0.0625
141
12.0
290
     0
  0
SCALE
  5
5D
102
{ACAD_REACTORS
330
47
102
}
330
47
100
AcDbScale
 70
     0
300
3/32" = 1'-0"
140
0.09375
141
12.0
290
     0
  0
SCALE
  5
5E
102
{ACAD_REACTORS
330
47
102
}
330
47
100
AcDbScale
 70
     0
300
1/8" = 1'-0"
140
0.125
141
12.0
290
     0
  0
SCALE
  5
5F
102
{ACAD_REACTORS
330
47
102
}
330
47
100
AcDbScale
 70
     0
300
3/16" = 1'-0"
140
0.1875
141
12.0
290
     0
  0
SCALE
  5
60
102
{ACAD_REACTORS
330
47
102
}
330
47
100
AcDbScale
 70
     0
300
1/4" = 1'-0"
140
0.25
141
12.0
290
     0
  0
SCALE
  5
61
102
{ACAD_REACTORS
330
47
102
}
330
47
100
AcDbScale
 70
     0
300
3/8" = 1'-0"
140
0.375
141
12.0
290
     0
  0
SCALE
  5
62
102
{ACAD_REACTORS
330
47
102
}
330
47
100
AcDbScale
 70
     0
300
1/2" = 1'-0"
140
0.5
141
12.0
290
     0
  0
SCALE
  5
63
102
{ACAD_REACTORS
330
47
102
}
330
47
100
AcDbScale
 70
     0
300
3/4" = 1'-0"
140
0.75
141
12.0
290
     0
  0
SCALE
  5
64
102
{ACAD_REACTORS
330
47
102
}
330
47
100
AcDbScale
 70
     0
300
1" = 1'-0"
140
1.0
141
12.0
290
     0
  0
SCALE
  5
65
102
{ACAD_REACTORS
330
47
102
}
330
47
100
AcDbScale
 70
     0
300
1-1/2" = 1'-0"
140
1.5
141
12.0
290
     0
  0
SCALE
  5
66
102
{ACAD_REACTORS
330
47
102
}
330
47
100
AcDbScale
 70
     0
300
3" = 1'-0"
140
3.0
141
12.0
290
     0
  0
SCALE
  5
67
102
{ACAD_REACTORS
330
47
102
}
330
47
100
AcDbScale
 70
     0
300
6" = 1'-0"
140
6.0
141
12.0
290
     0
  0
SCALE
  5
68
102
{ACAD_REACTORS
330
47
102
}
330
47
100
AcDbScale
 70
     0
300
1'-0" = 1'-0"
140
12.0
141
12.0
290
     0
  0
ENDSEC
  0
EOF
