  0
SECTION
  2
HEADER
  9
$ACADVER
  1
AC1015
  9
$ACADMAINTVER
 70
     6
  9
$DWGCODEPAGE
  3
ANSI_1252
  9
$INSBASE
 10
0.0
 20
0.0
 30
0.0
  9
$EXTMIN
 10
0.0
 20
0.0
 30
0.0
  9
$EXTMAX
 10
1189.0
 20
841.0
 30
0.0
  9
$LIMMIN
 10
0.0
 20
0.0
  9
$LIMMAX
 10
1189.0
 20
841.0
  9
$ORTHOMODE
 70
     0
  9
$REGENMODE
 70
     1
  9
$FILLMODE
 70
     1
  9
$QTEXTMODE
 70
     0
  9
$MIRRTEXT
 70
     1
  9
$LTSCALE
 40
1.0
  9
$ATTMODE
 70
     1
  9
$TEXTSIZE
 40
3.5
  9
$TRACEWID
 40
1.0
  9
$TEXTSTYLE
  7
Standard
  9
$CLAYER
  8
0
  9
$CELTYPE
  6
ByLayer
  9
$CECOLOR
 62
   256
  9
$CELTSCALE
 40
1.0
  9
$DISPSILH
 70
     0
  9
$DIMSCALE
 40
1.0
  9
$DIMASZ
 40
3.302
  9
$DIMEXO
 40
1.0
  9
$DIMDLI
 40
3.75
  9
$DIMRND
 40
0.0
  9
$DIMDLE
 40
0.0
  9
$DIMEXE
 40
1.0
  9
$DIMTP
 40
0.0
  9
$DIMTM
 40
0.0
  9
$DIMTXT
 40
3.5
  9
$DIMCEN
 40
2.5
  9
$DIMTSZ
 40
0.0
  9
$DIMTOL
 70
     0
  9
$DIMLIM
 70
     0
  9
$DIMTIH
 70
     1
  9
$DIMTOH
 70
     1
  9
$DIMSE1
 70
     0
  9
$DIMSE2
 70
     0
  9
$DIMTAD
 70
     1
  9
$DIMZIN
 70
     1
  9
$DIMBLK
  1

  9
$DIMASO
 70
     1
  9
$DIMSHO
 70
     1
  9
$DIMPOST
  1

  9
$DIMAPOST
  1

  9
$DIMALT
 70
     0
  9
$DIMALTD
 70
     3
  9
$DIMALTF
 40
0.0393700787
  9
$DIMLFAC
 40
1.0
  9
$DIMTOFL
 70
     1
  9
$DIMTVP
 40
0.0
  9
$DIMTIX
 70
     0
  9
$DIMSOXD
 70
     0
  9
$DIMSAH
 70
     0
  9
$DIMBLK1
  1

  9
$DIMBLK2
  1

  9
$DIMSTYLE
  2
ISO-25
  9
$DIMCLRD
 70
     0
  9
$DIMCLRE
 70
     0
  9
$DIMCLRT
 70
     0
  9
$DIMTFAC
 40
1.0
  9
$DIMGAP
 40
1.524
  9
$DIMJUST
 70
     0
  9
$DIMSD1
 70
     0
  9
$DIMSD2
 70
     0
  9
$DIMTOLJ
 70
     0
  9
$DIMTZIN
 70
     1
  9
$DIMALTZ
 70
     0
  9
$DIMALTTZ
 70
     0
  9
$DIMUPT
 70
     0
  9
$DIMDEC
 70
     2
  9
$DIMTDEC
 70
     2
  9
$DIMALTU
 70
     2
  9
$DIMALTTD
 70
     3
  9
$DIMTXSTY
  7
Standard
  9
$DIMAUNIT
 70
     0
  9
$DIMADEC
 70
     2
  9
$DIMALTRND
 40
0.0
  9
$DIMAZIN
 70
     0
  9
$DIMDSEP
 70
    44
  9
$DIMATFIT
 70
     3
  9
$DIMFRAC
 70
     0
  9
$DIMLDRBLK
  1

  9
$DIMLUNIT
 70
     2
  9
$DIMLWD
 70
    -2
  9
$DIMLWE
 70
    -2
  9
$DIMTMOVE
 70
     0
  9
$LUNITS
 70
     2
  9
$LUPREC
 70
     2
  9
$SKETCHINC
 40
1.0
  9
$FILLETRAD
 40
10.0
  9
$AUNITS
 70
     0
  9
$AUPREC
 70
     2
  9
$MENU
  1
.
  9
$ELEVATION
 40
0.0
  9
$PELEVATION
 40
0.0
  9
$THICKNESS
 40
0.0
  9
$LIMCHECK
 70
     0
  9
$CHAMFERA
 40
0.0
  9
$CHAMFERB
 40
0.0
  9
$CHAMFERC
 40
0.0
  9
$CHAMFERD
 40
0.0
  9
$SKPOLY
 70
     0
  9
$TDCREATE
 40
2460936.667142048
  9
$TDUCREATE
 40
2460936.437975382
  9
$TDUPDATE
 40
2460936.667142963
  9
$TDUUPDATE
 40
2460936.437976297
  9
$TDINDWG
 40
0.0000000116
  9
$TDUSRTIMER
 40
0.0000000116
  9
$USRTIMER
 70
     1
  9
$ANGBASE
 50
0.0
  9
$ANGDIR
 70
     0
  9
$PDMODE
 70
     0
  9
$PDSIZE
 40
-1.0
  9
$PLINEWID
 40
0.0
  9
$SPLFRAME
 70
     0
  9
$SPLINETYPE
 70
     6
  9
$SPLINESEGS
 70
     8
  9
$HANDSEED
  5
11F
  9
$SURFTAB1
 70
     6
  9
$SURFTAB2
 70
     6
  9
$SURFTYPE
 70
     6
  9
$SURFU
 70
     6
  9
$SURFV
 70
     6
  9
$UCSBASE
  2

  9
$UCSNAME
  2

  9
$UCSORG
 10
0.0
 20
0.0
 30
0.0
  9
$UCSXDIR
 10
1.0
 20
0.0
 30
0.0
  9
$UCSYDIR
 10
0.0
 20
1.0
 30
0.0
  9
$UCSORTHOREF
  2

  9
$UCSORTHOVIEW
 70
     0
  9
$UCSORGTOP
 10
0.0
 20
0.0
 30
0.0
  9
$UCSORGBOTTOM
 10
0.0
 20
0.0
 30
0.0
  9
$UCSORGLEFT
 10
0.0
 20
0.0
 30
0.0
  9
$UCSORGRIGHT
 10
0.0
 20
0.0
 30
0.0
  9
$UCSORGFRONT
 10
0.0
 20
0.0
 30
0.0
  9
$UCSORGBACK
 10
0.0
 20
0.0
 30
0.0
  9
$PUCSBASE
  2

  9
$PUCSNAME
  2

  9
$PUCSORG
 10
0.0
 20
0.0
 30
0.0
  9
$PUCSXDIR
 10
1.0
 20
0.0
 30
0.0
  9
$PUCSYDIR
 10
0.0
 20
1.0
 30
0.0
  9
$PUCSORTHOREF
  2

  9
$PUCSORTHOVIEW
 70
     0
  9
$PUCSORGTOP
 10
0.0
 20
0.0
 30
0.0
  9
$PUCSORGBOTTOM
 10
0.0
 20
0.0
 30
0.0
  9
$PUCSORGLEFT
 10
0.0
 20
0.0
 30
0.0
  9
$PUCSORGRIGHT
 10
0.0
 20
0.0
 30
0.0
  9
$PUCSORGFRONT
 10
0.0
 20
0.0
 30
0.0
  9
$PUCSORGBACK
 10
0.0
 20
0.0
 30
0.0
  9
$USERI1
 70
     0
  9
$USERI2
 70
     0
  9
$USERI3
 70
     0
  9
$USERI4
 70
     0
  9
$USERI5
 70
     0
  9
$USERR1
 40
0.0
  9
$USERR2
 40
0.0
  9
$USERR3
 40
0.0
  9
$USERR4
 40
0.0
  9
$USERR5
 40
0.0
  9
$WORLDVIEW
 70
     1
  9
$SHADEDGE
 70
     3
  9
$SHADEDIF
 70
    70
  9
$TILEMODE
 70
     1
  9
$MAXACTVP
 70
    64
  9
$PINSBASE
 10
0.0
 20
0.0
 30
0.0
  9
$PLIMCHECK
 70
     0
  9
$PEXTMIN
 10
1.0000000000E+20
 20
1.0000000000E+20
 30
1.0000000000E+20
  9
$PEXTMAX
 10
-1.0000000000E+20
 20
-1.0000000000E+20
 30
-1.0000000000E+20
  9
$PLIMMIN
 10
0.0
 20
0.0
  9
$PLIMMAX
 10
420.0
 20
297.0
  9
$UNITMODE
 70
     0
  9
$VISRETAIN
 70
     1
  9
$PLINEGEN
 70
     0
  9
$PSLTSCALE
 70
     1
  9
$TREEDEPTH
 70
  3020
  9
$CMLSTYLE
  2
Standard
  9
$CMLJUST
 70
     0
  9
$CMLSCALE
 40
20.0
  9
$PROXYGRAPHICS
 70
     1
  9
$MEASUREMENT
 70
     1
  9
$CELWEIGHT
370
    -1
  9
$ENDCAPS
280
     0
  9
$JOINSTYLE
280
     0
  9
$LWDISPLAY
290
     1
  9
$INSUNITS
 70
     4
  9
$HYPERLINKBASE
  1

  9
$STYLESHEET
  1

  9
$XEDIT
290
     1
  9
$CEPSNTYPE
380
     0
  9
$PSTYLEMODE
290
     1
  9
$FINGERPRINTGUID
  2
{decc8cc8-d705-4ff0-b25e-3e0770cad629}
  9
$VERSIONGUID
  2
{FAEB1C32-E019-11D5-929B-00C0DF256EC4}
  9
$EXTNAMES
290
     1
  9
$PSVPSCALE
 40
0.0
  9
$OLESTARTUP
290
     0
  0
ENDSEC
  0
SECTION
  2
CLASSES
  0
CLASS
  1
ACDBDICTIONARYWDFLT
  2
AcDbDictionaryWithDefault
  3
ObjectDBX Classes
 90
        0
280
     0
281
     0
  0
CLASS
  1
VISUALSTYLE
  2
AcDbVisualStyle
  3
ObjectDBX Classes
 90
     4095
280
     0
281
     0
  0
CLASS
  1
MATERIAL
  2
AcDbMaterial
  3
ObjectDBX Classes
 90
     1153
280
     0
281
     0
  0
CLASS
  1
SCALE
  2
AcDbScale
  3
ObjectDBX Classes
 90
     1153
280
     0
281
     0
  0
CLASS
  1
TABLESTYLE
  2
AcDbTableStyle
  3
ObjectDBX Classes
 90
     4095
280
     0
281
     0
  0
CLASS
  1
MLEADERSTYLE
  2
AcDbMLeaderStyle
  3
ACDB_MLEADERSTYLE_CLASS
 90
     4095
280
     0
281
     0
  0
CLASS
  1
SUN
  2
AcDbSun
  3
SCENEOE
 90
     1153
280
     0
281
     0
  0
CLASS
  1
ACDBPLACEHOLDER
  2
AcDbPlaceHolder
  3
ObjectDBX Classes
 90
        0
280
     0
281
     0
  0
CLASS
  1
LAYOUT
  2
AcDbLayout
  3
ObjectDBX Classes
 90
        0
280
     0
281
     0
  0
ENDSEC
  0
SECTION
  2
TABLES
  0
TABLE
  2
VPORT
  5
8
330
0
100
AcDbSymbolTable
 70
     1
  0
VPORT
  5
29
330
8
100
AcDbSymbolTableRecord
100
AcDbViewportTableRecord
  2
*Active
 70
     0
 10
0.0
 20
0.0
 11
1.0
 21
1.0
 12
594.5
 22
420.5
 13
0.0
 23
0.0
 14
10.0
 24
10.0
 15
10.0
 25
10.0
 16
0.0
 26
0.0
 36
1.0
 17
0.0
 27
0.0
 37
0.0
 40
841.0
 41
1.4137931034
 42
50.0
 43
0.0
 44
0.0
 50
0.0
 51
0.0
 71
     0
 72
  2000
 73
     1
 74
     3
 75
     0
 76
     0
 77
     0
 78
     0
281
     0
 65
     1
110
0.0
120
0.0
130
0.0
111
1.0
121
0.0
131
0.0
112
0.0
122
1.0
132
0.0
 79
     0
146
0.0
  0
ENDTAB
  0
TABLE
  2
LTYPE
  5
5
330
0
100
AcDbSymbolTable
 70
     6
  0
LTYPE
  5
14
330
5
100
AcDbSymbolTableRecord
100
AcDbLinetypeTableRecord
  2
ByBlock
 70
     0
  3

 72
    65
 73
     0
 40
0.0
  0
LTYPE
  5
15
330
5
100
AcDbSymbolTableRecord
100
AcDbLinetypeTableRecord
  2
ByLayer
 70
     0
  3

 72
    65
 73
     0
 40
0.0
  0
LTYPE
  5
16
330
5
100
AcDbSymbolTableRecord
100
AcDbLinetypeTableRecord
  2
Continuous
 70
     0
  3
Solid line
 72
    65
 73
     0
 40
0.0
  0
LTYPE
  5
6E
330
5
100
AcDbSymbolTableRecord
100
AcDbLinetypeTableRecord
  2
HIDDEN
 70
     0
  3
Hidden __ __ __ __ __ __ __ __ __ __ __ __ __ __
 72
    65
 73
     2
 40
1.905
 49
1.27
 74
     0
 49
-0.635
 74
     0
  0
LTYPE
  5
6F
330
5
100
AcDbSymbolTableRecord
100
AcDbLinetypeTableRecord
  2
PHANTOM
 70
     0
  3
Phantom ______  __  __  ______  __  __  ______
 72
    65
 73
     6
 40
12.7
 49
6.35
 74
     0
 49
-1.27
 74
     0
 49
1.27
 74
     0
 49
-1.27
 74
     0
 49
1.27
 74
     0
 49
-1.27
 74
     0
  0
LTYPE
  5
70
330
5
100
AcDbSymbolTableRecord
100
AcDbLinetypeTableRecord
  2
CENTER
 70
     0
  3
Center ____ _ ____ _ ____ _ ____ _ ____ _ ____
 72
    65
 73
     4
 40
10.16
 49
6.35
 74
     0
 49
-1.27
 74
     0
 49
1.27
 74
     0
 49
-1.27
 74
     0
  0
LTYPE
  5
71
330
5
100
AcDbSymbolTableRecord
100
AcDbLinetypeTableRecord
  2
CENTERX2
 70
     0
  3
Center (2x) ________  __  ________  __  _____
 72
    65
 73
     4
 40
20.32
 49
12.7
 74
     0
 49
-2.54
 74
     0
 49
2.54
 74
     0
 49
-2.54
 74
     0
  0
LTYPE
  5
72
330
5
100
AcDbSymbolTableRecord
100
AcDbLinetypeTableRecord
  2
DOT2
 70
     0
  3
Dot (.5x) ........................................
 72
    65
 73
     2
 40
0.635
 49
0.0
 74
     0
 49
-0.635
 74
     0
  0
ENDTAB
  0
TABLE
  2
LAYER
  5
2
330
0
100
AcDbSymbolTable
 70
     1
  0
LAYER
  5
10
330
2
100
AcDbSymbolTableRecord
100
AcDbLayerTableRecord
  2
0
 70
     0
 62
     7
  6
Continuous
370
    -3
390
F
  0
ENDTAB
  0
TABLE
  2
STYLE
  5
3
330
0
100
AcDbSymbolTable
 70
     1
  0
STYLE
  5
11
330
3
100
AcDbSymbolTableRecord
100
AcDbTextStyleTableRecord
  2
Standard
 70
     0
 40
0.0
 41
1.0
 50
0.0
 71
     0
 42
3.5
  3
txt
  4

  0
ENDTAB
  0
TABLE
  2
VIEW
  5
6
330
0
100
AcDbSymbolTable
 70
     0
  0
ENDTAB
  0
TABLE
  2
UCS
  5
7
330
0
100
AcDbSymbolTable
 70
     0
  0
ENDTAB
  0
TABLE
  2
APPID
  5
9
330
0
100
AcDbSymbolTable
 70
     1
  0
APPID
  5
12
330
9
100
AcDbSymbolTableRecord
100
AcDbRegAppTableRecord
  2
ACAD
 70
     0
  0
ENDTAB
  0
TABLE
  2
DIMSTYLE
  5
A
330
0
100
AcDbSymbolTable
 70
     1
100
AcDbDimStyleTable
  0
DIMSTYLE
105
27
330
A
100
AcDbSymbolTableRecord
100
AcDbDimStyleTableRecord
  2
ISO-25
 70
     0
 41
2.5
 42
0.625
 43
3.75
 44
1.25
 73
     0
 74
     0
 77
     1
 78
     8
140
2.5
141
2.5
143
0.0393700787
147
0.625
171
     3
172
     1
178
     0
271
     2
272
     2
274
     3
278
    44
283
     0
284
     8
340
11
  0
ENDTAB
  0
TABLE
  2
BLOCK_RECORD
  5
1
330
0
100
AcDbSymbolTable
 70
     1
  0
BLOCK_RECORD
  5
1F
330
1
100
AcDbSymbolTableRecord
100
AcDbBlockTableRecord
  2
*Model_Space
340
22
  0
BLOCK_RECORD
  5
1B
330
1
100
AcDbSymbolTableRecord
100
AcDbBlockTableRecord
  2
*Paper_Space
340
1E
  0
BLOCK_RECORD
  5
23
330
1
100
AcDbSymbolTableRecord
100
AcDbBlockTableRecord
  2
*Paper_Space0
340
26
  0
ENDTAB
  0
ENDSEC
  0
SECTION
  2
BLOCKS
  0
BLOCK
  5
20
330
1F
100
AcDbEntity
  8
0
100
AcDbBlockBegin
  2
*Model_Space
 70
     0
 10
0.0
 20
0.0
 30
0.0
  3
*Model_Space
  1

  0
ENDBLK
  5
21
330
1F
100
AcDbEntity
  8
0
100
AcDbBlockEnd
  0
BLOCK
  5
1C
330
1B
100
AcDbEntity
 67
     1
  8
0
100
AcDbBlockBegin
  2
*Paper_Space
 70
     0
 10
0.0
 20
0.0
 30
0.0
  3
*Paper_Space
  1

  0
ENDBLK
  5
1D
330
1B
100
AcDbEntity
 67
     1
  8
0
100
AcDbBlockEnd
  0
BLOCK
  5
24
330
23
100
AcDbEntity
  8
0
100
AcDbBlockBegin
  2
*Paper_Space0
 70
     0
 10
0.0
 20
0.0
 30
0.0
  3
*Paper_Space0
  1

  0
ENDBLK
  5
25
330
23
100
AcDbEntity
  8
0
100
AcDbBlockEnd
  0
ENDSEC
  0
SECTION
  2
ENTITIES
  0
CIRCLE
  5
73
330
1F
100
AcDbEntity
  8
0
  6
Continuous
 62
     7
370
    25
100
AcDbCircle
 10
24.1466631
 20
815.1496503625
 30
0.0
 40
5.0
  0
CIRCLE
  5
74
330
1F
100
AcDbEntity
  8
0
  6
Continuous
 62
     7
370
    25
100
AcDbCircle
 10
41.115932824
 20
832.1189200865
 30
0.0
 40
2.0
  0
CIRCLE
  5
75
330
1F
100
AcDbEntity
  8
0
  6
Continuous
 62
     7
370
    25
100
AcDbCircle
 10
7.1773945189
 20
798.1803817815
 30
0.0
 40
2.0
  0
CIRCLE
  5
76
330
1F
100
AcDbEntity
  8
0
  6
Continuous
 62
     7
370
    25
100
AcDbCircle
 10
41.115932824
 20
798.1803806386
 30
0.0
 40
2.0
  0
CIRCLE
  5
77
330
1F
100
AcDbEntity
  8
0
  6
Continuous
 62
     7
370
    25
100
AcDbCircle
 10
7.1773911666
 20
832.1189222959
 30
0.0
 40
2.0
  0
LINE
  5
78
330
1F
100
AcDbEntity
  8
0
  6
Continuous
 62
     7
370
    25
100
AcDbLine
 10
1.1466631
 20
790.1496503625
 30
0.0
 11
47.1466631
 21
790.1496503625
 31
0.0
  0
LINE
  5
79
330
1F
100
AcDbEntity
  8
0
  6
Continuous
 62
     7
370
    25
100
AcDbLine
 10
1.1466631
 20
840.1496503625
 30
0.0
 11
1.1466631
 21
790.1496503625
 31
0.0
  0
LINE
  5
7A
330
1F
100
AcDbEntity
  8
0
  6
Continuous
 62
     7
370
    25
100
AcDbLine
 10
47.1466631
 20
840.1496503625
 30
0.0
 11
1.1466631
 21
840.1496503625
 31
0.0
  0
LINE
  5
7B
330
1F
100
AcDbEntity
  8
0
  6
Continuous
 62
     7
370
    25
100
AcDbLine
 10
47.1466631
 20
790.1496503625
 30
0.0
 11
47.1466631
 21
840.1496503625
 31
0.0
  0
CIRCLE
  5
7C
330
1F
100
AcDbEntity
  8
0
  6
Continuous
 62
     7
370
    25
100
AcDbCircle
 10
70.9766503706
 20
815.0197078928
 30
0.0
 40
20.0
  0
CIRCLE
  5
7D
330
1F
100
AcDbEntity
  8
0
  6
Continuous
 62
     7
370
    25
100
AcDbCircle
 10
53.298980841
 20
832.6973774224
 30
0.0
 40
1.499999999999886
  0
CIRCLE
  5
7E
330
1F
100
AcDbEntity
  8
0
  6
Continuous
 62
     7
370
    25
100
AcDbCircle
 10
53.298980841
 20
797.3420383631
 30
0.0
 40
1.499999999999886
  0
CIRCLE
  5
7F
330
1F
100
AcDbEntity
  8
0
  6
Continuous
 62
     7
370
    25
100
AcDbCircle
 10
88.6543199003
 20
797.3420383631
 30
0.0
 40
1.5
  0
CIRCLE
  5
80
330
1F
100
AcDbEntity
  8
0
  6
Continuous
 62
     7
370
    25
100
AcDbCircle
 10
88.6543199003
 20
832.6973774224
 30
0.0
 40
1.5
  0
LINE
  5
81
330
1F
100
AcDbEntity
  8
0
  6
Continuous
 62
     7
370
    25
100
AcDbLine
 10
47.9766503706
 20
790.0197078928
 30
0.0
 11
93.9766503706
 21
790.0197078928
 31
0.0
  0
LINE
  5
82
330
1F
100
AcDbEntity
  8
0
  6
Continuous
 62
     7
370
    25
100
AcDbLine
 10
47.9766503706
 20
840.0197078928
 30
0.0
 11
47.9766503706
 21
790.0197078928
 31
0.0
  0
LINE
  5
83
330
1F
100
AcDbEntity
  8
0
  6
Continuous
 62
     7
370
    25
100
AcDbLine
 10
93.9766503706
 20
840.0197078928
 30
0.0
 11
47.9766503706
 21
840.0197078928
 31
0.0
  0
LINE
  5
84
330
1F
100
AcDbEntity
  8
0
  6
Continuous
 62
     7
370
    25
100
AcDbLine
 10
93.9766503706
 20
790.0197078928
 30
0.0
 11
93.9766503706
 21
840.0197078928
 31
0.0
  0
LINE
  5
85
330
1F
100
AcDbEntity
  8
0
  6
Continuous
 62
     7
370
    25
100
AcDbLine
 10
3.7672791009
 20
719.226612961
 30
0.0
 11
3.7672791009
 21
661.226612961
 31
0.0
  0
LINE
  5
86
330
1F
100
AcDbEntity
  8
0
  6
Continuous
 62
     7
370
    25
100
AcDbLine
 10
5.7672791009
 20
719.226612961
 30
0.0
 11
3.7672791009
 21
719.226612961
 31
0.0
  0
LINE
  5
87
330
1F
100
AcDbEntity
  8
0
  6
Continuous
 62
     7
370
    25
100
AcDbLine
 10
55.7672791009
 20
691.226612961
 30
0.0
 11
5.7672791009
 21
719.226612961
 31
0.0
  0
LINE
  5
88
330
1F
100
AcDbEntity
  8
0
  6
Continuous
 62
     7
370
    25
100
AcDbLine
 10
55.7672791009
 20
689.226612961
 30
0.0
 11
55.7672791009
 21
691.226612961
 31
0.0
  0
LINE
  5
89
330
1F
100
AcDbEntity
  8
0
  6
Continuous
 62
     7
370
    25
100
AcDbLine
 10
5.7672791009
 20
661.226612961
 30
0.0
 11
55.7672791009
 21
689.226612961
 31
0.0
  0
LINE
  5
8A
330
1F
100
AcDbEntity
  8
0
  6
Continuous
 62
     7
370
    25
100
AcDbLine
 10
3.7672791009
 20
661.226612961
 30
0.0
 11
5.7672791009
 21
661.226612961
 31
0.0
  0
LINE
  5
8B
330
1F
100
AcDbEntity
  8
0
  6
Continuous
 62
     7
370
    25
100
AcDbLine
 10
154.1304127276
 20
683.1323303808
 30
0.0
 11
154.1304127276
 21
741.1323303808
 31
0.0
  0
LINE
  5
8C
330
1F
100
AcDbEntity
  8
0
  6
Continuous
 62
     7
370
    25
100
AcDbLine
 10
152.1304127276
 20
683.1323303808
 30
0.0
 11
154.1304127276
 21
683.1323303808
 31
0.0
  0
LINE
  5
8D
330
1F
100
AcDbEntity
  8
0
  6
Continuous
 62
     7
370
    25
100
AcDbLine
 10
102.1304127276
 20
711.1323303808
 30
0.0
 11
152.1304127276
 21
683.1323303808
 31
0.0
  0
LINE
  5
8E
330
1F
100
AcDbEntity
  8
0
  6
Continuous
 62
     7
370
    25
100
AcDbLine
 10
102.1304127276
 20
713.1323303808
 30
0.0
 11
102.1304127276
 21
711.1323303808
 31
0.0
  0
LINE
  5
8F
330
1F
100
AcDbEntity
  8
0
  6
Continuous
 62
     7
370
    25
100
AcDbLine
 10
152.1304127276
 20
741.1323303808
 30
0.0
 11
102.1304127276
 21
713.1323303808
 31
0.0
  0
LINE
  5
90
330
1F
100
AcDbEntity
  8
0
  6
Continuous
 62
     7
370
    25
100
AcDbLine
 10
154.1304127276
 20
741.1323303808
 30
0.0
 11
152.1304127276
 21
741.1323303808
 31
0.0
  0
LINE
  5
91
330
1F
100
AcDbEntity
  8
0
  6
Continuous
 62
     7
370
    25
100
AcDbLine
 10
2.4681957662
 20
742.4026610761
 30
0.0
 11
157.4681957662
 21
742.4026610761
 31
0.0
  0
LINE
  5
92
330
1F
100
AcDbEntity
  8
0
  6
Continuous
 62
     7
370
    25
100
AcDbLine
 10
2.4681957662
 20
788.4026610761
 30
0.0
 11
2.4681957662
 21
742.4026610761
 31
0.0
  0
LINE
  5
93
330
1F
100
AcDbEntity
  8
0
  6
Continuous
 62
     7
370
    25
100
AcDbLine
 10
157.4681957662
 20
788.4026610761
 30
0.0
 11
2.4681957662
 21
788.4026610761
 31
0.0
  0
LINE
  5
94
330
1F
100
AcDbEntity
  8
0
  6
Continuous
 62
     7
370
    25
100
AcDbLine
 10
157.4681957662
 20
742.4026610761
 30
0.0
 11
157.4681957662
 21
788.4026610761
 31
0.0
  0
LINE
  5
95
330
1F
100
AcDbEntity
  8
0
  6
Continuous
 62
     7
370
    25
100
AcDbLine
 10
114.4945402407
 20
720.9903798297
 30
0.0
 11
114.4945402407
 21
740.9903798297
 31
0.0
  0
LINE
  5
96
330
1F
100
AcDbEntity
  8
0
  6
Continuous
 62
     7
370
    25
100
AcDbLine
 10
3.4945402407
 20
720.9903798297
 30
0.0
 11
114.4945402407
 21
720.9903798297
 31
0.0
  0
LINE
  5
97
330
1F
100
AcDbEntity
  8
0
  6
Continuous
 62
     7
370
    25
100
AcDbLine
 10
3.4945402407
 20
740.9903798297
 30
0.0
 11
3.4945402407
 21
720.9903798297
 31
0.0
  0
LINE
  5
98
330
1F
100
AcDbEntity
  8
0
  6
Continuous
 62
     7
370
    25
100
AcDbLine
 10
114.4945402407
 20
740.9903798297
 30
0.0
 11
3.4945402407
 21
740.9903798297
 31
0.0
  0
LINE
  5
99
330
1F
100
AcDbEntity
  8
0
  6
Continuous
 62
     7
370
    25
100
AcDbLine
 10
96.894901115
 20
793.9807131432
 30
0.0
 11
146.894901115
 21
793.9807131432
 31
0.0
  0
LINE
  5
9A
330
1F
100
AcDbEntity
  8
0
  6
Continuous
 62
     7
370
    25
100
AcDbLine
 10
96.894901115
 20
813.9807131432
 30
0.0
 11
96.894901115
 21
793.9807131432
 31
0.0
  0
LINE
  5
9B
330
1F
100
AcDbEntity
  8
0
  6
Continuous
 62
     7
370
    25
100
AcDbLine
 10
146.894901115
 20
813.9807131432
 30
0.0
 11
96.894901115
 21
813.9807131432
 31
0.0
  0
LINE
  5
9C
330
1F
100
AcDbEntity
  8
0
  6
Continuous
 62
     7
370
    25
100
AcDbLine
 10
146.894901115
 20
793.9807131432
 30
0.0
 11
146.894901115
 21
813.9807131432
 31
0.0
  0
LINE
  5
9D
330
1F
100
AcDbEntity
  8
0
  6
Continuous
 62
     7
370
    25
100
AcDbLine
 10
96.2947914596
 20
816.0545320233
 30
0.0
 11
146.2947914596
 21
816.0545320233
 31
0.0
  0
LINE
  5
9E
330
1F
100
AcDbEntity
  8
0
  6
Continuous
 62
     7
370
    25
100
AcDbLine
 10
96.2947914596
 20
836.0545320233
 30
0.0
 11
96.2947914596
 21
816.0545320233
 31
0.0
  0
LINE
  5
9F
330
1F
100
AcDbEntity
  8
0
  6
Continuous
 62
     7
370
    25
100
AcDbLine
 10
146.2947914596
 20
836.0545320233
 30
0.0
 11
96.2947914596
 21
836.0545320233
 31
0.0
  0
LINE
  5
A0
330
1F
100
AcDbEntity
  8
0
  6
Continuous
 62
     7
370
    25
100
AcDbLine
 10
146.2947914596
 20
816.0545320233
 30
0.0
 11
146.2947914596
 21
836.0545320233
 31
0.0
  0
LINE
  5
A1
330
1F
100
AcDbEntity
  8
0
  6
Continuous
 62
     7
370
    25
100
AcDbLine
 10
19.1900465573
 20
717.2360359124
 30
0.0
 11
62.9881593917
 21
689.2052436984
 31
0.0
  0
LINE
  5
A2
330
1F
100
AcDbEntity
  8
0
  6
Continuous
 62
     7
370
    25
100
AcDbLine
 10
20.2681539502
 20
718.9205787138
 30
0.0
 11
19.1900465573
 21
717.2360359124
 31
0.0
  0
LINE
  5
A3
330
1F
100
AcDbEntity
  8
0
  6
Continuous
 62
     7
370
    25
100
AcDbLine
 10
73.1627979117
 20
708.8133219058
 30
0.0
 11
20.2681539502
 21
718.9205787138
 31
0.0
  0
LINE
  5
A4
330
1F
100
AcDbEntity
  8
0
  6
Continuous
 62
     7
370
    25
100
AcDbLine
 10
74.847340713
 20
707.735214513
 30
0.0
 11
73.1627979117
 21
708.8133219058
 31
0.0
  0
LINE
  5
A5
330
1F
100
AcDbEntity
  8
0
  6
Continuous
 62
     7
370
    25
100
AcDbLine
 10
62.9881593917
 20
689.2052436984
 30
0.0
 11
74.847340713
 21
707.735214513
 31
0.0
  0
LINE
  5
A6
330
1F
100
AcDbEntity
  8
0
  6
Continuous
 62
     7
370
    25
100
AcDbLine
 10
127.9531267688
 20
696.1257705938
 30
0.0
 11
80.8934427851
 21
718.2478442613
 31
0.0
  0
LINE
  5
A7
330
1F
100
AcDbEntity
  8
0
  6
Continuous
 62
     7
370
    25
100
AcDbLine
 10
127.1022777816
 20
694.3157827482
 30
0.0
 11
127.9531267688
 21
696.1257705938
 31
0.0
  0
LINE
  5
A8
330
1F
100
AcDbEntity
  8
0
  6
Continuous
 62
     7
370
    25
100
AcDbLine
 10
73.3440917713
 20
697.4871289733
 30
0.0
 11
127.1022777816
 21
694.3157827482
 31
0.0
  0
LINE
  5
A9
330
1F
100
AcDbEntity
  8
0
  6
Continuous
 62
     7
370
    25
100
AcDbLine
 10
71.5341039258
 20
698.3379779605
 30
0.0
 11
73.3440917713
 21
697.4871289733
 31
0.0
  0
LINE
  5
AA
330
1F
100
AcDbEntity
  8
0
  6
Continuous
 62
     7
370
    25
100
AcDbLine
 10
80.8934427851
 20
718.2478442613
 30
0.0
 11
71.5341039258
 21
698.3379779605
 31
0.0
  0
SPLINE
  5
AB
330
1F
100
AcDbEntity
  8
0
  6
Continuous
 62
     7
370
    25
100
AcDbSpline
210
0.0
220
0.0
230
1.0
 70
     8
 71
     3
 72
    22
 73
    18
 74
     0
 42
0.00000001
 43
0.00000001
 40
0.0
 40
0.0
 40
0.0
 40
0.0
 40
0.125
 40
0.125
 40
0.25
 40
0.25
 40
0.375
 40
0.375
 40
0.5
 40
0.5
 40
0.625
 40
0.625
 40
0.75
 40
0.75
 40
0.875
 40
0.875
 40
1.0
 40
1.0
 40
1.0
 40
1.0
 10
104.7322360540221
 20
643.9870144591298
 30
0.0
 10
104.4399729763724
 20
644.3437704099287
 30
0.0
 10
104.1227019217297
 20
644.68244770143
 30
0.0
 10
103.4516236020528
 20
645.2795487496685
 30
0.0
 10
103.0978245445491
 20
645.5375591264635
 30
0.0
 10
102.3798252384121
 20
645.9266590102752
 30
0.0
 10
102.0158516272595
 20
646.0571962188558
 30
0.0
 10
101.3132726572218
 20
646.1576078086049
 30
0.0
 10
100.97505773666
 20
646.1271213670402
 30
0.0
 10
100.3597301904614
 20
645.8997685541293
 30
0.0
 10
100.0829450492692
 20
645.7030231825827
 30
0.0
 10
99.6144400619616
 20
645.1699164640327
 30
0.0
 10
99.42278224857381
 20
644.8340831199364
 30
0.0
 10
99.13026700492581
 20
644.0716157072367
 30
0.0
 10
99.02922265998494
 20
643.6455486139523
 30
0.0
 10
98.90759883924949
 20
642.7555579290697
 30
0.0
 10
98.88675681901442
 20
642.2919537443547
 30
0.0
 10
98.89666967645414
 20
641.8308743040789
 30
0.0
  0
SPLINE
  5
AC
330
1F
100
AcDbEntity
  8
0
  6
Continuous
 62
     7
370
    25
100
AcDbSpline
210
0.0
220
0.0
230
1.0
 70
     8
 71
     3
 72
    22
 73
    18
 74
     0
 42
0.00000001
 43
0.00000001
 40
0.0
 40
0.0
 40
0.0
 40
0.0
 40
0.125
 40
0.125
 40
0.25
 40
0.25
 40
0.375
 40
0.375
 40
0.5
 40
0.5
 40
0.625
 40
0.625
 40
0.75
 40
0.75
 40
0.875
 40
0.875
 40
1.0
 40
1.0
 40
1.0
 40
1.0
 10
98.48304316124313
 20
641.7347848119405
 30
0.0
 10
98.28868366276158
 20
642.15301549032
 30
0.0
 10
98.06560587912995
 20
642.5599547147046
 30
0.0
 10
97.56410371120481
 20
643.3051871271199
 30
0.0
 10
97.28558447317599
 20
643.6430778811695
 30
0.0
 10
96.68690764175062
 20
644.1985126430543
 30
0.0
 10
96.36683221456582
 20
644.4154653414747
 30
0.0
 10
95.71129740174892
 20
644.6874466012708
 30
0.0
 10
95.3761264551376
 20
644.7420285777606
 30
0.0
 10
94.72359020992158
 20
644.6748442095735
 30
0.0
 10
94.406572198662
 20
644.5531136211954
 30
0.0
 10
93.8202079073681
 20
644.1532678829531
 30
0.0
 10
93.55105302017247
 20
643.8756487209015
 30
0.0
 10
93.0781097459704
 20
643.209881206988
 30
0.0
 10
92.87428131757983
 20
642.8223285016637
 30
0.0
 10
92.53514684982214
 20
641.9905451249805
 30
0.0
 10
92.3996659475926
 20
641.5466891178972
 30
0.0
 10
92.29460158041115
 20
641.0976301087053
 30
0.0
  0
SPLINE
  5
AD
330
1F
100
AcDbEntity
  8
0
  6
Continuous
 62
     7
370
    25
100
AcDbSpline
210
0.0
220
0.0
230
1.0
 70
     8
 71
     3
 72
    22
 73
    18
 74
     0
 42
0.00000001
 43
0.00000001
 40
0.0
 40
0.0
 40
0.0
 40
0.0
 40
0.125
 40
0.125
 40
0.25
 40
0.25
 40
0.375
 40
0.375
 40
0.5
 40
0.5
 40
0.625
 40
0.625
 40
0.75
 40
0.75
 40
0.875
 40
0.875
 40
1.0
 40
1.0
 40
1.0
 40
1.0
 10
91.87007341782385
 20
641.1074241760549
 30
0.0
 10
91.78582982060425
 20
641.5608506103474
 30
0.0
 10
91.67096210555192
 20
642.0104822795295
 30
0.0
 10
91.37054731498529
 20
642.8570203628765
 30
0.0
 10
91.18480828447885
 20
643.2535605754287
 30
0.0
 10
90.74307099486298
 20
643.9404302065511
 30
0.0
 10
90.48700526789099
 20
644.2301664588733
 30
0.0
 10
89.91970427547261
 20
644.6566278058865
 30
0.0
 10
89.60863732605979
 20
644.7928486141094
 30
0.0
 10
88.95989363397378
 20
644.890054131586
 30
0.0
 10
88.622562160205
 20
644.850987106938
 30
0.0
 10
87.95518198984374
 20
644.6095261272668
 30
0.0
 10
87.6254420202852
 20
644.4075649802237
 30
0.0
 10
87.00178748081085
 20
643.8803299865173
 30
0.0
 10
86.7079822587549
 20
643.5556430309477
 30
0.0
 10
86.17264620983353
 20
642.8343309711059
 30
0.0
 10
85.93103918896048
 20
642.4381122469678
 30
0.0
 10
85.7175991777476
 20
642.0292896979308
 30
0.0
  0
SPLINE
  5
AE
330
1F
100
AcDbEntity
  8
0
  6
Continuous
 62
     7
370
    25
100
AcDbSpline
210
0.0
220
0.0
230
1.0
 70
     8
 71
     3
 72
    22
 73
    18
 74
     0
 42
0.00000001
 43
0.00000001
 40
0.0
 40
0.0
 40
0.0
 40
0.0
 40
0.125
 40
0.125
 40
0.25
 40
0.25
 40
0.375
 40
0.375
 40
0.5
 40
0.5
 40
0.625
 40
0.625
 40
0.75
 40
0.75
 40
0.875
 40
0.875
 40
1.0
 40
1.0
 40
1.0
 40
1.0
 10
85.30884403354472
 20
642.1443519274967
 30
0.0
 10
85.34000967262668
 20
642.60448366725
 30
0.0
 10
85.34056958714433
 20
643.0685557698251
 30
0.0
 10
85.26011834007579
 20
643.9632084229777
 30
0.0
 10
85.17883018347882
 20
644.3934820141048
 30
0.0
 10
84.92178841417511
 20
645.1686279694119
 30
0.0
 10
84.7458219387855
 20
645.5129425813271
 30
0.0
 10
84.30240037450638
 20
646.0670878807094
 30
0.0
 10
84.03498290274788
 20
646.2763882662995
 30
0.0
 10
83.43079471587801
 20
646.5318758892801
 30
0.0
 10
83.0943455567153
 20
646.5779271531993
 30
0.0
 10
82.38788345784309
 20
646.5100228134834
 30
0.0
 10
82.01827718090779
 20
646.3964096430784
 30
0.0
 10
81.28309788451729
 20
646.0408352832684
 30
0.0
 10
80.91777673143774
 20
645.7994153529871
 30
0.0
 10
80.21987623413466
 20
645.2338972995069
 30
0.0
 10
79.88732415230807
 20
644.910211737942
 30
0.0
 10
79.5789197179457
 20
644.5673134733601
 30
0.0
  0
SPLINE
  5
AF
330
1F
100
AcDbEntity
  8
0
  6
Continuous
 62
     7
370
    25
100
AcDbSpline
210
0.0
220
0.0
230
1.0
 70
     8
 71
     3
 72
    22
 73
    18
 74
     0
 42
0.00000001
 43
0.00000001
 40
0.0
 40
0.0
 40
0.0
 40
0.0
 40
0.125
 40
0.125
 40
0.25
 40
0.25
 40
0.375
 40
0.375
 40
0.5
 40
0.5
 40
0.625
 40
0.625
 40
0.75
 40
0.75
 40
0.875
 40
0.875
 40
1.0
 40
1.0
 40
1.0
 40
1.0
 10
79.21162118113378
 20
644.7804140820895
 30
0.0
 10
79.35623780479457
 20
645.2183393578484
 30
0.0
 10
79.47219016739382
 20
645.667692536874
 30
0.0
 10
79.61675751155569
 20
646.5542454433325
 30
0.0
 10
79.64502786270411
 20
646.9912167408686
 30
0.0
 10
79.5888324934114
 20
647.8059337492006
 30
0.0
 10
79.50402189041229
 20
648.1831921673418
 30
0.0
 10
79.21234156194653
 20
648.8302024319291
 30
0.0
 10
79.00537639108563
 20
649.099431281907
 30
0.0
 10
78.48370707526168
 20
649.4971477834216
 30
0.0
 10
78.16928056874866
 20
649.6254237656314
 30
0.0
 10
77.46812615322348
 20
649.7353427452697
 30
0.0
 10
77.08187729060806
 20
649.7172162848394
 30
0.0
 10
76.28136725629395
 20
649.5556446036636
 30
0.0
 10
75.86748464379602
 20
649.4126610007708
 30
0.0
 10
75.05087135305529
 20
649.0384705327822
 30
0.0
 10
74.64826968061728
 20
648.8076564880558
 30
0.0
 10
74.26427900794857
 20
648.5522280669842
 30
0.0
  0
SPLINE
  5
B0
330
1F
100
AcDbEntity
  8
0
  6
Continuous
 62
     7
370
    25
100
AcDbSpline
210
0.0
220
0.0
230
1.0
 70
     8
 71
     3
 72
    22
 73
    18
 74
     0
 42
0.00000001
 43
0.00000001
 40
0.0
 40
0.0
 40
0.0
 40
0.0
 40
0.125
 40
0.125
 40
0.25
 40
0.25
 40
0.375
 40
0.375
 40
0.5
 40
0.5
 40
0.625
 40
0.625
 40
0.75
 40
0.75
 40
0.875
 40
0.875
 40
1.0
 40
1.0
 40
1.0
 40
1.0
 10
73.96151579642505
 20
648.8499771599013
 30
0.0
 10
74.21049661033733
 20
649.2381795160138
 30
0.0
 10
74.4345557076331
 20
649.6445792586463
 30
0.0
 10
74.79505794511022
 20
650.4673270387843
 30
0.0
 10
74.93111047387028
 20
650.883539529037
 30
0.0
 10
75.07929246631335
 20
651.6866359244412
 30
0.0
 10
75.09096669780276
 20
652.0731336149369
 30
0.0
 10
74.96935495291305
 20
652.772354810268
 30
0.0
 10
74.83584646579959
 20
653.0845954858348
 30
0.0
 10
74.4294744227003
 20
653.5995508753947
 30
0.0
 10
74.15682714262101
 20
653.8019915241666
 30
0.0
 10
73.50503652103586
 20
654.0828272094149
 30
0.0
 10
73.12641450930239
 20
654.1613264111327
 30
0.0
 10
72.31087272659059
 20
654.2039095515385
 30
0.0
 10
71.87443442137129
 20
654.1683464616605
 30
0.0
 10
70.99041915354373
 20
654.0089953424435
 30
0.0
 10
70.543064834239
 20
653.8855557098605
 30
0.0
 10
70.10761546944666
 20
653.7336466393953
 30
0.0
  0
SPLINE
  5
B1
330
1F
100
AcDbEntity
  8
0
  6
Continuous
 62
     7
370
    25
100
AcDbSpline
210
0.0
220
0.0
230
1.0
 70
     8
 71
     3
 72
    22
 73
    18
 74
     0
 42
0.00000001
 43
0.00000001
 40
0.0
 40
0.0
 40
0.0
 40
0.0
 40
0.125
 40
0.125
 40
0.25
 40
0.25
 40
0.375
 40
0.375
 40
0.5
 40
0.5
 40
0.625
 40
0.625
 40
0.75
 40
0.75
 40
0.875
 40
0.875
 40
1.0
 40
1.0
 40
1.0
 40
1.0
 10
69.88841130927673
 20
654.0973355459477
 30
0.0
 10
70.22611193321498
 20
654.4114228006706
 30
0.0
 10
70.54419930809247
 20
654.7493335164467
 30
0.0
 10
71.09798475746965
 20
655.4565799013834
 30
0.0
 10
71.33327078309316
 20
655.8258814228678
 30
0.0
 10
71.67651931771158
 20
656.5668957052387
 30
0.0
 10
71.78394484879021
 20
656.9383475967563
 30
0.0
 10
71.84004300066469
 20
657.6458450835726
 30
0.0
 10
71.78838002655388
 20
657.9814783547421
 30
0.0
 10
71.52283910617902
 20
658.5813160913474
 30
0.0
 10
71.30910248386739
 20
658.8452013161946
 30
0.0
 10
70.74763005809469
 20
659.2793077681072
 30
0.0
 10
70.40042511071475
 20
659.4495002384292
 30
0.0
 10
69.62109506916592
 20
659.693562545095
 30
0.0
 10
69.18952409504999
 20
659.767654527961
 30
0.0
 10
68.29365278059393
 20
659.8331553743885
 30
0.0
 10
67.82965473155846
 20
659.8248463200432
 30
0.0
 10
67.37010755970313
 20
659.7860016057641
 30
0.0
  0
SPLINE
  5
B2
330
1F
100
AcDbEntity
  8
0
  6
Continuous
 62
     7
370
    25
100
AcDbSpline
210
0.0
220
0.0
230
1.0
 70
     8
 71
     3
 72
    22
 73
    18
 74
     0
 42
0.00000001
 43
0.00000001
 40
0.0
 40
0.0
 40
0.0
 40
0.0
 40
0.125
 40
0.125
 40
0.25
 40
0.25
 40
0.375
 40
0.375
 40
0.5
 40
0.5
 40
0.625
 40
0.625
 40
0.75
 40
0.75
 40
0.875
 40
0.875
 40
1.0
 40
1.0
 40
1.0
 40
1.0
 10
67.24823585444678
 20
660.1927784143987
 30
0.0
 10
67.653437316233
 20
660.4130153103857
 30
0.0
 10
68.0455663690851
 20
660.6612048262847
 30
0.0
 10
68.75783865389756
 20
661.2085109245842
 30
0.0
 10
69.07757429007312
 20
661.5076969045094
 30
0.0
 10
69.594321799057
 20
662.140068421226
 30
0.0
 10
69.7907486885237
 20
662.4731348253167
 30
0.0
 10
70.02103188396558
 20
663.1444539345281
 30
0.0
 10
70.05446059752389
 20
663.4823907284995
 30
0.0
 10
69.9464357124918
 20
664.1294208011105
 30
0.0
 10
69.80503960599597
 20
664.4381697228539
 30
0.0
 10
69.3691647534982
 20
664.9982704365252
 30
0.0
 10
69.07519303424611
 20
665.2494623566172
 30
0.0
 10
68.38104290654614
 20
665.6796684972169
 30
0.0
 10
67.98145645504431
 20
665.8587600810519
 30
0.0
 10
67.13001998343127
 20
666.1449972340475
 30
0.0
 10
66.67853290855145
 20
666.2523408463832
 30
0.0
 10
66.22376296853703
 20
666.3290012445492
 30
0.0
  0
SPLINE
  5
B3
330
1F
100
AcDbEntity
  8
0
  6
Continuous
 62
     7
370
    25
100
AcDbSpline
210
0.0
220
0.0
230
1.0
 70
     8
 71
     3
 72
    22
 73
    18
 74
     0
 42
0.00000001
 43
0.00000001
 40
0.0
 40
0.0
 40
0.0
 40
0.0
 40
0.125
 40
0.125
 40
0.2499999999999999
 40
0.2499999999999999
 40
0.3749999999999999
 40
0.3749999999999999
 40
0.4999999999999999
 40
0.4999999999999999
 40
0.6249999999999999
 40
0.6249999999999999
 40
0.7499999999999998
 40
0.7499999999999998
 40
0.8749999999999999
 40
0.8749999999999999
 40
1.0
 40
1.0
 40
1.0
 40
1.0
 10
66.20688136564831
 20
666.7533066723591
 30
0.0
 10
66.6541233672117
 20
666.8658549154607
 30
0.0
 10
67.09565518749797
 20
667.0087285714212
 30
0.0
 10
67.92165962053669
 20
667.3617051280766
 30
0.0
 10
68.30575470133799
 20
667.5719766109947
 30
0.0
 10
68.96353203823347
 20
668.055971133962
 30
0.0
 10
69.23661806221553
 20
668.3297242635242
 30
0.0
 10
69.62661676113277
 20
668.9226835465598
 30
0.0
 10
69.74303671334516
 20
669.2416900517234
 30
0.0
 10
69.79931546447014
 20
669.895257181268
 30
0.0
 10
69.73914431117977
 20
670.2294699696552
 30
0.0
 10
69.45625465197486
 20
670.8803717573392
 30
0.0
 10
69.23398748512363
 20
671.1967798150421
 30
0.0
 10
68.66863327670154
 20
671.7860983555743
 30
0.0
 10
68.32613883413781
 20
672.0589365575133
 30
0.0
 10
67.57263609024353
 20
672.5479246840478
 30
0.0
 10
67.16202858288734
 20
672.7641761691192
 30
0.0
 10
66.74061074257182
 20
672.9515248249763
 30
0.0
  0
SPLINE
  5
B4
330
1F
100
AcDbEntity
  8
0
  6
Continuous
 62
     7
370
    25
100
AcDbSpline
210
0.0
220
0.0
230
1.0
 70
     8
 71
     3
 72
    22
 73
    18
 74
     0
 42
0.00000001
 43
0.00000001
 40
0.0
 40
0.0
 40
0.0
 40
0.0
 40
0.1250000000000002
 40
0.1250000000000002
 40
0.2500000000000003
 40
0.2500000000000003
 40
0.3750000000000005
 40
0.3750000000000005
 40
0.5000000000000007
 40
0.5000000000000007
 40
0.6250000000000004
 40
0.6250000000000004
 40
0.7500000000000003
 40
0.7500000000000003
 40
0.8750000000000001
 40
0.8750000000000001
 40
1.0
 40
1.0
 40
1.0
 40
1.0
 10
66.82977997524642
 20
673.366698201446
 30
0.0
 10
67.29096065678772
 20
673.3644859716247
 30
0.0
 10
67.75415217639912
 20
673.3930664903902
 30
0.0
 10
68.64198786130449
 20
673.5295346901897
 30
0.0
 10
69.06630828020188
 20
673.6376795455049
 30
0.0
 10
69.82378487579602
 20
673.9428859188371
 30
0.0
 10
70.15637103506644
 20
674.140124857947
 30
0.0
 10
70.68158018489123
 20
674.6174665023019
 30
0.0
 10
70.87367628199756
 20
674.8974983667146
 30
0.0
 10
71.09072246836767
 20
675.5165365267916
 30
0.0
 10
71.11555704313798
 20
675.8552133631796
 30
0.0
 10
71.00342757490922
 20
676.5560176717066
 30
0.0
 10
70.86683082399355
 20
676.9177607850877
 30
0.0
 10
70.46579581899182
 20
677.6291626742888
 30
0.0
 10
70.20191357079892
 20
677.9786040666753
 30
0.0
 10
69.59368990321154
 20
678.6396182443859
 30
0.0
 10
69.24976194317495
 20
678.9511897260685
 30
0.0
 10
68.88817543533173
 20
679.2374548345492
 30
0.0
  0
SPLINE
  5
B5
330
1F
100
AcDbEntity
  8
0
  6
Continuous
 62
     7
370
    25
100
AcDbSpline
210
0.0
220
0.0
230
1.0
 70
     8
 71
     3
 72
    22
 73
    18
 74
     0
 42
0.00000001
 43
0.00000001
 40
0.0
 40
0.0
 40
0.0
 40
0.0
 40
0.125
 40
0.125
 40
0.25
 40
0.25
 40
0.375
 40
0.375
 40
0.5
 40
0.5
 40
0.625
 40
0.625
 40
0.75
 40
0.75
 40
0.875
 40
0.875
 40
1.0
 40
1.0
 40
1.0
 40
1.0
 10
69.0777926727392
 20
679.6174092895342
 30
0.0
 10
69.52393435593329
 20
679.5005755893256
 30
0.0
 10
69.97968154819338
 20
679.4130671517903
 30
0.0
 10
70.87356250365157
 20
679.3244521958455
 30
0.0
 10
71.3114466481844
 20
679.3236752845692
 30
0.0
 10
72.12102746217191
 20
679.4309162693597
 30
0.0
 10
72.49221614517745
 20
679.5392477700788
 30
0.0
 10
73.11963492344216
 20
679.8709786446985
 30
0.0
 10
73.3753370611812
 20
680.0944404364338
 30
0.0
 10
73.73951287266675
 20
680.6400531827826
 30
0.0
 10
73.84779272782978
 20
680.961913755975
 30
0.0
 10
73.9134689574493
 20
681.6685864732623
 30
0.0
 10
73.87112549869694
 20
682.0529349921098
 30
0.0
 10
73.65960820138336
 20
682.8417202329281
 30
0.0
 10
73.49091883970632
 20
683.2458081279229
 30
0.0
 10
73.06619117835051
 20
684.037314404984
 30
0.0
 10
72.81055302424119
 20
684.424628701204
 30
0.0
 10
72.53151765898023
 20
684.791823172733
 30
0.0
  0
SPLINE
  5
B6
330
1F
100
AcDbEntity
  8
0
  6
Continuous
 62
     7
370
    25
100
AcDbSpline
210
0.0
220
0.0
230
1.0
 70
     8
 71
     3
 72
    22
 73
    18
 74
     0
 42
0.00000001
 43
0.00000001
 40
0.0
 40
0.0
 40
0.0
 40
0.0
 40
0.125
 40
0.125
 40
0.25
 40
0.25
 40
0.375
 40
0.375
 40
0.5
 40
0.5
 40
0.625
 40
0.625
 40
0.75
 40
0.75
 40
0.875
 40
0.875
 40
1.0
 40
1.0
 40
1.0
 40
1.0
 10
72.80966855273087
 20
685.1126847704519
 30
0.0
 10
73.2127385148283
 20
684.8885706909243
 30
0.0
 10
73.63240510752647
 20
684.6904717740522
 30
0.0
 10
74.47616550564183
 20
684.3823416659483
 30
0.0
 10
74.90009950458385
 20
684.272691804273
 30
0.0
 10
75.71091559699198
 20
684.1752290550426
 30
0.0
 10
76.09738365364291
 20
684.1878462507655
 30
0.0
 10
76.78758903102428
 20
684.3531224847769
 30
0.0
 10
77.09083050367522
 20
684.5059732776252
 30
0.0
 10
77.57925343469566
 20
684.9438777547691
 30
0.0
 10
77.76417494872604
 20
685.2286983812318
 30
0.0
 10
78.00353019714657
 20
685.8968366614918
 30
0.0
 10
78.05810062579928
 20
686.2796405548315
 30
0.0
 10
78.04939144587031
 20
687.0962468696372
 30
0.0
 10
77.98649434369933
 20
687.5295909386665
 30
0.0
 10
77.77194988957714
 20
688.4018560647339
 30
0.0
 10
77.62066422678915
 20
688.8405767938175
 30
0.0
 10
77.44171282233009
 20
689.2656284493016
 30
0.0
  0
SPLINE
  5
B7
330
1F
100
AcDbEntity
  8
0
  6
Continuous
 62
     7
370
    25
100
AcDbSpline
210
0.0
220
0.0
230
1.0
 70
     8
 71
     3
 72
    22
 73
    18
 74
     0
 42
0.00000001
 43
0.00000001
 40
0.0
 40
0.0
 40
0.0
 40
0.0
 40
0.125
 40
0.125
 40
0.25
 40
0.25
 40
0.375
 40
0.375
 40
0.5
 40
0.5
 40
0.625
 40
0.625
 40
0.75
 40
0.75
 40
0.875
 40
0.875
 40
1.0
 40
1.0
 40
1.0
 40
1.0
 10
77.79092012880207
 20
689.5072362755234
 30
0.0
 10
78.12559200169666
 20
689.1899237285276
 30
0.0
 10
78.48280879938791
 20
688.8936816158224
 30
0.0
 10
79.22343207121317
 20
688.3853973034747
 30
0.0
 10
79.60677859229068
 20
688.1737641954737
 30
0.0
 10
80.36788340606043
 20
687.8777216551995
 30
0.0
 10
80.74534762702724
 20
687.7938317611159
 30
0.0
 10
81.45497146126664
 20
687.7822684408926
 30
0.0
 10
81.78669849185867
 20
687.8549040573934
 30
0.0
 10
82.36867913336408
 20
688.1575851165337
 30
0.0
 10
82.61862300744154
 20
688.387469468809
 30
0.0
 10
83.0166177041178
 20
688.9750917266522
 30
0.0
 10
83.16467315944732
 20
689.3322980180113
 30
0.0
 10
83.35931932670802
 20
690.1254150287772
 30
0.0
 10
83.40616654029188
 20
690.5607866702559
 30
0.0
 10
83.41528591049511
 20
691.459003019492
 30
0.0
 10
83.37785857361116
 20
691.9215637445288
 30
0.0
 10
83.31023530483338
 20
692.3777650252235
 30
0.0
  0
SPLINE
  5
B8
330
1F
100
AcDbEntity
  8
0
  6
Continuous
 62
     7
370
    25
100
AcDbSpline
210
0.0
220
0.0
230
1.0
 70
     8
 71
     3
 72
    22
 73
    18
 74
     0
 42
0.00000001
 43
0.00000001
 40
0.0
 40
0.0
 40
0.0
 40
0.0
 40
0.125
 40
0.125
 40
0.2500000000000001
 40
0.2500000000000001
 40
0.3750000000000001
 40
0.3750000000000001
 40
0.5000000000000001
 40
0.5000000000000001
 40
0.6250000000000001
 40
0.6250000000000001
 40
0.7500000000000002
 40
0.7500000000000002
 40
0.8750000000000001
 40
0.8750000000000001
 40
1.0
 40
1.0
 40
1.0
 40
1.0
 10
83.70855704466645
 20
692.5249379716552
 30
0.0
 10
83.95380216374718
 20
692.1343648715128
 30
0.0
 10
84.22612392128107
 20
691.7585935444182
 30
0.0
 10
84.81707398282562
 20
691.0820924005104
 30
0.0
 10
85.13574595426941
 20
690.7817737326917
 30
0.0
 10
85.79931647480393
 20
690.3057528429472
 30
0.0
 10
86.14405939486703
 20
690.130626969628
 30
0.0
 10
86.82851341064523
 20
689.9429506611065
 30
0.0
 10
87.16788236983962
 20
689.9308071383399
 30
0.0
 10
87.80685273774913
 20
690.0792462153476
 30
0.0
 10
88.10611407903609
 20
690.2397498141265
 30
0.0
 10
88.63774075345383
 20
690.7099335819692
 30
0.0
 10
88.86997836669191
 20
691.0190976863488
 30
0.0
 10
89.25574954659477
 20
691.7388909344083
 30
0.0
 10
89.40939749321197
 20
692.1489341469172
 30
0.0
 10
89.64160768417209
 20
693.016663482691
 30
0.0
 10
89.7203903704167
 20
693.4739998121477
 30
0.0
 10
89.7683442559985
 20
693.9326859137959
 30
0.0
  0
SPLINE
  5
B9
330
1F
100
AcDbEntity
  8
0
  6
Continuous
 62
     7
370
    25
100
AcDbSpline
210
0.0
220
0.0
230
1.0
 70
     8
 71
     3
 72
    22
 73
    18
 74
     0
 42
0.00000001
 43
0.00000001
 40
0.0
 40
0.0
 40
0.0
 40
0.0
 40
0.125
 40
0.125
 40
0.25
 40
0.25
 40
0.3749999999999999
 40
0.3749999999999999
 40
0.4999999999999999
 40
0.4999999999999999
 40
0.6249999999999999
 40
0.6249999999999999
 40
0.7499999999999999
 40
0.7499999999999999
 40
0.875
 40
0.875
 40
1.0
 40
1.0
 40
1.0
 40
1.0
 10
90.19075240935409
 20
693.9761765629488
 30
0.0
 10
90.33116112184065
 20
693.5368840539693
 30
0.0
 10
90.50147686166197
 20
693.1051946069567
 30
0.0
 10
90.90562214719665
 20
692.3029836863581
 30
0.0
 10
91.13959623704741
 20
691.9328495851152
 30
0.0
 10
91.66393788809984
 20
691.3067604890855
 30
0.0
 10
91.95429804171586
 20
691.0514024392191
 30
0.0
 10
92.57057547597579
 20
690.699405535089
 30
0.0
 10
92.89626256395458
 20
690.6032458952512
 30
0.0
 10
93.55207380008382
 20
690.5881160169973
 30
0.0
 10
93.88184891790102
 20
690.6691538308776
 30
0.0
 10
94.5137035109204
 20
690.9923557333713
 30
0.0
 10
94.81553093871713
 20
691.2340517330673
 30
0.0
 10
95.36818770926169
 20
691.8352939614301
 30
0.0
 10
95.61898212334867
 20
692.1942442218941
 30
0.0
 10
96.0596925147583
 20
692.9769639187534
 30
0.0
 10
96.24973501821226
 20
693.4003397290849
 30
0.0
 10
96.41025293916049
 20
693.8326897169907
 30
0.0
  0
SPLINE
  5
BA
330
1F
100
AcDbEntity
  8
0
  6
Continuous
 62
     7
370
    25
100
AcDbSpline
210
0.0
220
0.0
230
1.0
 70
     8
 71
     3
 72
    22
 73
    18
 74
     0
 42
0.00000001
 43
0.00000001
 40
0.0
 40
0.0
 40
0.0
 40
0.0
 40
0.125
 40
0.125
 40
0.25
 40
0.25
 40
0.375
 40
0.375
 40
0.5
 40
0.5
 40
0.625
 40
0.625
 40
0.75
 40
0.75
 40
0.875
 40
0.875
 40
1.0
 40
1.0
 40
1.0
 40
1.0
 10
96.8302060482547
 20
693.7697653914312
 30
0.0
 10
96.85695595835445
 20
693.3093558375584
 30
0.0
 10
96.91456411615275
 20
692.8488729062267
 30
0.0
 10
97.10651069104502
 20
691.9713580714033
 30
0.0
 10
97.24108544674091
 20
691.5546654235754
 30
0.0
 10
97.59325191398193
 20
690.8178476017589
 30
0.0
 10
97.81098490482923
 20
690.4983024607599
 30
0.0
 10
98.32036277986646
 20
690.0041022210615
 30
0.0
 10
98.61190387909866
 20
689.829968527974
 30
0.0
 10
99.24334895157659
 20
689.6522203603529
 30
0.0
 10
99.58291686244354
 20
689.6487004854523
 30
0.0
 10
100.2752976261865
 20
689.8046125584099
 30
0.0
 10
100.6277499412098
 20
689.9636538048654
 30
0.0
 10
101.3125668449733
 20
690.4085667531097
 30
0.0
 10
101.6447493911356
 20
690.693869896537
 30
0.0
 10
102.266268528283
 20
691.3423987972865
 30
0.0
 10
102.5556297795269
 20
691.7052118292621
 30
0.0
 10
102.8186258045248
 20
692.0840595636133
 30
0.0
  0
SPLINE
  5
BB
330
1F
100
AcDbEntity
  8
0
  6
Continuous
 62
     7
370
    25
100
AcDbSpline
210
0.0
220
0.0
230
1.0
 70
     8
 71
     3
 72
    22
 73
    18
 74
     0
 42
0.00000001
 43
0.00000001
 40
0.0
 40
0.0
 40
0.0
 40
0.0
 40
0.125
 40
0.125
 40
0.25
 40
0.25
 40
0.375
 40
0.375
 40
0.5
 40
0.5
 40
0.625
 40
0.625
 40
0.75
 40
0.75
 40
0.875
 40
0.875
 40
1.0
 40
1.0
 40
1.0
 40
1.0
 10
103.2097366710338
 20
691.918674030136
 30
0.0
 10
103.1211469835158
 20
691.4660766569076
 30
0.0
 10
103.0624278268687
 20
691.0057340773699
 30
0.0
 10
103.0301149818879
 20
690.1080528126678
 30
0.0
 10
103.0568345765972
 20
689.6709839498064
 30
0.0
 10
103.2146979457124
 20
688.8697343757739
 30
0.0
 10
103.3461228092102
 20
688.5060803400559
 30
0.0
 10
103.7165950397753
 20
687.9007291833911
 30
0.0
 10
103.955671550783
 20
687.6595628974094
 30
0.0
 10
104.5230744434133
 20
687.3303650115048
 30
0.0
 10
104.8510988466468
 20
687.2425086145086
 30
0.0
 10
105.5605009513291
 20
687.2213343289815
 30
0.0
 10
105.941432278397
 20
687.2877276757691
 30
0.0
 10
106.7153797507356
 20
687.5483558270811
 30
0.0
 10
107.108078177916
 20
687.7420852076986
 30
0.0
 10
107.8713537276268
 20
688.2156738563818
 30
0.0
 10
108.2418520950487
 20
688.4951272328698
 30
0.0
 10
108.5908012166138
 20
688.7966683172125
 30
0.0
  0
SPLINE
  5
BC
330
1F
100
AcDbEntity
  8
0
  6
Continuous
 62
     7
370
    25
100
AcDbSpline
210
0.0
220
0.0
230
1.0
 70
     8
 71
     3
 72
    22
 73
    18
 74
     0
 42
0.00000001
 43
0.00000001
 40
0.0
 40
0.0
 40
0.0
 40
0.0
 40
0.125
 40
0.125
 40
0.2500000000000001
 40
0.2500000000000001
 40
0.3750000000000001
 40
0.3750000000000001
 40
0.5000000000000001
 40
0.5000000000000001
 40
0.6250000000000001
 40
0.6250000000000001
 40
0.75
 40
0.75
 40
0.875
 40
0.875
 40
1.0
 40
1.0
 40
1.0
 40
1.0
 10
108.9284949063893
 20
688.5392133571312
 30
0.0
 10
108.7301320371306
 20
688.122866522044
 30
0.0
 10
108.5587751066041
 20
687.6915893115943
 30
0.0
 10
108.3042331766388
 20
686.8301462323153
 30
0.0
 10
108.2214187199582
 20
686.4001637985009
 30
0.0
 10
108.1750598548851
 20
685.5848279297788
 30
0.0
 10
108.2119186835129
 20
685.1999147198319
 30
0.0
 10
108.420207136858
 20
684.5214490856998
 30
0.0
 10
108.5917970031927
 20
684.2284035715196
 30
0.0
 10
109.0595057054696
 20
683.7684406812081
 30
0.0
 10
109.3553756214251
 20
683.6017681026526
 30
0.0
 10
110.037224723811
 20
683.4048379168743
 30
0.0
 10
110.4226997466766
 20
683.3744116258376
 30
0.0
 10
111.2371478215236
 20
683.434378754947
 30
0.0
 10
111.6656874432984
 20
683.5243616432837
 30
0.0
 10
112.5227599956531
 20
683.7932527233668
 30
0.0
 10
112.9511157042302
 20
683.9717873609646
 30
0.0
 10
113.3640921657096
 20
684.1770748599791
 30
0.0
  0
SPLINE
  5
BD
330
1F
100
AcDbEntity
  8
0
  6
Continuous
 62
     7
370
    25
100
AcDbSpline
210
0.0
220
0.0
230
1.0
 70
     8
 71
     3
 72
    22
 73
    18
 74
     0
 42
0.00000001
 43
0.00000001
 40
0.0
 40
0.0
 40
0.0
 40
0.0
 40
0.125
 40
0.125
 40
0.25
 40
0.25
 40
0.375
 40
0.375
 40
0.5
 40
0.5
 40
0.625
 40
0.625
 40
0.75
 40
0.75
 40
0.875
 40
0.875
 40
1.0
 40
1.0
 40
1.0
 40
1.0
 10
113.6271501422731
 20
683.8437273152886
 30
0.0
 10
113.3314779598767
 20
683.4897916212075
 30
0.0
 10
113.0582502416224
 20
683.1146785131049
 30
0.0
 10
112.5974730322721
 20
682.3436012560863
 30
0.0
 10
112.410328061085
 20
681.947722629
 30
0.0
 10
112.1626598598123
 20
681.1695310168158
 30
0.0
 10
112.1026366778102
 20
680.7875441452328
 30
0.0
 10
112.1356538243802
 20
680.0785945246478
 30
0.0
 10
112.2289754236766
 20
679.7520829096712
 30
0.0
 10
112.5676020777238
 20
679.1902561749761
 30
0.0
 10
112.8127269114484
 20
678.955240065951
 30
0.0
 10
113.4241799247695
 20
678.5949278277524
 30
0.0
 10
113.789977830068
 20
678.4695936946574
 30
0.0
 10
114.5937517395502
 20
678.3251318462986
 30
0.0
 10
115.031205835425
 20
678.3057142865464
 30
0.0
 10
115.9282223698668
 20
678.3530123825553
 30
0.0
 10
116.3875202550471
 20
678.4194102933784
 30
0.0
 10
116.8385752265448
 20
678.515545238507
 30
0.0
  0
SPLINE
  5
BE
330
1F
100
AcDbEntity
  8
0
  6
Continuous
 62
     7
370
    25
100
AcDbSpline
210
0.0
220
0.0
230
1.0
 70
     8
 71
     3
 72
    22
 73
    18
 74
     0
 42
0.00000001
 43
0.00000001
 40
0.0
 40
0.0
 40
0.0
 40
0.0
 40
0.1249999999999998
 40
0.1249999999999998
 40
0.2499999999999996
 40
0.2499999999999996
 40
0.3749999999999994
 40
0.3749999999999994
 40
0.4999999999999996
 40
0.4999999999999996
 40
0.6249999999999997
 40
0.6249999999999997
 40
0.7499999999999998
 40
0.7499999999999998
 40
0.875
 40
0.875
 40
1.0
 40
1.0
 40
1.0
 40
1.0
 10
117.010468589769
 20
678.1272505614066
 30
0.0
 10
116.6360652648611
 20
677.8579650896754
 30
0.0
 10
116.2781346612783
 20
677.5625858200716
 30
0.0
 10
115.6400744992264
 20
676.9303240051956
 30
0.0
 10
115.3603580203436
 20
676.5934236949171
 30
0.0
 10
114.9269423868171
 20
675.9012729802527
 30
0.0
 10
114.7738086714601
 20
675.5462140870245
 30
0.0
 10
114.6294799225075
 20
674.8513263919824
 30
0.0
 10
114.638669515469
 20
674.5118646018042
 30
0.0
 10
114.8269369632309
 20
673.8834756627206
 30
0.0
 10
115.0059146199156
 20
673.5948829496845
 30
0.0
 10
115.5085517025781
 20
673.0938284021273
 30
0.0
 10
115.8316880626091
 20
672.881461631503
 30
0.0
 10
116.5742837359201
 20
672.5416478749021
 30
0.0
 10
116.9931654562074
 20
672.4140499437528
 30
0.0
 10
117.8737631248812
 20
672.2367831423653
 30
0.0
 10
118.3351438113594
 20
672.1868723014821
 30
0.0
 10
118.7959358501521
 20
672.1678141805628
 30
0.0
  0
SPLINE
  5
BF
330
1F
100
AcDbEntity
  8
0
  6
Continuous
 62
     7
370
    25
100
AcDbSpline
210
0.0
220
0.0
230
1.0
 70
     8
 71
     3
 72
    22
 73
    18
 74
     0
 42
0.00000001
 43
0.00000001
 40
0.0
 40
0.0
 40
0.0
 40
0.0
 40
0.1249999999999999
 40
0.1249999999999999
 40
0.2499999999999999
 40
0.2499999999999999
 40
0.3749999999999998
 40
0.3749999999999998
 40
0.4999999999999999
 40
0.4999999999999999
 40
0.6249999999999999
 40
0.6249999999999999
 40
0.75
 40
0.75
 40
0.875
 40
0.875
 40
1.0
 40
1.0
 40
1.0
 40
1.0
 10
118.865863907846
 20
671.7489703536629
 30
0.0
 10
118.4362545782896
 20
671.5812553008329
 30
0.0
 10
118.0161111855781
 20
671.384169635566
 30
0.0
 10
117.2408597374275
 20
670.9304505979576
 30
0.0
 10
116.8861473659425
 20
670.6736972900144
 30
0.0
 10
116.2942173984079
 20
670.1110778478244
 30
0.0
 10
116.0575951042182
 20
669.805256589028
 30
0.0
 10
115.7449891658437
 20
669.1680931690264
 30
0.0
 10
115.6694693365476
 20
668.8370108363764
 30
0.0
 10
115.6955480418821
 20
668.1815436809998
 30
0.0
 10
115.7971326971236
 20
667.8575077054828
 30
0.0
 10
116.1593713126539
 20
667.2471939485397
 30
0.0
 10
116.4195422815042
 20
666.9611383256149
 30
0.0
 10
117.0542997014141
 20
666.4473244088465
 30
0.0
 10
117.428289167089
 20
666.2195635535868
 30
0.0
 10
118.2371367798604
 20
665.8288701798756
 30
0.0
 10
118.6716100222656
 20
665.665786668978
 30
0.0
 10
119.1131858698814
 20
665.532732973839
 30
0.0
  0
SPLINE
  5
C0
330
1F
100
AcDbEntity
  8
0
  6
Continuous
 62
     7
370
    25
100
AcDbSpline
210
0.0
220
0.0
230
1.0
 70
     8
 71
     3
 72
    22
 73
    18
 74
     0
 42
0.00000001
 43
0.00000001
 40
0.0
 40
0.0
 40
0.0
 40
0.0
 40
0.1249999999999999
 40
0.1249999999999999
 40
0.2499999999999999
 40
0.2499999999999999
 40
0.3749999999999998
 40
0.3749999999999998
 40
0.4999999999999999
 40
0.4999999999999999
 40
0.6249999999999999
 40
0.6249999999999999
 40
0.75
 40
0.75
 40
0.875
 40
0.875
 40
1.0
 40
1.0
 40
1.0
 40
1.0
 10
119.0767547850027
 20
665.1096574951835
 30
0.0
 10
118.6189333849665
 20
665.054051014837
 30
0.0
 10
118.1629763576696
 20
664.967642571086
 30
0.0
 10
117.299245523083
 20
664.72097514654
 30
0.0
 10
116.8918251418369
 20
664.5605015955427
 30
0.0
 10
116.1785739771206
 20
664.1627648745496
 30
0.0
 10
115.8733309530781
 20
663.925397124607
 30
0.0
 10
115.4120900060739
 20
663.3859933006478
 30
0.0
 10
115.2566059431375
 20
663.0840935461221
 30
0.0
 10
115.1188572850776
 20
662.4427335864644
 30
0.0
 10
115.136666001385
 20
662.103614720529
 30
0.0
 10
115.3357453653488
 20
661.4223900121259
 30
0.0
 10
115.5166034442037
 20
661.0806194637278
 30
0.0
 10
116.0036384675449
 20
660.4250902048578
 30
0.0
 10
116.3092365450421
 20
660.1114774776696
 30
0.0
 10
116.9955112316672
 20
659.5319062331747
 30
0.0
 10
117.3757774782983
 20
659.2658971890316
 30
0.0
 10
117.7703913002291
 20
659.0272081726758
 30
0.0
  0
SPLINE
  5
C1
330
1F
100
AcDbEntity
  8
0
  6
Continuous
 62
     7
370
    25
100
AcDbSpline
210
0.0
220
0.0
230
1.0
 70
     8
 71
     3
 72
    22
 73
    18
 74
     0
 42
0.00000001
 43
0.00000001
 40
0.0
 40
0.0
 40
0.0
 40
0.0
 40
0.125
 40
0.125
 40
0.25
 40
0.25
 40
0.375
 40
0.375
 40
0.5
 40
0.5
 40
0.625
 40
0.625
 40
0.75
 40
0.75
 40
0.875
 40
0.875
 40
1.0
 40
1.0
 40
1.0
 40
1.0
 10
117.6298901718249
 20
658.6264844305514
 30
0.0
 10
117.1726233036224
 20
658.6864804823548
 30
0.0
 10
116.7095020986579
 20
658.7161786204288
 30
0.0
 10
115.8115632625521
 20
658.6920618304088
 30
0.0
 10
115.3770345924861
 20
658.6379511797469
 30
0.0
 10
114.5872784244214
 20
658.430088440904
 30
0.0
 10
114.232594212332
 20
658.2760888885216
 30
0.0
 10
113.6516997217241
 20
657.8683373866525
 30
0.0
 10
113.4260210606519
 20
657.6145896821378
 30
0.0
 10
113.1331002939877
 20
657.0276359232212
 30
0.0
 10
113.0660140842194
 20
656.6947422524061
 30
0.0
 10
113.0894253080162
 20
655.985410446341
 30
0.0
 10
113.1796065186318
 20
655.6093996729696
 30
0.0
 10
113.4883169436984
 20
654.853344386201
 30
0.0
 10
113.7063217818975
 20
654.4735852281202
 30
0.0
 10
114.226902379874
 20
653.7415527056472
 30
0.0
 10
114.5290681039337
 20
653.389332454815
 30
0.0
 10
114.8519248624594
 20
653.0600058259768
 30
0.0
  0
SPLINE
  5
C2
330
1F
100
AcDbEntity
  8
0
  6
Continuous
 62
     7
370
    25
100
AcDbSpline
210
0.0
220
0.0
230
1.0
 70
     8
 71
     3
 72
    22
 73
    18
 74
     0
 42
0.00000001
 43
0.00000001
 40
0.0
 40
0.0
 40
0.0
 40
0.0
 40
0.125
 40
0.125
 40
0.25
 40
0.25
 40
0.375
 40
0.375
 40
0.5
 40
0.5
 40
0.625
 40
0.625
 40
0.75
 40
0.75
 40
0.875
 40
0.875
 40
1.0
 40
1.0
 40
1.0
 40
1.0
 10
114.6161818931544
 20
652.70681276686
 30
0.0
 10
114.1882013158247
 20
652.8786415782286
 30
0.0
 10
113.7470155417412
 20
653.0225802548902
 30
0.0
 10
112.8712895035768
 20
653.2225294460083
 30
0.0
 10
112.4369555791157
 20
653.2781816668681
 30
0.0
 10
111.6203176922621
 20
653.2732536905227
 30
0.0
 10
111.2384784056088
 20
653.2122986939472
 30
0.0
 10
110.5744301086224
 20
652.961820040636
 30
0.0
 10
110.2927370696777
 20
652.7721682876254
 30
0.0
 10
109.863049483466
 20
652.2765011927877
 30
0.0
 10
109.7152836209075
 20
651.9707496507275
 30
0.0
 10
109.5615556912458
 20
651.2778806731155
 30
0.0
 10
109.5553936164957
 20
650.8912558145327
 30
0.0
 10
109.6663820319232
 20
650.08218023411
 30
0.0
 10
109.7830955850745
 20
649.6601363096954
 30
0.0
 10
110.10527210087
 20
648.8216388048585
 30
0.0
 10
110.3103511186278
 20
648.4053386410724
 30
0.0
 10
110.5411645362262
 20
648.0060672030203
 30
0.0
  0
SPLINE
  5
C3
330
1F
100
AcDbEntity
  8
0
  6
Continuous
 62
     7
370
    25
100
AcDbSpline
210
0.0
220
0.0
230
1.0
 70
     8
 71
     3
 72
    22
 73
    18
 74
     0
 42
0.00000001
 43
0.00000001
 40
0.0
 40
0.0
 40
0.0
 40
0.0
 40
0.125
 40
0.125
 40
0.25
 40
0.25
 40
0.375
 40
0.375
 40
0.5
 40
0.5
 40
0.625
 40
0.625
 40
0.75
 40
0.75
 40
0.875
 40
0.875
 40
1.0
 40
1.0
 40
1.0
 40
1.0
 10
110.2249923237837
 20
647.7225972457686
 30
0.0
 10
109.8531896310031
 20
647.9954621805417
 30
0.0
 10
109.4616606125538
 20
648.2445971993669
 30
0.0
 10
108.6631724600038
 20
648.6560488285836
 30
0.0
 10
108.25632407899
 20
648.817967087254
 30
0.0
 10
107.4641168351627
 20
649.0162835162835
 30
0.0
 10
107.0791148406324
 20
649.0522031021269
 30
0.0
 10
106.373637333966
 20
648.9747357923569
 30
0.0
 10
106.0536297267803
 20
648.8610965079828
 30
0.0
 10
105.514174172343
 20
648.4878606637284
 30
0.0
 10
105.2950133295838
 20
648.2284627442864
 30
0.0
 10
104.9738055376559
 20
647.5955921011846
 30
0.0
 10
104.8716873633593
 20
647.2226462191618
 30
0.0
 10
104.7779799588196
 20
646.4113875393747
 30
0.0
 10
104.7860686851361
 20
645.9735774205664
 30
0.0
 10
104.8895975833808
 20
645.0813008153725
 30
0.0
 10
104.9847040259232
 20
644.6270784089681
 30
0.0
 10
105.1089712466942
 20
644.1829498545726
 30
0.0
  0
CIRCLE
  5
C4
330
1F
100
AcDbEntity
  8
0
  6
Continuous
 62
     7
370
    25
100
AcDbCircle
 10
92.6935228959
 20
667.5946273307
 30
0.0
 40
4.0
  0
ARC
  5
C5
330
1F
100
AcDbEntity
  8
0
  6
Continuous
 62
     7
370
    25
100
AcDbCircle
 10
92.6935228959
 20
667.5946273307
 30
0.0
 40
26.50000000000003
100
AcDbArc
 50
52.2193292213
 51
53.1374576951
  0
ARC
  5
C6
330
1F
100
AcDbEntity
  8
0
  6
Continuous
 62
     7
370
    25
100
AcDbCircle
 10
92.6935228959
 20
667.5946273307
 30
0.0
 40
26.50000000000006
100
AcDbArc
 50
37.8193292213
 51
38.7374576951
  0
ARC
  5
C7
330
1F
100
AcDbEntity
  8
0
  6
Continuous
 62
     7
370
    25
100
AcDbCircle
 10
92.6935228959
 20
667.5946273307
 30
0.0
 40
26.5000000000001
100
AcDbArc
 50
95.4193292213
 51
96.3374576951
  0
ARC
  5
C8
330
1F
100
AcDbEntity
  8
0
  6
Continuous
 62
     7
370
    25
100
AcDbCircle
 10
92.6935228959
 20
667.5946273307
 30
0.0
 40
26.5000000000001
100
AcDbArc
 50
81.0193292213
 51
81.9374576951
  0
ARC
  5
C9
330
1F
100
AcDbEntity
  8
0
  6
Continuous
 62
     7
370
    25
100
AcDbCircle
 10
92.6935228959
 20
667.5946273307
 30
0.0
 40
26.50000000000012
100
AcDbArc
 50
66.6193292213
 51
67.5374576951
  0
ARC
  5
CA
330
1F
100
AcDbEntity
  8
0
  6
Continuous
 62
     7
370
    25
100
AcDbCircle
 10
92.6935228959
 20
667.5946273307
 30
0.0
 40
26.50000000000008
100
AcDbArc
 50
138.6193292213
 51
139.5374576951
  0
ARC
  5
CB
330
1F
100
AcDbEntity
  8
0
  6
Continuous
 62
     7
370
    25
100
AcDbCircle
 10
92.6935228959
 20
667.5946273307
 30
0.0
 40
26.50000000000006
100
AcDbArc
 50
153.0193292213
 51
153.9374576951
  0
ARC
  5
CC
330
1F
100
AcDbEntity
  8
0
  6
Continuous
 62
     7
370
    25
100
AcDbCircle
 10
92.6935228959
 20
667.5946273307
 30
0.0
 40
26.50000000000009
100
AcDbArc
 50
109.8193292213
 51
110.7374576951
  0
ARC
  5
CD
330
1F
100
AcDbEntity
  8
0
  6
Continuous
 62
     7
370
    25
100
AcDbCircle
 10
92.6935228959
 20
667.5946273307
 30
0.0
 40
26.5000000000001
100
AcDbArc
 50
124.2193292213
 51
125.1374576951
  0
ARC
  5
CE
330
1F
100
AcDbEntity
  8
0
  6
Continuous
 62
     7
370
    25
100
AcDbCircle
 10
92.6935228959
 20
667.5946273307
 30
0.0
 40
26.49999999999992
100
AcDbArc
 50
239.4193292213
 51
240.3374576951
  0
ARC
  5
CF
330
1F
100
AcDbEntity
  8
0
  6
Continuous
 62
     7
370
    25
100
AcDbCircle
 10
92.6935228959
 20
667.5946273307
 30
0.0
 40
26.49999999999999
100
AcDbArc
 50
225.0193292213
 51
225.9374576951
  0
ARC
  5
D0
330
1F
100
AcDbEntity
  8
0
  6
Continuous
 62
     7
370
    25
100
AcDbCircle
 10
92.6935228959
 20
667.5946273307
 30
0.0
 40
26.5
100
AcDbArc
 50
253.8193292213
 51
254.7374576951
  0
ARC
  5
D1
330
1F
100
AcDbEntity
  8
0
  6
Continuous
 62
     7
370
    25
100
AcDbCircle
 10
92.6935228959
 20
667.5946273307
 30
0.0
 40
26.49999999999997
100
AcDbArc
 50
268.2193292213
 51
269.1374576951
  0
ARC
  5
D2
330
1F
100
AcDbEntity
  8
0
  6
Continuous
 62
     7
370
    25
100
AcDbCircle
 10
92.6935228959
 20
667.5946273307
 30
0.0
 40
26.5
100
AcDbArc
 50
210.6193292213
 51
211.5374576951
  0
ARC
  5
D3
330
1F
100
AcDbEntity
  8
0
  6
Continuous
 62
     7
370
    25
100
AcDbCircle
 10
92.6935228959
 20
667.5946273307
 30
0.0
 40
26.49999999999999
100
AcDbArc
 50
196.2193292213
 51
197.1374576951
  0
ARC
  5
D4
330
1F
100
AcDbEntity
  8
0
  6
Continuous
 62
     7
370
    25
100
AcDbCircle
 10
92.6935228959
 20
667.5946273307
 30
0.0
 40
26.50000000000001
100
AcDbArc
 50
181.8193292213
 51
182.7374576951
  0
ARC
  5
D5
330
1F
100
AcDbEntity
  8
0
  6
Continuous
 62
     7
370
    25
100
AcDbCircle
 10
92.6935228959
 20
667.5946273307
 30
0.0
 40
26.50000000000002
100
AcDbArc
 50
167.4193292213
 51
168.3374576951
  0
ARC
  5
D6
330
1F
100
AcDbEntity
  8
0
  6
Continuous
 62
     7
370
    25
100
AcDbCircle
 10
92.6935228959
 20
667.5946273307
 30
0.0
 40
26.50000000000001
100
AcDbArc
 50
23.4193292213
 51
24.3374576951
  0
ARC
  5
D7
330
1F
100
AcDbEntity
  8
0
  6
Continuous
 62
     7
370
    25
100
AcDbCircle
 10
92.6935228959
 20
667.5946273307
 30
0.0
 40
26.50000000000001
100
AcDbArc
 50
9.0193292213
 51
9.9374576951
  0
ARC
  5
D8
330
1F
100
AcDbEntity
  8
0
  6
Continuous
 62
     7
370
    25
100
AcDbCircle
 10
92.6935228959
 20
667.5946273307
 30
0.0
 40
26.49999999999998
100
AcDbArc
 50
340.2193292213
 51
341.1374576951
  0
ARC
  5
D9
330
1F
100
AcDbEntity
  8
0
  6
Continuous
 62
     7
370
    25
100
AcDbCircle
 10
92.6935228959
 20
667.5946273307
 30
0.0
 40
26.50000000000001
100
AcDbArc
 50
354.6193292213
 51
355.5374576951
  0
ARC
  5
DA
330
1F
100
AcDbEntity
  8
0
  6
Continuous
 62
     7
370
    25
100
AcDbCircle
 10
92.6935228959
 20
667.5946273307
 30
0.0
 40
26.49999999999998
100
AcDbArc
 50
282.6193292213
 51
283.5374576951
  0
ARC
  5
DB
330
1F
100
AcDbEntity
  8
0
  6
Continuous
 62
     7
370
    25
100
AcDbCircle
 10
92.6935228959
 20
667.5946273307
 30
0.0
 40
26.49999999999994
100
AcDbArc
 50
297.0193292213
 51
297.9374576951
  0
ARC
  5
DC
330
1F
100
AcDbEntity
  8
0
  6
Continuous
 62
     7
370
    25
100
AcDbCircle
 10
92.6935228959
 20
667.5946273307
 30
0.0
 40
26.49999999999997
100
AcDbArc
 50
325.8193292213
 51
326.7374576951
  0
ARC
  5
DD
330
1F
100
AcDbEntity
  8
0
  6
Continuous
 62
     7
370
    25
100
AcDbCircle
 10
92.6935228959
 20
667.5946273307
 30
0.0
 40
26.49999999999996
100
AcDbArc
 50
311.4193292213
 51
312.3374576951
  0
ARC
  5
DE
330
1F
100
AcDbEntity
  8
0
  6
Continuous
 62
     7
370
    25
100
AcDbCircle
 10
137.5761180744
 20
688.3489475781
 30
0.0
 40
1.999999999999995
100
AcDbArc
 50
160.0
 51
290.0
  0
LINE
  5
DF
330
1F
100
AcDbEntity
  8
0
  6
Continuous
 62
     7
370
    25
100
AcDbLine
 10
138.9410424796
 20
686.7173838887
 30
0.0
 11
138.260158361
 21
686.4695623366
 31
0.0
  0
ARC
  5
E0
330
1F
100
AcDbEntity
  8
0
  6
Continuous
 62
     7
370
    25
100
AcDbCircle
 10
140.4186515288
 20
681.4964769737
 30
0.0
 40
5.425974338109651
100
AcDbArc
 50
81.5583896961
 51
105.802451819
  0
ARC
  5
E1
330
1F
100
AcDbEntity
  8
0
  6
Continuous
 62
     7
370
    25
100
AcDbCircle
 10
136.1687997207
 20
688.85743623
 30
0.0
 40
5.425974338109673
100
AcDbArc
 50
314.197548181
 51
338.4416103039
  0
LINE
  5
E2
330
1F
100
AcDbEntity
  8
0
  6
Continuous
 62
     7
370
    25
100
AcDbLine
 10
139.9514332153
 20
684.967335799
 30
0.0
 11
139.3963713963
 21
684.5015836314
 31
0.0
  0
ARC
  5
E3
330
1F
100
AcDbEntity
  8
0
  6
Continuous
 62
     7
370
    25
100
AcDbCircle
 10
140.6819466156
 20
682.9694947451
 30
0.0
 40
2.000000000000001
100
AcDbArc
 50
130.0
 51
260.0
  0
LINE
  5
E4
330
1F
100
AcDbEntity
  8
0
  6
Continuous
 62
     7
370
    25
100
AcDbLine
 10
141.04822398
 20
680.8740569396
 30
0.0
 11
140.3346502603
 21
680.9998792391
 31
0.0
  0
ARC
  5
E5
330
1F
100
AcDbEntity
  8
0
  6
Continuous
 62
     7
370
    25
100
AcDbCircle
 10
139.7174174961
 20
675.6138143958
 30
0.0
 40
5.42597433810958
100
AcDbArc
 50
51.5583896961
 51
75.802451819
  0
ARC
  5
E6
330
1F
100
AcDbEntity
  8
0
  6
Continuous
 62
     7
370
    25
100
AcDbCircle
 10
139.7174174961
 20
684.1135180121
 30
0.0
 40
5.42597433810958
100
AcDbArc
 50
284.197548181
 51
308.4416103039
  0
LINE
  5
E7
330
1F
100
AcDbEntity
  8
0
  6
Continuous
 62
     7
370
    25
100
AcDbLine
 10
141.04822398
 20
678.8532754682
 30
0.0
 11
140.3346502603
 21
678.7274531687
 31
0.0
  0
ARC
  5
E8
330
1F
100
AcDbEntity
  8
0
  6
Continuous
 62
     7
370
    25
100
AcDbCircle
 10
140.6819466156
 20
676.7578376627
 30
0.0
 40
2.000000000000001
100
AcDbArc
 50
100.0
 51
230.0
  0
LINE
  5
E9
330
1F
100
AcDbEntity
  8
0
  6
Continuous
 62
     7
370
    25
100
AcDbLine
 10
139.9514332153
 20
674.7599966088
 30
0.0
 11
139.3963713963
 21
675.2257487764
 31
0.0
  0
ARC
  5
EA
330
1F
100
AcDbEntity
  8
0
  6
Continuous
 62
     7
370
    25
100
AcDbCircle
 10
136.1687997207
 20
670.8698961778
 30
0.0
 40
5.425974338109652
100
AcDbArc
 50
21.5583896961
 51
45.802451819
  0
ARC
  5
EB
330
1F
100
AcDbEntity
  8
0
  6
Continuous
 62
     7
370
    25
100
AcDbCircle
 10
140.4186515288
 20
678.2308554341
 30
0.0
 40
5.425974338109538
100
AcDbArc
 50
254.197548181
 51
278.4416103039
  0
LINE
  5
EC
330
1F
100
AcDbEntity
  8
0
  6
Continuous
 62
     7
370
    25
100
AcDbLine
 10
138.9410424796
 20
673.0099485191
 30
0.0
 11
138.260158361
 21
673.2577700712
 31
0.0
  0
ARC
  5
ED
330
1F
100
AcDbEntity
  8
0
  6
Continuous
 62
     7
370
    25
100
AcDbCircle
 10
137.5761180744
 20
671.3783848297
 30
0.0
 40
2.000000000000038
100
AcDbArc
 50
70.0
 51
200.0
  0
LINE
  5
EE
330
1F
100
AcDbEntity
  8
0
  6
Continuous
 62
     7
370
    25
100
AcDbLine
 10
135.944554385
 20
670.0134604245
 30
0.0
 11
135.6967328328
 21
670.694344543
 31
0.0
  0
ARC
  5
EF
330
1F
100
AcDbEntity
  8
0
  6
Continuous
 62
     7
370
    25
100
AcDbCircle
 10
130.7236474699
 20
668.5358513752
 30
0.0
 40
5.425974338109648
100
AcDbArc
 50
351.5583896961
 51
15.802451819
  0
ARC
  5
F0
330
1F
100
AcDbEntity
  8
0
  6
Continuous
 62
     7
370
    25
100
AcDbCircle
 10
138.0846067263
 20
672.7857031834
 30
0.0
 40
5.425974338109672
100
AcDbArc
 50
224.197548181
 51
248.4416103039
  0
LINE
  5
F1
330
1F
100
AcDbEntity
  8
0
  6
Continuous
 62
     7
370
    25
100
AcDbLine
 10
134.1945062952
 20
669.0030696888
 30
0.0
 11
133.7287541276
 21
669.5581315078
 31
0.0
  0
ARC
  5
F2
330
1F
100
AcDbEntity
  8
0
  6
Continuous
 62
     7
370
    25
100
AcDbCircle
 10
132.1966652414
 20
668.2725562884
 30
0.0
 40
2.000000000000006
100
AcDbArc
 50
40.0
 51
170.0
  0
LINE
  5
F3
330
1F
100
AcDbEntity
  8
0
  6
Continuous
 62
     7
370
    25
100
AcDbLine
 10
130.1012274358
 20
667.906278924
 30
0.0
 11
130.2270497354
 21
668.6198526438
 31
0.0
  0
ARC
  5
F4
330
1F
100
AcDbEntity
  8
0
  6
Continuous
 62
     7
370
    25
100
AcDbCircle
 10
124.840984892
 20
669.237085408
 30
0.0
 40
5.425974338109666
100
AcDbArc
 50
321.5583896961
 51
345.802451819
  0
ARC
  5
F5
330
1F
100
AcDbEntity
  8
0
  6
Continuous
 62
     7
370
    25
100
AcDbCircle
 10
133.3406885083
 20
669.237085408
 30
0.0
 40
5.425974338109649
100
AcDbArc
 50
194.197548181
 51
218.4416103039
  0
LINE
  5
F6
330
1F
100
AcDbEntity
  8
0
  6
Continuous
 62
     7
370
    25
100
AcDbLine
 10
128.0804459645
 20
667.906278924
 30
0.0
 11
127.9546236649
 21
668.6198526438
 31
0.0
  0
ARC
  5
F7
330
1F
100
AcDbEntity
  8
0
  6
Continuous
 62
     7
370
    25
100
AcDbCircle
 10
125.9850081589
 20
668.2725562884
 30
0.0
 40
2.00000000000002
100
AcDbArc
 50
10.0
 51
140.0
  0
LINE
  5
F8
330
1F
100
AcDbEntity
  8
0
  6
Continuous
 62
     7
370
    25
100
AcDbLine
 10
123.9871671051
 20
669.0030696888
 30
0.0
 11
124.4529192727
 21
669.5581315078
 31
0.0
  0
ARC
  5
F9
330
1F
100
AcDbEntity
  8
0
  6
Continuous
 62
     7
370
    25
100
AcDbCircle
 10
120.097066674
 20
672.7857031834
 30
0.0
 40
5.425974338109662
100
AcDbArc
 50
291.5583896961
 51
315.802451819
  0
ARC
  5
FA
330
1F
100
AcDbEntity
  8
0
  6
Continuous
 62
     7
370
    25
100
AcDbCircle
 10
127.4580259304
 20
668.5358513752
 30
0.0
 40
5.425974338109662
100
AcDbArc
 50
164.197548181
 51
188.4416103039
  0
LINE
  5
FB
330
1F
100
AcDbEntity
  8
0
  6
Continuous
 62
     7
370
    25
100
AcDbLine
 10
122.2371190154
 20
670.0134604245
 30
0.0
 11
122.4849405675
 21
670.694344543
 31
0.0
  0
ARC
  5
FC
330
1F
100
AcDbEntity
  8
0
  6
Continuous
 62
     7
370
    25
100
AcDbCircle
 10
120.6055553259
 20
671.3783848297
 30
0.0
 40
2.000000000000038
100
AcDbArc
 50
340.0
 51
110.0
  0
LINE
  5
FD
330
1F
100
AcDbEntity
  8
0
  6
Continuous
 62
     7
370
    25
100
AcDbLine
 10
119.2406309207
 20
673.0099485191
 30
0.0
 11
119.9215150393
 21
673.2577700712
 31
0.0
  0
ARC
  5
FE
330
1F
100
AcDbEntity
  8
0
  6
Continuous
 62
     7
370
    25
100
AcDbCircle
 10
117.7630218715
 20
678.2308554341
 30
0.0
 40
5.425974338109644
100
AcDbArc
 50
261.5583896961
 51
285.802451819
  0
ARC
  5
FF
330
1F
100
AcDbEntity
  8
0
  6
Continuous
 62
     7
370
    25
100
AcDbCircle
 10
122.0128736796
 20
670.8698961778
 30
0.0
 40
5.425974338109763
100
AcDbArc
 50
134.197548181
 51
158.4416103039
  0
LINE
  5
100
330
1F
100
AcDbEntity
  8
0
  6
Continuous
 62
     7
370
    25
100
AcDbLine
 10
118.230240185
 20
674.7599966088
 30
0.0
 11
118.7853020041
 21
675.2257487764
 31
0.0
  0
ARC
  5
101
330
1F
100
AcDbEntity
  8
0
  6
Continuous
 62
     7
370
    25
100
AcDbCircle
 10
117.4997267847
 20
676.7578376627
 30
0.0
 40
2.000000000000004
100
AcDbArc
 50
310.0
 51
80.0
  0
LINE
  5
102
330
1F
100
AcDbEntity
  8
0
  6
Continuous
 62
     7
370
    25
100
AcDbLine
 10
117.1334494203
 20
678.8532754682
 30
0.0
 11
117.84702314
 21
678.7274531687
 31
0.0
  0
ARC
  5
103
330
1F
100
AcDbEntity
  8
0
  6
Continuous
 62
     7
370
    25
100
AcDbCircle
 10
118.4642559043
 20
684.1135180121
 30
0.0
 40
5.425974338109586
100
AcDbArc
 50
231.5583896961
 51
255.802451819
  0
ARC
  5
104
330
1F
100
AcDbEntity
  8
0
  6
Continuous
 62
     7
370
    25
100
AcDbCircle
 10
118.4642559043
 20
675.6138143958
 30
0.0
 40
5.42597433810969
100
AcDbArc
 50
104.197548181
 51
128.4416103039
  0
LINE
  5
105
330
1F
100
AcDbEntity
  8
0
  6
Continuous
 62
     7
370
    25
100
AcDbLine
 10
117.1334494203
 20
680.8740569396
 30
0.0
 11
117.84702314
 21
680.9998792391
 31
0.0
  0
ARC
  5
106
330
1F
100
AcDbEntity
  8
0
  6
Continuous
 62
     7
370
    25
100
AcDbCircle
 10
117.4997267847
 20
682.9694947451
 30
0.0
 40
2.000000000000001
100
AcDbArc
 50
280.0
 51
50.0
  0
LINE
  5
107
330
1F
100
AcDbEntity
  8
0
  6
Continuous
 62
     7
370
    25
100
AcDbLine
 10
118.230240185
 20
684.967335799
 30
0.0
 11
118.7853020041
 21
684.5015836314
 31
0.0
  0
ARC
  5
108
330
1F
100
AcDbEntity
  8
0
  6
Continuous
 62
     7
370
    25
100
AcDbCircle
 10
122.0128736796
 20
688.85743623
 30
0.0
 40
5.425974338109644
100
AcDbArc
 50
201.5583896961
 51
225.802451819
  0
ARC
  5
109
330
1F
100
AcDbEntity
  8
0
  6
Continuous
 62
     7
370
    25
100
AcDbCircle
 10
117.7630218715
 20
681.4964769737
 30
0.0
 40
5.425974338109541
100
AcDbArc
 50
74.197548181
 51
98.4416103039
  0
LINE
  5
10A
330
1F
100
AcDbEntity
  8
0
  6
Continuous
 62
     7
370
    25
100
AcDbLine
 10
119.2406309207
 20
686.7173838887
 30
0.0
 11
119.9215150393
 21
686.4695623366
 31
0.0
  0
ARC
  5
10B
330
1F
100
AcDbEntity
  8
0
  6
Continuous
 62
     7
370
    25
100
AcDbCircle
 10
120.6055553259
 20
688.3489475781
 30
0.0
 40
1.999999999999969
100
AcDbArc
 50
250.0
 51
20.0
  0
LINE
  5
10C
330
1F
100
AcDbEntity
  8
0
  6
Continuous
 62
     7
370
    25
100
AcDbLine
 10
122.2371190154
 20
689.7138719833
 30
0.0
 11
122.4849405675
 21
689.0329878648
 31
0.0
  0
ARC
  5
10D
330
1F
100
AcDbEntity
  8
0
  6
Continuous
 62
     7
370
    25
100
AcDbCircle
 10
127.4580259304
 20
691.1914810326
 30
0.0
 40
5.425974338109662
100
AcDbArc
 50
171.5583896961
 51
195.802451819
  0
ARC
  5
10E
330
1F
100
AcDbEntity
  8
0
  6
Continuous
 62
     7
370
    25
100
AcDbCircle
 10
120.097066674
 20
686.9416292245
 30
0.0
 40
5.425974338109662
100
AcDbArc
 50
44.197548181
 51
68.4416103039
  0
LINE
  5
10F
330
1F
100
AcDbEntity
  8
0
  6
Continuous
 62
     7
370
    25
100
AcDbLine
 10
123.9871671051
 20
690.724262719
 30
0.0
 11
124.4529192727
 21
690.1692009
 31
0.0
  0
ARC
  5
110
330
1F
100
AcDbEntity
  8
0
  6
Continuous
 62
     7
370
    25
100
AcDbCircle
 10
125.9850081589
 20
691.4547761194
 30
0.0
 40
2.00000000000007
100
AcDbArc
 50
220.0
 51
350.0
  0
LINE
  5
111
330
1F
100
AcDbEntity
  8
0
  6
Continuous
 62
     7
370
    25
100
AcDbLine
 10
128.0804459645
 20
691.8210534838
 30
0.0
 11
127.9546236649
 21
691.107479764
 31
0.0
  0
ARC
  5
112
330
1F
100
AcDbEntity
  8
0
  6
Continuous
 62
     7
370
    25
100
AcDbCircle
 10
133.3406885083
 20
690.4902469998
 30
0.0
 40
5.425974338109621
100
AcDbArc
 50
141.5583896961
 51
165.802451819
  0
ARC
  5
113
330
1F
100
AcDbEntity
  8
0
  6
Continuous
 62
     7
370
    25
100
AcDbCircle
 10
124.840984892
 20
690.4902469998
 30
0.0
 40
5.425974338109621
100
AcDbArc
 50
14.197548181
 51
38.4416103039
  0
LINE
  5
114
330
1F
100
AcDbEntity
  8
0
  6
Continuous
 62
     7
370
    25
100
AcDbLine
 10
130.1012274358
 20
691.8210534838
 30
0.0
 11
130.2270497354
 21
691.107479764
 31
0.0
  0
ARC
  5
115
330
1F
100
AcDbEntity
  8
0
  6
Continuous
 62
     7
370
    25
100
AcDbCircle
 10
132.1966652414
 20
691.4547761194
 30
0.0
 40
2.000000000000059
100
AcDbArc
 50
190.0
 51
320.0
  0
LINE
  5
116
330
1F
100
AcDbEntity
  8
0
  6
Continuous
 62
     7
370
    25
100
AcDbLine
 10
134.1945062952
 20
690.724262719
 30
0.0
 11
133.7287541276
 21
690.1692009
 31
0.0
  0
ARC
  5
117
330
1F
100
AcDbEntity
  8
0
  6
Continuous
 62
     7
370
    25
100
AcDbCircle
 10
138.0846067263
 20
686.9416292245
 30
0.0
 40
5.425974338109672
100
AcDbArc
 50
111.5583896961
 51
135.802451819
  0
ARC
  5
118
330
1F
100
AcDbEntity
  8
0
  6
Continuous
 62
     7
370
    25
100
AcDbCircle
 10
130.7236474699
 20
691.1914810326
 30
0.0
 40
5.425974338109648
100
AcDbArc
 50
344.197548181
 51
8.4416103039
  0
LINE
  5
119
330
1F
100
AcDbEntity
  8
0
  6
Continuous
 62
     7
370
    25
100
AcDbLine
 10
135.944554385
 20
689.7138719833
 30
0.0
 11
135.6967328328
 21
689.0329878648
 31
0.0
  0
LINE
  5
11A
330
1F
100
AcDbEntity
  8
0
  6
Continuous
 62
     7
370
    25
100
AcDbLine
 10
126.4450853891
 20
676.8636662039
 30
0.0
 11
131.7365880112
 21
676.8636662039
 31
0.0
  0
ARC
  5
11B
330
1F
100
AcDbEntity
  8
0
  6
Continuous
 62
     7
370
    25
100
AcDbCircle
 10
129.0908367002
 20
679.8636662039
 30
0.0
 40
4.000000000000006
100
AcDbArc
 50
311.4096221093
 51
48.5903778907
  0
LINE
  5
11C
330
1F
100
AcDbEntity
  8
0
  6
Continuous
 62
     7
370
    25
100
AcDbLine
 10
131.7365880112
 20
682.8636662039
 30
0.0
 11
126.4450853891
 21
682.8636662039
 31
0.0
  0
ARC
  5
11D
330
1F
100
AcDbEntity
  8
0
  6
Continuous
 62
     7
370
    25
100
AcDbCircle
 10
129.0908367002
 20
679.8636662039
 30
0.0
 40
3.999999999999997
100
AcDbArc
 50
131.4096221093
 51
228.5903778907
  0
ENDSEC
  0
SECTION
  2
OBJECTS
  0
DICTIONARY
  5
C
330
0
100
AcDbDictionary
281
     1
  3
ACAD_GROUP
350
D
  3
ACAD_LAYOUT
350
1A
  3
ACAD_MLINESTYLE
350
17
  3
ACAD_PLOTSETTINGS
350
19
  3
ACAD_PLOTSTYLENAME
350
E
  3
ACAD_SCALELIST
350
47
  3
DWGPROPS
350
11E
  0
DICTIONARY
  5
D
102
{ACAD_REACTORS
330
C
102
}
330
C
100
AcDbDictionary
281
     1
  0
DICTIONARY
  5
1A
102
{ACAD_REACTORS
330
C
102
}
330
C
100
AcDbDictionary
281
     1
  3
Layout1
350
1E
  3
Layout2
350
26
  3
Model
350
22
  0
DICTIONARY
  5
17
102
{ACAD_REACTORS
330
C
102
}
330
C
100
AcDbDictionary
281
     1
  3
Standard
350
18
  0
DICTIONARY
  5
19
102
{ACAD_REACTORS
330
C
102
}
330
C
100
AcDbDictionary
281
     1
  0
ACDBDICTIONARYWDFLT
  5
E
102
{ACAD_REACTORS
330
C
102
}
330
C
100
AcDbDictionary
281
     1
  3
Normal
350
F
100
AcDbDictionaryWithDefault
340
F
  0
DICTIONARY
  5
47
102
{ACAD_REACTORS
330
C
102
}
330
C
100
AcDbDictionary
281
     1
  3
A0
350
48
  3
A1
350
49
  3
A2
350
4A
  3
A3
350
4B
  3
A4
350
4C
  3
A5
350
4D
  3
A6
350
4E
  3
A7
350
4F
  3
A8
350
50
  3
A9
350
51
  3
B0
350
52
  3
B1
350
53
  3
B2
350
54
  3
B3
350
55
  3
B4
350
56
  3
B5
350
57
  3
B6
350
58
  3
B7
350
59
  3
B8
350
5A
  3
B9
350
5B
  3
C0
350
5C
  3
C1
350
5D
  3
C2
350
5E
  3
C3
350
5F
  3
C4
350
60
  3
C5
350
61
  3
C6
350
62
  3
C7
350
63
  3
C8
350
64
  3
C9
350
65
  3
D0
350
66
  3
D1
350
67
  3
D2
350
68
  0
XRECORD
  5
11E
102
{ACAD_REACTORS
330
C
102
}
330
C
100
AcDbXrecord
280
     1
  1
DWGPROPS COOKIE
  2

  3

  4

  6

  7

  8
nadee
  9

300
=
301
=
302
=
303
=
304
=
305
=
306
=
307
=
308
=
309
=
 40
0.0
 41
2460936.437975382
 42
2460936.437976297
  1

 90
        0
  0
LAYOUT
  5
1E
102
{ACAD_REACTORS
330
1A
102
}
330
1A
100
AcDbPlotSettings
  1

  2
none_device
  4

  6

 40
0.0
 41
0.0
 42
0.0
 43
0.0
 44
0.0
 45
0.0
 46
0.0
 47
0.0
 48
0.0
 49
0.0
140
0.0
141
0.0
142
1.0
143
1.0
 70
   688
 72
     1
 73
     0
 74
     5
  7

 75
    16
147
1.0
148
0.0
149
0.0
100
AcDbLayout
  1
Layout1
 70
     1
 71
     1
 10
0.0
 20
0.0
 11
420.0
 21
297.0
 12
0.0
 22
0.0
 32
0.0
 14
1.0000000000E+20
 24
1.0000000000E+20
 34
1.0000000000E+20
 15
-1.0000000000E+20
 25
-1.0000000000E+20
 35
-1.0000000000E+20
146
0.0
 13
0.0
 23
0.0
 33
0.0
 16
1.0
 26
0.0
 36
0.0
 17
0.0
 27
1.0
 37
0.0
 76
     0
330
1B
  0
LAYOUT
  5
26
102
{ACAD_REACTORS
330
1A
102
}
330
1A
100
AcDbPlotSettings
  1

  2
none_device
  4

  6

 40
0.0
 41
0.0
 42
0.0
 43
0.0
 44
0.0
 45
0.0
 46
0.0
 47
0.0
 48
0.0
 49
0.0
140
0.0
141
0.0
142
1.0
143
1.0
 70
   688
 72
     1
 73
     0
 74
     5
  7

 75
    16
147
1.0
148
0.0
149
0.0
100
AcDbLayout
  1
Layout2
 70
     1
 71
     2
 10
0.0
 20
0.0
 11
0.0
 21
0.0
 12
0.0
 22
0.0
 32
0.0
 14
0.0
 24
0.0
 34
0.0
 15
0.0
 25
0.0
 35
0.0
146
0.0
 13
0.0
 23
0.0
 33
0.0
 16
1.0
 26
0.0
 36
0.0
 17
0.0
 27
1.0
 37
0.0
 76
     0
330
23
  0
LAYOUT
  5
22
102
{ACAD_REACTORS
330
1A
102
}
330
1A
100
AcDbPlotSettings
  1

  2
none_device
  4
Letter_(8.50_x_11.00_Inches)
  6

 40
6.35
 41
6.35
 42
6.35000508
 43
6.35000508
 44
215.9
 45
279.4
 46
0.0
 47
0.0
 48
0.0
 49
0.0
140
0.0
141
0.0
142
1.0
143
1.0
 70
  1712
 72
     1
 73
     0
 74
     0
  7

 75
     0
147
1.0
148
0.0
149
0.0
100
AcDbLayout
  1
Model
 70
     1
 71
     0
 10
0.0
 20
0.0
 11
1189.0
 21
841.0
 12
0.0
 22
0.0
 32
0.0
 14
0.0
 24
0.0
 34
0.0
 15
1189.0
 25
841.0
 35
0.0
146
0.0
 13
0.0
 23
0.0
 33
0.0
 16
1.0
 26
0.0
 36
0.0
 17
0.0
 27
1.0
 37
0.0
 76
     0
330
1F
331
29
  0
MLINESTYLE
  5
18
102
{ACAD_REACTORS
330
17
102
}
330
17
100
AcDbMlineStyle
  2
Standard
 70
     0
  3

 62
   256
 51
90.0
 52
90.0
 71
     2
 49
0.5
 62
   256
  6
BYLAYER
 49
-0.5
 62
   256
  6
BYLAYER
  0
ACDBPLACEHOLDER
  5
F
102
{ACAD_REACTORS
330
E
102
}
330
E
  0
SCALE
  5
48
102
{ACAD_REACTORS
330
47
102
}
330
47
100
AcDbScale
 70
     0
300
1:1
140
1.0
141
1.0
290
     1
  0
SCALE
  5
49
102
{ACAD_REACTORS
330
47
102
}
330
47
100
AcDbScale
 70
     0
300
1:2
140
1.0
141
2.0
290
     0
  0
SCALE
  5
4A
102
{ACAD_REACTORS
330
47
102
}
330
47
100
AcDbScale
 70
     0
300
1:4
140
1.0
141
4.0
290
     0
  0
SCALE
  5
4B
102
{ACAD_REACTORS
330
47
102
}
330
47
100
AcDbScale
 70
     0
300
1:5
140
1.0
141
5.0
290
     0
  0
SCALE
  5
4C
102
{ACAD_REACTORS
330
47
102
}
330
47
100
AcDbScale
 70
     0
300
1:8
140
1.0
141
8.0
290
     0
  0
SCALE
  5
4D
102
{ACAD_REACTORS
330
47
102
}
330
47
100
AcDbScale
 70
     0
300
1:10
140
1.0
141
10.0
290
     0
  0
SCALE
  5
4E
102
{ACAD_REACTORS
330
47
102
}
330
47
100
AcDbScale
 70
     0
300
1:16
140
1.0
141
16.0
290
     0
  0
SCALE
  5
4F
102
{ACAD_REACTORS
330
47
102
}
330
47
100
AcDbScale
 70
     0
300
1:20
140
1.0
141
20.0
290
     0
  0
SCALE
  5
50
102
{ACAD_REACTORS
330
47
102
}
330
47
100
AcDbScale
 70
     0
300
1:30
140
1.0
141
30.0
290
     0
  0
SCALE
  5
51
102
{ACAD_REACTORS
330
47
102
}
330
47
100
AcDbScale
 70
     0
300
1:40
140
1.0
141
40.0
290
     0
  0
SCALE
  5
52
102
{ACAD_REACTORS
330
47
102
}
330
47
100
AcDbScale
 70
     0
300
1:50
140
1.0
141
50.0
290
     0
  0
SCALE
  5
53
102
{ACAD_REACTORS
330
47
102
}
330
47
100
AcDbScale
 70
     0
300
1:100
140
1.0
141
100.0
290
     0
  0
SCALE
  5
54
102
{ACAD_REACTORS
330
47
102
}
330
47
100
AcDbScale
 70
     0
300
2:1
140
2.0
141
1.0
290
     0
  0
SCALE
  5
55
102
{ACAD_REACTORS
330
47
102
}
330
47
100
AcDbScale
 70
     0
300
4:1
140
4.0
141
1.0
290
     0
  0
SCALE
  5
56
102
{ACAD_REACTORS
330
47
102
}
330
47
100
AcDbScale
 70
     0
300
8:1
140
8.0
141
1.0
290
     0
  0
SCALE
  5
57
102
{ACAD_REACTORS
330
47
102
}
330
47
100
AcDbScale
 70
     0
300
10:1
140
10.0
141
1.0
290
     0
  0
SCALE
  5
58
102
{ACAD_REACTORS
330
47
102
}
330
47
100
AcDbScale
 70
     0
300
100:1
140
100.0
141
1.0
290
     0
  0
SCALE
  5
59
102
{ACAD_REACTORS
330
47
102
}
330
47
100
AcDbScale
 70
     0
300
1/128" = 1'-0"
140
0.0078125
141
12.0
290
     0
  0
SCALE
  5
5A
102
{ACAD_REACTORS
330
47
102
}
330
47
100
AcDbScale
 70
     0
300
1/64" = 1'-0"
140
0.015625
141
12.0
290
     0
  0
SCALE
  5
5B
102
{ACAD_REACTORS
330
47
102
}
330
47
100
AcDbScale
 70
     0
300
1/32" = 1'-0"
140
0.03125
141
12.0
290
     0
  0
SCALE
  5
5C
102
{ACAD_REACTORS
330
47
102
}
330
47
100
AcDbScale
 70
     0
300
1/16" = 1'-0"
140
0.0625
141
12.0
290
     0
  0
SCALE
  5
5D
102
{ACAD_REACTORS
330
47
102
}
330
47
100
AcDbScale
 70
     0
300
3/32" = 1'-0"
140
0.09375
141
12.0
290
     0
  0
SCALE
  5
5E
102
{ACAD_REACTORS
330
47
102
}
330
47
100
AcDbScale
 70
     0
300
1/8" = 1'-0"
140
0.125
141
12.0
290
     0
  0
SCALE
  5
5F
102
{ACAD_REACTORS
330
47
102
}
330
47
100
AcDbScale
 70
     0
300
3/16" = 1'-0"
140
0.1875
141
12.0
290
     0
  0
SCALE
  5
60
102
{ACAD_REACTORS
330
47
102
}
330
47
100
AcDbScale
 70
     0
300
1/4" = 1'-0"
140
0.25
141
12.0
290
     0
  0
SCALE
  5
61
102
{ACAD_REACTORS
330
47
102
}
330
47
100
AcDbScale
 70
     0
300
3/8" = 1'-0"
140
0.375
141
12.0
290
     0
  0
SCALE
  5
62
102
{ACAD_REACTORS
330
47
102
}
330
47
100
AcDbScale
 70
     0
300
1/2" = 1'-0"
140
0.5
141
12.0
290
     0
  0
SCALE
  5
63
102
{ACAD_REACTORS
330
47
102
}
330
47
100
AcDbScale
 70
     0
300
3/4" = 1'-0"
140
0.75
141
12.0
290
     0
  0
SCALE
  5
64
102
{ACAD_REACTORS
330
47
102
}
330
47
100
AcDbScale
 70
     0
300
1" = 1'-0"
140
1.0
141
12.0
290
     0
  0
SCALE
  5
65
102
{ACAD_REACTORS
330
47
102
}
330
47
100
AcDbScale
 70
     0
300
1-1/2" = 1'-0"
140
1.5
141
12.0
290
     0
  0
SCALE
  5
66
102
{ACAD_REACTORS
330
47
102
}
330
47
100
AcDbScale
 70
     0
300
3" = 1'-0"
140
3.0
141
12.0
290
     0
  0
SCALE
  5
67
102
{ACAD_REACTORS
330
47
102
}
330
47
100
AcDbScale
 70
     0
300
6" = 1'-0"
140
6.0
141
12.0
290
     0
  0
SCALE
  5
68
102
{ACAD_REACTORS
330
47
102
}
330
47
100
AcDbScale
 70
     0
300
1'-0" = 1'-0"
140
12.0
141
12.0
290
     0
  0
ENDSEC
  0
EOF
