  0
SECTION
  2
HEADER
  9
$ACADVER
  1
AC1015
  9
$ACADMAINTVER
 70
     6
  9
$DWGCODEPAGE
  3
ANSI_1252
  9
$INSBASE
 10
0.0
 20
0.0
 30
0.0
  9
$EXTMIN
 10
0.0
 20
0.0
 30
0.0
  9
$EXTMAX
 10
1189.0
 20
841.0
 30
0.0
  9
$LIMMIN
 10
0.0
 20
0.0
  9
$LIMMAX
 10
1189.0
 20
841.0
  9
$ORTHOMODE
 70
     0
  9
$REGENMODE
 70
     1
  9
$FILLMODE
 70
     1
  9
$QTEXTMODE
 70
     0
  9
$MIRRTEXT
 70
     1
  9
$LTSCALE
 40
1.0
  9
$ATTMODE
 70
     1
  9
$TEXTSIZE
 40
3.5
  9
$TRACEWID
 40
1.0
  9
$TEXTSTYLE
  7
Standard
  9
$CLAYER
  8
0
  9
$CELTYPE
  6
ByLayer
  9
$CECOLOR
 62
   256
  9
$CELTSCALE
 40
1.0
  9
$DISPSILH
 70
     0
  9
$DIMSCALE
 40
1.0
  9
$DIMASZ
 40
3.302
  9
$DIMEXO
 40
1.0
  9
$DIMDLI
 40
3.75
  9
$DIMRND
 40
0.0
  9
$DIMDLE
 40
0.0
  9
$DIMEXE
 40
1.0
  9
$DIMTP
 40
0.0
  9
$DIMTM
 40
0.0
  9
$DIMTXT
 40
3.5
  9
$DIMCEN
 40
2.5
  9
$DIMTSZ
 40
0.0
  9
$DIMTOL
 70
     0
  9
$DIMLIM
 70
     0
  9
$DIMTIH
 70
     1
  9
$DIMTOH
 70
     1
  9
$DIMSE1
 70
     0
  9
$DIMSE2
 70
     0
  9
$DIMTAD
 70
     1
  9
$DIMZIN
 70
     1
  9
$DIMBLK
  1

  9
$DIMASO
 70
     1
  9
$DIMSHO
 70
     1
  9
$DIMPOST
  1

  9
$DIMAPOST
  1

  9
$DIMALT
 70
     0
  9
$DIMALTD
 70
     3
  9
$DIMALTF
 40
0.0393700787
  9
$DIMLFAC
 40
1.0
  9
$DIMTOFL
 70
     1
  9
$DIMTVP
 40
0.0
  9
$DIMTIX
 70
     0
  9
$DIMSOXD
 70
     0
  9
$DIMSAH
 70
     0
  9
$DIMBLK1
  1

  9
$DIMBLK2
  1

  9
$DIMSTYLE
  2
ISO-25
  9
$DIMCLRD
 70
     0
  9
$DIMCLRE
 70
     0
  9
$DIMCLRT
 70
     0
  9
$DIMTFAC
 40
1.0
  9
$DIMGAP
 40
1.524
  9
$DIMJUST
 70
     0
  9
$DIMSD1
 70
     0
  9
$DIMSD2
 70
     0
  9
$DIMTOLJ
 70
     0
  9
$DIMTZIN
 70
     1
  9
$DIMALTZ
 70
     0
  9
$DIMALTTZ
 70
     0
  9
$DIMUPT
 70
     0
  9
$DIMDEC
 70
     2
  9
$DIMTDEC
 70
     2
  9
$DIMALTU
 70
     2
  9
$DIMALTTD
 70
     3
  9
$DIMTXSTY
  7
Standard
  9
$DIMAUNIT
 70
     0
  9
$DIMADEC
 70
     2
  9
$DIMALTRND
 40
0.0
  9
$DIMAZIN
 70
     0
  9
$DIMDSEP
 70
    44
  9
$DIMATFIT
 70
     3
  9
$DIMFRAC
 70
     0
  9
$DIMLDRBLK
  1

  9
$DIMLUNIT
 70
     2
  9
$DIMLWD
 70
    -2
  9
$DIMLWE
 70
    -2
  9
$DIMTMOVE
 70
     0
  9
$LUNITS
 70
     2
  9
$LUPREC
 70
     2
  9
$SKETCHINC
 40
1.0
  9
$FILLETRAD
 40
10.0
  9
$AUNITS
 70
     0
  9
$AUPREC
 70
     2
  9
$MENU
  1
.
  9
$ELEVATION
 40
0.0
  9
$PELEVATION
 40
0.0
  9
$THICKNESS
 40
0.0
  9
$LIMCHECK
 70
     0
  9
$CHAMFERA
 40
0.0
  9
$CHAMFERB
 40
0.0
  9
$CHAMFERC
 40
0.0
  9
$CHAMFERD
 40
0.0
  9
$SKPOLY
 70
     0
  9
$TDCREATE
 40
2460938.495440972
  9
$TDUCREATE
 40
2460938.266274306
  9
$TDUPDATE
 40
2460938.495441516
  9
$TDUUPDATE
 40
2460938.266274849
  9
$TDINDWG
 40
0.0000000116
  9
$TDUSRTIMER
 40
0.0000000116
  9
$USRTIMER
 70
     1
  9
$ANGBASE
 50
0.0
  9
$ANGDIR
 70
     0
  9
$PDMODE
 70
     0
  9
$PDSIZE
 40
-1.0
  9
$PLINEWID
 40
0.0
  9
$SPLFRAME
 70
     0
  9
$SPLINETYPE
 70
     6
  9
$SPLINESEGS
 70
     8
  9
$HANDSEED
  5
188
  9
$SURFTAB1
 70
     6
  9
$SURFTAB2
 70
     6
  9
$SURFTYPE
 70
     6
  9
$SURFU
 70
     6
  9
$SURFV
 70
     6
  9
$UCSBASE
  2

  9
$UCSNAME
  2

  9
$UCSORG
 10
0.0
 20
0.0
 30
0.0
  9
$UCSXDIR
 10
1.0
 20
0.0
 30
0.0
  9
$UCSYDIR
 10
0.0
 20
1.0
 30
0.0
  9
$UCSORTHOREF
  2

  9
$UCSORTHOVIEW
 70
     0
  9
$UCSORGTOP
 10
0.0
 20
0.0
 30
0.0
  9
$UCSORGBOTTOM
 10
0.0
 20
0.0
 30
0.0
  9
$UCSORGLEFT
 10
0.0
 20
0.0
 30
0.0
  9
$UCSORGRIGHT
 10
0.0
 20
0.0
 30
0.0
  9
$UCSORGFRONT
 10
0.0
 20
0.0
 30
0.0
  9
$UCSORGBACK
 10
0.0
 20
0.0
 30
0.0
  9
$PUCSBASE
  2

  9
$PUCSNAME
  2

  9
$PUCSORG
 10
0.0
 20
0.0
 30
0.0
  9
$PUCSXDIR
 10
1.0
 20
0.0
 30
0.0
  9
$PUCSYDIR
 10
0.0
 20
1.0
 30
0.0
  9
$PUCSORTHOREF
  2

  9
$PUCSORTHOVIEW
 70
     0
  9
$PUCSORGTOP
 10
0.0
 20
0.0
 30
0.0
  9
$PUCSORGBOTTOM
 10
0.0
 20
0.0
 30
0.0
  9
$PUCSORGLEFT
 10
0.0
 20
0.0
 30
0.0
  9
$PUCSORGRIGHT
 10
0.0
 20
0.0
 30
0.0
  9
$PUCSORGFRONT
 10
0.0
 20
0.0
 30
0.0
  9
$PUCSORGBACK
 10
0.0
 20
0.0
 30
0.0
  9
$USERI1
 70
     0
  9
$USERI2
 70
     0
  9
$USERI3
 70
     0
  9
$USERI4
 70
     0
  9
$USERI5
 70
     0
  9
$USERR1
 40
0.0
  9
$USERR2
 40
0.0
  9
$USERR3
 40
0.0
  9
$USERR4
 40
0.0
  9
$USERR5
 40
0.0
  9
$WORLDVIEW
 70
     1
  9
$SHADEDGE
 70
     3
  9
$SHADEDIF
 70
    70
  9
$TILEMODE
 70
     1
  9
$MAXACTVP
 70
    64
  9
$PINSBASE
 10
0.0
 20
0.0
 30
0.0
  9
$PLIMCHECK
 70
     0
  9
$PEXTMIN
 10
1.0000000000E+20
 20
1.0000000000E+20
 30
1.0000000000E+20
  9
$PEXTMAX
 10
-1.0000000000E+20
 20
-1.0000000000E+20
 30
-1.0000000000E+20
  9
$PLIMMIN
 10
0.0
 20
0.0
  9
$PLIMMAX
 10
420.0
 20
297.0
  9
$UNITMODE
 70
     0
  9
$VISRETAIN
 70
     1
  9
$PLINEGEN
 70
     0
  9
$PSLTSCALE
 70
     1
  9
$TREEDEPTH
 70
  3020
  9
$CMLSTYLE
  2
Standard
  9
$CMLJUST
 70
     0
  9
$CMLSCALE
 40
20.0
  9
$PROXYGRAPHICS
 70
     1
  9
$MEASUREMENT
 70
     1
  9
$CELWEIGHT
370
    -1
  9
$ENDCAPS
280
     0
  9
$JOINSTYLE
280
     0
  9
$LWDISPLAY
290
     1
  9
$INSUNITS
 70
     4
  9
$HYPERLINKBASE
  1

  9
$STYLESHEET
  1

  9
$XEDIT
290
     1
  9
$CEPSNTYPE
380
     0
  9
$PSTYLEMODE
290
     1
  9
$FINGERPRINTGUID
  2
{ff5a045f-1660-4d36-b8d9-7b9249617435}
  9
$VERSIONGUID
  2
{FAEB1C32-E019-11D5-929B-00C0DF256EC4}
  9
$EXTNAMES
290
     1
  9
$PSVPSCALE
 40
0.0
  9
$OLESTARTUP
290
     0
  0
ENDSEC
  0
SECTION
  2
CLASSES
  0
CLASS
  1
ACDBDICTIONARYWDFLT
  2
AcDbDictionaryWithDefault
  3
ObjectDBX Classes
 90
        0
280
     0
281
     0
  0
CLASS
  1
VISUALSTYLE
  2
AcDbVisualStyle
  3
ObjectDBX Classes
 90
     4095
280
     0
281
     0
  0
CLASS
  1
MATERIAL
  2
AcDbMaterial
  3
ObjectDBX Classes
 90
     1153
280
     0
281
     0
  0
CLASS
  1
SCALE
  2
AcDbScale
  3
ObjectDBX Classes
 90
     1153
280
     0
281
     0
  0
CLASS
  1
TABLESTYLE
  2
AcDbTableStyle
  3
ObjectDBX Classes
 90
     4095
280
     0
281
     0
  0
CLASS
  1
MLEADERSTYLE
  2
AcDbMLeaderStyle
  3
ACDB_MLEADERSTYLE_CLASS
 90
     4095
280
     0
281
     0
  0
CLASS
  1
SUN
  2
AcDbSun
  3
SCENEOE
 90
     1153
280
     0
281
     0
  0
CLASS
  1
ACDBPLACEHOLDER
  2
AcDbPlaceHolder
  3
ObjectDBX Classes
 90
        0
280
     0
281
     0
  0
CLASS
  1
LAYOUT
  2
AcDbLayout
  3
ObjectDBX Classes
 90
        0
280
     0
281
     0
  0
ENDSEC
  0
SECTION
  2
TABLES
  0
TABLE
  2
VPORT
  5
8
330
0
100
AcDbSymbolTable
 70
     1
  0
VPORT
  5
29
330
8
100
AcDbSymbolTableRecord
100
AcDbViewportTableRecord
  2
*Active
 70
     0
 10
0.0
 20
0.0
 11
1.0
 21
1.0
 12
594.5
 22
420.5
 13
0.0
 23
0.0
 14
10.0
 24
10.0
 15
10.0
 25
10.0
 16
0.0
 26
0.0
 36
1.0
 17
0.0
 27
0.0
 37
0.0
 40
841.0
 41
1.4137931034
 42
50.0
 43
0.0
 44
0.0
 50
0.0
 51
0.0
 71
     0
 72
  2000
 73
     1
 74
     3
 75
     0
 76
     0
 77
     0
 78
     0
281
     0
 65
     1
110
0.0
120
0.0
130
0.0
111
1.0
121
0.0
131
0.0
112
0.0
122
1.0
132
0.0
 79
     0
146
0.0
  0
ENDTAB
  0
TABLE
  2
LTYPE
  5
5
330
0
100
AcDbSymbolTable
 70
     6
  0
LTYPE
  5
14
330
5
100
AcDbSymbolTableRecord
100
AcDbLinetypeTableRecord
  2
ByBlock
 70
     0
  3

 72
    65
 73
     0
 40
0.0
  0
LTYPE
  5
15
330
5
100
AcDbSymbolTableRecord
100
AcDbLinetypeTableRecord
  2
ByLayer
 70
     0
  3

 72
    65
 73
     0
 40
0.0
  0
LTYPE
  5
16
330
5
100
AcDbSymbolTableRecord
100
AcDbLinetypeTableRecord
  2
Continuous
 70
     0
  3
Solid line
 72
    65
 73
     0
 40
0.0
  0
LTYPE
  5
6E
330
5
100
AcDbSymbolTableRecord
100
AcDbLinetypeTableRecord
  2
HIDDEN
 70
     0
  3
Hidden __ __ __ __ __ __ __ __ __ __ __ __ __ __
 72
    65
 73
     2
 40
1.905
 49
1.27
 74
     0
 49
-0.635
 74
     0
  0
LTYPE
  5
6F
330
5
100
AcDbSymbolTableRecord
100
AcDbLinetypeTableRecord
  2
PHANTOM
 70
     0
  3
Phantom ______  __  __  ______  __  __  ______
 72
    65
 73
     6
 40
12.7
 49
6.35
 74
     0
 49
-1.27
 74
     0
 49
1.27
 74
     0
 49
-1.27
 74
     0
 49
1.27
 74
     0
 49
-1.27
 74
     0
  0
LTYPE
  5
70
330
5
100
AcDbSymbolTableRecord
100
AcDbLinetypeTableRecord
  2
CENTER
 70
     0
  3
Center ____ _ ____ _ ____ _ ____ _ ____ _ ____
 72
    65
 73
     4
 40
10.16
 49
6.35
 74
     0
 49
-1.27
 74
     0
 49
1.27
 74
     0
 49
-1.27
 74
     0
  0
LTYPE
  5
71
330
5
100
AcDbSymbolTableRecord
100
AcDbLinetypeTableRecord
  2
CENTERX2
 70
     0
  3
Center (2x) ________  __  ________  __  _____
 72
    65
 73
     4
 40
20.32
 49
12.7
 74
     0
 49
-2.54
 74
     0
 49
2.54
 74
     0
 49
-2.54
 74
     0
  0
LTYPE
  5
72
330
5
100
AcDbSymbolTableRecord
100
AcDbLinetypeTableRecord
  2
DOT2
 70
     0
  3
Dot (.5x) ........................................
 72
    65
 73
     2
 40
0.635
 49
0.0
 74
     0
 49
-0.635
 74
     0
  0
ENDTAB
  0
TABLE
  2
LAYER
  5
2
330
0
100
AcDbSymbolTable
 70
     1
  0
LAYER
  5
10
330
2
100
AcDbSymbolTableRecord
100
AcDbLayerTableRecord
  2
0
 70
     0
 62
     7
  6
Continuous
370
    -3
390
F
  0
ENDTAB
  0
TABLE
  2
STYLE
  5
3
330
0
100
AcDbSymbolTable
 70
     1
  0
STYLE
  5
11
330
3
100
AcDbSymbolTableRecord
100
AcDbTextStyleTableRecord
  2
Standard
 70
     0
 40
0.0
 41
1.0
 50
0.0
 71
     0
 42
3.5
  3
txt
  4

  0
ENDTAB
  0
TABLE
  2
VIEW
  5
6
330
0
100
AcDbSymbolTable
 70
     0
  0
ENDTAB
  0
TABLE
  2
UCS
  5
7
330
0
100
AcDbSymbolTable
 70
     0
  0
ENDTAB
  0
TABLE
  2
APPID
  5
9
330
0
100
AcDbSymbolTable
 70
     1
  0
APPID
  5
12
330
9
100
AcDbSymbolTableRecord
100
AcDbRegAppTableRecord
  2
ACAD
 70
     0
  0
ENDTAB
  0
TABLE
  2
DIMSTYLE
  5
A
330
0
100
AcDbSymbolTable
 70
     1
100
AcDbDimStyleTable
  0
DIMSTYLE
105
27
330
A
100
AcDbSymbolTableRecord
100
AcDbDimStyleTableRecord
  2
ISO-25
 70
     0
 41
2.5
 42
0.625
 43
3.75
 44
1.25
 73
     0
 74
     0
 77
     1
 78
     8
140
2.5
141
2.5
143
0.0393700787
147
0.625
171
     3
172
     1
178
     0
271
     2
272
     2
274
     3
278
    44
283
     0
284
     8
340
11
  0
ENDTAB
  0
TABLE
  2
BLOCK_RECORD
  5
1
330
0
100
AcDbSymbolTable
 70
     1
  0
BLOCK_RECORD
  5
1F
330
1
100
AcDbSymbolTableRecord
100
AcDbBlockTableRecord
  2
*Model_Space
340
22
  0
BLOCK_RECORD
  5
1B
330
1
100
AcDbSymbolTableRecord
100
AcDbBlockTableRecord
  2
*Paper_Space
340
1E
  0
BLOCK_RECORD
  5
23
330
1
100
AcDbSymbolTableRecord
100
AcDbBlockTableRecord
  2
*Paper_Space0
340
26
  0
ENDTAB
  0
ENDSEC
  0
SECTION
  2
BLOCKS
  0
BLOCK
  5
20
330
1F
100
AcDbEntity
  8
0
100
AcDbBlockBegin
  2
*Model_Space
 70
     0
 10
0.0
 20
0.0
 30
0.0
  3
*Model_Space
  1

  0
ENDBLK
  5
21
330
1F
100
AcDbEntity
  8
0
100
AcDbBlockEnd
  0
BLOCK
  5
1C
330
1B
100
AcDbEntity
 67
     1
  8
0
100
AcDbBlockBegin
  2
*Paper_Space
 70
     0
 10
0.0
 20
0.0
 30
0.0
  3
*Paper_Space
  1

  0
ENDBLK
  5
1D
330
1B
100
AcDbEntity
 67
     1
  8
0
100
AcDbBlockEnd
  0
BLOCK
  5
24
330
23
100
AcDbEntity
  8
0
100
AcDbBlockBegin
  2
*Paper_Space0
 70
     0
 10
0.0
 20
0.0
 30
0.0
  3
*Paper_Space0
  1

  0
ENDBLK
  5
25
330
23
100
AcDbEntity
  8
0
100
AcDbBlockEnd
  0
ENDSEC
  0
SECTION
  2
ENTITIES
  0
LINE
  5
73
330
1F
100
AcDbEntity
  8
0
  6
Continuous
 62
     7
370
    25
100
AcDbLine
 10
42.9542969938
 20
806.8915096722
 30
0.0
 11
42.9542969938
 21
801.6000070501
 31
0.0
  0
ARC
  5
74
330
1F
100
AcDbEntity
  8
0
  6
Continuous
 62
     7
370
    25
100
AcDbCircle
 10
45.9542969938
 20
804.2457583612
 30
0.0
 40
4.000000000000006
100
AcDbArc
 50
221.4096221093
 51
138.5903778907
  0
ARC
  5
75
330
1F
100
AcDbEntity
  8
0
  6
Continuous
 62
     7
370
    25
100
AcDbCircle
 10
45.9542969938
 20
836.7457583612
 30
0.0
 40
2.499999999999988
100
AcDbArc
 50
182.204227504
 51
357.795772496
  0
ARC
  5
76
330
1F
100
AcDbEntity
  8
0
  6
Continuous
 62
     7
370
    25
100
AcDbCircle
 10
52.2947324593
 20
836.1212799743
 30
0.0
 40
2.50000000000002
100
AcDbArc
 50
170.954227504
 51
346.545772496
  0
ARC
  5
77
330
1F
100
AcDbEntity
  8
0
  6
Continuous
 62
     7
370
    25
100
AcDbCircle
 10
58.3915085457
 20
834.2718431678
 30
0.0
 40
2.500000000000034
100
AcDbArc
 50
159.704227504
 51
335.295772496
  0
ARC
  5
78
330
1F
100
AcDbEntity
  8
0
  6
Continuous
 62
     7
370
    25
100
AcDbCircle
 10
64.0103295669
 20
831.268520761
 30
0.0
 40
2.499999999999997
100
AcDbArc
 50
148.454227504
 51
324.045772496
  0
ARC
  5
79
330
1F
100
AcDbEntity
  8
0
  6
Continuous
 62
     7
370
    25
100
AcDbCircle
 10
68.9352673824
 20
827.2267287497
 30
0.0
 40
2.500000000000037
100
AcDbArc
 50
137.204227504
 51
312.795772496
  0
ARC
  5
7A
330
1F
100
AcDbEntity
  8
0
  6
Continuous
 62
     7
370
    25
100
AcDbCircle
 10
72.9770593936
 20
822.3017909343
 30
0.0
 40
2.500000000000127
100
AcDbArc
 50
125.954227504
 51
301.545772496
  0
ARC
  5
7B
330
1F
100
AcDbEntity
  8
0
  6
Continuous
 62
     7
370
    25
100
AcDbCircle
 10
75.9803818004
 20
816.682969913
 30
0.0
 40
2.500000000000022
100
AcDbArc
 50
114.704227504
 51
290.295772496
  0
ARC
  5
7C
330
1F
100
AcDbEntity
  8
0
  6
Continuous
 62
     7
370
    25
100
AcDbCircle
 10
77.8298186069
 20
810.5861938267
 30
0.0
 40
2.500000000000064
100
AcDbArc
 50
103.454227504
 51
279.045772496
  0
ARC
  5
7D
330
1F
100
AcDbEntity
  8
0
  6
Continuous
 62
     7
370
    25
100
AcDbCircle
 10
78.4542969938
 20
804.2457583612
 30
0.0
 40
2.499999999999984
100
AcDbArc
 50
92.204227504
 51
267.795772496
  0
ARC
  5
7E
330
1F
100
AcDbEntity
  8
0
  6
Continuous
 62
     7
370
    25
100
AcDbCircle
 10
77.8298186069
 20
797.9053228957
 30
0.0
 40
2.500000000000071
100
AcDbArc
 50
80.954227504
 51
256.545772496
  0
ARC
  5
7F
330
1F
100
AcDbEntity
  8
0
  6
Continuous
 62
     7
370
    25
100
AcDbCircle
 10
75.9803818004
 20
791.8085468093
 30
0.0
 40
2.499999999999988
100
AcDbArc
 50
69.704227504
 51
245.295772496
  0
ARC
  5
80
330
1F
100
AcDbEntity
  8
0
  6
Continuous
 62
     7
370
    25
100
AcDbCircle
 10
72.9770593936
 20
786.189725788
 30
0.0
 40
2.499999999999968
100
AcDbArc
 50
58.454227504
 51
234.045772496
  0
ARC
  5
81
330
1F
100
AcDbEntity
  8
0
  6
Continuous
 62
     7
370
    25
100
AcDbCircle
 10
68.9352673824
 20
781.2647879726
 30
0.0
 40
2.500000000000056
100
AcDbArc
 50
47.204227504
 51
222.795772496
  0
ARC
  5
82
330
1F
100
AcDbEntity
  8
0
  6
Continuous
 62
     7
370
    25
100
AcDbCircle
 10
64.0103295669
 20
777.2229959613
 30
0.0
 40
2.500000000000017
100
AcDbArc
 50
35.954227504
 51
211.545772496
  0
ARC
  5
83
330
1F
100
AcDbEntity
  8
0
  6
Continuous
 62
     7
370
    25
100
AcDbCircle
 10
58.3915085457
 20
774.2196735546
 30
0.0
 40
2.500000000000026
100
AcDbArc
 50
24.704227504
 51
200.295772496
  0
ARC
  5
84
330
1F
100
AcDbEntity
  8
0
  6
Continuous
 62
     7
370
    25
100
AcDbCircle
 10
52.2947324593
 20
772.3702367481
 30
0.0
 40
2.500000000000012
100
AcDbArc
 50
13.454227504
 51
189.045772496
  0
ARC
  5
85
330
1F
100
AcDbEntity
  8
0
  6
Continuous
 62
     7
370
    25
100
AcDbCircle
 10
45.9542969938
 20
771.7457583612
 30
0.0
 40
2.499999999999998
100
AcDbArc
 50
2.204227504
 51
177.795772496
  0
ARC
  5
86
330
1F
100
AcDbEntity
  8
0
  6
Continuous
 62
     7
370
    25
100
AcDbCircle
 10
39.6138615283
 20
772.3702367481
 30
0.0
 40
2.500000000000012
100
AcDbArc
 50
350.954227504
 51
166.545772496
  0
ARC
  5
87
330
1F
100
AcDbEntity
  8
0
  6
Continuous
 62
     7
370
    25
100
AcDbCircle
 10
33.5170854419
 20
774.2196735546
 30
0.0
 40
2.500000000000045
100
AcDbArc
 50
339.704227504
 51
155.295772496
  0
ARC
  5
88
330
1F
100
AcDbEntity
  8
0
  6
Continuous
 62
     7
370
    25
100
AcDbCircle
 10
27.8982644207
 20
777.2229959613
 30
0.0
 40
2.500000000000003
100
AcDbArc
 50
328.454227504
 51
144.045772496
  0
ARC
  5
89
330
1F
100
AcDbEntity
  8
0
  6
Continuous
 62
     7
370
    25
100
AcDbCircle
 10
22.9733266052
 20
781.2647879726
 30
0.0
 40
2.500000000000032
100
AcDbArc
 50
317.204227504
 51
132.795772496
  0
ARC
  5
8A
330
1F
100
AcDbEntity
  8
0
  6
Continuous
 62
     7
370
    25
100
AcDbCircle
 10
18.931534594
 20
786.189725788
 30
0.0
 40
2.500000000000023
100
AcDbArc
 50
305.954227504
 51
121.545772496
  0
ARC
  5
8B
330
1F
100
AcDbEntity
  8
0
  6
Continuous
 62
     7
370
    25
100
AcDbCircle
 10
15.9282121872
 20
791.8085468093
 30
0.0
 40
2.500000000000027
100
AcDbArc
 50
294.704227504
 51
110.295772496
  0
ARC
  5
8C
330
1F
100
AcDbEntity
  8
0
  6
Continuous
 62
     7
370
    25
100
AcDbCircle
 10
14.0787753807
 20
797.9053228957
 30
0.0
 40
2.500000000000033
100
AcDbArc
 50
283.454227504
 51
99.045772496
  0
ARC
  5
8D
330
1F
100
AcDbEntity
  8
0
  6
Continuous
 62
     7
370
    25
100
AcDbCircle
 10
13.4542969938
 20
804.2457583612
 30
0.0
 40
2.499999999999985
100
AcDbArc
 50
272.204227504
 51
87.795772496
  0
ARC
  5
8E
330
1F
100
AcDbEntity
  8
0
  6
Continuous
 62
     7
370
    25
100
AcDbCircle
 10
14.0787753807
 20
810.5861938267
 30
0.0
 40
2.500000000000071
100
AcDbArc
 50
260.954227504
 51
76.545772496
  0
ARC
  5
8F
330
1F
100
AcDbEntity
  8
0
  6
Continuous
 62
     7
370
    25
100
AcDbCircle
 10
15.9282121872
 20
816.682969913
 30
0.0
 40
2.499999999999997
100
AcDbArc
 50
249.704227504
 51
65.295772496
  0
ARC
  5
90
330
1F
100
AcDbEntity
  8
0
  6
Continuous
 62
     7
370
    25
100
AcDbCircle
 10
18.931534594
 20
822.3017909343
 30
0.0
 40
2.500000000000081
100
AcDbArc
 50
238.454227504
 51
54.045772496
  0
ARC
  5
91
330
1F
100
AcDbEntity
  8
0
  6
Continuous
 62
     7
370
    25
100
AcDbCircle
 10
22.9733266052
 20
827.2267287497
 30
0.0
 40
2.500000000000025
100
AcDbArc
 50
227.204227504
 51
42.795772496
  0
ARC
  5
92
330
1F
100
AcDbEntity
  8
0
  6
Continuous
 62
     7
370
    25
100
AcDbCircle
 10
27.8982644207
 20
831.268520761
 30
0.0
 40
2.499999999999983
100
AcDbArc
 50
215.954227504
 51
31.545772496
  0
ARC
  5
93
330
1F
100
AcDbEntity
  8
0
  6
Continuous
 62
     7
370
    25
100
AcDbCircle
 10
33.5170854419
 20
834.2718431678
 30
0.0
 40
2.500000000000015
100
AcDbArc
 50
204.704227504
 51
20.295772496
  0
ARC
  5
94
330
1F
100
AcDbEntity
  8
0
  6
Continuous
 62
     7
370
    25
100
AcDbCircle
 10
39.6138615283
 20
836.1212799743
 30
0.0
 40
2.500000000000008
100
AcDbArc
 50
193.454227504
 51
9.045772496
  0
CIRCLE
  5
95
330
1F
100
AcDbEntity
  8
0
  6
Continuous
 62
     7
370
    25
100
AcDbCircle
 10
58.4542969938
 20
782.5951232666
 30
0.0
 40
1.5
  0
CIRCLE
  5
96
330
1F
100
AcDbEntity
  8
0
  6
Continuous
 62
     7
370
    25
100
AcDbCircle
 10
58.4542969938
 20
825.8963934558
 30
0.0
 40
1.5
  0
CIRCLE
  5
97
330
1F
100
AcDbEntity
  8
0
  6
Continuous
 62
     7
370
    25
100
AcDbCircle
 10
20.9542969938
 20
804.2457583612
 30
0.0
 40
1.5
  0
ARC
  5
98
330
1F
100
AcDbEntity
  8
0
  6
Continuous
 62
     7
370
    25
100
AcDbCircle
 10
45.9542969938
 20
804.2457583612
 30
0.0
 40
32.50000000000001
100
AcDbArc
 50
173.1584550079
 51
175.5915449921
  0
ARC
  5
99
330
1F
100
AcDbEntity
  8
0
  6
Continuous
 62
     7
370
    25
100
AcDbCircle
 10
45.9542969938
 20
804.2457583612
 30
0.0
 40
32.50000000000006
100
AcDbArc
 50
263.1584550079
 51
265.5915449921
  0
ARC
  5
9A
330
1F
100
AcDbEntity
  8
0
  6
Continuous
 62
     7
370
    25
100
AcDbCircle
 10
45.9542969938
 20
804.2457583612
 30
0.0
 40
32.49999999999995
100
AcDbArc
 50
251.9084550079
 51
254.3415449921
  0
ARC
  5
9B
330
1F
100
AcDbEntity
  8
0
  6
Continuous
 62
     7
370
    25
100
AcDbCircle
 10
45.9542969938
 20
804.2457583612
 30
0.0
 40
32.49999999999999
100
AcDbArc
 50
240.6584550079
 51
243.0915449921
  0
ARC
  5
9C
330
1F
100
AcDbEntity
  8
0
  6
Continuous
 62
     7
370
    25
100
AcDbCircle
 10
45.9542969938
 20
804.2457583612
 30
0.0
 40
32.49999999999999
100
AcDbArc
 50
229.4084550079
 51
231.8415449921
  0
ARC
  5
9D
330
1F
100
AcDbEntity
  8
0
  6
Continuous
 62
     7
370
    25
100
AcDbCircle
 10
45.9542969938
 20
804.2457583612
 30
0.0
 40
32.50000000000001
100
AcDbArc
 50
206.9084550079
 51
209.3415449921
  0
ARC
  5
9E
330
1F
100
AcDbEntity
  8
0
  6
Continuous
 62
     7
370
    25
100
AcDbCircle
 10
45.9542969938
 20
804.2457583612
 30
0.0
 40
32.49999999999994
100
AcDbArc
 50
218.1584550079
 51
220.5915449921
  0
ARC
  5
9F
330
1F
100
AcDbEntity
  8
0
  6
Continuous
 62
     7
370
    25
100
AcDbCircle
 10
45.9542969938
 20
804.2457583612
 30
0.0
 40
32.50000000000001
100
AcDbArc
 50
184.4084550079
 51
186.8415449921
  0
ARC
  5
A0
330
1F
100
AcDbEntity
  8
0
  6
Continuous
 62
     7
370
    25
100
AcDbCircle
 10
45.9542969938
 20
804.2457583612
 30
0.0
 40
32.49999999999999
100
AcDbArc
 50
353.1584550079
 51
355.5915449921
  0
ARC
  5
A1
330
1F
100
AcDbEntity
  8
0
  6
Continuous
 62
     7
370
    25
100
AcDbCircle
 10
45.9542969938
 20
804.2457583612
 30
0.0
 40
32.50000000000001
100
AcDbArc
 50
341.9084550079
 51
344.3415449921
  0
ARC
  5
A2
330
1F
100
AcDbEntity
  8
0
  6
Continuous
 62
     7
370
    25
100
AcDbCircle
 10
45.9542969938
 20
804.2457583612
 30
0.0
 40
32.5
100
AcDbArc
 50
330.6584550079
 51
333.0915449921
  0
ARC
  5
A3
330
1F
100
AcDbEntity
  8
0
  6
Continuous
 62
     7
370
    25
100
AcDbCircle
 10
45.9542969938
 20
804.2457583612
 30
0.0
 40
32.49999999999997
100
AcDbArc
 50
319.4084550079
 51
321.8415449921
  0
ARC
  5
A4
330
1F
100
AcDbEntity
  8
0
  6
Continuous
 62
     7
370
    25
100
AcDbCircle
 10
45.9542969938
 20
804.2457583612
 30
0.0
 40
32.49999999999998
100
AcDbArc
 50
296.9084550079
 51
299.3415449921
  0
ARC
  5
A5
330
1F
100
AcDbEntity
  8
0
  6
Continuous
 62
     7
370
    25
100
AcDbCircle
 10
45.9542969938
 20
804.2457583612
 30
0.0
 40
32.50000000000001
100
AcDbArc
 50
308.1584550079
 51
310.5915449921
  0
ARC
  5
A6
330
1F
100
AcDbEntity
  8
0
  6
Continuous
 62
     7
370
    25
100
AcDbCircle
 10
45.9542969938
 20
804.2457583612
 30
0.0
 40
32.50000000000004
100
AcDbArc
 50
285.6584550079
 51
288.0915449921
  0
ARC
  5
A7
330
1F
100
AcDbEntity
  8
0
  6
Continuous
 62
     7
370
    25
100
AcDbCircle
 10
45.9542969938
 20
804.2457583612
 30
0.0
 40
32.50000000000001
100
AcDbArc
 50
274.4084550079
 51
276.8415449921
  0
ARC
  5
A8
330
1F
100
AcDbEntity
  8
0
  6
Continuous
 62
     7
370
    25
100
AcDbCircle
 10
45.9542969938
 20
804.2457583612
 30
0.0
 40
32.5000000000001
100
AcDbArc
 50
83.1584550079
 51
85.5915449921
  0
ARC
  5
A9
330
1F
100
AcDbEntity
  8
0
  6
Continuous
 62
     7
370
    25
100
AcDbCircle
 10
45.9542969938
 20
804.2457583612
 30
0.0
 40
32.50000000000009
100
AcDbArc
 50
71.9084550079
 51
74.3415449921
  0
ARC
  5
AA
330
1F
100
AcDbEntity
  8
0
  6
Continuous
 62
     7
370
    25
100
AcDbCircle
 10
45.9542969938
 20
804.2457583612
 30
0.0
 40
32.50000000000002
100
AcDbArc
 50
60.6584550079
 51
63.0915449921
  0
ARC
  5
AB
330
1F
100
AcDbEntity
  8
0
  6
Continuous
 62
     7
370
    25
100
AcDbCircle
 10
45.9542969938
 20
804.2457583612
 30
0.0
 40
32.50000000000006
100
AcDbArc
 50
49.4084550079
 51
51.8415449921
  0
ARC
  5
AC
330
1F
100
AcDbEntity
  8
0
  6
Continuous
 62
     7
370
    25
100
AcDbCircle
 10
45.9542969938
 20
804.2457583612
 30
0.0
 40
32.50000000000001
100
AcDbArc
 50
26.9084550079
 51
29.3415449921
  0
ARC
  5
AD
330
1F
100
AcDbEntity
  8
0
  6
Continuous
 62
     7
370
    25
100
AcDbCircle
 10
45.9542969938
 20
804.2457583612
 30
0.0
 40
32.50000000000005
100
AcDbArc
 50
38.1584550079
 51
40.5915449921
  0
ARC
  5
AE
330
1F
100
AcDbEntity
  8
0
  6
Continuous
 62
     7
370
    25
100
AcDbCircle
 10
45.9542969938
 20
804.2457583612
 30
0.0
 40
32.50000000000002
100
AcDbArc
 50
15.6584550079
 51
18.0915449921
  0
ARC
  5
AF
330
1F
100
AcDbEntity
  8
0
  6
Continuous
 62
     7
370
    25
100
AcDbCircle
 10
45.9542969938
 20
804.2457583612
 30
0.0
 40
32.50000000000001
100
AcDbArc
 50
4.4084550079
 51
6.8415449921
  0
ARC
  5
B0
330
1F
100
AcDbEntity
  8
0
  6
Continuous
 62
     7
370
    25
100
AcDbCircle
 10
45.9542969938
 20
804.2457583612
 30
0.0
 40
32.50000000000001
100
AcDbArc
 50
195.6584550079
 51
198.0915449921
  0
ARC
  5
B1
330
1F
100
AcDbEntity
  8
0
  6
Continuous
 62
     7
370
    25
100
AcDbCircle
 10
45.9542969938
 20
804.2457583612
 30
0.0
 40
32.5
100
AcDbArc
 50
161.9084550079
 51
164.3415449921
  0
ARC
  5
B2
330
1F
100
AcDbEntity
  8
0
  6
Continuous
 62
     7
370
    25
100
AcDbCircle
 10
45.9542969938
 20
804.2457583612
 30
0.0
 40
32.50000000000002
100
AcDbArc
 50
150.6584550079
 51
153.0915449921
  0
ARC
  5
B3
330
1F
100
AcDbEntity
  8
0
  6
Continuous
 62
     7
370
    25
100
AcDbCircle
 10
45.9542969938
 20
804.2457583612
 30
0.0
 40
32.50000000000005
100
AcDbArc
 50
139.4084550079
 51
141.8415449921
  0
ARC
  5
B4
330
1F
100
AcDbEntity
  8
0
  6
Continuous
 62
     7
370
    25
100
AcDbCircle
 10
45.9542969938
 20
804.2457583612
 30
0.0
 40
32.50000000000006
100
AcDbArc
 50
116.9084550079
 51
119.3415449921
  0
ARC
  5
B5
330
1F
100
AcDbEntity
  8
0
  6
Continuous
 62
     7
370
    25
100
AcDbCircle
 10
45.9542969938
 20
804.2457583612
 30
0.0
 40
32.50000000000008
100
AcDbArc
 50
128.1584550079
 51
130.5915449921
  0
ARC
  5
B6
330
1F
100
AcDbEntity
  8
0
  6
Continuous
 62
     7
370
    25
100
AcDbCircle
 10
45.9542969938
 20
804.2457583612
 30
0.0
 40
32.50000000000007
100
AcDbArc
 50
105.6584550079
 51
108.0915449921
  0
ARC
  5
B7
330
1F
100
AcDbEntity
  8
0
  6
Continuous
 62
     7
370
    25
100
AcDbCircle
 10
45.9542969938
 20
804.2457583612
 30
0.0
 40
32.50000000000007
100
AcDbArc
 50
94.4084550079
 51
96.8415449921
  0
LINE
  5
B8
330
1F
100
AcDbEntity
  8
0
  6
Continuous
 62
     7
370
    25
100
AcDbLine
 10
107.2892358445
 20
803.921546211
 30
0.0
 11
107.2892358445
 21
798.6300435889
 31
0.0
  0
ARC
  5
B9
330
1F
100
AcDbEntity
  8
0
  6
Continuous
 62
     7
370
    25
100
AcDbCircle
 10
110.2892358445
 20
801.2757948999
 30
0.0
 40
4.000000000000006
100
AcDbArc
 50
221.4096221093
 51
138.5903778907
  0
ARC
  5
BA
330
1F
100
AcDbEntity
  8
0
  6
Continuous
 62
     7
370
    25
100
AcDbCircle
 10
110.2892358445
 20
833.7757948999
 30
0.0
 40
2.499999999999988
100
AcDbArc
 50
182.204227504
 51
357.795772496
  0
ARC
  5
BB
330
1F
100
AcDbEntity
  8
0
  6
Continuous
 62
     7
370
    25
100
AcDbCircle
 10
116.62967131
 20
833.151316513
 30
0.0
 40
2.500000000000034
100
AcDbArc
 50
170.954227504
 51
346.545772496
  0
ARC
  5
BC
330
1F
100
AcDbEntity
  8
0
  6
Continuous
 62
     7
370
    25
100
AcDbCircle
 10
122.7264473964
 20
831.3018797066
 30
0.0
 40
2.500000000000007
100
AcDbArc
 50
159.704227504
 51
335.295772496
  0
ARC
  5
BD
330
1F
100
AcDbEntity
  8
0
  6
Continuous
 62
     7
370
    25
100
AcDbCircle
 10
128.3452684176
 20
828.2985572998
 30
0.0
 40
2.500000000000003
100
AcDbArc
 50
148.454227504
 51
324.045772496
  0
ARC
  5
BE
330
1F
100
AcDbEntity
  8
0
  6
Continuous
 62
     7
370
    25
100
AcDbCircle
 10
133.270206233
 20
824.2567652885
 30
0.0
 40
2.50000000000005
100
AcDbArc
 50
137.204227504
 51
312.795772496
  0
ARC
  5
BF
330
1F
100
AcDbEntity
  8
0
  6
Continuous
 62
     7
370
    25
100
AcDbCircle
 10
137.3119982443
 20
819.3318274731
 30
0.0
 40
2.500000000000127
100
AcDbArc
 50
125.954227504
 51
301.545772496
  0
ARC
  5
C0
330
1F
100
AcDbEntity
  8
0
  6
Continuous
 62
     7
370
    25
100
AcDbCircle
 10
140.3153206511
 20
813.7130064518
 30
0.0
 40
2.500000000000032
100
AcDbArc
 50
114.704227504
 51
290.295772496
  0
ARC
  5
C1
330
1F
100
AcDbEntity
  8
0
  6
Continuous
 62
     7
370
    25
100
AcDbCircle
 10
142.1647574576
 20
807.6162303655
 30
0.0
 40
2.500000000000061
100
AcDbArc
 50
103.454227504
 51
279.045772496
  0
ARC
  5
C2
330
1F
100
AcDbEntity
  8
0
  6
Continuous
 62
     7
370
    25
100
AcDbCircle
 10
142.7892358445
 20
801.2757948999
 30
0.0
 40
2.499999999999988
100
AcDbArc
 50
92.204227504
 51
267.795772496
  0
ARC
  5
C3
330
1F
100
AcDbEntity
  8
0
  6
Continuous
 62
     7
370
    25
100
AcDbCircle
 10
142.1647574576
 20
794.9353594344
 30
0.0
 40
2.500000000000075
100
AcDbArc
 50
80.954227504
 51
256.545772496
  0
ARC
  5
C4
330
1F
100
AcDbEntity
  8
0
  6
Continuous
 62
     7
370
    25
100
AcDbCircle
 10
140.3153206511
 20
788.8385833481
 30
0.0
 40
2.499999999999994
100
AcDbArc
 50
69.704227504
 51
245.295772496
  0
ARC
  5
C5
330
1F
100
AcDbEntity
  8
0
  6
Continuous
 62
     7
370
    25
100
AcDbCircle
 10
137.3119982443
 20
783.2197623268
 30
0.0
 40
2.499999999999967
100
AcDbArc
 50
58.454227504
 51
234.045772496
  0
ARC
  5
C6
330
1F
100
AcDbEntity
  8
0
  6
Continuous
 62
     7
370
    25
100
AcDbCircle
 10
133.270206233
 20
778.2948245114
 30
0.0
 40
2.500000000000056
100
AcDbArc
 50
47.204227504
 51
222.795772496
  0
ARC
  5
C7
330
1F
100
AcDbEntity
  8
0
  6
Continuous
 62
     7
370
    25
100
AcDbCircle
 10
128.3452684176
 20
774.2530325001
 30
0.0
 40
2.50000000000004
100
AcDbArc
 50
35.954227504
 51
211.545772496
  0
ARC
  5
C8
330
1F
100
AcDbEntity
  8
0
  6
Continuous
 62
     7
370
    25
100
AcDbCircle
 10
122.7264473964
 20
771.2497100933
 30
0.0
 40
2.500000000000015
100
AcDbArc
 50
24.704227504
 51
200.295772496
  0
ARC
  5
C9
330
1F
100
AcDbEntity
  8
0
  6
Continuous
 62
     7
370
    25
100
AcDbCircle
 10
116.62967131
 20
769.4002732868
 30
0.0
 40
2.500000000000033
100
AcDbArc
 50
13.454227504
 51
189.045772496
  0
ARC
  5
CA
330
1F
100
AcDbEntity
  8
0
  6
Continuous
 62
     7
370
    25
100
AcDbCircle
 10
110.2892358445
 20
768.7757948999
 30
0.0
 40
2.499999999999998
100
AcDbArc
 50
2.204227504
 51
177.795772496
  0
ARC
  5
CB
330
1F
100
AcDbEntity
  8
0
  6
Continuous
 62
     7
370
    25
100
AcDbCircle
 10
103.948800379
 20
769.4002732868
 30
0.0
 40
2.500000000000019
100
AcDbArc
 50
350.954227504
 51
166.545772496
  0
ARC
  5
CC
330
1F
100
AcDbEntity
  8
0
  6
Continuous
 62
     7
370
    25
100
AcDbCircle
 10
97.8520242926
 20
771.2497100933
 30
0.0
 40
2.500000000000007
100
AcDbArc
 50
339.704227504
 51
155.295772496
  0
ARC
  5
CD
330
1F
100
AcDbEntity
  8
0
  6
Continuous
 62
     7
370
    25
100
AcDbCircle
 10
92.2332032713
 20
774.2530325001
 30
0.0
 40
2.500000000000003
100
AcDbArc
 50
328.454227504
 51
144.045772496
  0
ARC
  5
CE
330
1F
100
AcDbEntity
  8
0
  6
Continuous
 62
     7
370
    25
100
AcDbCircle
 10
87.3082654559
 20
778.2948245114
 30
0.0
 40
2.500000000000061
100
AcDbArc
 50
317.204227504
 51
132.795772496
  0
ARC
  5
CF
330
1F
100
AcDbEntity
  8
0
  6
Continuous
 62
     7
370
    25
100
AcDbCircle
 10
83.2664734447
 20
783.2197623268
 30
0.0
 40
2.500000000000043
100
AcDbArc
 50
305.954227504
 51
121.545772496
  0
ARC
  5
D0
330
1F
100
AcDbEntity
  8
0
  6
Continuous
 62
     7
370
    25
100
AcDbCircle
 10
80.2631510379
 20
788.8385833481
 30
0.0
 40
2.500000000000022
100
AcDbArc
 50
294.704227504
 51
110.295772496
  0
ARC
  5
D1
330
1F
100
AcDbEntity
  8
0
  6
Continuous
 62
     7
370
    25
100
AcDbCircle
 10
78.4137142314
 20
794.9353594344
 30
0.0
 40
2.500000000000064
100
AcDbArc
 50
283.454227504
 51
99.045772496
  0
ARC
  5
D2
330
1F
100
AcDbEntity
  8
0
  6
Continuous
 62
     7
370
    25
100
AcDbCircle
 10
77.7892358445
 20
801.2757948999
 30
0.0
 40
2.499999999999984
100
AcDbArc
 50
272.204227504
 51
87.795772496
  0
ARC
  5
D3
330
1F
100
AcDbEntity
  8
0
  6
Continuous
 62
     7
370
    25
100
AcDbCircle
 10
78.4137142314
 20
807.6162303655
 30
0.0
 40
2.500000000000073
100
AcDbArc
 50
260.954227504
 51
76.545772496
  0
ARC
  5
D4
330
1F
100
AcDbEntity
  8
0
  6
Continuous
 62
     7
370
    25
100
AcDbCircle
 10
80.2631510379
 20
813.7130064518
 30
0.0
 40
2.5
100
AcDbArc
 50
249.704227504
 51
65.295772496
  0
ARC
  5
D5
330
1F
100
AcDbEntity
  8
0
  6
Continuous
 62
     7
370
    25
100
AcDbCircle
 10
83.2664734447
 20
819.3318274731
 30
0.0
 40
2.500000000000085
100
AcDbArc
 50
238.454227504
 51
54.045772496
  0
ARC
  5
D6
330
1F
100
AcDbEntity
  8
0
  6
Continuous
 62
     7
370
    25
100
AcDbCircle
 10
87.3082654559
 20
824.2567652885
 30
0.0
 40
2.500000000000075
100
AcDbArc
 50
227.204227504
 51
42.795772496
  0
ARC
  5
D7
330
1F
100
AcDbEntity
  8
0
  6
Continuous
 62
     7
370
    25
100
AcDbCircle
 10
92.2332032713
 20
828.2985572998
 30
0.0
 40
2.500000000000005
100
AcDbArc
 50
215.954227504
 51
31.545772496
  0
ARC
  5
D8
330
1F
100
AcDbEntity
  8
0
  6
Continuous
 62
     7
370
    25
100
AcDbCircle
 10
97.8520242926
 20
831.3018797066
 30
0.0
 40
2.499999999999985
100
AcDbArc
 50
204.704227504
 51
20.295772496
  0
ARC
  5
D9
330
1F
100
AcDbEntity
  8
0
  6
Continuous
 62
     7
370
    25
100
AcDbCircle
 10
103.948800379
 20
833.151316513
 30
0.0
 40
2.500000000000019
100
AcDbArc
 50
193.454227504
 51
9.045772496
  0
CIRCLE
  5
DA
330
1F
100
AcDbEntity
  8
0
  6
Continuous
 62
     7
370
    25
100
AcDbCircle
 10
122.7892358445
 20
779.6251598053
 30
0.0
 40
1.500000000000114
  0
CIRCLE
  5
DB
330
1F
100
AcDbEntity
  8
0
  6
Continuous
 62
     7
370
    25
100
AcDbCircle
 10
122.7892358445
 20
822.9264299945
 30
0.0
 40
1.5
  0
CIRCLE
  5
DC
330
1F
100
AcDbEntity
  8
0
  6
Continuous
 62
     7
370
    25
100
AcDbCircle
 10
85.2892358445
 20
801.2757948999
 30
0.0
 40
1.5
  0
ARC
  5
DD
330
1F
100
AcDbEntity
  8
0
  6
Continuous
 62
     7
370
    25
100
AcDbCircle
 10
110.2892358445
 20
801.2757948999
 30
0.0
 40
32.50000000000002
100
AcDbArc
 50
173.1584550079
 51
175.5915449921
  0
ARC
  5
DE
330
1F
100
AcDbEntity
  8
0
  6
Continuous
 62
     7
370
    25
100
AcDbCircle
 10
110.2892358445
 20
801.2757948999
 30
0.0
 40
32.50000000000006
100
AcDbArc
 50
263.1584550079
 51
265.5915449921
  0
ARC
  5
DF
330
1F
100
AcDbEntity
  8
0
  6
Continuous
 62
     7
370
    25
100
AcDbCircle
 10
110.2892358445
 20
801.2757948999
 30
0.0
 40
32.50000000000006
100
AcDbArc
 50
251.9084550079
 51
254.3415449921
  0
ARC
  5
E0
330
1F
100
AcDbEntity
  8
0
  6
Continuous
 62
     7
370
    25
100
AcDbCircle
 10
110.2892358445
 20
801.2757948999
 30
0.0
 40
32.50000000000005
100
AcDbArc
 50
240.6584550079
 51
243.0915449921
  0
ARC
  5
E1
330
1F
100
AcDbEntity
  8
0
  6
Continuous
 62
     7
370
    25
100
AcDbCircle
 10
110.2892358445
 20
801.2757948999
 30
0.0
 40
32.50000000000006
100
AcDbArc
 50
229.4084550079
 51
231.8415449921
  0
ARC
  5
E2
330
1F
100
AcDbEntity
  8
0
  6
Continuous
 62
     7
370
    25
100
AcDbCircle
 10
110.2892358445
 20
801.2757948999
 30
0.0
 40
32.50000000000001
100
AcDbArc
 50
206.9084550079
 51
209.3415449921
  0
ARC
  5
E3
330
1F
100
AcDbEntity
  8
0
  6
Continuous
 62
     7
370
    25
100
AcDbCircle
 10
110.2892358445
 20
801.2757948999
 30
0.0
 40
32.50000000000001
100
AcDbArc
 50
218.1584550079
 51
220.5915449921
  0
ARC
  5
E4
330
1F
100
AcDbEntity
  8
0
  6
Continuous
 62
     7
370
    25
100
AcDbCircle
 10
110.2892358445
 20
801.2757948999
 30
0.0
 40
32.50000000000002
100
AcDbArc
 50
184.4084550079
 51
186.8415449921
  0
ARC
  5
E5
330
1F
100
AcDbEntity
  8
0
  6
Continuous
 62
     7
370
    25
100
AcDbCircle
 10
110.2892358445
 20
801.2757948999
 30
0.0
 40
32.50000000000001
100
AcDbArc
 50
353.1584550079
 51
355.5915449921
  0
ARC
  5
E6
330
1F
100
AcDbEntity
  8
0
  6
Continuous
 62
     7
370
    25
100
AcDbCircle
 10
110.2892358445
 20
801.2757948999
 30
0.0
 40
32.49999999999999
100
AcDbArc
 50
341.9084550079
 51
344.3415449921
  0
ARC
  5
E7
330
1F
100
AcDbEntity
  8
0
  6
Continuous
 62
     7
370
    25
100
AcDbCircle
 10
110.2892358445
 20
801.2757948999
 30
0.0
 40
32.50000000000002
100
AcDbArc
 50
330.6584550079
 51
333.0915449921
  0
ARC
  5
E8
330
1F
100
AcDbEntity
  8
0
  6
Continuous
 62
     7
370
    25
100
AcDbCircle
 10
110.2892358445
 20
801.2757948999
 30
0.0
 40
32.49999999999996
100
AcDbArc
 50
319.4084550079
 51
321.8415449921
  0
ARC
  5
E9
330
1F
100
AcDbEntity
  8
0
  6
Continuous
 62
     7
370
    25
100
AcDbCircle
 10
110.2892358445
 20
801.2757948999
 30
0.0
 40
32.50000000000008
100
AcDbArc
 50
296.9084550079
 51
299.3415449921
  0
ARC
  5
EA
330
1F
100
AcDbEntity
  8
0
  6
Continuous
 62
     7
370
    25
100
AcDbCircle
 10
110.2892358445
 20
801.2757948999
 30
0.0
 40
32.50000000000001
100
AcDbArc
 50
308.1584550079
 51
310.5915449921
  0
ARC
  5
EB
330
1F
100
AcDbEntity
  8
0
  6
Continuous
 62
     7
370
    25
100
AcDbCircle
 10
110.2892358445
 20
801.2757948999
 30
0.0
 40
32.50000000000009
100
AcDbArc
 50
285.6584550079
 51
288.0915449921
  0
ARC
  5
EC
330
1F
100
AcDbEntity
  8
0
  6
Continuous
 62
     7
370
    25
100
AcDbCircle
 10
110.2892358445
 20
801.2757948999
 30
0.0
 40
32.50000000000001
100
AcDbArc
 50
274.4084550079
 51
276.8415449921
  0
ARC
  5
ED
330
1F
100
AcDbEntity
  8
0
  6
Continuous
 62
     7
370
    25
100
AcDbCircle
 10
110.2892358445
 20
801.2757948999
 30
0.0
 40
32.5000000000001
100
AcDbArc
 50
83.1584550079
 51
85.5915449921
  0
ARC
  5
EE
330
1F
100
AcDbEntity
  8
0
  6
Continuous
 62
     7
370
    25
100
AcDbCircle
 10
110.2892358445
 20
801.2757948999
 30
0.0
 40
32.5
100
AcDbArc
 50
71.9084550079
 51
74.3415449921
  0
ARC
  5
EF
330
1F
100
AcDbEntity
  8
0
  6
Continuous
 62
     7
370
    25
100
AcDbCircle
 10
110.2892358445
 20
801.2757948999
 30
0.0
 40
32.50000000000002
100
AcDbArc
 50
60.6584550079
 51
63.0915449921
  0
ARC
  5
F0
330
1F
100
AcDbEntity
  8
0
  6
Continuous
 62
     7
370
    25
100
AcDbCircle
 10
110.2892358445
 20
801.2757948999
 30
0.0
 40
32.50000000000006
100
AcDbArc
 50
49.4084550079
 51
51.8415449921
  0
ARC
  5
F1
330
1F
100
AcDbEntity
  8
0
  6
Continuous
 62
     7
370
    25
100
AcDbCircle
 10
110.2892358445
 20
801.2757948999
 30
0.0
 40
32.5
100
AcDbArc
 50
26.9084550079
 51
29.3415449921
  0
ARC
  5
F2
330
1F
100
AcDbEntity
  8
0
  6
Continuous
 62
     7
370
    25
100
AcDbCircle
 10
110.2892358445
 20
801.2757948999
 30
0.0
 40
32.50000000000005
100
AcDbArc
 50
38.1584550079
 51
40.5915449921
  0
ARC
  5
F3
330
1F
100
AcDbEntity
  8
0
  6
Continuous
 62
     7
370
    25
100
AcDbCircle
 10
110.2892358445
 20
801.2757948999
 30
0.0
 40
32.5
100
AcDbArc
 50
15.6584550079
 51
18.0915449921
  0
ARC
  5
F4
330
1F
100
AcDbEntity
  8
0
  6
Continuous
 62
     7
370
    25
100
AcDbCircle
 10
110.2892358445
 20
801.2757948999
 30
0.0
 40
32.5
100
AcDbArc
 50
4.4084550079
 51
6.8415449921
  0
ARC
  5
F5
330
1F
100
AcDbEntity
  8
0
  6
Continuous
 62
     7
370
    25
100
AcDbCircle
 10
110.2892358445
 20
801.2757948999
 30
0.0
 40
32.50000000000001
100
AcDbArc
 50
195.6584550079
 51
198.0915449921
  0
ARC
  5
F6
330
1F
100
AcDbEntity
  8
0
  6
Continuous
 62
     7
370
    25
100
AcDbCircle
 10
110.2892358445
 20
801.2757948999
 30
0.0
 40
32.50000000000001
100
AcDbArc
 50
161.9084550079
 51
164.3415449921
  0
ARC
  5
F7
330
1F
100
AcDbEntity
  8
0
  6
Continuous
 62
     7
370
    25
100
AcDbCircle
 10
110.2892358445
 20
801.2757948999
 30
0.0
 40
32.50000000000002
100
AcDbArc
 50
150.6584550079
 51
153.0915449921
  0
ARC
  5
F8
330
1F
100
AcDbEntity
  8
0
  6
Continuous
 62
     7
370
    25
100
AcDbCircle
 10
110.2892358445
 20
801.2757948999
 30
0.0
 40
32.50000000000005
100
AcDbArc
 50
139.4084550079
 51
141.8415449921
  0
ARC
  5
F9
330
1F
100
AcDbEntity
  8
0
  6
Continuous
 62
     7
370
    25
100
AcDbCircle
 10
110.2892358445
 20
801.2757948999
 30
0.0
 40
32.50000000000007
100
AcDbArc
 50
116.9084550079
 51
119.3415449921
  0
ARC
  5
FA
330
1F
100
AcDbEntity
  8
0
  6
Continuous
 62
     7
370
    25
100
AcDbCircle
 10
110.2892358445
 20
801.2757948999
 30
0.0
 40
32.50000000000002
100
AcDbArc
 50
128.1584550079
 51
130.5915449921
  0
ARC
  5
FB
330
1F
100
AcDbEntity
  8
0
  6
Continuous
 62
     7
370
    25
100
AcDbCircle
 10
110.2892358445
 20
801.2757948999
 30
0.0
 40
32.50000000000003
100
AcDbArc
 50
105.6584550079
 51
108.0915449921
  0
ARC
  5
FC
330
1F
100
AcDbEntity
  8
0
  6
Continuous
 62
     7
370
    25
100
AcDbCircle
 10
110.2892358445
 20
801.2757948999
 30
0.0
 40
32.50000000000007
100
AcDbArc
 50
94.4084550079
 51
96.8415449921
  0
LINE
  5
FD
330
1F
100
AcDbEntity
  8
0
  6
Continuous
 62
     7
370
    25
100
AcDbLine
 10
33.326315693
 20
743.4339630718
 30
0.0
 11
33.326315693
 21
738.1424604497
 31
0.0
  0
ARC
  5
FE
330
1F
100
AcDbEntity
  8
0
  6
Continuous
 62
     7
370
    25
100
AcDbCircle
 10
36.326315693
 20
740.7882117607
 30
0.0
 40
4.000000000000012
100
AcDbArc
 50
221.4096221093
 51
138.5903778907
  0
ARC
  5
FF
330
1F
100
AcDbEntity
  8
0
  6
Continuous
 62
     7
370
    25
100
AcDbCircle
 10
36.326315693
 20
773.2882117607
 30
0.0
 40
2.499999999999991
100
AcDbArc
 50
182.204227504
 51
357.795772496
  0
ARC
  5
100
330
1F
100
AcDbEntity
  8
0
  6
Continuous
 62
     7
370
    25
100
AcDbCircle
 10
42.6667511585
 20
772.6637333738
 30
0.0
 40
2.50000000000002
100
AcDbArc
 50
170.954227504
 51
346.545772496
  0
ARC
  5
101
330
1F
100
AcDbEntity
  8
0
  6
Continuous
 62
     7
370
    25
100
AcDbCircle
 10
48.7635272449
 20
770.8142965673
 30
0.0
 40
2.500000000000042
100
AcDbArc
 50
159.704227504
 51
335.295772496
  0
ARC
  5
102
330
1F
100
AcDbEntity
  8
0
  6
Continuous
 62
     7
370
    25
100
AcDbCircle
 10
54.3823482661
 20
767.8109741606
 30
0.0
 40
2.500000000000044
100
AcDbArc
 50
148.454227504
 51
324.045772496
  0
ARC
  5
103
330
1F
100
AcDbEntity
  8
0
  6
Continuous
 62
     7
370
    25
100
AcDbCircle
 10
59.3072860816
 20
763.7691821493
 30
0.0
 40
2.500000000000032
100
AcDbArc
 50
137.204227504
 51
312.795772496
  0
ARC
  5
104
330
1F
100
AcDbEntity
  8
0
  6
Continuous
 62
     7
370
    25
100
AcDbCircle
 10
63.3490780928
 20
758.8442443339
 30
0.0
 40
2.500000000000031
100
AcDbArc
 50
125.954227504
 51
301.545772496
  0
ARC
  5
105
330
1F
100
AcDbEntity
  8
0
  6
Continuous
 62
     7
370
    25
100
AcDbCircle
 10
66.3524004996
 20
753.2254233126
 30
0.0
 40
2.500000000000027
100
AcDbArc
 50
114.704227504
 51
290.295772496
  0
ARC
  5
106
330
1F
100
AcDbEntity
  8
0
  6
Continuous
 62
     7
370
    25
100
AcDbCircle
 10
68.2018373061
 20
747.1286472263
 30
0.0
 40
2.500000000000029
100
AcDbArc
 50
103.454227504
 51
279.045772496
  0
ARC
  5
107
330
1F
100
AcDbEntity
  8
0
  6
Continuous
 62
     7
370
    25
100
AcDbCircle
 10
68.826315693
 20
740.7882117607
 30
0.0
 40
2.499999999999986
100
AcDbArc
 50
92.204227504
 51
267.795772496
  0
ARC
  5
108
330
1F
100
AcDbEntity
  8
0
  6
Continuous
 62
     7
370
    25
100
AcDbCircle
 10
68.2018373061
 20
734.4477762952
 30
0.0
 40
2.500000000000073
100
AcDbArc
 50
80.954227504
 51
256.545772496
  0
ARC
  5
109
330
1F
100
AcDbEntity
  8
0
  6
Continuous
 62
     7
370
    25
100
AcDbCircle
 10
66.3524004996
 20
728.3510002089
 30
0.0
 40
2.499999999999988
100
AcDbArc
 50
69.704227504
 51
245.295772496
  0
ARC
  5
10A
330
1F
100
AcDbEntity
  8
0
  6
Continuous
 62
     7
370
    25
100
AcDbCircle
 10
63.3490780928
 20
722.7321791876
 30
0.0
 40
2.500000000000068
100
AcDbArc
 50
58.454227504
 51
234.045772496
  0
ARC
  5
10B
330
1F
100
AcDbEntity
  8
0
  6
Continuous
 62
     7
370
    25
100
AcDbCircle
 10
59.3072860815
 20
717.8072413722
 30
0.0
 40
2.500000000000056
100
AcDbArc
 50
47.204227504
 51
222.795772496
  0
ARC
  5
10C
330
1F
100
AcDbEntity
  8
0
  6
Continuous
 62
     7
370
    25
100
AcDbCircle
 10
54.3823482661
 20
713.7654493609
 30
0.0
 40
2.500000000000034
100
AcDbArc
 50
35.954227504
 51
211.545772496
  0
ARC
  5
10D
330
1F
100
AcDbEntity
  8
0
  6
Continuous
 62
     7
370
    25
100
AcDbCircle
 10
48.7635272449
 20
710.7621269541
 30
0.0
 40
2.500000000000008
100
AcDbArc
 50
24.704227504
 51
200.295772496
  0
ARC
  5
10E
330
1F
100
AcDbEntity
  8
0
  6
Continuous
 62
     7
370
    25
100
AcDbCircle
 10
42.6667511585
 20
708.9126901476
 30
0.0
 40
2.500000000000019
100
AcDbArc
 50
13.454227504
 51
189.045772496
  0
ARC
  5
10F
330
1F
100
AcDbEntity
  8
0
  6
Continuous
 62
     7
370
    25
100
AcDbCircle
 10
36.326315693
 20
708.2882117607
 30
0.0
 40
2.499999999999998
100
AcDbArc
 50
2.204227504
 51
177.795772496
  0
ARC
  5
110
330
1F
100
AcDbEntity
  8
0
  6
Continuous
 62
     7
370
    25
100
AcDbCircle
 10
29.9858802275
 20
708.9126901476
 30
0.0
 40
2.500000000000011
100
AcDbArc
 50
350.954227504
 51
166.545772496
  0
ARC
  5
111
330
1F
100
AcDbEntity
  8
0
  6
Continuous
 62
     7
370
    25
100
AcDbCircle
 10
23.8891041411
 20
710.7621269541
 30
0.0
 40
2.500000000000001
100
AcDbArc
 50
339.704227504
 51
155.295772496
  0
ARC
  5
112
330
1F
100
AcDbEntity
  8
0
  6
Continuous
 62
     7
370
    25
100
AcDbCircle
 10
18.2702831198
 20
713.7654493609
 30
0.0
 40
2.49999999999998
100
AcDbArc
 50
328.454227504
 51
144.045772496
  0
ARC
  5
113
330
1F
100
AcDbEntity
  8
0
  6
Continuous
 62
     7
370
    25
100
AcDbCircle
 10
13.3453453044
 20
717.8072413722
 30
0.0
 40
2.500000000000034
100
AcDbArc
 50
317.204227504
 51
132.795772496
  0
ARC
  5
114
330
1F
100
AcDbEntity
  8
0
  6
Continuous
 62
     7
370
    25
100
AcDbCircle
 10
9.3035532932
 20
722.7321791876
 30
0.0
 40
2.500000000000024
100
AcDbArc
 50
305.954227504
 51
121.545772496
  0
ARC
  5
115
330
1F
100
AcDbEntity
  8
0
  6
Continuous
 62
     7
370
    25
100
AcDbCircle
 10
6.3002308864
 20
728.3510002089
 30
0.0
 40
2.500000000000075
100
AcDbArc
 50
294.704227504
 51
110.295772496
  0
ARC
  5
116
330
1F
100
AcDbEntity
  8
0
  6
Continuous
 62
     7
370
    25
100
AcDbCircle
 10
4.4507940799
 20
734.4477762952
 30
0.0
 40
2.500000000000064
100
AcDbArc
 50
283.454227504
 51
99.045772496
  0
ARC
  5
117
330
1F
100
AcDbEntity
  8
0
  6
Continuous
 62
     7
370
    25
100
AcDbCircle
 10
3.826315693
 20
740.7882117607
 30
0.0
 40
2.499999999999985
100
AcDbArc
 50
272.204227504
 51
87.795772496
  0
ARC
  5
118
330
1F
100
AcDbEntity
  8
0
  6
Continuous
 62
     7
370
    25
100
AcDbCircle
 10
4.4507940799
 20
747.1286472263
 30
0.0
 40
2.500000000000071
100
AcDbArc
 50
260.954227504
 51
76.545772496
  0
ARC
  5
119
330
1F
100
AcDbEntity
  8
0
  6
Continuous
 62
     7
370
    25
100
AcDbCircle
 10
6.3002308864
 20
753.2254233126
 30
0.0
 40
2.5000000000001
100
AcDbArc
 50
249.704227504
 51
65.295772496
  0
ARC
  5
11A
330
1F
100
AcDbEntity
  8
0
  6
Continuous
 62
     7
370
    25
100
AcDbCircle
 10
9.3035532932
 20
758.8442443339
 30
0.0
 40
2.500000000000051
100
AcDbArc
 50
238.454227504
 51
54.045772496
  0
ARC
  5
11B
330
1F
100
AcDbEntity
  8
0
  6
Continuous
 62
     7
370
    25
100
AcDbCircle
 10
13.3453453044
 20
763.7691821493
 30
0.0
 40
2.500000000000073
100
AcDbArc
 50
227.204227504
 51
42.795772496
  0
ARC
  5
11C
330
1F
100
AcDbEntity
  8
0
  6
Continuous
 62
     7
370
    25
100
AcDbCircle
 10
18.2702831199
 20
767.8109741606
 30
0.0
 40
2.500000000000014
100
AcDbArc
 50
215.954227504
 51
31.545772496
  0
ARC
  5
11D
330
1F
100
AcDbEntity
  8
0
  6
Continuous
 62
     7
370
    25
100
AcDbCircle
 10
23.8891041411
 20
770.8142965673
 30
0.0
 40
2.500000000000023
100
AcDbArc
 50
204.704227504
 51
20.295772496
  0
ARC
  5
11E
330
1F
100
AcDbEntity
  8
0
  6
Continuous
 62
     7
370
    25
100
AcDbCircle
 10
29.9858802275
 20
772.6637333738
 30
0.0
 40
2.500000000000018
100
AcDbArc
 50
193.454227504
 51
9.045772496
  0
CIRCLE
  5
11F
330
1F
100
AcDbEntity
  8
0
  6
Continuous
 62
     7
370
    25
100
AcDbCircle
 10
48.826315693
 20
719.1375766661
 30
0.0
 40
1.500000000000114
  0
CIRCLE
  5
120
330
1F
100
AcDbEntity
  8
0
  6
Continuous
 62
     7
370
    25
100
AcDbCircle
 10
48.826315693
 20
762.4388468553
 30
0.0
 40
1.500000000000114
  0
CIRCLE
  5
121
330
1F
100
AcDbEntity
  8
0
  6
Continuous
 62
     7
370
    25
100
AcDbCircle
 10
11.326315693
 20
740.7882117607
 30
0.0
 40
1.500000000000114
  0
ARC
  5
122
330
1F
100
AcDbEntity
  8
0
  6
Continuous
 62
     7
370
    25
100
AcDbCircle
 10
36.326315693
 20
740.7882117607
 30
0.0
 40
32.5
100
AcDbArc
 50
173.1584550079
 51
175.5915449921
  0
ARC
  5
123
330
1F
100
AcDbEntity
  8
0
  6
Continuous
 62
     7
370
    25
100
AcDbCircle
 10
36.326315693
 20
740.7882117607
 30
0.0
 40
32.50000000000007
100
AcDbArc
 50
263.1584550079
 51
265.5915449921
  0
ARC
  5
124
330
1F
100
AcDbEntity
  8
0
  6
Continuous
 62
     7
370
    25
100
AcDbCircle
 10
36.326315693
 20
740.7882117607
 30
0.0
 40
32.50000000000006
100
AcDbArc
 50
251.9084550079
 51
254.3415449921
  0
ARC
  5
125
330
1F
100
AcDbEntity
  8
0
  6
Continuous
 62
     7
370
    25
100
AcDbCircle
 10
36.326315693
 20
740.7882117607
 30
0.0
 40
32.50000000000004
100
AcDbArc
 50
240.6584550079
 51
243.0915449921
  0
ARC
  5
126
330
1F
100
AcDbEntity
  8
0
  6
Continuous
 62
     7
370
    25
100
AcDbCircle
 10
36.326315693
 20
740.7882117607
 30
0.0
 40
32.50000000000009
100
AcDbArc
 50
229.4084550079
 51
231.8415449921
  0
ARC
  5
127
330
1F
100
AcDbEntity
  8
0
  6
Continuous
 62
     7
370
    25
100
AcDbCircle
 10
36.326315693
 20
740.7882117607
 30
0.0
 40
32.50000000000006
100
AcDbArc
 50
206.9084550079
 51
209.3415449921
  0
ARC
  5
128
330
1F
100
AcDbEntity
  8
0
  6
Continuous
 62
     7
370
    25
100
AcDbCircle
 10
36.326315693
 20
740.7882117607
 30
0.0
 40
32.50000000000001
100
AcDbArc
 50
218.1584550079
 51
220.5915449921
  0
ARC
  5
129
330
1F
100
AcDbEntity
  8
0
  6
Continuous
 62
     7
370
    25
100
AcDbCircle
 10
36.326315693
 20
740.7882117607
 30
0.0
 40
32.50000000000001
100
AcDbArc
 50
184.4084550079
 51
186.8415449921
  0
ARC
  5
12A
330
1F
100
AcDbEntity
  8
0
  6
Continuous
 62
     7
370
    25
100
AcDbCircle
 10
36.326315693
 20
740.7882117607
 30
0.0
 40
32.50000000000001
100
AcDbArc
 50
353.1584550079
 51
355.5915449921
  0
ARC
  5
12B
330
1F
100
AcDbEntity
  8
0
  6
Continuous
 62
     7
370
    25
100
AcDbCircle
 10
36.326315693
 20
740.7882117607
 30
0.0
 40
32.50000000000003
100
AcDbArc
 50
341.9084550079
 51
344.3415449921
  0
ARC
  5
12C
330
1F
100
AcDbEntity
  8
0
  6
Continuous
 62
     7
370
    25
100
AcDbCircle
 10
36.326315693
 20
740.7882117607
 30
0.0
 40
32.50000000000001
100
AcDbArc
 50
330.6584550079
 51
333.0915449921
  0
ARC
  5
12D
330
1F
100
AcDbEntity
  8
0
  6
Continuous
 62
     7
370
    25
100
AcDbCircle
 10
36.326315693
 20
740.7882117607
 30
0.0
 40
32.50000000000004
100
AcDbArc
 50
319.4084550079
 51
321.8415449921
  0
ARC
  5
12E
330
1F
100
AcDbEntity
  8
0
  6
Continuous
 62
     7
370
    25
100
AcDbCircle
 10
36.326315693
 20
740.7882117607
 30
0.0
 40
32.50000000000007
100
AcDbArc
 50
296.9084550079
 51
299.3415449921
  0
ARC
  5
12F
330
1F
100
AcDbEntity
  8
0
  6
Continuous
 62
     7
370
    25
100
AcDbCircle
 10
36.326315693
 20
740.7882117607
 30
0.0
 40
32.50000000000009
100
AcDbArc
 50
308.1584550079
 51
310.5915449921
  0
ARC
  5
130
330
1F
100
AcDbEntity
  8
0
  6
Continuous
 62
     7
370
    25
100
AcDbCircle
 10
36.326315693
 20
740.7882117607
 30
0.0
 40
32.50000000000009
100
AcDbArc
 50
285.6584550079
 51
288.0915449921
  0
ARC
  5
131
330
1F
100
AcDbEntity
  8
0
  6
Continuous
 62
     7
370
    25
100
AcDbCircle
 10
36.326315693
 20
740.7882117607
 30
0.0
 40
32.5000000000001
100
AcDbArc
 50
274.4084550079
 51
276.8415449921
  0
ARC
  5
132
330
1F
100
AcDbEntity
  8
0
  6
Continuous
 62
     7
370
    25
100
AcDbCircle
 10
36.326315693
 20
740.7882117607
 30
0.0
 40
32.49999999999999
100
AcDbArc
 50
83.1584550079
 51
85.5915449921
  0
ARC
  5
133
330
1F
100
AcDbEntity
  8
0
  6
Continuous
 62
     7
370
    25
100
AcDbCircle
 10
36.326315693
 20
740.7882117607
 30
0.0
 40
32.49999999999998
100
AcDbArc
 50
71.9084550079
 51
74.3415449921
  0
ARC
  5
134
330
1F
100
AcDbEntity
  8
0
  6
Continuous
 62
     7
370
    25
100
AcDbCircle
 10
36.326315693
 20
740.7882117607
 30
0.0
 40
32.49999999999992
100
AcDbArc
 50
60.6584550079
 51
63.0915449921
  0
ARC
  5
135
330
1F
100
AcDbEntity
  8
0
  6
Continuous
 62
     7
370
    25
100
AcDbCircle
 10
36.326315693
 20
740.7882117607
 30
0.0
 40
32.49999999999998
100
AcDbArc
 50
49.4084550079
 51
51.8415449921
  0
ARC
  5
136
330
1F
100
AcDbEntity
  8
0
  6
Continuous
 62
     7
370
    25
100
AcDbCircle
 10
36.326315693
 20
740.7882117607
 30
0.0
 40
32.5
100
AcDbArc
 50
26.9084550079
 51
29.3415449921
  0
ARC
  5
137
330
1F
100
AcDbEntity
  8
0
  6
Continuous
 62
     7
370
    25
100
AcDbCircle
 10
36.326315693
 20
740.7882117607
 30
0.0
 40
32.49999999999998
100
AcDbArc
 50
38.1584550079
 51
40.5915449921
  0
ARC
  5
138
330
1F
100
AcDbEntity
  8
0
  6
Continuous
 62
     7
370
    25
100
AcDbCircle
 10
36.326315693
 20
740.7882117607
 30
0.0
 40
32.49999999999999
100
AcDbArc
 50
15.6584550079
 51
18.0915449921
  0
ARC
  5
139
330
1F
100
AcDbEntity
  8
0
  6
Continuous
 62
     7
370
    25
100
AcDbCircle
 10
36.326315693
 20
740.7882117607
 30
0.0
 40
32.49999999999999
100
AcDbArc
 50
4.4084550079
 51
6.8415449921
  0
ARC
  5
13A
330
1F
100
AcDbEntity
  8
0
  6
Continuous
 62
     7
370
    25
100
AcDbCircle
 10
36.326315693
 20
740.7882117607
 30
0.0
 40
32.50000000000004
100
AcDbArc
 50
195.6584550079
 51
198.0915449921
  0
ARC
  5
13B
330
1F
100
AcDbEntity
  8
0
  6
Continuous
 62
     7
370
    25
100
AcDbCircle
 10
36.326315693
 20
740.7882117607
 30
0.0
 40
32.5
100
AcDbArc
 50
161.9084550079
 51
164.3415449921
  0
ARC
  5
13C
330
1F
100
AcDbEntity
  8
0
  6
Continuous
 62
     7
370
    25
100
AcDbCircle
 10
36.326315693
 20
740.7882117607
 30
0.0
 40
32.5
100
AcDbArc
 50
150.6584550079
 51
153.0915449921
  0
ARC
  5
13D
330
1F
100
AcDbEntity
  8
0
  6
Continuous
 62
     7
370
    25
100
AcDbCircle
 10
36.326315693
 20
740.7882117607
 30
0.0
 40
32.49999999999999
100
AcDbArc
 50
139.4084550079
 51
141.8415449921
  0
ARC
  5
13E
330
1F
100
AcDbEntity
  8
0
  6
Continuous
 62
     7
370
    25
100
AcDbCircle
 10
36.326315693
 20
740.7882117607
 30
0.0
 40
32.49999999999997
100
AcDbArc
 50
116.9084550079
 51
119.3415449921
  0
ARC
  5
13F
330
1F
100
AcDbEntity
  8
0
  6
Continuous
 62
     7
370
    25
100
AcDbCircle
 10
36.326315693
 20
740.7882117607
 30
0.0
 40
32.49999999999999
100
AcDbArc
 50
128.1584550079
 51
130.5915449921
  0
ARC
  5
140
330
1F
100
AcDbEntity
  8
0
  6
Continuous
 62
     7
370
    25
100
AcDbCircle
 10
36.326315693
 20
740.7882117607
 30
0.0
 40
32.49999999999997
100
AcDbArc
 50
105.6584550079
 51
108.0915449921
  0
ARC
  5
141
330
1F
100
AcDbEntity
  8
0
  6
Continuous
 62
     7
370
    25
100
AcDbCircle
 10
36.326315693
 20
740.7882117607
 30
0.0
 40
32.49999999999996
100
AcDbArc
 50
94.4084550079
 51
96.8415449921
  0
LINE
  5
142
330
1F
100
AcDbEntity
  8
0
  6
Continuous
 62
     7
370
    25
100
AcDbLine
 10
99.659040404
 20
741.6906592821
 30
0.0
 11
96.6939391134
 21
737.3079461571
 31
0.0
  0
ARC
  5
143
330
1F
100
AcDbEntity
  8
0
  6
Continuous
 62
     7
370
    25
100
AcDbCircle
 10
100.6612545437
 20
737.8182482995
 30
0.0
 40
4.000000000000058
100
AcDbArc
 50
187.3295141566
 51
104.510269938
  0
ARC
  5
144
330
1F
100
AcDbEntity
  8
0
  6
Continuous
 62
     7
370
    25
100
AcDbCircle
 10
118.8726774282
 20
764.73653347
 30
0.0
 40
2.499999999999984
100
AcDbArc
 50
148.1241195513
 51
323.7156645433
  0
ARC
  5
145
330
1F
100
AcDbEntity
  8
0
  6
Continuous
 62
     7
370
    25
100
AcDbCircle
 10
123.774246966
 20
760.6664338135
 30
0.0
 40
2.500000000000016
100
AcDbArc
 50
136.8741195513
 51
312.4656645433
  0
ARC
  5
146
330
1F
100
AcDbEntity
  8
0
  6
Continuous
 62
     7
370
    25
100
AcDbCircle
 10
127.787597167
 20
755.7182912012
 30
0.0
 40
2.500000000000036
100
AcDbArc
 50
125.6241195513
 51
301.2156645433
  0
ARC
  5
147
330
1F
100
AcDbEntity
  8
0
  6
Continuous
 62
     7
370
    25
100
AcDbCircle
 10
130.7584972336
 20
750.0822599785
 30
0.0
 40
2.500000000000058
100
AcDbArc
 50
114.3741195513
 51
289.9656645433
  0
ARC
  5
148
330
1F
100
AcDbEntity
  8
0
  6
Continuous
 62
     7
370
    25
100
AcDbCircle
 10
132.5727771423
 20
743.9749296648
 30
0.0
 40
2.500000000000085
100
AcDbArc
 50
103.1241195513
 51
278.7156645433
  0
ARC
  5
149
330
1F
100
AcDbEntity
  8
0
  6
Continuous
 62
     7
370
    25
100
AcDbCircle
 10
133.1607151338
 20
737.6310015389
 30
0.0
 40
2.500000000000055
100
AcDbArc
 50
91.8741195513
 51
267.4656645433
  0
ARC
  5
14A
330
1F
100
AcDbEntity
  8
0
  6
Continuous
 62
     7
370
    25
100
AcDbCircle
 10
132.4997170807
 20
731.294269201
 30
0.0
 40
2.500000000000073
100
AcDbArc
 50
80.6241195513
 51
256.2156645433
  0
ARC
  5
14B
330
1F
100
AcDbEntity
  8
0
  6
Continuous
 62
     7
370
    25
100
AcDbCircle
 10
130.6151847675
 20
725.2082497212
 30
0.0
 40
2.500000000000114
100
AcDbArc
 50
69.3741195513
 51
244.9656645433
  0
ARC
  5
14C
330
1F
100
AcDbEntity
  8
0
  6
Continuous
 62
     7
370
    25
100
AcDbCircle
 10
127.5795397142
 20
719.606825415
 30
0.0
 40
2.50000000000009
100
AcDbArc
 50
58.1241195513
 51
233.7156645433
  0
ARC
  5
14D
330
1F
100
AcDbEntity
  8
0
  6
Continuous
 62
     7
370
    25
100
AcDbCircle
 10
123.5094400577
 20
714.7052558771
 30
0.0
 40
2.500000000000039
100
AcDbArc
 50
46.8741195513
 51
222.4656645433
  0
ARC
  5
14E
330
1F
100
AcDbEntity
  8
0
  6
Continuous
 62
     7
370
    25
100
AcDbCircle
 10
118.5612974453
 20
710.6919056762
 30
0.0
 40
2.500000000000007
100
AcDbArc
 50
35.6241195513
 51
211.2156645433
  0
ARC
  5
14F
330
1F
100
AcDbEntity
  8
0
  6
Continuous
 62
     7
370
    25
100
AcDbCircle
 10
112.9252662227
 20
707.7210056096
 30
0.0
 40
2.499999999999989
100
AcDbArc
 50
24.3741195513
 51
199.9656645433
  0
ARC
  5
150
330
1F
100
AcDbEntity
  8
0
  6
Continuous
 62
     7
370
    25
100
AcDbCircle
 10
106.817935909
 20
705.9067257008
 30
0.0
 40
2.500000000000028
100
AcDbArc
 50
13.1241195513
 51
188.7156645433
  0
ARC
  5
151
330
1F
100
AcDbEntity
  8
0
  6
Continuous
 62
     7
370
    25
100
AcDbCircle
 10
100.4740077831
 20
705.3187877093
 30
0.0
 40
2.500000000000004
100
AcDbArc
 50
1.8741195513
 51
177.4656645433
  0
ARC
  5
152
330
1F
100
AcDbEntity
  8
0
  6
Continuous
 62
     7
370
    25
100
AcDbCircle
 10
94.1372754452
 20
705.9797857624
 30
0.0
 40
2.500000000000018
100
AcDbArc
 50
350.6241195513
 51
166.2156645433
  0
ARC
  5
153
330
1F
100
AcDbEntity
  8
0
  6
Continuous
 62
     7
370
    25
100
AcDbCircle
 10
88.0512559654
 20
707.8643180756
 30
0.0
 40
2.500000000000025
100
AcDbArc
 50
339.3741195513
 51
154.9656645433
  0
ARC
  5
154
330
1F
100
AcDbEntity
  8
0
  6
Continuous
 62
     7
370
    25
100
AcDbCircle
 10
82.4498316592
 20
710.899963129
 30
0.0
 40
2.50000000000002
100
AcDbArc
 50
328.1241195513
 51
143.7156645433
  0
ARC
  5
155
330
1F
100
AcDbEntity
  8
0
  6
Continuous
 62
     7
370
    25
100
AcDbCircle
 10
77.5482621213
 20
714.9700627854
 30
0.0
 40
2.500000000000026
100
AcDbArc
 50
316.8741195513
 51
132.4656645433
  0
ARC
  5
156
330
1F
100
AcDbEntity
  8
0
  6
Continuous
 62
     7
370
    25
100
AcDbCircle
 10
73.5349119203
 20
719.9182053978
 30
0.0
 40
2.500000000000028
100
AcDbArc
 50
305.6241195513
 51
121.2156645433
  0
ARC
  5
157
330
1F
100
AcDbEntity
  8
0
  6
Continuous
 62
     7
370
    25
100
AcDbCircle
 10
70.5640118537
 20
725.5542366205
 30
0.0
 40
2.500000000000016
100
AcDbArc
 50
294.3741195513
 51
109.9656645433
  0
ARC
  5
158
330
1F
100
AcDbEntity
  8
0
  6
Continuous
 62
     7
370
    25
100
AcDbCircle
 10
68.749731945
 20
731.6615669342
 30
0.0
 40
2.500000000000085
100
AcDbArc
 50
283.1241195513
 51
98.7156645433
  0
ARC
  5
159
330
1F
100
AcDbEntity
  8
0
  6
Continuous
 62
     7
370
    25
100
AcDbCircle
 10
68.1617939535
 20
738.0054950601
 30
0.0
 40
2.500000000000055
100
AcDbArc
 50
271.8741195513
 51
87.4656645433
  0
ARC
  5
15A
330
1F
100
AcDbEntity
  8
0
  6
Continuous
 62
     7
370
    25
100
AcDbCircle
 10
68.8227920066
 20
744.3422273979
 30
0.0
 40
2.499999999999952
100
AcDbArc
 50
260.6241195513
 51
76.2156645433
  0
ARC
  5
15B
330
1F
100
AcDbEntity
  8
0
  6
Continuous
 62
     7
370
    25
100
AcDbCircle
 10
70.7073243198
 20
750.4282468778
 30
0.0
 40
2.500000000000028
100
AcDbArc
 50
249.3741195513
 51
64.9656645433
  0
ARC
  5
15C
330
1F
100
AcDbEntity
  8
0
  6
Continuous
 62
     7
370
    25
100
AcDbCircle
 10
73.7429693731
 20
756.029671184
 30
0.0
 40
2.500000000000104
100
AcDbArc
 50
238.1241195513
 51
53.7156645433
  0
ARC
  5
15D
330
1F
100
AcDbEntity
  8
0
  6
Continuous
 62
     7
370
    25
100
AcDbCircle
 10
77.8130690296
 20
760.9312407218
 30
0.0
 40
2.500000000000039
100
AcDbArc
 50
226.8741195513
 51
42.4656645433
  0
ARC
  5
15E
330
1F
100
AcDbEntity
  8
0
  6
Continuous
 62
     7
370
    25
100
AcDbCircle
 10
82.761211642
 20
764.9445909228
 30
0.0
 40
2.499999999999964
100
AcDbArc
 50
215.6241195513
 51
31.2156645433
  0
ARC
  5
15F
330
1F
100
AcDbEntity
  8
0
  6
Continuous
 62
     7
370
    25
100
AcDbCircle
 10
88.3972428646
 20
767.9154909894
 30
0.0
 40
2.500000000000015
100
AcDbArc
 50
204.3741195513
 51
19.9656645433
  0
ARC
  5
160
330
1F
100
AcDbEntity
  8
0
  6
Continuous
 62
     7
370
    25
100
AcDbCircle
 10
94.5045731783
 20
769.7297708982
 30
0.0
 40
2.50000000000001
100
AcDbArc
 50
193.1241195513
 51
8.7156645433
  0
ARC
  5
161
330
1F
100
AcDbEntity
  8
0
  6
Continuous
 62
     7
370
    25
100
AcDbCircle
 10
100.8485013042
 20
770.3177088896
 30
0.0
 40
2.500000000000014
100
AcDbArc
 50
181.8741195513
 51
357.4656645433
  0
ARC
  5
162
330
1F
100
AcDbEntity
  8
0
  6
Continuous
 62
     7
370
    25
100
AcDbCircle
 10
107.1852336421
 20
769.6567108365
 30
0.0
 40
2.49999999999999
100
AcDbArc
 50
170.6241195513
 51
346.2156645433
  0
ARC
  5
163
330
1F
100
AcDbEntity
  8
0
  6
Continuous
 62
     7
370
    25
100
AcDbCircle
 10
113.2712531219
 20
767.7721785234
 30
0.0
 40
2.500000000000011
100
AcDbArc
 50
159.3741195513
 51
334.9656645433
  0
CIRCLE
  5
164
330
1F
100
AcDbEntity
  8
0
  6
Continuous
 62
     7
370
    25
100
AcDbCircle
 10
98.8824758731
 20
712.8816096639
 30
0.0
 40
1.500000000000014
  0
CIRCLE
  5
165
330
1F
100
AcDbEntity
  8
0
  6
Continuous
 62
     7
370
    25
100
AcDbCircle
 10
123.1464064224
 20
748.7461001008
 30
0.0
 40
1.500000000000014
  0
CIRCLE
  5
166
330
1F
100
AcDbEntity
  8
0
  6
Continuous
 62
     7
370
    25
100
AcDbCircle
 10
79.9548813356
 20
751.8270351337
 30
0.0
 40
1.500000000000014
  0
ARC
  5
167
330
1F
100
AcDbEntity
  8
0
  6
Continuous
 62
     7
370
    25
100
AcDbCircle
 10
100.6612545437
 20
737.8182482995
 30
0.0
 40
32.50000000000004
100
AcDbArc
 50
139.0783470552
 51
141.5114370394
  0
ARC
  5
168
330
1F
100
AcDbEntity
  8
0
  6
Continuous
 62
     7
370
    25
100
AcDbCircle
 10
100.6612545437
 20
737.8182482995
 30
0.0
 40
32.49999999999998
100
AcDbArc
 50
229.0783470552
 51
231.5114370394
  0
ARC
  5
169
330
1F
100
AcDbEntity
  8
0
  6
Continuous
 62
     7
370
    25
100
AcDbCircle
 10
100.6612545437
 20
737.8182482995
 30
0.0
 40
32.49999999999996
100
AcDbArc
 50
217.8283470552
 51
220.2614370394
  0
ARC
  5
16A
330
1F
100
AcDbEntity
  8
0
  6
Continuous
 62
     7
370
    25
100
AcDbCircle
 10
100.6612545437
 20
737.8182482995
 30
0.0
 40
32.49999999999999
100
AcDbArc
 50
206.5783470552
 51
209.0114370394
  0
ARC
  5
16B
330
1F
100
AcDbEntity
  8
0
  6
Continuous
 62
     7
370
    25
100
AcDbCircle
 10
100.6612545437
 20
737.8182482995
 30
0.0
 40
32.49999999999999
100
AcDbArc
 50
195.3283470552
 51
197.7614370394
  0
ARC
  5
16C
330
1F
100
AcDbEntity
  8
0
  6
Continuous
 62
     7
370
    25
100
AcDbCircle
 10
100.6612545437
 20
737.8182482995
 30
0.0
 40
32.5
100
AcDbArc
 50
172.8283470552
 51
175.2614370394
  0
ARC
  5
16D
330
1F
100
AcDbEntity
  8
0
  6
Continuous
 62
     7
370
    25
100
AcDbCircle
 10
100.6612545437
 20
737.8182482995
 30
0.0
 40
32.49999999999999
100
AcDbArc
 50
184.0783470552
 51
186.5114370394
  0
ARC
  5
16E
330
1F
100
AcDbEntity
  8
0
  6
Continuous
 62
     7
370
    25
100
AcDbCircle
 10
100.6612545437
 20
737.8182482995
 30
0.0
 40
32.50000000000004
100
AcDbArc
 50
150.3283470552
 51
152.7614370394
  0
ARC
  5
16F
330
1F
100
AcDbEntity
  8
0
  6
Continuous
 62
     7
370
    25
100
AcDbCircle
 10
100.6612545437
 20
737.8182482995
 30
0.0
 40
32.50000000000001
100
AcDbArc
 50
319.0783470552
 51
321.5114370394
  0
ARC
  5
170
330
1F
100
AcDbEntity
  8
0
  6
Continuous
 62
     7
370
    25
100
AcDbCircle
 10
100.6612545437
 20
737.8182482995
 30
0.0
 40
32.49999999999996
100
AcDbArc
 50
307.8283470552
 51
310.2614370394
  0
ARC
  5
171
330
1F
100
AcDbEntity
  8
0
  6
Continuous
 62
     7
370
    25
100
AcDbCircle
 10
100.6612545437
 20
737.8182482995
 30
0.0
 40
32.50000000000001
100
AcDbArc
 50
296.5783470552
 51
299.0114370394
  0
ARC
  5
172
330
1F
100
AcDbEntity
  8
0
  6
Continuous
 62
     7
370
    25
100
AcDbCircle
 10
100.6612545437
 20
737.8182482995
 30
0.0
 40
32.5
100
AcDbArc
 50
285.3283470552
 51
287.7614370394
  0
ARC
  5
173
330
1F
100
AcDbEntity
  8
0
  6
Continuous
 62
     7
370
    25
100
AcDbCircle
 10
100.6612545437
 20
737.8182482995
 30
0.0
 40
32.49999999999999
100
AcDbArc
 50
262.8283470552
 51
265.2614370394
  0
ARC
  5
174
330
1F
100
AcDbEntity
  8
0
  6
Continuous
 62
     7
370
    25
100
AcDbCircle
 10
100.6612545437
 20
737.8182482995
 30
0.0
 40
32.49999999999998
100
AcDbArc
 50
274.0783470552
 51
276.5114370394
  0
ARC
  5
175
330
1F
100
AcDbEntity
  8
0
  6
Continuous
 62
     7
370
    25
100
AcDbCircle
 10
100.6612545437
 20
737.8182482995
 30
0.0
 40
32.49999999999996
100
AcDbArc
 50
251.5783470552
 51
254.0114370394
  0
ARC
  5
176
330
1F
100
AcDbEntity
  8
0
  6
Continuous
 62
     7
370
    25
100
AcDbCircle
 10
100.6612545437
 20
737.8182482995
 30
0.0
 40
32.50000000000002
100
AcDbArc
 50
240.3283470552
 51
242.7614370394
  0
ARC
  5
177
330
1F
100
AcDbEntity
  8
0
  6
Continuous
 62
     7
370
    25
100
AcDbCircle
 10
100.6612545437
 20
737.8182482995
 30
0.0
 40
32.50000000000008
100
AcDbArc
 50
49.0783470552
 51
51.5114370394
  0
ARC
  5
178
330
1F
100
AcDbEntity
  8
0
  6
Continuous
 62
     7
370
    25
100
AcDbCircle
 10
100.6612545437
 20
737.8182482995
 30
0.0
 40
32.50000000000004
100
AcDbArc
 50
37.8283470552
 51
40.2614370394
  0
ARC
  5
179
330
1F
100
AcDbEntity
  8
0
  6
Continuous
 62
     7
370
    25
100
AcDbCircle
 10
100.6612545437
 20
737.8182482995
 30
0.0
 40
32.50000000000004
100
AcDbArc
 50
26.5783470552
 51
29.0114370394
  0
ARC
  5
17A
330
1F
100
AcDbEntity
  8
0
  6
Continuous
 62
     7
370
    25
100
AcDbCircle
 10
100.6612545437
 20
737.8182482995
 30
0.0
 40
32.50000000000001
100
AcDbArc
 50
15.3283470552
 51
17.7614370394
  0
ARC
  5
17B
330
1F
100
AcDbEntity
  8
0
  6
Continuous
 62
     7
370
    25
100
AcDbCircle
 10
100.6612545437
 20
737.8182482995
 30
0.0
 40
32.50000000000002
100
AcDbArc
 50
352.8283470552
 51
355.2614370394
  0
ARC
  5
17C
330
1F
100
AcDbEntity
  8
0
  6
Continuous
 62
     7
370
    25
100
AcDbCircle
 10
100.6612545437
 20
737.8182482995
 30
0.0
 40
32.50000000000004
100
AcDbArc
 50
4.0783470552
 51
6.5114370394
  0
ARC
  5
17D
330
1F
100
AcDbEntity
  8
0
  6
Continuous
 62
     7
370
    25
100
AcDbCircle
 10
100.6612545437
 20
737.8182482995
 30
0.0
 40
32.49999999999997
100
AcDbArc
 50
341.5783470552
 51
344.0114370394
  0
ARC
  5
17E
330
1F
100
AcDbEntity
  8
0
  6
Continuous
 62
     7
370
    25
100
AcDbCircle
 10
100.6612545437
 20
737.8182482995
 30
0.0
 40
32.50000000000001
100
AcDbArc
 50
330.3283470552
 51
332.7614370394
  0
ARC
  5
17F
330
1F
100
AcDbEntity
  8
0
  6
Continuous
 62
     7
370
    25
100
AcDbCircle
 10
100.6612545437
 20
737.8182482995
 30
0.0
 40
32.50000000000001
100
AcDbArc
 50
161.5783470552
 51
164.0114370394
  0
ARC
  5
180
330
1F
100
AcDbEntity
  8
0
  6
Continuous
 62
     7
370
    25
100
AcDbCircle
 10
100.6612545437
 20
737.8182482995
 30
0.0
 40
32.5000000000001
100
AcDbArc
 50
127.8283470552
 51
130.2614370394
  0
ARC
  5
181
330
1F
100
AcDbEntity
  8
0
  6
Continuous
 62
     7
370
    25
100
AcDbCircle
 10
100.6612545437
 20
737.8182482995
 30
0.0
 40
32.50000000000003
100
AcDbArc
 50
116.5783470552
 51
119.0114370394
  0
ARC
  5
182
330
1F
100
AcDbEntity
  8
0
  6
Continuous
 62
     7
370
    25
100
AcDbCircle
 10
100.6612545437
 20
737.8182482995
 30
0.0
 40
32.50000000000006
100
AcDbArc
 50
105.3283470552
 51
107.7614370394
  0
ARC
  5
183
330
1F
100
AcDbEntity
  8
0
  6
Continuous
 62
     7
370
    25
100
AcDbCircle
 10
100.6612545437
 20
737.8182482995
 30
0.0
 40
32.50000000000011
100
AcDbArc
 50
82.8283470552
 51
85.2614370394
  0
ARC
  5
184
330
1F
100
AcDbEntity
  8
0
  6
Continuous
 62
     7
370
    25
100
AcDbCircle
 10
100.6612545437
 20
737.8182482995
 30
0.0
 40
32.5
100
AcDbArc
 50
94.0783470552
 51
96.5114370394
  0
ARC
  5
185
330
1F
100
AcDbEntity
  8
0
  6
Continuous
 62
     7
370
    25
100
AcDbCircle
 10
100.6612545437
 20
737.8182482995
 30
0.0
 40
32.50000000000009
100
AcDbArc
 50
71.5783470552
 51
74.0114370394
  0
ARC
  5
186
330
1F
100
AcDbEntity
  8
0
  6
Continuous
 62
     7
370
    25
100
AcDbCircle
 10
100.6612545437
 20
737.8182482995
 30
0.0
 40
32.50000000000003
100
AcDbArc
 50
60.3283470552
 51
62.7614370394
  0
ENDSEC
  0
SECTION
  2
OBJECTS
  0
DICTIONARY
  5
C
330
0
100
AcDbDictionary
281
     1
  3
ACAD_GROUP
350
D
  3
ACAD_LAYOUT
350
1A
  3
ACAD_MLINESTYLE
350
17
  3
ACAD_PLOTSETTINGS
350
19
  3
ACAD_PLOTSTYLENAME
350
E
  3
ACAD_SCALELIST
350
47
  3
DWGPROPS
350
187
  0
DICTIONARY
  5
D
102
{ACAD_REACTORS
330
C
102
}
330
C
100
AcDbDictionary
281
     1
  0
DICTIONARY
  5
1A
102
{ACAD_REACTORS
330
C
102
}
330
C
100
AcDbDictionary
281
     1
  3
Layout1
350
1E
  3
Layout2
350
26
  3
Model
350
22
  0
DICTIONARY
  5
17
102
{ACAD_REACTORS
330
C
102
}
330
C
100
AcDbDictionary
281
     1
  3
Standard
350
18
  0
DICTIONARY
  5
19
102
{ACAD_REACTORS
330
C
102
}
330
C
100
AcDbDictionary
281
     1
  0
ACDBDICTIONARYWDFLT
  5
E
102
{ACAD_REACTORS
330
C
102
}
330
C
100
AcDbDictionary
281
     1
  3
Normal
350
F
100
AcDbDictionaryWithDefault
340
F
  0
DICTIONARY
  5
47
102
{ACAD_REACTORS
330
C
102
}
330
C
100
AcDbDictionary
281
     1
  3
A0
350
48
  3
A1
350
49
  3
A2
350
4A
  3
A3
350
4B
  3
A4
350
4C
  3
A5
350
4D
  3
A6
350
4E
  3
A7
350
4F
  3
A8
350
50
  3
A9
350
51
  3
B0
350
52
  3
B1
350
53
  3
B2
350
54
  3
B3
350
55
  3
B4
350
56
  3
B5
350
57
  3
B6
350
58
  3
B7
350
59
  3
B8
350
5A
  3
B9
350
5B
  3
C0
350
5C
  3
C1
350
5D
  3
C2
350
5E
  3
C3
350
5F
  3
C4
350
60
  3
C5
350
61
  3
C6
350
62
  3
C7
350
63
  3
C8
350
64
  3
C9
350
65
  3
D0
350
66
  3
D1
350
67
  3
D2
350
68
  0
XRECORD
  5
187
102
{ACAD_REACTORS
330
C
102
}
330
C
100
AcDbXrecord
280
     1
  1
DWGPROPS COOKIE
  2

  3

  4

  6

  7

  8
Nilesh Amarathunge
  9

300
=
301
=
302
=
303
=
304
=
305
=
306
=
307
=
308
=
309
=
 40
0.0
 41
2460938.266274306
 42
2460938.266274849
  1

 90
        0
  0
LAYOUT
  5
1E
102
{ACAD_REACTORS
330
1A
102
}
330
1A
100
AcDbPlotSettings
  1

  2
none_device
  4

  6

 40
0.0
 41
0.0
 42
0.0
 43
0.0
 44
0.0
 45
0.0
 46
0.0
 47
0.0
 48
0.0
 49
0.0
140
0.0
141
0.0
142
1.0
143
1.0
 70
   688
 72
     1
 73
     0
 74
     5
  7

 75
    16
147
1.0
148
0.0
149
0.0
100
AcDbLayout
  1
Layout1
 70
     1
 71
     1
 10
0.0
 20
0.0
 11
420.0
 21
297.0
 12
0.0
 22
0.0
 32
0.0
 14
1.0000000000E+20
 24
1.0000000000E+20
 34
1.0000000000E+20
 15
-1.0000000000E+20
 25
-1.0000000000E+20
 35
-1.0000000000E+20
146
0.0
 13
0.0
 23
0.0
 33
0.0
 16
1.0
 26
0.0
 36
0.0
 17
0.0
 27
1.0
 37
0.0
 76
     0
330
1B
  0
LAYOUT
  5
26
102
{ACAD_REACTORS
330
1A
102
}
330
1A
100
AcDbPlotSettings
  1

  2
none_device
  4

  6

 40
0.0
 41
0.0
 42
0.0
 43
0.0
 44
0.0
 45
0.0
 46
0.0
 47
0.0
 48
0.0
 49
0.0
140
0.0
141
0.0
142
1.0
143
1.0
 70
   688
 72
     1
 73
     0
 74
     5
  7

 75
    16
147
1.0
148
0.0
149
0.0
100
AcDbLayout
  1
Layout2
 70
     1
 71
     2
 10
0.0
 20
0.0
 11
0.0
 21
0.0
 12
0.0
 22
0.0
 32
0.0
 14
0.0
 24
0.0
 34
0.0
 15
0.0
 25
0.0
 35
0.0
146
0.0
 13
0.0
 23
0.0
 33
0.0
 16
1.0
 26
0.0
 36
0.0
 17
0.0
 27
1.0
 37
0.0
 76
     0
330
23
  0
LAYOUT
  5
22
102
{ACAD_REACTORS
330
1A
102
}
330
1A
100
AcDbPlotSettings
  1

  2
none_device
  4
Letter_(8.50_x_11.00_Inches)
  6

 40
6.35
 41
6.35
 42
6.35000508
 43
6.35000508
 44
215.9
 45
279.4
 46
0.0
 47
0.0
 48
0.0
 49
0.0
140
0.0
141
0.0
142
1.0
143
1.0
 70
  1712
 72
     1
 73
     0
 74
     0
  7

 75
     0
147
1.0
148
0.0
149
0.0
100
AcDbLayout
  1
Model
 70
     1
 71
     0
 10
0.0
 20
0.0
 11
1189.0
 21
841.0
 12
0.0
 22
0.0
 32
0.0
 14
0.0
 24
0.0
 34
0.0
 15
1189.0
 25
841.0
 35
0.0
146
0.0
 13
0.0
 23
0.0
 33
0.0
 16
1.0
 26
0.0
 36
0.0
 17
0.0
 27
1.0
 37
0.0
 76
     0
330
1F
331
29
  0
MLINESTYLE
  5
18
102
{ACAD_REACTORS
330
17
102
}
330
17
100
AcDbMlineStyle
  2
Standard
 70
     0
  3

 62
   256
 51
90.0
 52
90.0
 71
     2
 49
0.5
 62
   256
  6
BYLAYER
 49
-0.5
 62
   256
  6
BYLAYER
  0
ACDBPLACEHOLDER
  5
F
102
{ACAD_REACTORS
330
E
102
}
330
E
  0
SCALE
  5
48
102
{ACAD_REACTORS
330
47
102
}
330
47
100
AcDbScale
 70
     0
300
1:1
140
1.0
141
1.0
290
     1
  0
SCALE
  5
49
102
{ACAD_REACTORS
330
47
102
}
330
47
100
AcDbScale
 70
     0
300
1:2
140
1.0
141
2.0
290
     0
  0
SCALE
  5
4A
102
{ACAD_REACTORS
330
47
102
}
330
47
100
AcDbScale
 70
     0
300
1:4
140
1.0
141
4.0
290
     0
  0
SCALE
  5
4B
102
{ACAD_REACTORS
330
47
102
}
330
47
100
AcDbScale
 70
     0
300
1:5
140
1.0
141
5.0
290
     0
  0
SCALE
  5
4C
102
{ACAD_REACTORS
330
47
102
}
330
47
100
AcDbScale
 70
     0
300
1:8
140
1.0
141
8.0
290
     0
  0
SCALE
  5
4D
102
{ACAD_REACTORS
330
47
102
}
330
47
100
AcDbScale
 70
     0
300
1:10
140
1.0
141
10.0
290
     0
  0
SCALE
  5
4E
102
{ACAD_REACTORS
330
47
102
}
330
47
100
AcDbScale
 70
     0
300
1:16
140
1.0
141
16.0
290
     0
  0
SCALE
  5
4F
102
{ACAD_REACTORS
330
47
102
}
330
47
100
AcDbScale
 70
     0
300
1:20
140
1.0
141
20.0
290
     0
  0
SCALE
  5
50
102
{ACAD_REACTORS
330
47
102
}
330
47
100
AcDbScale
 70
     0
300
1:30
140
1.0
141
30.0
290
     0
  0
SCALE
  5
51
102
{ACAD_REACTORS
330
47
102
}
330
47
100
AcDbScale
 70
     0
300
1:40
140
1.0
141
40.0
290
     0
  0
SCALE
  5
52
102
{ACAD_REACTORS
330
47
102
}
330
47
100
AcDbScale
 70
     0
300
1:50
140
1.0
141
50.0
290
     0
  0
SCALE
  5
53
102
{ACAD_REACTORS
330
47
102
}
330
47
100
AcDbScale
 70
     0
300
1:100
140
1.0
141
100.0
290
     0
  0
SCALE
  5
54
102
{ACAD_REACTORS
330
47
102
}
330
47
100
AcDbScale
 70
     0
300
2:1
140
2.0
141
1.0
290
     0
  0
SCALE
  5
55
102
{ACAD_REACTORS
330
47
102
}
330
47
100
AcDbScale
 70
     0
300
4:1
140
4.0
141
1.0
290
     0
  0
SCALE
  5
56
102
{ACAD_REACTORS
330
47
102
}
330
47
100
AcDbScale
 70
     0
300
8:1
140
8.0
141
1.0
290
     0
  0
SCALE
  5
57
102
{ACAD_REACTORS
330
47
102
}
330
47
100
AcDbScale
 70
     0
300
10:1
140
10.0
141
1.0
290
     0
  0
SCALE
  5
58
102
{ACAD_REACTORS
330
47
102
}
330
47
100
AcDbScale
 70
     0
300
100:1
140
100.0
141
1.0
290
     0
  0
SCALE
  5
59
102
{ACAD_REACTORS
330
47
102
}
330
47
100
AcDbScale
 70
     0
300
1/128" = 1'-0"
140
0.0078125
141
12.0
290
     0
  0
SCALE
  5
5A
102
{ACAD_REACTORS
330
47
102
}
330
47
100
AcDbScale
 70
     0
300
1/64" = 1'-0"
140
0.015625
141
12.0
290
     0
  0
SCALE
  5
5B
102
{ACAD_REACTORS
330
47
102
}
330
47
100
AcDbScale
 70
     0
300
1/32" = 1'-0"
140
0.03125
141
12.0
290
     0
  0
SCALE
  5
5C
102
{ACAD_REACTORS
330
47
102
}
330
47
100
AcDbScale
 70
     0
300
1/16" = 1'-0"
140
0.0625
141
12.0
290
     0
  0
SCALE
  5
5D
102
{ACAD_REACTORS
330
47
102
}
330
47
100
AcDbScale
 70
     0
300
3/32" = 1'-0"
140
0.09375
141
12.0
290
     0
  0
SCALE
  5
5E
102
{ACAD_REACTORS
330
47
102
}
330
47
100
AcDbScale
 70
     0
300
1/8" = 1'-0"
140
0.125
141
12.0
290
     0
  0
SCALE
  5
5F
102
{ACAD_REACTORS
330
47
102
}
330
47
100
AcDbScale
 70
     0
300
3/16" = 1'-0"
140
0.1875
141
12.0
290
     0
  0
SCALE
  5
60
102
{ACAD_REACTORS
330
47
102
}
330
47
100
AcDbScale
 70
     0
300
1/4" = 1'-0"
140
0.25
141
12.0
290
     0
  0
SCALE
  5
61
102
{ACAD_REACTORS
330
47
102
}
330
47
100
AcDbScale
 70
     0
300
3/8" = 1'-0"
140
0.375
141
12.0
290
     0
  0
SCALE
  5
62
102
{ACAD_REACTORS
330
47
102
}
330
47
100
AcDbScale
 70
     0
300
1/2" = 1'-0"
140
0.5
141
12.0
290
     0
  0
SCALE
  5
63
102
{ACAD_REACTORS
330
47
102
}
330
47
100
AcDbScale
 70
     0
300
3/4" = 1'-0"
140
0.75
141
12.0
290
     0
  0
SCALE
  5
64
102
{ACAD_REACTORS
330
47
102
}
330
47
100
AcDbScale
 70
     0
300
1" = 1'-0"
140
1.0
141
12.0
290
     0
  0
SCALE
  5
65
102
{ACAD_REACTORS
330
47
102
}
330
47
100
AcDbScale
 70
     0
300
1-1/2" = 1'-0"
140
1.5
141
12.0
290
     0
  0
SCALE
  5
66
102
{ACAD_REACTORS
330
47
102
}
330
47
100
AcDbScale
 70
     0
300
3" = 1'-0"
140
3.0
141
12.0
290
     0
  0
SCALE
  5
67
102
{ACAD_REACTORS
330
47
102
}
330
47
100
AcDbScale
 70
     0
300
6" = 1'-0"
140
6.0
141
12.0
290
     0
  0
SCALE
  5
68
102
{ACAD_REACTORS
330
47
102
}
330
47
100
AcDbScale
 70
     0
300
1'-0" = 1'-0"
140
12.0
141
12.0
290
     0
  0
ENDSEC
  0
EOF
