ISO-10303-21;
HEADER;
FILE_DESCRIPTION (( 'STEP AP214' ),
    '1' );
FILE_NAME ('ALSR03250R0FE12.STEP',
    '2022-11-19T19:17:14',
    ( '' ),
    ( '' ),
    'SwSTEP 2.0',
    'SolidWorks 2017',
    '' );
FILE_SCHEMA (( 'AUTOMOTIVE_DESIGN' ));
ENDSEC;

DATA;
#1 = DIRECTION ( 'NONE',  ( 1.000000000000000000, -0.0000000000000000000, -0.0000000000000000000 ) ) ;
#2 = CARTESIAN_POINT ( 'NONE',  ( 0.2999999999999999900, 0.1060000000000000000, 0.0000000000000000000 ) ) ;
#3 =( CONVERSION_BASED_UNIT ( 'INCH', #448 ) LENGTH_UNIT ( ) NAMED_UNIT ( #282 ) );
#4 = AXIS2_PLACEMENT_3D ( 'NONE', #288, #417, #217 ) ;
#5 = CARTESIAN_POINT ( 'NONE',  ( 0.3350000000000000200, 0.06599999999999998900, 0.0000000000000000000 ) ) ;
#6 = CARTESIAN_POINT ( 'NONE',  ( 0.2999999999999999900, 0.1060000000000000000, 0.01599999999999999300 ) ) ;
#7 = FACE_OUTER_BOUND ( 'NONE', #920, .T. ) ;
#8 = FACE_OUTER_BOUND ( 'NONE', #874, .T. ) ;
#9 = DIRECTION ( 'NONE',  ( 1.000000000000000000, 0.0000000000000000000, 0.0000000000000000000 ) ) ;
#10 = FACE_OUTER_BOUND ( 'NONE', #225, .T. ) ;
#11 = ORIENTED_EDGE ( 'NONE', *, *, #285, .F. ) ;
#12 = EDGE_CURVE ( 'NONE', #558, #119, #423, .T. ) ;
#13 = ORIENTED_EDGE ( 'NONE', *, *, #216, .T. ) ;
#14 = AXIS2_PLACEMENT_3D ( 'NONE', #54, #114, #129 ) ;
#15 = CARTESIAN_POINT ( 'NONE',  ( 0.3350000000000000200, 0.1060000000000000000, -0.01599999999999999300 ) ) ;
#16 = DIRECTION ( 'NONE',  ( 0.0000000000000000000, 0.0000000000000000000, -1.000000000000000000 ) ) ;
#17 = DIRECTION ( 'NONE',  ( 0.0000000000000000000, 0.0000000000000000000, -1.000000000000000000 ) ) ;
#18 = DIRECTION ( 'NONE',  ( 0.0000000000000000000, 0.0000000000000000000, -1.000000000000000000 ) ) ;
#19 = CIRCLE ( 'NONE', #670, 0.01599999999999999300 ) ;
#20 = LINE ( 'NONE', #822, #648 ) ;
#21 = ORIENTED_EDGE ( 'NONE', *, *, #889, .T. ) ;
#22 = CARTESIAN_POINT ( 'NONE',  ( 0.3910000000000002400, -1.319000000000000000, 0.0000000000000000000 ) ) ;
#23 = DIRECTION ( 'NONE',  ( 0.0000000000000000000, 0.0000000000000000000, 1.000000000000000000 ) ) ;
#24 = ORIENTED_EDGE ( 'NONE', *, *, #94, .T. ) ;
#25 = VERTEX_POINT ( 'NONE', #367 ) ;
#26 = EDGE_CURVE ( 'NONE', #790, #435, #116, .T. ) ;
#27 = CARTESIAN_POINT ( 'NONE',  ( 0.2249999999999998100, 0.1060000000000000000, 0.0000000000000000000 ) ) ;
#28 = ADVANCED_FACE ( 'NONE', ( #809 ), #796, .F. ) ;
#29 = CARTESIAN_POINT ( 'NONE',  ( 0.2999999999999999900, 0.08999999999999999700, 0.0000000000000000000 ) ) ;
#30 = EDGE_CURVE ( 'NONE', #105, #95, #372, .T. ) ;
#31 = FACE_BOUND ( 'NONE', #344, .T. ) ;
#32 = FACE_OUTER_BOUND ( 'NONE', #835, .T. ) ;
#33 = UNCERTAINTY_MEASURE_WITH_UNIT (LENGTH_MEASURE( 1.000000000000000100E-005 ), #50, 'distance_accuracy_value', 'NONE');
#34 =( NAMED_UNIT ( * ) SI_UNIT ( $, .STERADIAN. ) SOLID_ANGLE_UNIT ( ) );
#35 = CYLINDRICAL_SURFACE ( 'NONE', #141, 0.01599999999999999700 ) ;
#36 = EDGE_LOOP ( 'NONE', ( #945, #38, #545, #511, #323 ) ) ;
#37 = DIRECTION ( 'NONE',  ( 0.0000000000000000000, 0.0000000000000000000, -1.000000000000000000 ) ) ;
#38 = ORIENTED_EDGE ( 'NONE', *, *, #573, .T. ) ;
#39 = CARTESIAN_POINT ( 'NONE',  ( 0.3350000000000000200, 0.06599999999999998900, 1.959434878635764300E-018 ) ) ;
#40 = EDGE_LOOP ( 'NONE', ( #402, #651, #238, #716 ) ) ;
#41 = AXIS2_PLACEMENT_3D ( 'NONE', #159, #967, #377 ) ;
#42 = CARTESIAN_POINT ( 'NONE',  ( -0.3910000000000002400, -1.319000000000000000, 0.0000000000000000000 ) ) ;
#43 = SURFACE_STYLE_USAGE ( .BOTH. , #345 ) ;
#44 = DIRECTION ( 'NONE',  ( 0.0000000000000000000, 0.0000000000000000000, 1.000000000000000000 ) ) ;
#45 = ADVANCED_FACE ( 'NONE', ( #167 ), #528, .T. ) ;
#46 = SHAPE_DEFINITION_REPRESENTATION ( #760, #471 ) ;
#47 = EDGE_CURVE ( 'NONE', #801, #821, #942, .T. ) ;
#48 = CIRCLE ( 'NONE', #313, 0.01599999999999999300 ) ;
#49 = FACE_OUTER_BOUND ( 'NONE', #725, .T. ) ;
#50 =( CONVERSION_BASED_UNIT ( 'INCH', #397 ) LENGTH_UNIT ( ) NAMED_UNIT ( #647 ) );
#51 = ORIENTED_EDGE ( 'NONE', *, *, #349, .F. ) ;
#52 = ORIENTED_EDGE ( 'NONE', *, *, #352, .T. ) ;
#53 = ORIENTED_EDGE ( 'NONE', *, *, #731, .F. ) ;
#54 = CARTESIAN_POINT ( 'NONE',  ( -0.2999999999999999900, 0.1060000000000000000, 0.0000000000000000000 ) ) ;
#55 = DIRECTION ( 'NONE',  ( -1.000000000000000000, 0.0000000000000000000, 0.0000000000000000000 ) ) ;
#56 = SURFACE_STYLE_FILL_AREA ( #68 ) ;
#57 = CARTESIAN_POINT ( 'NONE',  ( 0.2999999999999999900, 0.1060000000000000000, -0.01599999999999999700 ) ) ;
#58 = CIRCLE ( 'NONE', #719, 0.1060000000000000000 ) ;
#59 =( LENGTH_UNIT ( ) NAMED_UNIT ( * ) SI_UNIT ( $, .METRE. ) );
#60 = ORIENTED_EDGE ( 'NONE', *, *, #754, .T. ) ;
#61 = ORIENTED_EDGE ( 'NONE', *, *, #231, .T. ) ;
#62 = DIRECTION ( 'NONE',  ( 1.000000000000000000, -0.0000000000000000000, -0.0000000000000000000 ) ) ;
#63 = EDGE_CURVE ( 'NONE', #168, #501, #498, .T. ) ;
#64 = CARTESIAN_POINT ( 'NONE',  ( 0.2750000000000000200, 0.1060000000000000000, -0.04100000000000000200 ) ) ;
#65 = DIMENSIONAL_EXPONENTS ( 1.000000000000000000, 0.0000000000000000000, 0.0000000000000000000, 0.0000000000000000000, 0.0000000000000000000, 0.0000000000000000000, 0.0000000000000000000 ) ;
#66 = DIRECTION ( 'NONE',  ( -1.000000000000000000, -0.0000000000000000000, -0.0000000000000000000 ) ) ;
#67 = AXIS2_PLACEMENT_3D ( 'NONE', #608, #752, #373 ) ;
#68 = FILL_AREA_STYLE ('',( #515 ) ) ;
#69 = ADVANCED_FACE ( 'NONE', ( #569 ), #143, .T. ) ;
#70 = LINE ( 'NONE', #897, #870 ) ;
#71 = AXIS2_PLACEMENT_3D ( 'NONE', #133, #430, #806 ) ;
#72 = EDGE_LOOP ( 'NONE', ( #474, #866, #667, #750 ) ) ;
#73 = CARTESIAN_POINT ( 'NONE',  ( -0.3910000000000000100, 0.06599999999999998900, 0.0000000000000000000 ) ) ;
#74 = CARTESIAN_POINT ( 'NONE',  ( 0.2249999999999999800, 0.1060000000000000000, 0.0000000000000000000 ) ) ;
#75 = AXIS2_PLACEMENT_3D ( 'NONE', #706, #339, #23 ) ;
#76 = DIRECTION ( 'NONE',  ( -1.000000000000000000, 0.0000000000000000000, 0.0000000000000000000 ) ) ;
#77 = CYLINDRICAL_SURFACE ( 'NONE', #71, 0.01599999999999998000 ) ;
#78 = DIRECTION ( 'NONE',  ( -1.000000000000000000, -0.0000000000000000000, -0.0000000000000000000 ) ) ;
#79 = VECTOR ( 'NONE', #382, 39.37007874015748100 ) ;
#80 = PLANE ( 'NONE',  #601 ) ;
#81 = EDGE_CURVE ( 'NONE', #119, #250, #893, .T. ) ;
#82 = EDGE_LOOP ( 'NONE', ( #365, #451, #275, #932 ) ) ;
#83 = ORIENTED_EDGE ( 'NONE', *, *, #12, .T. ) ;
#84 = PRODUCT_RELATED_PRODUCT_CATEGORY ( 'part', '', ( #359 ) ) ;
#85 = FILL_AREA_STYLE_COLOUR ( '', #602 ) ;
#86 = VERTEX_POINT ( 'NONE', #378 ) ;
#87 = STYLED_ITEM ( 'NONE', ( #624 ), #183 ) ;
#88 = DIRECTION ( 'NONE',  ( -1.000000000000000000, -0.0000000000000000000, -0.0000000000000000000 ) ) ;
#89 = DIRECTION ( 'NONE',  ( 0.0000000000000000000, 0.0000000000000000000, -1.000000000000000000 ) ) ;
#90 = LENGTH_MEASURE_WITH_UNIT ( LENGTH_MEASURE( 0.02539999999999999900 ), #59 );
#91 = CYLINDRICAL_SURFACE ( 'NONE', #884, 0.01599999999999999700 ) ;
#92 = FACE_OUTER_BOUND ( 'NONE', #82, .T. ) ;
#93 = ORIENTED_EDGE ( 'NONE', *, *, #81, .T. ) ;
#94 = EDGE_CURVE ( 'NONE', #931, #215, #20, .T. ) ;
#95 = VERTEX_POINT ( 'NONE', #668 ) ;
#96 = ORIENTED_EDGE ( 'NONE', *, *, #654, .T. ) ;
#97 = CARTESIAN_POINT ( 'NONE',  ( -0.2999999999999999900, 0.1060000000000000000, 0.01599999999999999300 ) ) ;
#98 = ADVANCED_FACE ( 'NONE', ( #10 ), #749, .T. ) ;
#99 = DIRECTION ( 'NONE',  ( -1.000000000000000000, 0.0000000000000000000, 0.0000000000000000000 ) ) ;
#100 = DIRECTION ( 'NONE',  ( 0.0000000000000000000, 0.0000000000000000000, 1.000000000000000000 ) ) ;
#101 = DIRECTION ( 'NONE',  ( -1.000000000000000000, 0.0000000000000000000, 0.0000000000000000000 ) ) ;
#102 = TOROIDAL_SURFACE ( 'NONE', #577, 0.08099999999999998900, 0.02500000000000000500 ) ;
#103 = DIRECTION ( 'NONE',  ( 1.000000000000000000, 0.0000000000000000000, 0.0000000000000000000 ) ) ;
#104 = CIRCLE ( 'NONE', #530, 0.02400000000000000400 ) ;
#105 = VERTEX_POINT ( 'NONE', #453 ) ;
#106 = ORIENTED_EDGE ( 'NONE', *, *, #731, .T. ) ;
#107 = AXIS2_PLACEMENT_3D ( 'NONE', #196, #274, #44 ) ;
#108 = DIRECTION ( 'NONE',  ( 0.0000000000000000000, 0.0000000000000000000, 1.000000000000000000 ) ) ;
#109 = DIRECTION ( 'NONE',  ( 0.0000000000000000000, 0.0000000000000000000, 1.000000000000000000 ) ) ;
#110 = CARTESIAN_POINT ( 'NONE',  ( -0.2999999999999999900, 0.1060000000000000000, -0.01599999999999999300 ) ) ;
#111 = CARTESIAN_POINT ( 'NONE',  ( 0.2500000000000000000, 0.1060000000000000000, 0.0000000000000000000 ) ) ;
#112 = EDGE_CURVE ( 'NONE', #811, #86, #293, .T. ) ;
#113 = FACE_OUTER_BOUND ( 'NONE', #673, .T. ) ;
#114 = DIRECTION ( 'NONE',  ( -1.000000000000000000, 0.0000000000000000000, 0.0000000000000000000 ) ) ;
#115 = DIRECTION ( 'NONE',  ( 0.0000000000000000000, 0.0000000000000000000, -1.000000000000000000 ) ) ;
#116 = CIRCLE ( 'NONE', #442, 0.01599999999999999300 ) ;
#117 = EDGE_LOOP ( 'NONE', ( #262, #121, #777, #824 ) ) ;
#118 = DIRECTION ( 'NONE',  ( 0.0000000000000000000, 0.0000000000000000000, -1.000000000000000000 ) ) ;
#119 = VERTEX_POINT ( 'NONE', #964 ) ;
#120 = DIRECTION ( 'NONE',  ( -1.000000000000000000, -0.0000000000000000000, -0.0000000000000000000 ) ) ;
#121 = ORIENTED_EDGE ( 'NONE', *, *, #490, .F. ) ;
#122 = AXIS2_PLACEMENT_3D ( 'NONE', #560, #633, #863 ) ;
#123 = CARTESIAN_POINT ( 'NONE',  ( -0.2249999999999998100, 0.1060000000000000000, 0.0000000000000000000 ) ) ;
#124 = DIMENSIONAL_EXPONENTS ( 1.000000000000000000, 0.0000000000000000000, 0.0000000000000000000, 0.0000000000000000000, 0.0000000000000000000, 0.0000000000000000000, 0.0000000000000000000 ) ;
#125 = DIRECTION ( 'NONE',  ( 0.0000000000000000000, 0.0000000000000000000, -1.000000000000000000 ) ) ;
#126 = AXIS2_PLACEMENT_3D ( 'NONE', #74, #66, #594 ) ;
#127 = PRESENTATION_STYLE_ASSIGNMENT (( #43 ) ) ;
#128 = VECTOR ( 'NONE', #692, 39.37007874015748100 ) ;
#129 = DIRECTION ( 'NONE',  ( 0.0000000000000000000, 0.0000000000000000000, -1.000000000000000000 ) ) ;
#130 = VERTEX_POINT ( 'NONE', #689 ) ;
#131 = ORIENTED_EDGE ( 'NONE', *, *, #803, .T. ) ;
#132 = VERTEX_POINT ( 'NONE', #539 ) ;
#133 = CARTESIAN_POINT ( 'NONE',  ( -0.3750000000000000600, 0.06599999999999998900, 0.0000000000000000000 ) ) ;
#134 = EDGE_CURVE ( 'NONE', #766, #831, #201, .T. ) ;
#135 = AXIS2_PLACEMENT_3D ( 'NONE', #175, #911, #468 ) ;
#136 = DIRECTION ( 'NONE',  ( 0.0000000000000000000, -1.000000000000000000, 1.224646799147353200E-016 ) ) ;
#137 = DIRECTION ( 'NONE',  ( 2.134256245050206400E-016, 1.000000000000000000, -0.0000000000000000000 ) ) ;
#138 = DIRECTION ( 'NONE',  ( 1.000000000000000000, 0.0000000000000000000, 0.0000000000000000000 ) ) ;
#139 = CYLINDRICAL_SURFACE ( 'NONE', #383, 0.01599999999999999300 ) ;
#140 = DIRECTION ( 'NONE',  ( -1.000000000000000000, 0.0000000000000000000, 0.0000000000000000000 ) ) ;
#141 = AXIS2_PLACEMENT_3D ( 'NONE', #779, #185, #109 ) ;
#142 = CYLINDRICAL_SURFACE ( 'NONE', #680, 0.01599999999999998000 ) ;
#143 = CYLINDRICAL_SURFACE ( 'NONE', #504, 0.01599999999999998000 ) ;
#144 = PRODUCT_CONTEXT ( 'NONE', #219, 'mechanical' ) ;
#145 = ORIENTED_EDGE ( 'NONE', *, *, #198, .F. ) ;
#146 = ORIENTED_EDGE ( 'NONE', *, *, #198, .T. ) ;
#147 = DIRECTION ( 'NONE',  ( -1.479340068771261700E-016, -1.000000000000000000, 0.0000000000000000000 ) ) ;
#148 = DIRECTION ( 'NONE',  ( 0.0000000000000000000, -1.000000000000000000, 0.0000000000000000000 ) ) ;
#149 = APPLICATION_PROTOCOL_DEFINITION ( 'draft international standard', 'automotive_design', 1998, #219 ) ;
#150 = EDGE_CURVE ( 'NONE', #415, #810, #223, .T. ) ;
#151 = DIRECTION ( 'NONE',  ( 1.000000000000000000, -0.0000000000000000000, -0.0000000000000000000 ) ) ;
#152 = VECTOR ( 'NONE', #833, 39.37007874015748100 ) ;
#153 = VECTOR ( 'NONE', #236, 39.37007874015748100 ) ;
#154 = CARTESIAN_POINT ( 'NONE',  ( 0.2500000000000000000, 0.02500000000000018200, 0.0000000000000000000 ) ) ;
#155 = AXIS2_PLACEMENT_3D ( 'NONE', #233, #828, #688 ) ;
#156 = EDGE_LOOP ( 'NONE', ( #591, #465, #488, #375, #202 ) ) ;
#157 = ORIENTED_EDGE ( 'NONE', *, *, #907, .F. ) ;
#158 = ORIENTED_EDGE ( 'NONE', *, *, #516, .T. ) ;
#159 = CARTESIAN_POINT ( 'NONE',  ( -0.2249999999999998100, 0.1060000000000000000, 0.0000000000000000000 ) ) ;
#160 = AXIS2_PLACEMENT_3D ( 'NONE', #154, #596, #452 ) ;
#161 = CARTESIAN_POINT ( 'NONE',  ( 0.3750000000000002200, -1.319000000000000000, 0.0000000000000000000 ) ) ;
#162 = CARTESIAN_POINT ( 'NONE',  ( 0.2500000000000000000, 0.1060000000000000000, 0.0000000000000000000 ) ) ;
#163 = FACE_OUTER_BOUND ( 'NONE', #944, .T. ) ;
#164 = CARTESIAN_POINT ( 'NONE',  ( 0.2750000000000001900, 0.1060000000000000000, 0.01599999999999999700 ) ) ;
#165 = CIRCLE ( 'NONE', #484, 0.02500000000000000500 ) ;
#166 = EDGE_CURVE ( 'NONE', #86, #811, #387, .T. ) ;
#167 = FACE_OUTER_BOUND ( 'NONE', #363, .T. ) ;
#168 = VERTEX_POINT ( 'NONE', #241 ) ;
#169 = CARTESIAN_POINT ( 'NONE',  ( 0.0000000000000000000, 0.1060000000000000000, 0.01599999999999999700 ) ) ;
#170 = DIRECTION ( 'NONE',  ( 1.000000000000000000, -0.0000000000000000000, -0.0000000000000000000 ) ) ;
#171 = ORIENTED_EDGE ( 'NONE', *, *, #469, .F. ) ;
#172 = CLOSED_SHELL ( 'NONE', ( #98, #269, #257, #957, #861, #503, #478, #699, #399, #572, #933, #348, #356, #290, #923, #28, #421, #952 ) ) ;
#173 = DIRECTION ( 'NONE',  ( -1.000000000000000000, 0.0000000000000000000, 0.0000000000000000000 ) ) ;
#174 = AXIS2_PLACEMENT_3D ( 'NONE', #628, #191, #37 ) ;
#175 = CARTESIAN_POINT ( 'NONE',  ( -0.2750000000000000200, 0.1060000000000000000, 0.0000000000000000000 ) ) ;
#176 = ADVANCED_FACE ( 'NONE', ( #819 ), #80, .F. ) ;
#177 = TOROIDAL_SURFACE ( 'NONE', #840, 0.08099999999999998900, 0.02500000000000000500 ) ;
#178 = CARTESIAN_POINT ( 'NONE',  ( -0.2500000000000000000, 0.1060000000000000000, 0.0000000000000000000 ) ) ;
#179 = DIRECTION ( 'NONE',  ( -1.000000000000000000, -0.0000000000000000000, -0.0000000000000000000 ) ) ;
#180 = ORIENTED_EDGE ( 'NONE', *, *, #620, .T. ) ;
#181 = MECHANICAL_DESIGN_GEOMETRIC_PRESENTATION_REPRESENTATION (  '', ( #87 ), #513 ) ;
#182 = EDGE_LOOP ( 'NONE', ( #823, #883 ) ) ;
#183 = MANIFOLD_SOLID_BREP ( 'Mirror1[2]', #331 ) ;
#184 = DIRECTION ( 'NONE',  ( 1.479340068771261700E-016, -1.000000000000000000, 0.0000000000000000000 ) ) ;
#185 = DIRECTION ( 'NONE',  ( -1.000000000000000000, -0.0000000000000000000, -0.0000000000000000000 ) ) ;
#186 = ADVANCED_FACE ( 'NONE', ( #473 ), #244, .T. ) ;
#187 = EDGE_CURVE ( 'NONE', #965, #193, #589, .T. ) ;
#188 = AXIS2_PLACEMENT_3D ( 'NONE', #366, #151, #892 ) ;
#189 = CIRCLE ( 'NONE', #174, 0.01599999999999999300 ) ;
#190 = LINE ( 'NONE', #916, #153 ) ;
#191 = DIRECTION ( 'NONE',  ( 1.000000000000000000, 0.0000000000000000000, 0.0000000000000000000 ) ) ;
#192 = DIRECTION ( 'NONE',  ( -0.0000000000000000000, 1.000000000000000000, 1.224646799147353200E-016 ) ) ;
#193 = VERTEX_POINT ( 'NONE', #759 ) ;
#194 = ORIENTED_EDGE ( 'NONE', *, *, #268, .F. ) ;
#195 = AXIS2_PLACEMENT_3D ( 'NONE', #662, #523, #744 ) ;
#196 = CARTESIAN_POINT ( 'NONE',  ( -0.2249999999999999800, 0.1060000000000000000, 0.0000000000000000000 ) ) ;
#197 = CARTESIAN_POINT ( 'NONE',  ( -0.3350000000000000200, 0.1060000000000000000, 0.01599999999999999300 ) ) ;
#198 = EDGE_CURVE ( 'NONE', #896, #501, #273, .T. ) ;
#199 = DIRECTION ( 'NONE',  ( 1.000000000000000000, -0.0000000000000000000, -0.0000000000000000000 ) ) ;
#200 = CIRCLE ( 'NONE', #941, 0.01599999999999999700 ) ;
#201 = CIRCLE ( 'NONE', #743, 0.01599999999999999300 ) ;
#202 = ORIENTED_EDGE ( 'NONE', *, *, #803, .F. ) ;
#203 = CARTESIAN_POINT ( 'NONE',  ( -0.3350000000000000200, 0.06599999999999998900, 1.959434878635764300E-018 ) ) ;
#204 = ORIENTED_EDGE ( 'NONE', *, *, #418, .T. ) ;
#205 = EDGE_CURVE ( 'NONE', #105, #25, #190, .T. ) ;
#206 = AXIS2_PLACEMENT_3D ( 'NONE', #535, #758, #391 ) ;
#207 = DIRECTION ( 'NONE',  ( 0.0000000000000000000, 0.0000000000000000000, 1.000000000000000000 ) ) ;
#208 = DIRECTION ( 'NONE',  ( -1.000000000000000000, -0.0000000000000000000, -0.0000000000000000000 ) ) ;
#209 = AXIS2_PLACEMENT_3D ( 'NONE', #524, #522, #455 ) ;
#210 = SURFACE_STYLE_FILL_AREA ( #717 ) ;
#211 = CYLINDRICAL_SURFACE ( 'NONE', #188, 0.01599999999999999700 ) ;
#212 =( LENGTH_UNIT ( ) NAMED_UNIT ( * ) SI_UNIT ( $, .METRE. ) );
#213 = CYLINDRICAL_SURFACE ( 'NONE', #546, 0.01599999999999998000 ) ;
#214 = VERTEX_POINT ( 'NONE', #6 ) ;
#215 = VERTEX_POINT ( 'NONE', #164 ) ;
#216 = EDGE_CURVE ( 'NONE', #971, #931, #248, .T. ) ;
#217 = DIRECTION ( 'NONE',  ( 1.000000000000000000, 0.0000000000000000000, 0.0000000000000000000 ) ) ;
#218 = DIRECTION ( 'NONE',  ( 2.134256245050206400E-016, 1.000000000000000000, -0.0000000000000000000 ) ) ;
#219 = APPLICATION_CONTEXT ( 'automotive_design' ) ;
#220 = UNCERTAINTY_MEASURE_WITH_UNIT (LENGTH_MEASURE( 1.000000000000000100E-005 ), #253, 'distance_accuracy_value', 'NONE');
#221 = AXIS2_PLACEMENT_3D ( 'NONE', #603, #368, #441 ) ;
#222 = CYLINDRICAL_SURFACE ( 'NONE', #67, 0.01599999999999999300 ) ;
#223 = CIRCLE ( 'NONE', #242, 0.01599999999999999300 ) ;
#224 = ORIENTED_EDGE ( 'NONE', *, *, #364, .F. ) ;
#225 = EDGE_LOOP ( 'NONE', ( #876, #487, #629, #865 ) ) ;
#226 = CARTESIAN_POINT ( 'NONE',  ( 0.3350000000000000200, 0.08999999999999999700, 1.959434878635764300E-018 ) ) ;
#227 = VERTEX_POINT ( 'NONE', #834 ) ;
#228 = AXIS2_PLACEMENT_3D ( 'NONE', #162, #905, #677 ) ;
#229 = PLANE ( 'NONE',  #160 ) ;
#230 = VECTOR ( 'NONE', #554, 39.37007874015748100 ) ;
#231 = EDGE_CURVE ( 'NONE', #296, #845, #721, .T. ) ;
#232 = CIRCLE ( 'NONE', #209, 0.01599999999999999300 ) ;
#233 = CARTESIAN_POINT ( 'NONE',  ( 0.2750000000000001900, 0.1060000000000000000, 0.0000000000000000000 ) ) ;
#234 = AXIS2_PLACEMENT_3D ( 'NONE', #295, #298, #901 ) ;
#235 = CIRCLE ( 'NONE', #563, 0.04100000000000017500 ) ;
#236 = DIRECTION ( 'NONE',  ( 1.000000000000000000, -0.0000000000000000000, -0.0000000000000000000 ) ) ;
#237 = EDGE_LOOP ( 'NONE', ( #158, #521 ) ) ;
#238 = ORIENTED_EDGE ( 'NONE', *, *, #786, .T. ) ;
#239 = CARTESIAN_POINT ( 'NONE',  ( 0.3910000000000000100, 0.06599999999999998900, 0.0000000000000000000 ) ) ;
#240 = EDGE_LOOP ( 'NONE', ( #51, #251 ) ) ;
#241 = CARTESIAN_POINT ( 'NONE',  ( 0.2500000000000000000, 0.1060000000000000000, 0.08099999999999982200 ) ) ;
#242 = AXIS2_PLACEMENT_3D ( 'NONE', #910, #536, #683 ) ;
#243 = DIRECTION ( 'NONE',  ( 0.0000000000000000000, -0.0000000000000000000, -1.000000000000000000 ) ) ;
#244 = PLANE ( 'NONE',  #376 ) ;
#245 = DIRECTION ( 'NONE',  ( 1.479340068771261700E-016, -1.000000000000000000, 0.0000000000000000000 ) ) ;
#246 = FACE_OUTER_BOUND ( 'NONE', #182, .T. ) ;
#247 = EDGE_CURVE ( 'NONE', #454, #895, #351, .T. ) ;
#248 = CIRCLE ( 'NONE', #429, 0.01599999999999999700 ) ;
#249 = CARTESIAN_POINT ( 'NONE',  ( 0.2999999999999999900, 0.1060000000000000000, 0.0000000000000000000 ) ) ;
#250 = VERTEX_POINT ( 'NONE', #864 ) ;
#251 = ORIENTED_EDGE ( 'NONE', *, *, #664, .F. ) ;
#252 = CARTESIAN_POINT ( 'NONE',  ( 0.3350000000000000200, 0.06599999999999998900, 0.0000000000000000000 ) ) ;
#253 =( CONVERSION_BASED_UNIT ( 'INCH', #622 ) LENGTH_UNIT ( ) NAMED_UNIT ( #65 ) );
#254 = EDGE_CURVE ( 'NONE', #132, #416, #330, .T. ) ;
#255 = AXIS2_PLACEMENT_3D ( 'NONE', #875, #505, #718 ) ;
#256 = DIRECTION ( 'NONE',  ( 0.0000000000000000000, -0.0000000000000000000, -1.000000000000000000 ) ) ;
#257 = ADVANCED_FACE ( 'NONE', ( #928 ), #35, .T. ) ;
#258 = CIRCLE ( 'NONE', #655, 0.02400000000000000400 ) ;
#259 = CARTESIAN_POINT ( 'NONE',  ( -0.3590000000000000400, 0.06600000000000003100, -1.959434878635783100E-018 ) ) ;
#260 = FACE_OUTER_BOUND ( 'NONE', #117, .T. ) ;
#261 = DIRECTION ( 'NONE',  ( 1.479340068771261700E-016, 1.000000000000000000, -0.0000000000000000000 ) ) ;
#262 = ORIENTED_EDGE ( 'NONE', *, *, #205, .F. ) ;
#263 = AXIS2_PLACEMENT_3D ( 'NONE', #922, #326, #929 ) ;
#264 = ORIENTED_EDGE ( 'NONE', *, *, #714, .T. ) ;
#265 = CARTESIAN_POINT ( 'NONE',  ( 0.2750000000000001900, 0.1060000000000000000, 0.0000000000000000000 ) ) ;
#266 = VERTEX_POINT ( 'NONE', #775 ) ;
#267 = DIRECTION ( 'NONE',  ( 0.0000000000000000000, 0.0000000000000000000, 1.000000000000000000 ) ) ;
#268 = EDGE_CURVE ( 'NONE', #416, #501, #319, .T. ) ;
#269 = ADVANCED_FACE ( 'NONE', ( #765 ), #685, .F. ) ;
#270 = DIRECTION ( 'NONE',  ( 0.0000000000000000000, 0.0000000000000000000, -1.000000000000000000 ) ) ;
#271 = DIRECTION ( 'NONE',  ( 0.0000000000000000000, 0.0000000000000000000, 1.000000000000000000 ) ) ;
#272 = FACE_OUTER_BOUND ( 'NONE', #237, .T. ) ;
#273 = LINE ( 'NONE', #385, #843 ) ;
#274 = DIRECTION ( 'NONE',  ( 1.000000000000000000, -0.0000000000000000000, -0.0000000000000000000 ) ) ;
#275 = ORIENTED_EDGE ( 'NONE', *, *, #516, .F. ) ;
#276 = ORIENTED_EDGE ( 'NONE', *, *, #301, .F. ) ;
#277 = ORIENTED_EDGE ( 'NONE', *, *, #47, .F. ) ;
#278 = ADVANCED_FACE ( 'NONE', ( #92 ), #213, .T. ) ;
#279 = EDGE_CURVE ( 'NONE', #605, #266, #235, .T. ) ;
#280 =( NAMED_UNIT ( * ) SI_UNIT ( $, .STERADIAN. ) SOLID_ANGLE_UNIT ( ) );
#281 = TOROIDAL_SURFACE ( 'NONE', #838, 0.03999999999999998000, 0.01599999999999999300 ) ;
#282 = DIMENSIONAL_EXPONENTS ( 1.000000000000000000, 0.0000000000000000000, 0.0000000000000000000, 0.0000000000000000000, 0.0000000000000000000, 0.0000000000000000000, 0.0000000000000000000 ) ;
#283 = ORIENTED_EDGE ( 'NONE', *, *, #316, .F. ) ;
#284 = EDGE_LOOP ( 'NONE', ( #580, #61 ) ) ;
#285 = EDGE_CURVE ( 'NONE', #900, #227, #412, .T. ) ;
#286 = ORIENTED_EDGE ( 'NONE', *, *, #490, .T. ) ;
#287 = AXIS2_PLACEMENT_3D ( 'NONE', #2, #78, #825 ) ;
#288 = CARTESIAN_POINT ( 'NONE',  ( -0.3350000000000000200, 0.06599999999999998900, 0.0000000000000000000 ) ) ;
#289 = DIRECTION ( 'NONE',  ( 0.0000000000000000000, 0.0000000000000000000, -1.000000000000000000 ) ) ;
#290 = ADVANCED_FACE ( 'NONE', ( #49 ), #403, .T. ) ;
#291 = AXIS2_PLACEMENT_3D ( 'NONE', #924, #261, #480 ) ;
#292 = VECTOR ( 'NONE', #871, 39.37007874015748100 ) ;
#293 = CIRCLE ( 'NONE', #799, 0.01599999999999999300 ) ;
#294 = MANIFOLD_SOLID_BREP ( 'Sweep1', #946 ) ;
#295 = CARTESIAN_POINT ( 'NONE',  ( 0.2999999999999999900, 0.1060000000000000000, 0.0000000000000000000 ) ) ;
#296 = VERTEX_POINT ( 'NONE', #97 ) ;
#297 = ORIENTED_EDGE ( 'NONE', *, *, #607, .T. ) ;
#298 = DIRECTION ( 'NONE',  ( 1.000000000000000000, 0.0000000000000000000, 0.0000000000000000000 ) ) ;
#299 = CARTESIAN_POINT ( 'NONE',  ( -0.3350000000000000200, 0.1060000000000000000, 0.0000000000000000000 ) ) ;
#300 = DIRECTION ( 'NONE',  ( -0.0000000000000000000, -0.0000000000000000000, -1.000000000000000000 ) ) ;
#301 = EDGE_CURVE ( 'NONE', #965, #130, #738, .T. ) ;
#302 = CIRCLE ( 'NONE', #588, 0.02500000000000000500 ) ;
#303 = CARTESIAN_POINT ( 'NONE',  ( -0.3590000000000002600, -1.319000000000000000, -1.959434878635766200E-018 ) ) ;
#304 = AXIS2_PLACEMENT_3D ( 'NONE', #494, #506, #118 ) ;
#305 = CIRCLE ( 'NONE', #122, 0.01599999999999999300 ) ;
#306 = DIRECTION ( 'NONE',  ( -1.000000000000000000, -0.0000000000000000000, -0.0000000000000000000 ) ) ;
#307 = LINE ( 'NONE', #495, #292 ) ;
#308 = ORIENTED_EDGE ( 'NONE', *, *, #607, .F. ) ;
#309 = ORIENTED_EDGE ( 'NONE', *, *, #507, .F. ) ;
#310 = DIRECTION ( 'NONE',  ( 0.0000000000000000000, 0.0000000000000000000, 1.000000000000000000 ) ) ;
#311 =( NAMED_UNIT ( * ) SI_UNIT ( $, .STERADIAN. ) SOLID_ANGLE_UNIT ( ) );
#312 = ORIENTED_EDGE ( 'NONE', *, *, #585, .F. ) ;
#313 = AXIS2_PLACEMENT_3D ( 'NONE', #493, #732, #289 ) ;
#314 = CARTESIAN_POINT ( 'NONE',  ( -0.2999999999999999900, 0.1060000000000000000, 0.0000000000000000000 ) ) ;
#315 = TOROIDAL_SURFACE ( 'NONE', #756, 0.03999999999999998000, 0.01599999999999999300 ) ;
#316 = EDGE_CURVE ( 'NONE', #193, #215, #165, .T. ) ;
#317 = FACE_BOUND ( 'NONE', #556, .T. ) ;
#318 = DIRECTION ( 'NONE',  ( 0.0000000000000000000, 0.0000000000000000000, -1.000000000000000000 ) ) ;
#319 = CIRCLE ( 'NONE', #851, 0.1060000000000000000 ) ;
#320 = CARTESIAN_POINT ( 'NONE',  ( -0.2999999999999999900, 0.1060000000000000000, 0.0000000000000000000 ) ) ;
#321 = ORIENTED_EDGE ( 'NONE', *, *, #754, .F. ) ;
#322 = ORIENTED_EDGE ( 'NONE', *, *, #301, .T. ) ;
#323 = ORIENTED_EDGE ( 'NONE', *, *, #714, .F. ) ;
#324 = AXIS2_PLACEMENT_3D ( 'NONE', #745, #526, #310 ) ;
#325 = CARTESIAN_POINT ( 'NONE',  ( -0.2999999999999999900, 0.08999999999999999700, 0.0000000000000000000 ) ) ;
#326 = DIRECTION ( 'NONE',  ( 1.000000000000000000, -0.0000000000000000000, -0.0000000000000000000 ) ) ;
#327 = DIRECTION ( 'NONE',  ( 0.0000000000000000000, 0.0000000000000000000, 1.000000000000000000 ) ) ;
#328 = CIRCLE ( 'NONE', #255, 0.01599999999999999700 ) ;
#329 = AXIS2_PLACEMENT_3D ( 'NONE', #674, #616, #547 ) ;
#330 = CIRCLE ( 'NONE', #707, 0.02500000000000000500 ) ;
#331 = CLOSED_SHELL ( 'NONE', ( #408, #950, #483, #176, #186, #853, #735, #69 ) ) ;
#332 = DIRECTION ( 'NONE',  ( -0.0000000000000000000, -0.0000000000000000000, -1.000000000000000000 ) ) ;
#333 = DIRECTION ( 'NONE',  ( 0.0000000000000000000, 0.0000000000000000000, 1.000000000000000000 ) ) ;
#334 = ORIENTED_EDGE ( 'NONE', *, *, #664, .T. ) ;
#335 = ORIENTED_EDGE ( 'NONE', *, *, #247, .F. ) ;
#336 = EDGE_CURVE ( 'NONE', #821, #801, #665, .T. ) ;
#337 = AXIS2_PLACEMENT_3D ( 'NONE', #770, #243, #173 ) ;
#338 = DIRECTION ( 'NONE',  ( 1.000000000000000000, 0.0000000000000000000, 0.0000000000000000000 ) ) ;
#339 = DIRECTION ( 'NONE',  ( -1.000000000000000000, -0.0000000000000000000, -0.0000000000000000000 ) ) ;
#340 = CYLINDRICAL_SURFACE ( 'NONE', #491, 0.01599999999999999300 ) ;
#341 = DIRECTION ( 'NONE',  ( 0.0000000000000000000, 0.0000000000000000000, -1.000000000000000000 ) ) ;
#342 = PRESENTATION_STYLE_ASSIGNMENT (( #555 ) ) ;
#343 = AXIS2_PLACEMENT_3D ( 'NONE', #371, #218, #969 ) ;
#344 = EDGE_LOOP ( 'NONE', ( #787, #53 ) ) ;
#345 = SURFACE_SIDE_STYLE ('',( #210 ) ) ;
#346 = VERTEX_POINT ( 'NONE', #948 ) ;
#347 = CARTESIAN_POINT ( 'NONE',  ( 0.2750000000000000200, 0.1060000000000000000, 0.04100000000000000200 ) ) ;
#348 = ADVANCED_FACE ( 'NONE', ( #32 ), #386, .T. ) ;
#349 = EDGE_CURVE ( 'NONE', #449, #214, #48, .T. ) ;
#350 = CIRCLE ( 'NONE', #206, 0.08099999999999982200 ) ;
#351 = CIRCLE ( 'NONE', #291, 0.01599999999999999300 ) ;
#352 = EDGE_CURVE ( 'NONE', #813, #416, #307, .T. ) ;
#353 = ORIENTED_EDGE ( 'NONE', *, *, #700, .T. ) ;
#354 =( GEOMETRIC_REPRESENTATION_CONTEXT ( 3 ) GLOBAL_UNCERTAINTY_ASSIGNED_CONTEXT ( ( #846 ) ) GLOBAL_UNIT_ASSIGNED_CONTEXT ( ( #510, #814, #280 ) ) REPRESENTATION_CONTEXT ( 'NONE', 'WORKASPACE' ) );
#355 = ORIENTED_EDGE ( 'NONE', *, *, #26, .T. ) ;
#356 = ADVANCED_FACE ( 'NONE', ( #859 ), #684, .T. ) ;
#357 = AXIS2_PLACEMENT_3D ( 'NONE', #666, #817, #753 ) ;
#358 =( NAMED_UNIT ( * ) PLANE_ANGLE_UNIT ( ) SI_UNIT ( $, .RADIAN. ) );
#359 = PRODUCT ( 'ALSR03250R0FE12', 'ALSR03250R0FE12', '', ( #144 ) ) ;
#360 = CIRCLE ( 'NONE', #804, 0.05599999999999996000 ) ;
#361 = DIRECTION ( 'NONE',  ( 1.000000000000000000, -0.0000000000000000000, -0.0000000000000000000 ) ) ;
#362 = CIRCLE ( 'NONE', #287, 0.01599999999999999700 ) ;
#363 = EDGE_LOOP ( 'NONE', ( #83, #60, #862, #224, #773 ) ) ;
#364 = EDGE_CURVE ( 'NONE', #433, #86, #104, .T. ) ;
#365 = ORIENTED_EDGE ( 'NONE', *, *, #112, .T. ) ;
#366 = CARTESIAN_POINT ( 'NONE',  ( 0.0000000000000000000, 0.1060000000000000000, 0.0000000000000000000 ) ) ;
#367 = CARTESIAN_POINT ( 'NONE',  ( -0.2750000000000001900, 0.1060000000000000000, -0.01599999999999999700 ) ) ;
#368 = DIRECTION ( 'NONE',  ( 1.000000000000000000, -0.0000000000000000000, -0.0000000000000000000 ) ) ;
#369 = CARTESIAN_POINT ( 'NONE',  ( -0.3750000000000000600, 0.06599999999999998900, 0.0000000000000000000 ) ) ;
#370 = AXIS2_PLACEMENT_3D ( 'NONE', #314, #767, #318 ) ;
#371 = CARTESIAN_POINT ( 'NONE',  ( -0.3750000000000000600, 0.06600000000000003100, 0.0000000000000000000 ) ) ;
#372 = CIRCLE ( 'NONE', #496, 0.01599999999999999700 ) ;
#373 = DIRECTION ( 'NONE',  ( 0.0000000000000000000, 0.0000000000000000000, -1.000000000000000000 ) ) ;
#374 = ORIENTED_EDGE ( 'NONE', *, *, #285, .T. ) ;
#375 = ORIENTED_EDGE ( 'NONE', *, *, #12, .F. ) ;
#376 = AXIS2_PLACEMENT_3D ( 'NONE', #919, #830, #388 ) ;
#377 = DIRECTION ( 'NONE',  ( 0.0000000000000000000, 0.0000000000000000000, 1.000000000000000000 ) ) ;
#378 = CARTESIAN_POINT ( 'NONE',  ( 0.3590000000000000400, 0.06600000000000003100, 1.959434878635783100E-018 ) ) ;
#379 = CARTESIAN_POINT ( 'NONE',  ( 0.3750000000000000600, 0.06599999999999998900, 0.0000000000000000000 ) ) ;
#380 = CARTESIAN_POINT ( 'NONE',  ( 0.3750000000000000600, 0.06600000000000003100, 0.0000000000000000000 ) ) ;
#381 = EDGE_CURVE ( 'NONE', #900, #896, #841, .T. ) ;
#382 = DIRECTION ( 'NONE',  ( 1.000000000000000000, -0.0000000000000000000, -0.0000000000000000000 ) ) ;
#383 = AXIS2_PLACEMENT_3D ( 'NONE', #249, #9, #541 ) ;
#384 = CIRCLE ( 'NONE', #370, 0.01599999999999999300 ) ;
#385 = CARTESIAN_POINT ( 'NONE',  ( 0.0000000000000000000, 0.1060000000000000000, 0.1060000000000000000 ) ) ;
#386 = TOROIDAL_SURFACE ( 'NONE', #107, 0.08099999999999998900, 0.02500000000000000500 ) ;
#387 = CIRCLE ( 'NONE', #329, 0.01599999999999999300 ) ;
#388 = DIRECTION ( 'NONE',  ( 0.0000000000000000000, 0.0000000000000000000, -1.000000000000000000 ) ) ;
#389 = ORIENTED_EDGE ( 'NONE', *, *, #94, .F. ) ;
#390 = PRESENTATION_LAYER_ASSIGNMENT (  '', '', ( #87 ) ) ;
#391 = DIRECTION ( 'NONE',  ( 0.0000000000000000000, 0.0000000000000000000, 1.000000000000000000 ) ) ;
#392 = SURFACE_STYLE_USAGE ( .BOTH. , #681 ) ;
#393 = CARTESIAN_POINT ( 'NONE',  ( -0.2999999999999999900, 0.1060000000000000000, 0.01599999999999999300 ) ) ;
#394 = UNCERTAINTY_MEASURE_WITH_UNIT (LENGTH_MEASURE( 1.000000000000000100E-005 ), #444, 'distance_accuracy_value', 'NONE');
#395 = DIRECTION ( 'NONE',  ( -1.000000000000000000, 0.0000000000000000000, 0.0000000000000000000 ) ) ;
#396 = EDGE_CURVE ( 'NONE', #435, #766, #784, .T. ) ;
#397 = LENGTH_MEASURE_WITH_UNIT ( LENGTH_MEASURE( 0.02539999999999999900 ), #578 );
#398 = DIRECTION ( 'NONE',  ( -0.0000000000000000000, -0.0000000000000000000, -1.000000000000000000 ) ) ;
#399 = ADVANCED_FACE ( 'NONE', ( #260 ), #91, .T. ) ;
#400 = ORIENTED_EDGE ( 'NONE', *, *, #549, .F. ) ;
#401 = DIRECTION ( 'NONE',  ( 1.000000000000000000, 0.0000000000000000000, 0.0000000000000000000 ) ) ;
#402 = ORIENTED_EDGE ( 'NONE', *, *, #30, .F. ) ;
#403 = PLANE ( 'NONE',  #694 ) ;
#404 = EDGE_CURVE ( 'NONE', #168, #132, #472, .T. ) ;
#405 = AXIS2_PLACEMENT_3D ( 'NONE', #618, #470, #17 ) ;
#406 = CARTESIAN_POINT ( 'NONE',  ( -0.2999999999999999900, 0.1060000000000000000, -0.01599999999999999300 ) ) ;
#407 = SURFACE_SIDE_STYLE ('',( #542 ) ) ;
#408 = ADVANCED_FACE ( 'NONE', ( #8 ), #587, .T. ) ;
#409 = LINE ( 'NONE', #879, #938 ) ;
#410 = AXIS2_PLACEMENT_3D ( 'NONE', #586, #712, #868 ) ;
#411 = FACE_OUTER_BOUND ( 'NONE', #635, .T. ) ;
#412 = CIRCLE ( 'NONE', #913, 0.08099999999999982200 ) ;
#413 = DIRECTION ( 'NONE',  ( 0.0000000000000000000, 0.0000000000000000000, 1.000000000000000000 ) ) ;
#414 = EDGE_LOOP ( 'NONE', ( #640, #849, #592, #389 ) ) ;
#415 = VERTEX_POINT ( 'NONE', #438 ) ;
#416 = VERTEX_POINT ( 'NONE', #568 ) ;
#417 = DIRECTION ( 'NONE',  ( 0.0000000000000000000, -0.0000000000000000000, -1.000000000000000000 ) ) ;
#418 = EDGE_CURVE ( 'NONE', #605, #346, #808, .T. ) ;
#419 = DIRECTION ( 'NONE',  ( -1.000000000000000000, 0.0000000000000000000, 0.0000000000000000000 ) ) ;
#420 = DIRECTION ( 'NONE',  ( -0.0000000000000000000, -0.0000000000000000000, -1.000000000000000000 ) ) ;
#421 = ADVANCED_FACE ( 'NONE', ( #317, #246 ), #229, .T. ) ;
#422 = FACE_OUTER_BOUND ( 'NONE', #425, .T. ) ;
#423 = CIRCLE ( 'NONE', #686, 0.01599999999999999300 ) ;
#424 = AXIS2_PLACEMENT_3D ( 'NONE', #590, #730, #888 ) ;
#425 = EDGE_LOOP ( 'NONE', ( #625, #52, #800, #145 ) ) ;
#426 = ORIENTED_EDGE ( 'NONE', *, *, #557, .F. ) ;
#427 = ORIENTED_EDGE ( 'NONE', *, *, #907, .T. ) ;
#428 = DIRECTION ( 'NONE',  ( 0.0000000000000000000, -1.000000000000000000, 1.224646799147353200E-016 ) ) ;
#429 = AXIS2_PLACEMENT_3D ( 'NONE', #543, #693, #267 ) ;
#430 = DIRECTION ( 'NONE',  ( -1.479340068771261700E-016, -1.000000000000000000, 0.0000000000000000000 ) ) ;
#431 = EDGE_CURVE ( 'NONE', #896, #813, #657, .T. ) ;
#432 = ORIENTED_EDGE ( 'NONE', *, *, #187, .F. ) ;
#433 = VERTEX_POINT ( 'NONE', #226 ) ;
#434 = AXIS2_PLACEMENT_3D ( 'NONE', #325, #101, #848 ) ;
#435 = VERTEX_POINT ( 'NONE', #197 ) ;
#436 = APPLICATION_CONTEXT ( 'automotive_design' ) ;
#437 = ORIENTED_EDGE ( 'NONE', *, *, #457, .F. ) ;
#438 = CARTESIAN_POINT ( 'NONE',  ( 0.3590000000000002600, -1.319000000000000000, 1.959434878635766200E-018 ) ) ;
#439 = ADVANCED_FACE ( 'NONE', ( #272 ), #973, .T. ) ;
#440 = DIRECTION ( 'NONE',  ( 0.0000000000000000000, 0.0000000000000000000, 1.000000000000000000 ) ) ;
#441 = DIRECTION ( 'NONE',  ( 0.0000000000000000000, 0.0000000000000000000, 1.000000000000000000 ) ) ;
#442 = AXIS2_PLACEMENT_3D ( 'NONE', #299, #1, #447 ) ;
#443 = DIRECTION ( 'NONE',  ( -1.000000000000000000, 0.0000000000000000000, 0.0000000000000000000 ) ) ;
#444 =( CONVERSION_BASED_UNIT ( 'INCH', #576 ) LENGTH_UNIT ( ) NAMED_UNIT ( #723 ) );
#445 = DIRECTION ( 'NONE',  ( -1.479340068771261700E-016, -1.000000000000000000, 0.0000000000000000000 ) ) ;
#446 = CIRCLE ( 'NONE', #733, 0.01599999999999999300 ) ;
#447 = DIRECTION ( 'NONE',  ( 0.0000000000000000000, 0.0000000000000000000, -1.000000000000000000 ) ) ;
#448 = LENGTH_MEASURE_WITH_UNIT ( LENGTH_MEASURE( 0.02539999999999999900 ), #459 );
#449 = VERTEX_POINT ( 'NONE', #755 ) ;
#450 = EDGE_CURVE ( 'NONE', #831, #790, #232, .T. ) ;
#451 = ORIENTED_EDGE ( 'NONE', *, *, #557, .T. ) ;
#452 = DIRECTION ( 'NONE',  ( 0.0000000000000000000, 0.0000000000000000000, -1.000000000000000000 ) ) ;
#453 = CARTESIAN_POINT ( 'NONE',  ( -0.2999999999999999900, 0.1060000000000000000, -0.01599999999999999700 ) ) ;
#454 = VERTEX_POINT ( 'NONE', #303 ) ;
#455 = DIRECTION ( 'NONE',  ( 0.0000000000000000000, 0.0000000000000000000, -1.000000000000000000 ) ) ;
#456 = CARTESIAN_POINT ( 'NONE',  ( 0.2249999999999999800, 0.1060000000000000000, 0.08099999999999998900 ) ) ;
#457 = EDGE_CURVE ( 'NONE', #821, #895, #461, .T. ) ;
#458 = PRESENTATION_LAYER_ASSIGNMENT (  '', '', ( #949 ) ) ;
#459 =( LENGTH_UNIT ( ) NAMED_UNIT ( * ) SI_UNIT ( $, .METRE. ) );
#460 = COLOUR_RGB ( '',0.5019607843137254800, 0.0000000000000000000, 0.0000000000000000000 ) ;
#461 = LINE ( 'NONE', #73, #612 ) ;
#462 = DIRECTION ( 'NONE',  ( 0.0000000000000000000, 0.0000000000000000000, -1.000000000000000000 ) ) ;
#463 = ORIENTED_EDGE ( 'NONE', *, *, #30, .T. ) ;
#464 = ORIENTED_EDGE ( 'NONE', *, *, #364, .T. ) ;
#465 = ORIENTED_EDGE ( 'NONE', *, *, #768, .T. ) ;
#466 = AXIS2_PLACEMENT_3D ( 'NONE', #748, #300, #443 ) ;
#467 = EDGE_LOOP ( 'NONE', ( #171, #489, #704, #904 ) ) ;
#468 = DIRECTION ( 'NONE',  ( 0.0000000000000000000, 0.0000000000000000000, 1.000000000000000000 ) ) ;
#469 = EDGE_CURVE ( 'NONE', #801, #454, #70, .T. ) ;
#470 = DIRECTION ( 'NONE',  ( 1.479340068771261700E-016, 1.000000000000000000, -0.0000000000000000000 ) ) ;
#471 = ADVANCED_BREP_SHAPE_REPRESENTATION ( 'ALSR03250R0FE12', ( #867, #294, #183, #559 ), #354 ) ;
#472 = CIRCLE ( 'NONE', #727, 0.08099999999999982200 ) ;
#473 = FACE_OUTER_BOUND ( 'NONE', #614, .T. ) ;
#474 = ORIENTED_EDGE ( 'NONE', *, *, #279, .T. ) ;
#475 = ORIENTED_EDGE ( 'NONE', *, *, #537, .F. ) ;
#476 = ORIENTED_EDGE ( 'NONE', *, *, #872, .F. ) ;
#477 = STYLED_ITEM ( 'NONE', ( #855 ), #471 ) ;
#478 = ADVANCED_FACE ( 'NONE', ( #881 ), #211, .T. ) ;
#479 = CARTESIAN_POINT ( 'NONE',  ( 0.2999999999999999900, 0.1060000000000000000, -0.01599999999999999300 ) ) ;
#480 = DIRECTION ( 'NONE',  ( 0.0000000000000000000, 0.0000000000000000000, -1.000000000000000000 ) ) ;
#481 = CARTESIAN_POINT ( 'NONE',  ( 0.2999999999999999900, 0.1060000000000000000, 0.01599999999999999300 ) ) ;
#482 = DIRECTION ( 'NONE',  ( -1.000000000000000000, 0.0000000000000000000, 0.0000000000000000000 ) ) ;
#483 = ADVANCED_FACE ( 'NONE', ( #961 ), #222, .T. ) ;
#484 = AXIS2_PLACEMENT_3D ( 'NONE', #347, #500, #709 ) ;
#485 = CIRCLE ( 'NONE', #878, 0.02500000000000000500 ) ;
#486 = CARTESIAN_POINT ( 'NONE',  ( 0.2249999999999999800, 0.1060000000000000100, -0.08099999999999998900 ) ) ;
#487 = ORIENTED_EDGE ( 'NONE', *, *, #254, .T. ) ;
#488 = ORIENTED_EDGE ( 'NONE', *, *, #81, .F. ) ;
#489 = ORIENTED_EDGE ( 'NONE', *, *, #336, .F. ) ;
#490 = EDGE_CURVE ( 'NONE', #95, #105, #567, .T. ) ;
#491 = AXIS2_PLACEMENT_3D ( 'NONE', #783, #338, #636 ) ;
#492 = DIRECTION ( 'NONE',  ( -1.000000000000000000, 0.0000000000000000000, 0.0000000000000000000 ) ) ;
#493 = CARTESIAN_POINT ( 'NONE',  ( 0.2999999999999999900, 0.1060000000000000000, 0.0000000000000000000 ) ) ;
#494 = CARTESIAN_POINT ( 'NONE',  ( -0.2500000000000000000, 0.02500000000000018200, 0.0000000000000000000 ) ) ;
#495 = CARTESIAN_POINT ( 'NONE',  ( 0.0000000000000000000, 0.1059999999999999700, -0.1060000000000000000 ) ) ;
#496 = AXIS2_PLACEMENT_3D ( 'NONE', #741, #76, #815 ) ;
#497 = ADVANCED_FACE ( 'NONE', ( #818 ), #672, .F. ) ;
#498 = CIRCLE ( 'NONE', #812, 0.02500000000000000500 ) ;
#499 = CARTESIAN_POINT ( 'NONE',  ( 0.2999999999999999900, 0.1060000000000000000, 0.01599999999999999700 ) ) ;
#500 = DIRECTION ( 'NONE',  ( 0.0000000000000000000, -1.000000000000000000, 0.0000000000000000000 ) ) ;
#501 = VERTEX_POINT ( 'NONE', #532 ) ;
#502 = DIRECTION ( 'NONE',  ( 0.0000000000000000000, 0.0000000000000000000, 1.000000000000000000 ) ) ;
#503 = ADVANCED_FACE ( 'NONE', ( #940 ), #736, .F. ) ;
#504 = AXIS2_PLACEMENT_3D ( 'NONE', #369, #518, #598 ) ;
#505 = DIRECTION ( 'NONE',  ( -1.000000000000000000, 0.0000000000000000000, 0.0000000000000000000 ) ) ;
#506 = DIRECTION ( 'NONE',  ( -1.000000000000000000, 0.0000000000000000000, 0.0000000000000000000 ) ) ;
#507 = EDGE_CURVE ( 'NONE', #931, #971, #362, .T. ) ;
#508 = CIRCLE ( 'NONE', #405, 0.01599999999999999300 ) ;
#509 = EDGE_LOOP ( 'NONE', ( #374, #517 ) ) ;
#510 =( CONVERSION_BASED_UNIT ( 'INCH', #90 ) LENGTH_UNIT ( ) NAMED_UNIT ( #124 ) );
#511 = ORIENTED_EDGE ( 'NONE', *, *, #134, .T. ) ;
#512 = EDGE_LOOP ( 'NONE', ( #638, #334, #131, #742, #847 ) ) ;
#513 =( GEOMETRIC_REPRESENTATION_CONTEXT ( 3 ) GLOBAL_UNCERTAINTY_ASSIGNED_CONTEXT ( ( #729 ) ) GLOBAL_UNIT_ASSIGNED_CONTEXT ( ( #3, #610, #311 ) ) REPRESENTATION_CONTEXT ( 'NONE', 'WORKASPACE' ) );
#514 = LINE ( 'NONE', #393, #128 ) ;
#515 = FILL_AREA_STYLE_COLOUR ( '', #891 ) ;
#516 = EDGE_CURVE ( 'NONE', #810, #415, #446, .T. ) ;
#517 = ORIENTED_EDGE ( 'NONE', *, *, #921, .T. ) ;
#518 = DIRECTION ( 'NONE',  ( -1.479340068771261700E-016, -1.000000000000000000, 0.0000000000000000000 ) ) ;
#519 = EDGE_LOOP ( 'NONE', ( #432, #322, #930, #283 ) ) ;
#520 = SURFACE_SIDE_STYLE ('',( #56 ) ) ;
#521 = ORIENTED_EDGE ( 'NONE', *, *, #150, .T. ) ;
#522 = DIRECTION ( 'NONE',  ( 1.000000000000000000, -0.0000000000000000000, -0.0000000000000000000 ) ) ;
#523 = DIRECTION ( 'NONE',  ( -1.000000000000000000, -0.0000000000000000000, -0.0000000000000000000 ) ) ;
#524 = CARTESIAN_POINT ( 'NONE',  ( -0.3350000000000000200, 0.1060000000000000000, 0.0000000000000000000 ) ) ;
#525 = MECHANICAL_DESIGN_GEOMETRIC_PRESENTATION_REPRESENTATION (  '', ( #477 ), #627 ) ;
#526 = DIRECTION ( 'NONE',  ( -1.000000000000000000, 0.0000000000000000000, 0.0000000000000000000 ) ) ;
#527 = LINE ( 'NONE', #479, #656 ) ;
#528 = TOROIDAL_SURFACE ( 'NONE', #466, 0.03999999999999998000, 0.01599999999999999300 ) ;
#529 = EDGE_LOOP ( 'NONE', ( #321, #93, #963, #464, #604 ) ) ;
#530 = AXIS2_PLACEMENT_3D ( 'NONE', #39, #420, #140 ) ;
#531 = ORIENTED_EDGE ( 'NONE', *, *, #381, .T. ) ;
#532 = CARTESIAN_POINT ( 'NONE',  ( 0.2249999999999998100, 0.1060000000000000000, 0.1060000000000000000 ) ) ;
#533 = FILL_AREA_STYLE ('',( #85 ) ) ;
#534 = ORIENTED_EDGE ( 'NONE', *, *, #254, .F. ) ;
#535 = CARTESIAN_POINT ( 'NONE',  ( 0.2500000000000000000, 0.1060000000000000000, 0.0000000000000000000 ) ) ;
#536 = DIRECTION ( 'NONE',  ( 1.479340068771261700E-016, -1.000000000000000000, 0.0000000000000000000 ) ) ;
#537 = EDGE_CURVE ( 'NONE', #130, #215, #645, .T. ) ;
#538 = MECHANICAL_DESIGN_GEOMETRIC_PRESENTATION_REPRESENTATION (  '', ( #949 ), #898 ) ;
#539 = CARTESIAN_POINT ( 'NONE',  ( 0.2500000000000000000, 0.1060000000000000100, -0.08099999999999982200 ) ) ;
#540 = CIRCLE ( 'NONE', #609, 0.1060000000000000000 ) ;
#541 = DIRECTION ( 'NONE',  ( 0.0000000000000000000, 0.0000000000000000000, -1.000000000000000000 ) ) ;
#542 = SURFACE_STYLE_FILL_AREA ( #550 ) ;
#543 = CARTESIAN_POINT ( 'NONE',  ( 0.2999999999999999900, 0.1060000000000000000, 0.0000000000000000000 ) ) ;
#544 = ORIENTED_EDGE ( 'NONE', *, *, #643, .T. ) ;
#545 = ORIENTED_EDGE ( 'NONE', *, *, #396, .T. ) ;
#546 = AXIS2_PLACEMENT_3D ( 'NONE', #850, #184, #103 ) ;
#547 = DIRECTION ( 'NONE',  ( 0.0000000000000000000, 0.0000000000000000000, -1.000000000000000000 ) ) ;
#548 = FILL_AREA_STYLE_COLOUR ( '', #552 ) ;
#549 = EDGE_CURVE ( 'NONE', #895, #454, #508, .T. ) ;
#550 = FILL_AREA_STYLE ('',( #548 ) ) ;
#551 = FACE_OUTER_BOUND ( 'NONE', #156, .T. ) ;
#552 = COLOUR_RGB ( '',0.7921568627450980000, 0.8196078431372548800, 0.9333333333333333500 ) ;
#553 = ORIENTED_EDGE ( 'NONE', *, *, #166, .T. ) ;
#554 = DIRECTION ( 'NONE',  ( 1.000000000000000000, 0.0000000000000000000, 0.0000000000000000000 ) ) ;
#555 = SURFACE_STYLE_USAGE ( .BOTH. , #407 ) ;
#556 = EDGE_LOOP ( 'NONE', ( #659, #660 ) ) ;
#557 = EDGE_CURVE ( 'NONE', #86, #415, #903, .T. ) ;
#558 = VERTEX_POINT ( 'NONE', #15 ) ;
#559 = AXIS2_PLACEMENT_3D ( 'NONE', #882, #440, #138 ) ;
#560 = CARTESIAN_POINT ( 'NONE',  ( 0.3350000000000000200, 0.1060000000000000000, 0.0000000000000000000 ) ) ;
#561 =( LENGTH_UNIT ( ) NAMED_UNIT ( * ) SI_UNIT ( $, .METRE. ) );
#562 = DIRECTION ( 'NONE',  ( -1.000000000000000000, -0.0000000000000000000, -0.0000000000000000000 ) ) ;
#563 = AXIS2_PLACEMENT_3D ( 'NONE', #771, #482, #856 ) ;
#564 = ADVANCED_FACE ( 'NONE', ( #411 ), #142, .T. ) ;
#565 = CIRCLE ( 'NONE', #909, 0.04100000000000017500 ) ;
#566 = DIRECTION ( 'NONE',  ( -1.000000000000000000, 0.0000000000000000000, 0.0000000000000000000 ) ) ;
#567 = CIRCLE ( 'NONE', #324, 0.01599999999999999700 ) ;
#568 = CARTESIAN_POINT ( 'NONE',  ( 0.2249999999999998100, 0.1059999999999999700, -0.1060000000000000000 ) ) ;
#569 = FACE_OUTER_BOUND ( 'NONE', #467, .T. ) ;
#570 = CARTESIAN_POINT ( 'NONE',  ( 0.3350000000000000200, 0.1060000000000000000, 0.0000000000000000000 ) ) ;
#571 = EDGE_LOOP ( 'NONE', ( #675, #427, #21, #715 ) ) ;
#572 = ADVANCED_FACE ( 'NONE', ( #917 ), #763, .F. ) ;
#573 = EDGE_CURVE ( 'NONE', #296, #435, #514, .T. ) ;
#574 = CARTESIAN_POINT ( 'NONE',  ( -0.3350000000000000200, 0.1060000000000000000, 0.0000000000000000000 ) ) ;
#575 = CARTESIAN_POINT ( 'NONE',  ( -0.2500000000000000000, 0.1060000000000000000, 0.0000000000000000000 ) ) ;
#576 = LENGTH_MEASURE_WITH_UNIT ( LENGTH_MEASURE( 0.02539999999999999900 ), #212 );
#577 = AXIS2_PLACEMENT_3D ( 'NONE', #966, #208, #737 ) ;
#578 =( LENGTH_UNIT ( ) NAMED_UNIT ( * ) SI_UNIT ( $, .METRE. ) );
#579 = ORIENTED_EDGE ( 'NONE', *, *, #639, .F. ) ;
#580 = ORIENTED_EDGE ( 'NONE', *, *, #639, .T. ) ;
#581 = ORIENTED_EDGE ( 'NONE', *, *, #431, .T. ) ;
#582 = CARTESIAN_POINT ( 'NONE',  ( 0.0000000000000000000, 0.1060000000000000000, 0.0000000000000000000 ) ) ;
#583 = AXIS2_PLACEMENT_3D ( 'NONE', #877, #62, #271 ) ;
#584 = CIRCLE ( 'NONE', #337, 0.05599999999999996000 ) ;
#585 = EDGE_CURVE ( 'NONE', #193, #965, #710, .T. ) ;
#586 = CARTESIAN_POINT ( 'NONE',  ( -0.2249999999999999800, 0.1060000000000000000, 0.08099999999999998900 ) ) ;
#587 = TOROIDAL_SURFACE ( 'NONE', #4, 0.03999999999999998000, 0.01599999999999999300 ) ;
#588 = AXIS2_PLACEMENT_3D ( 'NONE', #894, #136, #728 ) ;
#589 = CIRCLE ( 'NONE', #228, 0.04100000000000017500 ) ;
#590 = CARTESIAN_POINT ( 'NONE',  ( 0.0000000000000000000, 0.1060000000000000000, 0.0000000000000000000 ) ) ;
#591 = ORIENTED_EDGE ( 'NONE', *, *, #349, .T. ) ;
#592 = ORIENTED_EDGE ( 'NONE', *, *, #700, .F. ) ;
#593 = CARTESIAN_POINT ( 'NONE',  ( -0.3750000000000000600, 0.06600000000000003100, 0.0000000000000000000 ) ) ;
#594 = DIRECTION ( 'NONE',  ( 0.0000000000000000000, 0.0000000000000000000, 1.000000000000000000 ) ) ;
#595 =( NAMED_UNIT ( * ) SI_UNIT ( $, .STERADIAN. ) SOLID_ANGLE_UNIT ( ) );
#596 = DIRECTION ( 'NONE',  ( 1.000000000000000000, 0.0000000000000000000, 0.0000000000000000000 ) ) ;
#597 = STYLED_ITEM ( 'NONE', ( #342 ), #294 ) ;
#598 = DIRECTION ( 'NONE',  ( -1.000000000000000000, 0.0000000000000000000, 0.0000000000000000000 ) ) ;
#599 = CARTESIAN_POINT ( 'NONE',  ( 0.3750000000000002200, -1.319000000000000000, 0.0000000000000000000 ) ) ;
#600 = DIRECTION ( 'NONE',  ( 0.0000000000000000000, 0.0000000000000000000, -1.000000000000000000 ) ) ;
#601 = AXIS2_PLACEMENT_3D ( 'NONE', #320, #757, #619 ) ;
#602 = COLOUR_RGB ( '',0.7921568627450980000, 0.8196078431372548800, 0.9333333333333333500 ) ;
#603 = CARTESIAN_POINT ( 'NONE',  ( -0.2750000000000000200, 0.1060000000000000000, 0.0000000000000000000 ) ) ;
#604 = ORIENTED_EDGE ( 'NONE', *, *, #112, .F. ) ;
#605 = VERTEX_POINT ( 'NONE', #615 ) ;
#606 = DIRECTION ( 'NONE',  ( 0.0000000000000000000, 0.0000000000000000000, -1.000000000000000000 ) ) ;
#607 = EDGE_CURVE ( 'NONE', #821, #790, #584, .T. ) ;
#608 = CARTESIAN_POINT ( 'NONE',  ( -0.2999999999999999900, 0.1060000000000000000, 0.0000000000000000000 ) ) ;
#609 = AXIS2_PLACEMENT_3D ( 'NONE', #679, #88, #764 ) ;
#610 =( NAMED_UNIT ( * ) PLANE_ANGLE_UNIT ( ) SI_UNIT ( $, .RADIAN. ) );
#611 = FACE_OUTER_BOUND ( 'NONE', #529, .T. ) ;
#612 = VECTOR ( 'NONE', #445, 39.37007874015748100 ) ;
#613 = AXIS2_PLACEMENT_3D ( 'NONE', #599, #970, #968 ) ;
#614 = EDGE_LOOP ( 'NONE', ( #400, #335 ) ) ;
#615 = CARTESIAN_POINT ( 'NONE',  ( -0.2500000000000000000, 0.1060000000000000000, 0.04100000000000009200 ) ) ;
#616 = DIRECTION ( 'NONE',  ( 2.134256245050206400E-016, -1.000000000000000000, 0.0000000000000000000 ) ) ;
#617 = ORIENTED_EDGE ( 'NONE', *, *, #352, .F. ) ;
#618 = CARTESIAN_POINT ( 'NONE',  ( -0.3750000000000002200, -1.319000000000000000, 0.0000000000000000000 ) ) ;
#619 = DIRECTION ( 'NONE',  ( 0.0000000000000000000, 0.0000000000000000000, -1.000000000000000000 ) ) ;
#620 = EDGE_CURVE ( 'NONE', #501, #416, #540, .T. ) ;
#621 = CARTESIAN_POINT ( 'NONE',  ( 0.3590000000000000400, 0.06599999999999998900, 1.959434878635764300E-018 ) ) ;
#622 = LENGTH_MEASURE_WITH_UNIT ( LENGTH_MEASURE( 0.02539999999999999900 ), #561 );
#623 = DIRECTION ( 'NONE',  ( 1.479340068771261700E-016, -1.000000000000000000, 0.0000000000000000000 ) ) ;
#624 = PRESENTATION_STYLE_ASSIGNMENT (( #392 ) ) ;
#625 = ORIENTED_EDGE ( 'NONE', *, *, #889, .F. ) ;
#626 = ORIENTED_EDGE ( 'NONE', *, *, #150, .F. ) ;
#627 =( GEOMETRIC_REPRESENTATION_CONTEXT ( 3 ) GLOBAL_UNCERTAINTY_ASSIGNED_CONTEXT ( ( #394 ) ) GLOBAL_UNIT_ASSIGNED_CONTEXT ( ( #444, #358, #595 ) ) REPRESENTATION_CONTEXT ( 'NONE', 'WORKASPACE' ) );
#628 = CARTESIAN_POINT ( 'NONE',  ( 0.2999999999999999900, 0.1060000000000000000, 0.0000000000000000000 ) ) ;
#629 = ORIENTED_EDGE ( 'NONE', *, *, #620, .F. ) ;
#630 = CARTESIAN_POINT ( 'NONE',  ( -0.3350000000000000200, 0.06599999999999998900, 0.0000000000000000000 ) ) ;
#631 = AXIS2_PLACEMENT_3D ( 'NONE', #574, #361, #115 ) ;
#632 = ADVANCED_FACE ( 'NONE', ( #551 ), #139, .T. ) ;
#633 = DIRECTION ( 'NONE',  ( 1.000000000000000000, 0.0000000000000000000, 0.0000000000000000000 ) ) ;
#634 = FACE_OUTER_BOUND ( 'NONE', #509, .T. ) ;
#635 = EDGE_LOOP ( 'NONE', ( #426, #553, #96, #626 ) ) ;
#636 = DIRECTION ( 'NONE',  ( 0.0000000000000000000, 0.0000000000000000000, -1.000000000000000000 ) ) ;
#637 = DIRECTION ( 'NONE',  ( -0.0000000000000000000, 1.000000000000000000, 1.224646799147353200E-016 ) ) ;
#638 = ORIENTED_EDGE ( 'NONE', *, *, #768, .F. ) ;
#639 = EDGE_CURVE ( 'NONE', #845, #296, #384, .T. ) ;
#640 = ORIENTED_EDGE ( 'NONE', *, *, #507, .T. ) ;
#641 = DIRECTION ( 'NONE',  ( 1.000000000000000000, 0.0000000000000000000, 0.0000000000000000000 ) ) ;
#642 = CARTESIAN_POINT ( 'NONE',  ( 0.3350000000000000200, 0.1060000000000000000, 0.0000000000000000000 ) ) ;
#643 = EDGE_CURVE ( 'NONE', #132, #168, #350, .T. ) ;
#644 = DIRECTION ( 'NONE',  ( -1.000000000000000000, 0.0000000000000000000, 0.0000000000000000000 ) ) ;
#645 = CIRCLE ( 'NONE', #155, 0.01599999999999999700 ) ;
#646 = DIRECTION ( 'NONE',  ( 0.0000000000000000000, 0.0000000000000000000, 1.000000000000000000 ) ) ;
#647 = DIMENSIONAL_EXPONENTS ( 1.000000000000000000, 0.0000000000000000000, 0.0000000000000000000, 0.0000000000000000000, 0.0000000000000000000, 0.0000000000000000000, 0.0000000000000000000 ) ;
#648 = VECTOR ( 'NONE', #306, 39.37007874015748100 ) ;
#649 = ORIENTED_EDGE ( 'NONE', *, *, #858, .F. ) ;
#650 = CARTESIAN_POINT ( 'NONE',  ( -0.2500000000000000000, 0.1060000000000000000, 0.08099999999999982200 ) ) ;
#651 = ORIENTED_EDGE ( 'NONE', *, *, #205, .T. ) ;
#652 = ORIENTED_EDGE ( 'NONE', *, *, #431, .F. ) ;
#653 = DIRECTION ( 'NONE',  ( -1.000000000000000000, -0.0000000000000000000, -0.0000000000000000000 ) ) ;
#654 = EDGE_CURVE ( 'NONE', #811, #810, #734, .T. ) ;
#655 = AXIS2_PLACEMENT_3D ( 'NONE', #203, #791, #419 ) ;
#656 = VECTOR ( 'NONE', #641, 39.37007874015748100 ) ;
#657 = CIRCLE ( 'NONE', #41, 0.1060000000000000000 ) ;
#658 = EDGE_LOOP ( 'NONE', ( #649, #13, #24, #475 ) ) ;
#659 = ORIENTED_EDGE ( 'NONE', *, *, #585, .T. ) ;
#660 = ORIENTED_EDGE ( 'NONE', *, *, #187, .T. ) ;
#661 = DIRECTION ( 'NONE',  ( 0.0000000000000000000, 0.0000000000000000000, 1.000000000000000000 ) ) ;
#662 = CARTESIAN_POINT ( 'NONE',  ( 0.2750000000000000200, 0.1060000000000000000, 0.0000000000000000000 ) ) ;
#663 = APPLICATION_PROTOCOL_DEFINITION ( 'draft international standard', 'automotive_design', 1998, #436 ) ;
#664 = EDGE_CURVE ( 'NONE', #214, #449, #189, .T. ) ;
#665 = CIRCLE ( 'NONE', #780, 0.01599999999999999300 ) ;
#666 = CARTESIAN_POINT ( 'NONE',  ( 0.3350000000000000200, 0.1060000000000000000, 0.0000000000000000000 ) ) ;
#667 = ORIENTED_EDGE ( 'NONE', *, *, #836, .F. ) ;
#668 = CARTESIAN_POINT ( 'NONE',  ( -0.2999999999999999900, 0.1060000000000000000, 0.01599999999999999700 ) ) ;
#669 = DIRECTION ( 'NONE',  ( 0.0000000000000000000, 1.000000000000000000, -0.0000000000000000000 ) ) ;
#670 = AXIS2_PLACEMENT_3D ( 'NONE', #642, #794, #125 ) ;
#671 = FACE_OUTER_BOUND ( 'NONE', #658, .T. ) ;
#672 = PLANE ( 'NONE',  #234 ) ;
#673 = EDGE_LOOP ( 'NONE', ( #286, #463 ) ) ;
#674 = CARTESIAN_POINT ( 'NONE',  ( 0.3750000000000000600, 0.06600000000000003100, 0.0000000000000000000 ) ) ;
#675 = ORIENTED_EDGE ( 'NONE', *, *, #921, .F. ) ;
#676 = ORIENTED_EDGE ( 'NONE', *, *, #450, .T. ) ;
#677 = DIRECTION ( 'NONE',  ( 0.0000000000000000000, 0.0000000000000000000, 1.000000000000000000 ) ) ;
#678 = EDGE_CURVE ( 'NONE', #95, #346, #795, .T. ) ;
#679 = CARTESIAN_POINT ( 'NONE',  ( 0.2249999999999998100, 0.1060000000000000000, 0.0000000000000000000 ) ) ;
#680 = AXIS2_PLACEMENT_3D ( 'NONE', #379, #245, #914 ) ;
#681 = SURFACE_SIDE_STYLE ('',( #873 ) ) ;
#682 = CARTESIAN_POINT ( 'NONE',  ( 0.2500000000000000000, 0.1060000000000000000, 0.0000000000000000000 ) ) ;
#683 = DIRECTION ( 'NONE',  ( 0.0000000000000000000, 0.0000000000000000000, -1.000000000000000000 ) ) ;
#684 = CYLINDRICAL_SURFACE ( 'NONE', #583, 0.1060000000000000000 ) ;
#685 = TOROIDAL_SURFACE ( 'NONE', #75, 0.04100000000000000200, 0.02500000000000000500 ) ;
#686 = AXIS2_PLACEMENT_3D ( 'NONE', #570, #899, #600 ) ;
#687 = EDGE_LOOP ( 'NONE', ( #617, #652, #146, #180 ) ) ;
#688 = DIRECTION ( 'NONE',  ( 0.0000000000000000000, 0.0000000000000000000, 1.000000000000000000 ) ) ;
#689 = CARTESIAN_POINT ( 'NONE',  ( 0.2750000000000001900, 0.1060000000000000000, -0.01599999999999999700 ) ) ;
#690 = ORIENTED_EDGE ( 'NONE', *, *, #786, .F. ) ;
#691 = ORIENTED_EDGE ( 'NONE', *, *, #63, .T. ) ;
#692 = DIRECTION ( 'NONE',  ( -1.000000000000000000, 0.0000000000000000000, 0.0000000000000000000 ) ) ;
#693 = DIRECTION ( 'NONE',  ( -1.000000000000000000, -0.0000000000000000000, -0.0000000000000000000 ) ) ;
#694 = AXIS2_PLACEMENT_3D ( 'NONE', #29, #785, #18 ) ;
#695 = ADVANCED_FACE ( 'NONE', ( #611 ), #315, .T. ) ;
#696 = CARTESIAN_POINT ( 'NONE',  ( -0.3350000000000000200, 0.1219999999999999800, 0.0000000000000000000 ) ) ;
#697 = VECTOR ( 'NONE', #769, 39.37007874015748100 ) ;
#698 =( NAMED_UNIT ( * ) PLANE_ANGLE_UNIT ( ) SI_UNIT ( $, .RADIAN. ) );
#699 = ADVANCED_FACE ( 'NONE', ( #113 ), #774, .T. ) ;
#700 = EDGE_CURVE ( 'NONE', #215, #130, #960, .T. ) ;
#701 = ORIENTED_EDGE ( 'NONE', *, *, #216, .F. ) ;
#702 = PRESENTATION_LAYER_ASSIGNMENT (  '', '', ( #477 ) ) ;
#703 = DIRECTION ( 'NONE',  ( -1.000000000000000000, 0.0000000000000000000, 0.0000000000000000000 ) ) ;
#704 = ORIENTED_EDGE ( 'NONE', *, *, #457, .T. ) ;
#705 = CARTESIAN_POINT ( 'NONE',  ( -0.2750000000000001900, 0.1060000000000000000, 0.0000000000000000000 ) ) ;
#706 = CARTESIAN_POINT ( 'NONE',  ( 0.2750000000000000200, 0.1060000000000000000, 0.0000000000000000000 ) ) ;
#707 = AXIS2_PLACEMENT_3D ( 'NONE', #486, #637, #100 ) ;
#708 = DIRECTION ( 'NONE',  ( -1.000000000000000000, 0.0000000000000000000, 0.0000000000000000000 ) ) ;
#709 = DIRECTION ( 'NONE',  ( 0.0000000000000000000, 0.0000000000000000000, -1.000000000000000000 ) ) ;
#710 = CIRCLE ( 'NONE', #788, 0.04100000000000017500 ) ;
#711 = CARTESIAN_POINT ( 'NONE',  ( -0.2249999999999998100, 0.1060000000000000000, 0.1060000000000000000 ) ) ;
#712 = DIRECTION ( 'NONE',  ( 0.0000000000000000000, 1.000000000000000000, -0.0000000000000000000 ) ) ;
#713 = ORIENTED_EDGE ( 'NONE', *, *, #396, .F. ) ;
#714 = EDGE_CURVE ( 'NONE', #845, #831, #857, .T. ) ;
#715 = ORIENTED_EDGE ( 'NONE', *, *, #381, .F. ) ;
#716 = ORIENTED_EDGE ( 'NONE', *, *, #678, .F. ) ;
#717 = FILL_AREA_STYLE ('',( #789 ) ) ;
#718 = DIRECTION ( 'NONE',  ( 0.0000000000000000000, 0.0000000000000000000, 1.000000000000000000 ) ) ;
#719 = AXIS2_PLACEMENT_3D ( 'NONE', #123, #55, #207 ) ;
#720 = FACE_OUTER_BOUND ( 'NONE', #512, .T. ) ;
#721 = CIRCLE ( 'NONE', #263, 0.01599999999999999300 ) ;
#722 = EDGE_LOOP ( 'NONE', ( #308, #918, #740, #713, #751 ) ) ;
#723 = DIMENSIONAL_EXPONENTS ( 1.000000000000000000, 0.0000000000000000000, 0.0000000000000000000, 0.0000000000000000000, 0.0000000000000000000, 0.0000000000000000000, 0.0000000000000000000 ) ;
#724 = DIRECTION ( 'NONE',  ( 0.0000000000000000000, 0.0000000000000000000, 1.000000000000000000 ) ) ;
#725 = EDGE_LOOP ( 'NONE', ( #309, #701 ) ) ;
#726 = ORIENTED_EDGE ( 'NONE', *, *, #134, .F. ) ;
#727 = AXIS2_PLACEMENT_3D ( 'NONE', #111, #120, #646 ) ;
#728 = DIRECTION ( 'NONE',  ( 0.0000000000000000000, 0.0000000000000000000, -1.000000000000000000 ) ) ;
#729 = UNCERTAINTY_MEASURE_WITH_UNIT (LENGTH_MEASURE( 1.000000000000000100E-005 ), #3, 'distance_accuracy_value', 'NONE');
#730 = DIRECTION ( 'NONE',  ( 1.000000000000000000, -0.0000000000000000000, -0.0000000000000000000 ) ) ;
#731 = EDGE_CURVE ( 'NONE', #266, #605, #565, .T. ) ;
#732 = DIRECTION ( 'NONE',  ( 1.000000000000000000, 0.0000000000000000000, 0.0000000000000000000 ) ) ;
#733 = AXIS2_PLACEMENT_3D ( 'NONE', #161, #623, #462 ) ;
#734 = LINE ( 'NONE', #239, #152 ) ;
#735 = ADVANCED_FACE ( 'NONE', ( #926 ), #281, .T. ) ;
#736 = TOROIDAL_SURFACE ( 'NONE', #221, 0.04100000000000000200, 0.02500000000000000500 ) ;
#737 = DIRECTION ( 'NONE',  ( 0.0000000000000000000, 0.0000000000000000000, 1.000000000000000000 ) ) ;
#738 = CIRCLE ( 'NONE', #953, 0.02500000000000000500 ) ;
#739 = DIRECTION ( 'NONE',  ( 0.0000000000000000000, 0.0000000000000000000, 1.000000000000000000 ) ) ;
#740 = ORIENTED_EDGE ( 'NONE', *, *, #872, .T. ) ;
#741 = CARTESIAN_POINT ( 'NONE',  ( -0.2999999999999999900, 0.1060000000000000000, 0.0000000000000000000 ) ) ;
#742 = ORIENTED_EDGE ( 'NONE', *, *, #816, .F. ) ;
#743 = AXIS2_PLACEMENT_3D ( 'NONE', #839, #170, #16 ) ;
#744 = DIRECTION ( 'NONE',  ( 0.0000000000000000000, 0.0000000000000000000, 1.000000000000000000 ) ) ;
#745 = CARTESIAN_POINT ( 'NONE',  ( -0.2999999999999999900, 0.1060000000000000000, 0.0000000000000000000 ) ) ;
#746 = PRESENTATION_LAYER_ASSIGNMENT (  '', '', ( #597 ) ) ;
#747 = CYLINDRICAL_SURFACE ( 'NONE', #14, 0.01599999999999999300 ) ;
#748 = CARTESIAN_POINT ( 'NONE',  ( 0.3350000000000000200, 0.06599999999999998900, 0.0000000000000000000 ) ) ;
#749 = TOROIDAL_SURFACE ( 'NONE', #126, 0.08099999999999998900, 0.02500000000000000500 ) ;
#750 = ORIENTED_EDGE ( 'NONE', *, *, #418, .F. ) ;
#751 = ORIENTED_EDGE ( 'NONE', *, *, #26, .F. ) ;
#752 = DIRECTION ( 'NONE',  ( -1.000000000000000000, 0.0000000000000000000, 0.0000000000000000000 ) ) ;
#753 = DIRECTION ( 'NONE',  ( 0.0000000000000000000, 0.0000000000000000000, -1.000000000000000000 ) ) ;
#754 = EDGE_CURVE ( 'NONE', #119, #811, #360, .T. ) ;
#755 = CARTESIAN_POINT ( 'NONE',  ( 0.2999999999999999900, 0.1060000000000000000, -0.01599999999999999300 ) ) ;
#756 = AXIS2_PLACEMENT_3D ( 'NONE', #5, #332, #703 ) ;
#757 = DIRECTION ( 'NONE',  ( -1.000000000000000000, 0.0000000000000000000, 0.0000000000000000000 ) ) ;
#758 = DIRECTION ( 'NONE',  ( -1.000000000000000000, -0.0000000000000000000, -0.0000000000000000000 ) ) ;
#759 = CARTESIAN_POINT ( 'NONE',  ( 0.2500000000000000000, 0.1060000000000000000, 0.04100000000000009200 ) ) ;
#760 = PRODUCT_DEFINITION_SHAPE ( 'NONE', 'NONE',  #925 ) ;
#761 = VECTOR ( 'NONE', #492, 39.37007874015748100 ) ;
#762 = EDGE_CURVE ( 'NONE', #250, #433, #305, .T. ) ;
#763 = TOROIDAL_SURFACE ( 'NONE', #135, 0.04100000000000000200, 0.02500000000000000500 ) ;
#764 = DIRECTION ( 'NONE',  ( 0.0000000000000000000, 0.0000000000000000000, 1.000000000000000000 ) ) ;
#765 = FACE_OUTER_BOUND ( 'NONE', #519, .T. ) ;
#766 = VERTEX_POINT ( 'NONE', #927 ) ;
#767 = DIRECTION ( 'NONE',  ( 1.000000000000000000, -0.0000000000000000000, -0.0000000000000000000 ) ) ;
#768 = EDGE_CURVE ( 'NONE', #214, #250, #807, .T. ) ;
#769 = DIRECTION ( 'NONE',  ( 1.479340068771261700E-016, -1.000000000000000000, 0.0000000000000000000 ) ) ;
#770 = CARTESIAN_POINT ( 'NONE',  ( -0.3350000000000000200, 0.06599999999999998900, 0.0000000000000000000 ) ) ;
#771 = CARTESIAN_POINT ( 'NONE',  ( -0.2500000000000000000, 0.1060000000000000000, 0.0000000000000000000 ) ) ;
#772 = AXIS2_PLACEMENT_3D ( 'NONE', #575, #644, #955 ) ;
#773 = ORIENTED_EDGE ( 'NONE', *, *, #816, .T. ) ;
#774 = PLANE ( 'NONE',  #434 ) ;
#775 = CARTESIAN_POINT ( 'NONE',  ( -0.2500000000000000000, 0.1060000000000000000, -0.04100000000000009200 ) ) ;
#776 = ORIENTED_EDGE ( 'NONE', *, *, #469, .T. ) ;
#777 = ORIENTED_EDGE ( 'NONE', *, *, #678, .T. ) ;
#778 = CARTESIAN_POINT ( 'NONE',  ( -0.3350000000000000200, 0.1060000000000000000, -0.01599999999999999300 ) ) ;
#779 = CARTESIAN_POINT ( 'NONE',  ( 0.0000000000000000000, 0.1060000000000000000, 0.0000000000000000000 ) ) ;
#780 = AXIS2_PLACEMENT_3D ( 'NONE', #593, #137, #341 ) ;
#781 = CARTESIAN_POINT ( 'NONE',  ( -0.2249999999999998100, 0.1059999999999999700, -0.1060000000000000000 ) ) ;
#782 = CYLINDRICAL_SURFACE ( 'NONE', #890, 0.01599999999999999700 ) ;
#783 = CARTESIAN_POINT ( 'NONE',  ( 0.2999999999999999900, 0.1060000000000000000, 0.0000000000000000000 ) ) ;
#784 = CIRCLE ( 'NONE', #631, 0.01599999999999999300 ) ;
#785 = DIRECTION ( 'NONE',  ( 1.000000000000000000, 0.0000000000000000000, 0.0000000000000000000 ) ) ;
#786 = EDGE_CURVE ( 'NONE', #25, #346, #200, .T. ) ;
#787 = ORIENTED_EDGE ( 'NONE', *, *, #279, .F. ) ;
#788 = AXIS2_PLACEMENT_3D ( 'NONE', #682, #842, #837 ) ;
#789 = FILL_AREA_STYLE_COLOUR ( '', #460 ) ;
#790 = VERTEX_POINT ( 'NONE', #696 ) ;
#791 = DIRECTION ( 'NONE',  ( 0.0000000000000000000, -0.0000000000000000000, -1.000000000000000000 ) ) ;
#792 = ADVANCED_FACE ( 'NONE', ( #720 ), #340, .T. ) ;
#793 = AXIS2_PLACEMENT_3D ( 'NONE', #265, #562, #413 ) ;
#794 = DIRECTION ( 'NONE',  ( 1.000000000000000000, 0.0000000000000000000, 0.0000000000000000000 ) ) ;
#795 = LINE ( 'NONE', #169, #79 ) ;
#796 = TOROIDAL_SURFACE ( 'NONE', #195, 0.04100000000000000200, 0.02500000000000000500 ) ;
#797 =( NAMED_UNIT ( * ) PLANE_ANGLE_UNIT ( ) SI_UNIT ( $, .RADIAN. ) );
#798 = ORIENTED_EDGE ( 'NONE', *, *, #316, .T. ) ;
#799 = AXIS2_PLACEMENT_3D ( 'NONE', #380, #844, #89 ) ;
#800 = ORIENTED_EDGE ( 'NONE', *, *, #268, .T. ) ;
#801 = VERTEX_POINT ( 'NONE', #259 ) ;
#802 = CARTESIAN_POINT ( 'NONE',  ( -0.2249999999999999800, 0.1059999999999999700, -0.08099999999999998900 ) ) ;
#803 = EDGE_CURVE ( 'NONE', #449, #558, #527, .T. ) ;
#804 = AXIS2_PLACEMENT_3D ( 'NONE', #252, #398, #708 ) ;
#805 = PRODUCT_DEFINITION_CONTEXT ( 'detailed design', #436, 'design' ) ;
#806 = DIRECTION ( 'NONE',  ( -1.000000000000000000, 0.0000000000000000000, 0.0000000000000000000 ) ) ;
#807 = LINE ( 'NONE', #481, #230 ) ;
#808 = CIRCLE ( 'NONE', #827, 0.02500000000000000500 ) ;
#809 = FACE_OUTER_BOUND ( 'NONE', #832, .T. ) ;
#810 = VERTEX_POINT ( 'NONE', #22 ) ;
#811 = VERTEX_POINT ( 'NONE', #854 ) ;
#812 = AXIS2_PLACEMENT_3D ( 'NONE', #456, #148, #606 ) ;
#813 = VERTEX_POINT ( 'NONE', #781 ) ;
#814 =( NAMED_UNIT ( * ) PLANE_ANGLE_UNIT ( ) SI_UNIT ( $, .RADIAN. ) );
#815 = DIRECTION ( 'NONE',  ( 0.0000000000000000000, 0.0000000000000000000, 1.000000000000000000 ) ) ;
#816 = EDGE_CURVE ( 'NONE', #433, #558, #19, .T. ) ;
#817 = DIRECTION ( 'NONE',  ( 1.000000000000000000, 0.0000000000000000000, 0.0000000000000000000 ) ) ;
#818 = FACE_OUTER_BOUND ( 'NONE', #240, .T. ) ;
#819 = FACE_OUTER_BOUND ( 'NONE', #284, .T. ) ;
#820 = CARTESIAN_POINT ( 'NONE',  ( -0.2750000000000000200, 0.1060000000000000000, 0.04100000000000000200 ) ) ;
#821 = VERTEX_POINT ( 'NONE', #936 ) ;
#822 = CARTESIAN_POINT ( 'NONE',  ( 0.0000000000000000000, 0.1060000000000000000, 0.01599999999999999700 ) ) ;
#823 = ORIENTED_EDGE ( 'NONE', *, *, #404, .F. ) ;
#824 = ORIENTED_EDGE ( 'NONE', *, *, #836, .T. ) ;
#825 = DIRECTION ( 'NONE',  ( 0.0000000000000000000, 0.0000000000000000000, 1.000000000000000000 ) ) ;
#826 = DIRECTION ( 'NONE',  ( 0.0000000000000000000, 0.0000000000000000000, 1.000000000000000000 ) ) ;
#827 = AXIS2_PLACEMENT_3D ( 'NONE', #820, #669, #826 ) ;
#828 = DIRECTION ( 'NONE',  ( -1.000000000000000000, -0.0000000000000000000, -0.0000000000000000000 ) ) ;
#829 = CIRCLE ( 'NONE', #772, 0.08099999999999982200 ) ;
#830 = DIRECTION ( 'NONE',  ( -1.479340068771261700E-016, -1.000000000000000000, -0.0000000000000000000 ) ) ;
#831 = VERTEX_POINT ( 'NONE', #778 ) ;
#832 = EDGE_LOOP ( 'NONE', ( #276, #312, #798, #353 ) ) ;
#833 = DIRECTION ( 'NONE',  ( 1.479340068771261700E-016, -1.000000000000000000, 0.0000000000000000000 ) ) ;
#834 = CARTESIAN_POINT ( 'NONE',  ( -0.2500000000000000000, 0.1059999999999999700, -0.08099999999999982200 ) ) ;
#835 = EDGE_LOOP ( 'NONE', ( #157, #11, #531, #581 ) ) ;
#836 = EDGE_CURVE ( 'NONE', #346, #25, #328, .T. ) ;
#837 = DIRECTION ( 'NONE',  ( 0.0000000000000000000, 0.0000000000000000000, 1.000000000000000000 ) ) ;
#838 = AXIS2_PLACEMENT_3D ( 'NONE', #630, #256, #401 ) ;
#839 = CARTESIAN_POINT ( 'NONE',  ( -0.3350000000000000200, 0.1060000000000000000, 0.0000000000000000000 ) ) ;
#840 = AXIS2_PLACEMENT_3D ( 'NONE', #951, #199, #502 ) ;
#841 = CIRCLE ( 'NONE', #410, 0.02500000000000000500 ) ;
#842 = DIRECTION ( 'NONE',  ( -1.000000000000000000, -0.0000000000000000000, -0.0000000000000000000 ) ) ;
#843 = VECTOR ( 'NONE', #912, 39.37007874015748100 ) ;
#844 = DIRECTION ( 'NONE',  ( 2.134256245050206400E-016, -1.000000000000000000, 0.0000000000000000000 ) ) ;
#845 = VERTEX_POINT ( 'NONE', #110 ) ;
#846 = UNCERTAINTY_MEASURE_WITH_UNIT (LENGTH_MEASURE( 1.000000000000000100E-005 ), #510, 'distance_accuracy_value', 'NONE');
#847 = ORIENTED_EDGE ( 'NONE', *, *, #762, .F. ) ;
#848 = DIRECTION ( 'NONE',  ( 0.0000000000000000000, 0.0000000000000000000, -1.000000000000000000 ) ) ;
#849 = ORIENTED_EDGE ( 'NONE', *, *, #858, .T. ) ;
#850 = CARTESIAN_POINT ( 'NONE',  ( 0.3750000000000000600, 0.06599999999999998900, 0.0000000000000000000 ) ) ;
#851 = AXIS2_PLACEMENT_3D ( 'NONE', #27, #179, #333 ) ;
#852 = CARTESIAN_POINT ( 'NONE',  ( -0.2500000000000000000, 0.1060000000000000000, 0.0000000000000000000 ) ) ;
#853 = ADVANCED_FACE ( 'NONE', ( #163 ), #747, .T. ) ;
#854 = CARTESIAN_POINT ( 'NONE',  ( 0.3910000000000000100, 0.06600000000000003100, 0.0000000000000000000 ) ) ;
#855 = PRESENTATION_STYLE_ASSIGNMENT (( #958 ) ) ;
#856 = DIRECTION ( 'NONE',  ( 0.0000000000000000000, 0.0000000000000000000, 1.000000000000000000 ) ) ;
#857 = LINE ( 'NONE', #406, #761 ) ;
#858 = EDGE_CURVE ( 'NONE', #971, #130, #409, .T. ) ;
#859 = FACE_OUTER_BOUND ( 'NONE', #687, .T. ) ;
#860 = PRODUCT_DEFINITION_FORMATION_WITH_SPECIFIED_SOURCE ( 'ANY', '', #359, .NOT_KNOWN. ) ;
#861 = ADVANCED_FACE ( 'NONE', ( #915 ), #177, .T. ) ;
#862 = ORIENTED_EDGE ( 'NONE', *, *, #166, .F. ) ;
#863 = DIRECTION ( 'NONE',  ( 0.0000000000000000000, 0.0000000000000000000, -1.000000000000000000 ) ) ;
#864 = CARTESIAN_POINT ( 'NONE',  ( 0.3350000000000000200, 0.1060000000000000000, 0.01599999999999999300 ) ) ;
#865 = ORIENTED_EDGE ( 'NONE', *, *, #63, .F. ) ;
#866 = ORIENTED_EDGE ( 'NONE', *, *, #939, .T. ) ;
#867 = MANIFOLD_SOLID_BREP ( 'Combine1', #172 ) ;
#868 = DIRECTION ( 'NONE',  ( 0.0000000000000000000, 0.0000000000000000000, 1.000000000000000000 ) ) ;
#869 = DIRECTION ( 'NONE',  ( -1.000000000000000000, -0.0000000000000000000, -0.0000000000000000000 ) ) ;
#870 = VECTOR ( 'NONE', #147, 39.37007874015748100 ) ;
#871 = DIRECTION ( 'NONE',  ( 1.000000000000000000, -0.0000000000000000000, -0.0000000000000000000 ) ) ;
#872 = EDGE_CURVE ( 'NONE', #801, #766, #258, .T. ) ;
#873 = SURFACE_STYLE_FILL_AREA ( #533 ) ;
#874 = EDGE_LOOP ( 'NONE', ( #954, #297, #956, #726, #476 ) ) ;
#875 = CARTESIAN_POINT ( 'NONE',  ( -0.2750000000000001900, 0.1060000000000000000, 0.0000000000000000000 ) ) ;
#876 = ORIENTED_EDGE ( 'NONE', *, *, #404, .T. ) ;
#877 = CARTESIAN_POINT ( 'NONE',  ( 0.0000000000000000000, 0.1060000000000000000, 0.0000000000000000000 ) ) ;
#878 = AXIS2_PLACEMENT_3D ( 'NONE', #802, #428, #270 ) ;
#879 = CARTESIAN_POINT ( 'NONE',  ( 0.0000000000000000000, 0.1060000000000000000, -0.01599999999999999700 ) ) ;
#880 = CYLINDRICAL_SURFACE ( 'NONE', #424, 0.1060000000000000000 ) ;
#881 = FACE_OUTER_BOUND ( 'NONE', #40, .T. ) ;
#882 = CARTESIAN_POINT ( 'NONE',  ( 0.0000000000000000000, 0.0000000000000000000, 0.0000000000000000000 ) ) ;
#883 = ORIENTED_EDGE ( 'NONE', *, *, #643, .F. ) ;
#884 = AXIS2_PLACEMENT_3D ( 'NONE', #937, #959, #661 ) ;
#885 = EDGE_LOOP ( 'NONE', ( #908, #106, #204, #690 ) ) ;
#886 = EDGE_LOOP ( 'NONE', ( #534, #544, #691, #194 ) ) ;
#887 = CARTESIAN_POINT ( 'NONE',  ( 0.2500000000000000000, 0.1060000000000000000, -0.04100000000000009200 ) ) ;
#888 = DIRECTION ( 'NONE',  ( 0.0000000000000000000, 0.0000000000000000000, 1.000000000000000000 ) ) ;
#889 = EDGE_CURVE ( 'NONE', #813, #896, #58, .T. ) ;
#890 = AXIS2_PLACEMENT_3D ( 'NONE', #582, #869, #724 ) ;
#891 = COLOUR_RGB ( '',0.7921568627450980000, 0.8196078431372548800, 0.9333333333333333500 ) ;
#892 = DIRECTION ( 'NONE',  ( 0.0000000000000000000, 0.0000000000000000000, 1.000000000000000000 ) ) ;
#893 = CIRCLE ( 'NONE', #357, 0.01599999999999999300 ) ;
#894 = CARTESIAN_POINT ( 'NONE',  ( -0.2750000000000000200, 0.1060000000000000000, -0.04100000000000000200 ) ) ;
#895 = VERTEX_POINT ( 'NONE', #42 ) ;
#896 = VERTEX_POINT ( 'NONE', #711 ) ;
#897 = CARTESIAN_POINT ( 'NONE',  ( -0.3590000000000000400, 0.06599999999999998900, -1.959434878635764300E-018 ) ) ;
#898 =( GEOMETRIC_REPRESENTATION_CONTEXT ( 3 ) GLOBAL_UNCERTAINTY_ASSIGNED_CONTEXT ( ( #33 ) ) GLOBAL_UNIT_ASSIGNED_CONTEXT ( ( #50, #797, #947 ) ) REPRESENTATION_CONTEXT ( 'NONE', 'WORKASPACE' ) );
#899 = DIRECTION ( 'NONE',  ( 1.000000000000000000, 0.0000000000000000000, 0.0000000000000000000 ) ) ;
#900 = VERTEX_POINT ( 'NONE', #650 ) ;
#901 = DIRECTION ( 'NONE',  ( 0.0000000000000000000, 0.0000000000000000000, -1.000000000000000000 ) ) ;
#902 = FACE_OUTER_BOUND ( 'NONE', #886, .T. ) ;
#903 = LINE ( 'NONE', #621, #697 ) ;
#904 = ORIENTED_EDGE ( 'NONE', *, *, #549, .T. ) ;
#905 = DIRECTION ( 'NONE',  ( -1.000000000000000000, -0.0000000000000000000, -0.0000000000000000000 ) ) ;
#906 = ORIENTED_EDGE ( 'NONE', *, *, #573, .F. ) ;
#907 = EDGE_CURVE ( 'NONE', #227, #813, #485, .T. ) ;
#908 = ORIENTED_EDGE ( 'NONE', *, *, #939, .F. ) ;
#909 = AXIS2_PLACEMENT_3D ( 'NONE', #178, #566, #327 ) ;
#910 = CARTESIAN_POINT ( 'NONE',  ( 0.3750000000000002200, -1.319000000000000000, 0.0000000000000000000 ) ) ;
#911 = DIRECTION ( 'NONE',  ( 1.000000000000000000, -0.0000000000000000000, -0.0000000000000000000 ) ) ;
#912 = DIRECTION ( 'NONE',  ( 1.000000000000000000, -0.0000000000000000000, -0.0000000000000000000 ) ) ;
#913 = AXIS2_PLACEMENT_3D ( 'NONE', #852, #395, #935 ) ;
#914 = DIRECTION ( 'NONE',  ( 1.000000000000000000, 0.0000000000000000000, 0.0000000000000000000 ) ) ;
#915 = FACE_OUTER_BOUND ( 'NONE', #571, .T. ) ;
#916 = CARTESIAN_POINT ( 'NONE',  ( 0.0000000000000000000, 0.1060000000000000000, -0.01599999999999999700 ) ) ;
#917 = FACE_OUTER_BOUND ( 'NONE', #885, .T. ) ;
#918 = ORIENTED_EDGE ( 'NONE', *, *, #336, .T. ) ;
#919 = CARTESIAN_POINT ( 'NONE',  ( -0.3750000000000002200, -1.319000000000000000, 0.0000000000000000000 ) ) ;
#920 = EDGE_LOOP ( 'NONE', ( #277, #776, #972, #437 ) ) ;
#921 = EDGE_CURVE ( 'NONE', #227, #900, #829, .T. ) ;
#922 = CARTESIAN_POINT ( 'NONE',  ( -0.2999999999999999900, 0.1060000000000000000, 0.0000000000000000000 ) ) ;
#923 = ADVANCED_FACE ( 'NONE', ( #671 ), #782, .T. ) ;
#924 = CARTESIAN_POINT ( 'NONE',  ( -0.3750000000000002200, -1.319000000000000000, 0.0000000000000000000 ) ) ;
#925 = PRODUCT_DEFINITION ( 'UNKNOWN', '', #860, #805 ) ;
#926 = FACE_OUTER_BOUND ( 'NONE', #722, .T. ) ;
#927 = CARTESIAN_POINT ( 'NONE',  ( -0.3350000000000000200, 0.08999999999999999700, 1.959434878635764300E-018 ) ) ;
#928 = FACE_OUTER_BOUND ( 'NONE', #414, .T. ) ;
#929 = DIRECTION ( 'NONE',  ( 0.0000000000000000000, 0.0000000000000000000, -1.000000000000000000 ) ) ;
#930 = ORIENTED_EDGE ( 'NONE', *, *, #537, .T. ) ;
#931 = VERTEX_POINT ( 'NONE', #499 ) ;
#932 = ORIENTED_EDGE ( 'NONE', *, *, #654, .F. ) ;
#933 = ADVANCED_FACE ( 'NONE', ( #31, #634 ), #943, .T. ) ;
#934 = MECHANICAL_DESIGN_GEOMETRIC_PRESENTATION_REPRESENTATION (  '', ( #597 ), #962 ) ;
#935 = DIRECTION ( 'NONE',  ( 0.0000000000000000000, 0.0000000000000000000, 1.000000000000000000 ) ) ;
#936 = CARTESIAN_POINT ( 'NONE',  ( -0.3910000000000000100, 0.06600000000000003100, 0.0000000000000000000 ) ) ;
#937 = CARTESIAN_POINT ( 'NONE',  ( 0.0000000000000000000, 0.1060000000000000000, 0.0000000000000000000 ) ) ;
#938 = VECTOR ( 'NONE', #653, 39.37007874015748100 ) ;
#939 = EDGE_CURVE ( 'NONE', #266, #25, #302, .T. ) ;
#940 = FACE_OUTER_BOUND ( 'NONE', #72, .T. ) ;
#941 = AXIS2_PLACEMENT_3D ( 'NONE', #705, #99, #108 ) ;
#942 = CIRCLE ( 'NONE', #343, 0.01599999999999999300 ) ;
#943 = PLANE ( 'NONE',  #304 ) ;
#944 = EDGE_LOOP ( 'NONE', ( #906, #579, #264, #676, #355 ) ) ;
#945 = ORIENTED_EDGE ( 'NONE', *, *, #231, .F. ) ;
#946 = CLOSED_SHELL ( 'NONE', ( #45, #278, #632, #564, #695, #792, #439, #497 ) ) ;
#947 =( NAMED_UNIT ( * ) SI_UNIT ( $, .STERADIAN. ) SOLID_ANGLE_UNIT ( ) );
#948 = CARTESIAN_POINT ( 'NONE',  ( -0.2750000000000001900, 0.1060000000000000000, 0.01599999999999999700 ) ) ;
#949 = STYLED_ITEM ( 'NONE', ( #127 ), #867 ) ;
#950 = ADVANCED_FACE ( 'NONE', ( #7 ), #77, .T. ) ;
#951 = CARTESIAN_POINT ( 'NONE',  ( -0.2249999999999999800, 0.1060000000000000000, 0.0000000000000000000 ) ) ;
#952 = ADVANCED_FACE ( 'NONE', ( #902 ), #102, .T. ) ;
#953 = AXIS2_PLACEMENT_3D ( 'NONE', #64, #192, #739 ) ;
#954 = ORIENTED_EDGE ( 'NONE', *, *, #47, .T. ) ;
#955 = DIRECTION ( 'NONE',  ( 0.0000000000000000000, 0.0000000000000000000, 1.000000000000000000 ) ) ;
#956 = ORIENTED_EDGE ( 'NONE', *, *, #450, .F. ) ;
#957 = ADVANCED_FACE ( 'NONE', ( #422 ), #880, .T. ) ;
#958 = SURFACE_STYLE_USAGE ( .BOTH. , #520 ) ;
#959 = DIRECTION ( 'NONE',  ( 1.000000000000000000, -0.0000000000000000000, -0.0000000000000000000 ) ) ;
#960 = CIRCLE ( 'NONE', #793, 0.01599999999999999700 ) ;
#961 = FACE_OUTER_BOUND ( 'NONE', #36, .T. ) ;
#962 =( GEOMETRIC_REPRESENTATION_CONTEXT ( 3 ) GLOBAL_UNCERTAINTY_ASSIGNED_CONTEXT ( ( #220 ) ) GLOBAL_UNIT_ASSIGNED_CONTEXT ( ( #253, #698, #34 ) ) REPRESENTATION_CONTEXT ( 'NONE', 'WORKASPACE' ) );
#963 = ORIENTED_EDGE ( 'NONE', *, *, #762, .T. ) ;
#964 = CARTESIAN_POINT ( 'NONE',  ( 0.3350000000000000200, 0.1219999999999999800, 0.0000000000000000000 ) ) ;
#965 = VERTEX_POINT ( 'NONE', #887 ) ;
#966 = CARTESIAN_POINT ( 'NONE',  ( 0.2249999999999999800, 0.1060000000000000000, 0.0000000000000000000 ) ) ;
#967 = DIRECTION ( 'NONE',  ( -1.000000000000000000, 0.0000000000000000000, 0.0000000000000000000 ) ) ;
#968 = DIRECTION ( 'NONE',  ( 0.0000000000000000000, 0.0000000000000000000, -1.000000000000000000 ) ) ;
#969 = DIRECTION ( 'NONE',  ( 0.0000000000000000000, 0.0000000000000000000, -1.000000000000000000 ) ) ;
#970 = DIRECTION ( 'NONE',  ( 1.479340068771261700E-016, -1.000000000000000000, 0.0000000000000000000 ) ) ;
#971 = VERTEX_POINT ( 'NONE', #57 ) ;
#972 = ORIENTED_EDGE ( 'NONE', *, *, #247, .T. ) ;
#973 = PLANE ( 'NONE',  #613 ) ;
ENDSEC;
END-ISO-10303-21;
